<svg width="18" height="19" viewBox="0 0 18 19" fill="none" xmlns="http://www.w3.org/2000/svg">
<path fill-rule="evenodd" clip-rule="evenodd" d="M8.99961 3.52539C9.16471 3.52539 9.32304 3.59098 9.43978 3.70772C9.55652 3.82446 9.62211 3.98279 9.62211 4.14789V8.77164H14.2496C14.3314 8.77164 14.4123 8.78774 14.4878 8.81903C14.5634 8.85031 14.632 8.89616 14.6898 8.95397C14.7476 9.01177 14.7934 9.0804 14.8247 9.15592C14.856 9.23145 14.8721 9.31239 14.8721 9.39414C14.8721 9.47589 14.856 9.55684 14.8247 9.63236C14.7934 9.70789 14.7476 9.77651 14.6898 9.83431C14.632 9.89212 14.5634 9.93797 14.4878 9.96926C14.4123 10.0005 14.3314 10.0166 14.2496 10.0166H9.62211V14.6441C9.62211 14.7259 9.60601 14.8068 9.57472 14.8824C9.54344 14.9579 9.49759 15.0265 9.43978 15.0843C9.38198 15.1421 9.31335 15.188 9.23783 15.2193C9.1623 15.2505 9.08136 15.2666 8.99961 15.2666C8.91786 15.2666 8.83691 15.2505 8.76139 15.2193C8.68586 15.188 8.61724 15.1421 8.55943 15.0843C8.50163 15.0265 8.45578 14.9579 8.42449 14.8824C8.39321 14.8068 8.37711 14.7259 8.37711 14.6441V10.0166H3.75336C3.58826 10.0166 3.42993 9.95106 3.31319 9.83431C3.19644 9.71757 3.13086 9.55924 3.13086 9.39414C3.13086 9.22904 3.19644 9.07071 3.31319 8.95397C3.42993 8.83722 3.58826 8.77164 3.75336 8.77164H8.37711V4.14789C8.37711 3.98279 8.44269 3.82446 8.55943 3.70772C8.67618 3.59098 8.83451 3.52539 8.99961 3.52539Z" fill="#4F5762"/>
</svg>
