<svg width="16" height="17" viewBox="0 0 16 17" fill="none" xmlns="http://www.w3.org/2000/svg">
<g clip-path="url(#clip0_6616_13229)">
<path fill-rule="evenodd" clip-rule="evenodd" d="M12.0409 9.33358C11.6014 9.33358 11.1662 9.42014 10.7602 9.58833C10.3541 9.75651 9.98521 10.003 9.67444 10.3138C9.36367 10.6246 9.11716 10.9935 8.94897 11.3995C8.78079 11.8056 8.69422 12.2408 8.69422 12.6802C8.69422 13.1197 8.78079 13.5549 8.94897 13.961C9.11716 14.367 9.36367 14.7359 9.67444 15.0467C9.98521 15.3575 10.3541 15.604 10.7602 15.7722C11.1662 15.9403 11.6014 16.0269 12.0409 16.0269C12.9285 16.0269 13.7797 15.6743 14.4073 15.0467C15.035 14.4191 15.3876 13.5678 15.3876 12.6802C15.3876 11.7927 15.035 10.9414 14.4073 10.3138C13.7797 9.68617 12.9285 9.33358 12.0409 9.33358ZM3.34667 9.33358C2.45908 9.33358 1.60784 9.68617 0.980216 10.3138C0.352594 10.9414 0 11.7927 0 12.6802C0 13.5678 0.352594 14.4191 0.980216 15.0467C1.60784 15.6743 2.45908 16.0269 3.34667 16.0269C4.23426 16.0269 5.0855 15.6743 5.71312 15.0467C6.34074 14.4191 6.69333 13.5678 6.69333 12.6802C6.69333 11.7927 6.34074 10.9414 5.71312 10.3138C5.0855 9.68617 4.23426 9.33358 3.34667 9.33358ZM11.04 5.15135C11.04 6.03895 10.6874 6.89018 10.0598 7.51781C9.43216 8.14543 8.58092 8.49802 7.69333 8.49802C6.80574 8.49802 5.9545 8.14543 5.32688 7.51781C4.69926 6.89018 4.34667 6.03895 4.34667 5.15135C4.34667 4.26376 4.69926 3.41253 5.32688 2.7849C5.9545 2.15728 6.80574 1.80469 7.69333 1.80469C8.58092 1.80469 9.43216 2.15728 10.0598 2.7849C10.6874 3.41253 11.04 4.26376 11.04 5.15135Z" fill="#F06A6A"/>
</g>
<defs>
<clipPath id="clip0_6616_13229">
<rect width="16" height="16" fill="white" transform="translate(0 0.916016)"/>
</clipPath>
</defs>
</svg>
