<svg width="16" height="17" viewBox="0 0 16 17" fill="none" xmlns="http://www.w3.org/2000/svg">
<path d="M8.16722 2.17969C10.9293 2.17969 13.0893 4.29 14.3382 7.24074L14.4544 7.52453C14.6817 8.09632 14.8746 8.69674 15.0321 9.31821L15.1078 9.62979C15.3024 10.4677 15.4337 11.3376 15.4952 12.2201C15.5051 12.3626 15.4722 12.5048 15.4009 12.6285C14.2405 14.6428 11.6586 15.6163 8.36595 15.6517H8.17901C6.93269 15.6722 5.69663 15.4234 4.55531 14.9223C3.41399 14.4211 2.39431 13.6795 1.56595 12.7481C1.47954 12.6509 1.42119 12.5319 1.39716 12.4041C1.37313 12.2762 1.38432 12.1442 1.42953 12.0222L1.53395 11.7536L1.62237 11.5397C1.82392 11.0593 2.04788 10.5886 2.29353 10.1292C2.89816 9.01758 3.49606 8.27906 4.20848 8.03569C4.35837 7.98432 4.51248 7.95653 4.67416 7.95485C5.30995 7.95485 5.7209 8.24032 6.37943 8.92579L6.75585 9.32158L6.88637 9.45127L6.96806 9.52453L7.03037 9.57506L7.05564 9.54979C7.16786 9.42666 7.27168 9.29612 7.36637 9.15906L7.42448 9.07485C7.56174 8.87527 7.70743 8.64116 7.85985 8.37927C8.05774 8.03906 8.2548 7.6719 8.4409 7.30474L8.57564 7.0319L8.67922 6.81969C8.75728 6.65209 8.89702 6.52109 9.06931 6.45402C9.2416 6.38694 9.43314 6.38897 9.60397 6.45967C9.7748 6.53037 9.91175 6.66429 9.98625 6.8335C10.0608 7.00271 10.0671 7.19415 10.0038 7.3679L9.97016 7.4479L9.81943 7.75611L9.7209 7.95316C9.52301 8.34306 9.31416 8.73379 9.10027 9.10095C8.93185 9.39064 8.76764 9.65506 8.60848 9.88664C8.07543 10.6639 7.65943 11.074 7.08511 11.074C6.65395 11.074 6.41985 10.9814 6.01564 10.6058L5.88932 10.4845L5.75122 10.3456L5.51543 10.0997L5.35879 9.93463L5.23164 9.80579C5.21211 9.78658 5.19246 9.7675 5.17269 9.74853L5.06658 9.64748C5.03596 9.61937 5.0048 9.59185 4.97311 9.56495L4.89143 9.49927C4.83494 9.44952 4.76826 9.41273 4.69606 9.39148L4.6809 9.39063L4.67332 9.39316C4.50237 9.45211 4.24722 9.71821 3.96343 10.1367L3.8489 10.3119C3.78824 10.4075 3.72956 10.5044 3.6729 10.6024L3.55501 10.8146C3.39332 11.1119 3.23837 11.4294 3.09522 11.7494L2.93858 12.1115L2.99079 12.1637C4.33035 13.4703 6.12421 14.2068 7.99543 14.2184H8.16806C10.9175 14.2184 13.0127 13.5153 13.9786 12.189L14.046 12.093L14.0384 12.0028C13.9444 10.9561 13.7372 9.92273 13.4203 8.92074L13.3251 8.63358C12.3432 5.78642 10.5074 3.68453 8.27837 3.61716L8.16806 3.61463C5.06911 3.61463 2.98574 5.71821 1.59206 9.33421L1.45985 9.68958L1.39501 9.86979C1.32952 10.0462 1.19733 10.1899 1.02692 10.2698C0.856508 10.3497 0.661528 10.3594 0.484008 10.2969C0.306488 10.2344 0.160644 10.1046 0.0779141 9.93554C-0.00481584 9.76649 -0.0178066 9.5717 0.0417421 9.39316L0.106584 9.21042L0.240479 8.85253C1.82279 4.71779 4.32385 2.17969 8.16722 2.17969Z" fill="#1D2D35"/>
</svg>
