<svg width="17" height="17" viewBox="0 0 17 17" fill="none" xmlns="http://www.w3.org/2000/svg">
<path d="M12.1625 7.18477C12.2838 7.05911 12.351 6.89081 12.3495 6.71612C12.3479 6.54144 12.2779 6.37433 12.1543 6.2508C12.0308 6.12728 11.8637 6.05721 11.689 6.05569C11.5143 6.05417 11.346 6.12133 11.2204 6.24269L7.69392 9.76915L6.16621 8.24144C6.04055 8.12008 5.87226 8.05292 5.69757 8.05444C5.52288 8.05596 5.35578 8.12603 5.23225 8.24955C5.10872 8.37308 5.03865 8.54019 5.03713 8.71487C5.03562 8.88956 5.10277 9.05786 5.22413 9.18352L7.22288 11.1823C7.34782 11.3072 7.51726 11.3773 7.69392 11.3773C7.87059 11.3773 8.04002 11.3072 8.16496 11.1823L12.1625 7.18477Z" fill="white"/>
<path fill-rule="evenodd" clip-rule="evenodd" d="M8.69375 1.7168C5.01405 1.7168 2.03125 4.6996 2.03125 8.3793C2.03125 12.059 5.01405 15.0418 8.69375 15.0418C12.3734 15.0418 15.3562 12.059 15.3562 8.3793C15.3562 4.6996 12.3734 1.7168 8.69375 1.7168ZM3.36375 8.3793C3.36375 6.96569 3.9253 5.60999 4.92487 4.61042C5.92444 3.61085 7.28015 3.0493 8.69375 3.0493C10.1074 3.0493 11.4631 3.61085 12.4626 4.61042C13.4622 5.60999 14.0237 6.96569 14.0238 8.3793C14.0237 9.7929 13.4622 11.1486 12.4626 12.1482C11.4631 13.1477 10.1074 13.7093 8.69375 13.7093C7.28015 13.7093 5.92444 13.1477 4.92487 12.1482C3.9253 11.1486 3.36375 9.7929 3.36375 8.3793Z" fill="white"/>
</svg>
