<svg width="17" height="17" viewBox="0 0 17 17" fill="none" xmlns="http://www.w3.org/2000/svg">
<path d="M2.70412 2.63835C3.61107 1.76082 5.05849 1.77425 5.9923 2.62364C6.03048 2.65862 6.05898 2.70288 6.07503 2.75212C6.09108 2.80135 6.09414 2.8539 6.08391 2.90467C6.07368 2.95543 6.05051 3.0027 6.01664 3.04188C5.98277 3.08105 5.93936 3.11082 5.8906 3.12828C4.6311 3.59355 3.55063 4.44458 2.80326 5.56004C2.77502 5.60223 2.73654 5.63657 2.69142 5.65983C2.6463 5.6831 2.59601 5.69453 2.54527 5.69306C2.49452 5.69159 2.44498 5.67726 2.40128 5.65143C2.35758 5.62559 2.32116 5.58909 2.29541 5.54533C2.02856 5.08494 1.92374 4.54838 1.99771 4.02141C2.07169 3.49444 2.32082 3.00748 2.70412 2.63835ZM14.1216 2.61788C13.2006 1.75442 11.7532 1.79024 10.8328 2.65434C10.7954 2.68988 10.7677 2.73446 10.7525 2.78378C10.7373 2.8331 10.7351 2.88551 10.746 2.93595C10.7569 2.9864 10.7806 3.03318 10.8149 3.07179C10.8491 3.11041 10.8927 3.13955 10.9415 3.15643C12.2084 3.60225 13.3021 4.43674 14.0666 5.54085C14.0955 5.58253 14.1345 5.61621 14.1799 5.63874C14.2253 5.66126 14.2757 5.67191 14.3264 5.66967C14.3771 5.66743 14.4263 5.65239 14.4696 5.62595C14.5129 5.59951 14.5487 5.56253 14.5738 5.51847C14.8337 5.05406 14.9303 4.51594 14.8484 3.99012C14.7664 3.46431 14.5105 2.98115 14.1216 2.61788ZM8.98563 7.1002C8.98563 6.93057 8.91824 6.76788 8.79829 6.64793C8.67835 6.52799 8.51566 6.4606 8.34603 6.4606C8.1764 6.4606 8.01371 6.52799 7.89376 6.64793C7.77382 6.76788 7.70643 6.93057 7.70643 7.1002V9.3388C7.70647 9.50842 7.77388 9.67108 7.89383 9.791L9.36044 11.2026C9.48106 11.3191 9.64263 11.3836 9.81033 11.3821C9.97803 11.3807 10.1385 11.3134 10.257 11.1948C10.3756 11.0762 10.4429 10.9158 10.4443 10.7481C10.4458 10.5804 10.3813 10.4188 10.2648 10.2982L8.98563 9.074V7.1002Z" fill="white"/>
<path fill-rule="evenodd" clip-rule="evenodd" d="M2.94507 9.26284C2.94505 8.39556 3.14966 7.54052 3.54226 6.76719C3.93487 5.99387 4.50439 5.32408 5.20455 4.81227C5.9047 4.30046 6.71574 3.96107 7.57174 3.82167C8.42774 3.68228 9.30455 3.74681 10.1309 4.01004C10.9573 4.27326 11.7099 4.72774 12.3276 5.33655C12.9452 5.94536 13.4106 6.69131 13.6857 7.51378C13.9609 8.33626 14.0381 9.21204 13.9111 10.07C13.7841 10.9279 13.4564 11.7438 12.9548 12.4512L14.1605 13.6569C14.2213 13.7177 14.2696 13.79 14.3025 13.8695C14.3354 13.949 14.3524 14.0342 14.3524 14.1203C14.3524 14.2063 14.3354 14.2916 14.3025 14.3711C14.2696 14.4506 14.2213 14.5228 14.1605 14.5837C14.0996 14.6445 14.0274 14.6928 13.9479 14.7257C13.8683 14.7587 13.7831 14.7756 13.6971 14.7756C13.611 14.7756 13.5258 14.7587 13.4463 14.7257C13.3668 14.6928 13.2945 14.6445 13.2337 14.5837L12.0741 13.4234C11.0721 14.297 9.78715 14.7775 8.45779 14.7756C7.12677 14.7777 5.84029 14.2963 4.83765 13.4209L3.67614 14.5837C3.55315 14.7067 3.38635 14.7757 3.21243 14.7757C3.0385 14.7757 2.8717 14.7067 2.74872 14.5837C2.62573 14.4607 2.55664 14.2939 2.55664 14.12C2.55664 13.946 2.62573 13.7792 2.74872 13.6563L3.9582 12.4474C3.29782 11.517 2.94391 10.4038 2.94571 9.26284H2.94507ZM8.45779 5.05235C7.90045 5.04548 7.34729 5.14933 6.83039 5.35786C6.31349 5.56639 5.84313 5.87546 5.44658 6.26715C5.05003 6.65884 4.73518 7.12536 4.5203 7.63965C4.30541 8.15394 4.19476 8.70578 4.19476 9.26316C4.19476 9.82054 4.30541 10.3724 4.5203 10.8867C4.73518 11.401 5.05003 11.8675 5.44658 12.2592C5.84313 12.6509 6.31349 12.9599 6.83039 13.1685C7.34729 13.377 7.90045 13.4808 8.45779 13.474C9.56557 13.4603 10.6234 13.0107 11.4019 12.2225C12.1804 11.4343 12.617 10.371 12.617 9.26316C12.617 8.15529 12.1804 7.09204 11.4019 6.30385C10.6234 5.51565 9.56557 5.06601 8.45779 5.05235Z" fill="white"/>
</svg>
