<svg width="16" height="17" viewBox="0 0 16 17" fill="none" xmlns="http://www.w3.org/2000/svg">
<path d="M1.19641 12.5982C1.04541 12.8442 0.875739 13.1298 0.731739 13.3572C0.669777 13.4618 0.651373 13.5866 0.680486 13.7047C0.709599 13.8227 0.783902 13.9247 0.887406 13.9885L3.90841 15.8458C4.0133 15.9105 4.13954 15.9309 4.25946 15.9026C4.37937 15.8743 4.48316 15.7996 4.54807 15.6948L4.55207 15.6882C4.67307 15.4862 4.82874 15.2238 4.99807 14.9428C6.19474 12.9695 7.39841 13.2108 9.56907 14.2465L12.5644 15.6695C12.6205 15.6962 12.6814 15.7114 12.7435 15.7142C12.8056 15.717 12.8677 15.7072 12.926 15.6856C12.9842 15.664 13.0376 15.6309 13.0828 15.5883C13.1281 15.5456 13.1643 15.4944 13.1894 15.4375L14.6277 12.1875C14.6765 12.0759 14.6795 11.9496 14.6361 11.8358C14.5926 11.722 14.5062 11.6298 14.3954 11.5792C13.7634 11.2822 12.5061 10.6902 11.3744 10.1445C7.30307 8.16849 3.84307 8.29616 1.19641 12.5982ZM14.8041 4.90449C14.9551 4.65883 15.1244 4.37349 15.2684 4.14649C15.3303 4.04195 15.3487 3.91727 15.3196 3.79931C15.2905 3.68135 15.2162 3.57954 15.1127 3.51583L12.0937 1.66116C12.0409 1.62561 11.9813 1.6013 11.9187 1.58975C11.8561 1.57819 11.7917 1.57963 11.7297 1.59398C11.6676 1.60832 11.6092 1.63527 11.558 1.67315C11.5068 1.71103 11.4639 1.75902 11.4321 1.81416C11.3114 2.01582 11.1557 2.27782 10.9861 2.55849C9.79007 4.52916 8.58707 4.28816 6.41841 3.25416L3.43441 1.83982C3.32321 1.787 3.1956 1.78042 3.07957 1.82154C2.96353 1.86266 2.86853 1.94811 2.81541 2.05916L2.80974 2.07149L1.37241 5.31749C1.32364 5.42895 1.32067 5.55513 1.36414 5.66876C1.40761 5.78239 1.49403 5.87437 1.60474 5.92483C2.23641 6.22149 3.49274 6.81282 4.62374 7.35782C8.70141 9.32816 12.1591 9.19616 14.8041 4.90449Z" fill="#2684FF"/>
</svg>
