<svg width="30" height="30" viewBox="0 0 20 21" fill="none" xmlns="http://www.w3.org/2000/svg">
<path fill-rule="evenodd" clip-rule="evenodd" d="M5.83325 6.74935C5.83325 5.64428 6.27224 4.58447 7.05364 3.80307C7.83504 3.02167 8.89485 2.58268 9.99992 2.58268C11.105 2.58268 12.1648 3.02167 12.9462 3.80307C13.7276 4.58447 14.1666 5.64428 14.1666 6.74935V8.41601C14.8296 8.41601 15.4655 8.6794 15.9344 9.14825C16.4032 9.61709 16.6666 10.253 16.6666 10.916V15.226C16.6662 15.8887 16.4028 16.5242 15.9341 16.9927L14.4108 18.5177C13.9419 18.9862 13.3061 19.2494 12.6433 19.2493H7.35659C6.69389 19.249 6.05845 18.9855 5.58992 18.5168L4.06492 16.9935C3.59635 16.5246 3.33317 15.8889 3.33325 15.226V10.916C3.33325 10.253 3.59664 9.61709 4.06549 9.14825C4.53433 8.6794 5.17021 8.41601 5.83325 8.41601V6.74935ZM5.83325 10.0827C5.61224 10.0827 5.40028 10.1705 5.244 10.3268C5.08772 10.483 4.99992 10.695 4.99992 10.916V15.226C4.99997 15.447 5.08779 15.6589 5.24409 15.8152L6.76742 17.3385C6.92366 17.4948 7.13559 17.5826 7.35659 17.5827H12.6433C12.8642 17.5826 13.0762 17.4948 13.2324 17.3385L14.7558 15.8152C14.912 15.6589 14.9999 15.447 14.9999 15.226V10.916C14.9999 10.695 14.9121 10.483 14.7558 10.3268C14.5996 10.1705 14.3876 10.0827 14.1666 10.0827H5.83325ZM12.4999 8.41601H7.49992V6.74935C7.49992 6.08631 7.76331 5.45042 8.23215 4.98158C8.70099 4.51274 9.33688 4.24935 9.99992 4.24935C10.663 4.24935 11.2988 4.51274 11.7677 4.98158C12.2365 5.45042 12.4999 6.08631 12.4999 6.74935V8.41601ZM9.99992 12.5827C10.2209 12.5827 10.4329 12.6705 10.5892 12.8268C10.7455 12.983 10.8333 13.195 10.8333 13.416V15.0827C10.8333 15.3037 10.7455 15.5157 10.5892 15.6719C10.4329 15.8282 10.2209 15.916 9.99992 15.916C9.7789 15.916 9.56694 15.8282 9.41066 15.6719C9.25438 15.5157 9.16658 15.3037 9.16658 15.0827V13.416C9.16658 13.195 9.25438 12.983 9.41066 12.8268C9.56694 12.6705 9.7789 12.5827 9.99992 12.5827Z" fill="#B9BEC7"/>
</svg>
