<svg width="20" height="21" viewBox="0 0 20 21" fill="none" xmlns="http://www.w3.org/2000/svg">
<path fill-rule="evenodd" clip-rule="evenodd" d="M5.83294 3.58646C5.57436 3.58646 5.32636 3.68918 5.14351 3.87203C4.96067 4.05488 4.85794 4.30287 4.85794 4.56146V16.2281C4.85794 16.7665 5.29461 17.2031 5.83294 17.2031H14.1663C14.4249 17.2031 14.6729 17.1004 14.8557 16.9176C15.0386 16.7347 15.1413 16.4867 15.1413 16.2281V7.75146C15.1413 7.49312 15.0388 7.24479 14.8554 7.06229L11.6663 3.87229C11.5757 3.78164 11.4681 3.70973 11.3497 3.66069C11.2313 3.61164 11.1044 3.58642 10.9763 3.58646H5.83294ZM3.47461 4.56146C3.47461 3.93599 3.72308 3.33614 4.16535 2.89386C4.60762 2.45159 5.20747 2.20313 5.83294 2.20312H10.9754C11.6013 2.20312 12.2004 2.45146 12.6438 2.89396L15.8329 6.08396C16.2746 6.52646 16.5238 7.12562 16.5238 7.75146V16.2281C16.5238 16.8534 16.2754 17.4532 15.8333 17.8954C15.3912 18.3377 14.7916 18.5862 14.1663 18.5865H5.83294C5.20747 18.5865 4.60762 18.338 4.16535 17.8957C3.72308 17.4534 3.47461 16.8536 3.47461 16.2281V4.56146ZM6.80794 7.89479C6.80794 7.71135 6.88081 7.53542 7.01053 7.40571C7.14024 7.276 7.31617 7.20312 7.49961 7.20312H9.99961C10.1831 7.20312 10.359 7.276 10.4887 7.40571C10.6184 7.53542 10.6913 7.71135 10.6913 7.89479C10.6913 8.07823 10.6184 8.25416 10.4887 8.38387C10.359 8.51359 10.1831 8.58646 9.99961 8.58646H7.49961C7.31617 8.58646 7.14024 8.51359 7.01053 8.38387C6.88081 8.25416 6.80794 8.07823 6.80794 7.89479ZM6.80794 11.2281C6.80794 11.0447 6.88081 10.8688 7.01053 10.739C7.14024 10.6093 7.31617 10.5365 7.49961 10.5365H12.4996C12.6831 10.5365 12.859 10.6093 12.9887 10.739C13.1184 10.8688 13.1913 11.0447 13.1913 11.2281C13.1913 11.4116 13.1184 11.5875 12.9887 11.7172C12.859 11.8469 12.6831 11.9198 12.4996 11.9198H7.49961C7.40878 11.9198 7.31884 11.9019 7.23492 11.8671C7.151 11.8324 7.07475 11.7814 7.01053 11.7172C6.9463 11.653 6.89535 11.5767 6.86059 11.4928C6.82583 11.4089 6.80794 11.319 6.80794 11.2281ZM6.80794 14.5615C6.80794 14.378 6.88081 14.2021 7.01053 14.0724C7.14024 13.9427 7.31617 13.8698 7.49961 13.8698H12.4996C12.6831 13.8698 12.859 13.9427 12.9887 14.0724C13.1184 14.2021 13.1913 14.378 13.1913 14.5615C13.1913 14.7449 13.1184 14.9208 12.9887 15.0505C12.859 15.1803 12.6831 15.2531 12.4996 15.2531H7.49961C7.31617 15.2531 7.14024 15.1803 7.01053 15.0505C6.88081 14.9208 6.80794 14.7449 6.80794 14.5615Z" fill="#4F5762"/>
</svg>
