<svg width="17" height="17" viewBox="0 0 17 17" fill="none" xmlns="http://www.w3.org/2000/svg">
<path fill-rule="evenodd" clip-rule="evenodd" d="M6.01852 1.7168C6.19522 1.7168 6.36468 1.78699 6.48963 1.91194C6.61457 2.03688 6.68477 2.20635 6.68477 2.38305V3.0493H8.01727V2.38305C8.01727 2.20635 8.08746 2.03688 8.21241 1.91194C8.33735 1.78699 8.50681 1.7168 8.68352 1.7168C8.86022 1.7168 9.02968 1.78699 9.15463 1.91194C9.27957 2.03688 9.34977 2.20635 9.34977 2.38305V3.0493H10.6823V2.38305C10.6823 2.20635 10.7525 2.03688 10.8774 1.91194C11.0024 1.78699 11.1718 1.7168 11.3485 1.7168C11.5252 1.7168 11.6947 1.78699 11.8196 1.91194C11.9446 2.03688 12.0148 2.20635 12.0148 2.38305V3.0493C12.5449 3.0493 13.0533 3.25988 13.4281 3.63472C13.8029 4.00956 14.0135 4.51795 14.0135 5.04805V13.043C14.0135 13.5731 13.8029 14.0815 13.4281 14.4564C13.0533 14.8312 12.5449 15.0418 12.0148 15.0418H5.35227C4.82216 15.0418 4.31377 14.8312 3.93894 14.4564C3.5641 14.0815 3.35352 13.5731 3.35352 13.043V5.04805C3.35352 4.51795 3.5641 4.00956 3.93894 3.63472C4.31377 3.25988 4.82216 3.0493 5.35227 3.0493V2.38305C5.35227 2.20635 5.42246 2.03688 5.54741 1.91194C5.67235 1.78699 5.84181 1.7168 6.01852 1.7168ZM4.68602 5.04805C4.68602 4.87135 4.75621 4.70188 4.88116 4.57694C5.0061 4.45199 5.17557 4.3818 5.35227 4.3818H12.0148C12.1915 4.3818 12.3609 4.45199 12.4859 4.57694C12.6108 4.70188 12.681 4.87135 12.681 5.04805V13.043C12.681 13.2197 12.6108 13.3892 12.4859 13.5142C12.3609 13.6391 12.1915 13.7093 12.0148 13.7093H5.35227C5.17557 13.7093 5.0061 13.6391 4.88116 13.5142C4.75621 13.3892 4.68602 13.2197 4.68602 13.043V5.04805ZM8.01727 5.7143C7.84057 5.7143 7.6711 5.78449 7.54616 5.90944C7.42121 6.03438 7.35102 6.20385 7.35102 6.38055C7.35102 6.55725 7.42121 6.72671 7.54616 6.85166C7.6711 6.9766 7.84057 7.0468 8.01727 7.0468H10.6823C10.859 7.0468 11.0284 6.9766 11.1534 6.85166C11.2783 6.72671 11.3485 6.55725 11.3485 6.38055C11.3485 6.20385 11.2783 6.03438 11.1534 5.90944C11.0284 5.78449 10.859 5.7143 10.6823 5.7143H8.01727ZM11.3485 9.04555C11.3485 8.86885 11.2783 8.69938 11.1534 8.57444C11.0284 8.44949 10.859 8.3793 10.6823 8.3793H6.68477C6.50806 8.3793 6.3386 8.44949 6.21366 8.57444C6.08871 8.69938 6.01852 8.86885 6.01852 9.04555C6.01852 9.22225 6.08871 9.39171 6.21366 9.51666C6.3386 9.6416 6.50806 9.7118 6.68477 9.7118H10.6823C10.859 9.7118 11.0284 9.6416 11.1534 9.51666C11.2783 9.39171 11.3485 9.22225 11.3485 9.04555ZM10.6823 11.0443C10.859 11.0443 11.0284 11.1145 11.1534 11.2394C11.2783 11.3644 11.3485 11.5338 11.3485 11.7105C11.3485 11.8872 11.2783 12.0567 11.1534 12.1817C11.0284 12.3066 10.859 12.3768 10.6823 12.3768H6.68477C6.50806 12.3768 6.3386 12.3066 6.21366 12.1817C6.08871 12.0567 6.01852 11.8872 6.01852 11.7105C6.01852 11.5338 6.08871 11.3644 6.21366 11.2394C6.3386 11.1145 6.50806 11.0443 6.68477 11.0443H10.6823Z" fill="white"/>
</svg>
