<svg width="17" height="17" viewBox="0 0 17 17" fill="none" xmlns="http://www.w3.org/2000/svg">
<path fill-rule="evenodd" clip-rule="evenodd" d="M4.65672 3.71555C4.65672 3.53885 4.72691 3.36938 4.85186 3.24444C4.97681 3.11949 5.14627 3.0493 5.32297 3.0493H9.43506C9.61175 3.04933 9.78119 3.11955 9.9061 3.24451L12.4565 5.79491C12.5815 5.91983 12.6517 6.08927 12.6517 6.26595V13.043C12.6517 13.2197 12.5815 13.3892 12.4566 13.5142C12.3316 13.6391 12.1622 13.7093 11.9855 13.7093H5.32297C5.14627 13.7093 4.97681 13.6391 4.85186 13.5142C4.72691 13.3892 4.65672 13.2197 4.65672 13.043V3.71555ZM5.32297 1.7168C4.79287 1.7168 4.28448 1.92738 3.90964 2.30222C3.5348 2.67706 3.32422 3.18545 3.32422 3.71555V13.043C3.32422 13.5731 3.5348 14.0815 3.90964 14.4564C4.28448 14.8312 4.79287 15.0418 5.32297 15.0418H11.9855C12.5156 15.0418 13.024 14.8312 13.3988 14.4564C13.7736 14.0815 13.9842 13.5731 13.9842 13.043V6.26595C13.9839 5.73612 13.7733 5.22809 13.3986 4.8535L10.8482 2.30176C10.4733 1.92714 9.96503 1.71673 9.43506 1.7168H5.32297ZM6.65547 5.7143C6.47877 5.7143 6.3093 5.78449 6.18436 5.90944C6.05941 6.03438 5.98922 6.20385 5.98922 6.38055C5.98922 6.55725 6.05941 6.72671 6.18436 6.85166C6.3093 6.9766 6.47877 7.0468 6.65547 7.0468H8.65422C8.83092 7.0468 9.00038 6.9766 9.12533 6.85166C9.25027 6.72671 9.32047 6.55725 9.32047 6.38055C9.32047 6.20385 9.25027 6.03438 9.12533 5.90944C9.00038 5.78449 8.83092 5.7143 8.65422 5.7143H6.65547ZM6.65547 8.3793C6.47877 8.3793 6.3093 8.44949 6.18436 8.57444C6.05941 8.69938 5.98922 8.86885 5.98922 9.04555C5.98922 9.22225 6.05941 9.39171 6.18436 9.51666C6.3093 9.6416 6.47877 9.7118 6.65547 9.7118H10.653C10.8297 9.7118 10.9991 9.6416 11.1241 9.51666C11.249 9.39171 11.3192 9.22225 11.3192 9.04555C11.3192 8.86885 11.249 8.69938 11.1241 8.57444C10.9991 8.44949 10.8297 8.3793 10.653 8.3793H6.65547ZM5.98922 11.7105C5.98922 11.5338 6.05941 11.3644 6.18436 11.2394C6.3093 11.1145 6.47877 11.0443 6.65547 11.0443H10.653C10.8297 11.0443 10.9991 11.1145 11.1241 11.2394C11.249 11.3644 11.3192 11.5338 11.3192 11.7105C11.3192 11.8872 11.249 12.0567 11.1241 12.1817C10.9991 12.3066 10.8297 12.3768 10.653 12.3768H6.65547C6.47877 12.3768 6.3093 12.3066 6.18436 12.1817C6.05941 12.0567 5.98922 11.8872 5.98922 11.7105Z" fill="white"/>
</svg>
