<svg width="25" height="25" viewBox="0 0 14 14" fill="none" xmlns="http://www.w3.org/2000/svg">
<path d="M4.5625 4.41504C4.5625 4.19955 4.6481 3.99289 4.80048 3.84051C4.95285 3.68814 5.15951 3.60254 5.375 3.60254C5.59049 3.60254 5.79715 3.68814 5.94952 3.84051C6.1019 3.99289 6.1875 4.19955 6.1875 4.41504C6.1875 4.63053 6.1019 4.83719 5.94952 4.98956C5.79715 5.14194 5.59049 5.22754 5.375 5.22754C5.15951 5.22754 4.95285 5.14194 4.80048 4.98956C4.6481 4.83719 4.5625 4.63053 4.5625 4.41504ZM4.5625 7.66504C4.5625 7.44955 4.6481 7.24289 4.80048 7.09051C4.95285 6.93814 5.15951 6.85254 5.375 6.85254C5.59049 6.85254 5.79715 6.93814 5.94952 7.09051C6.1019 7.24289 6.1875 7.44955 6.1875 7.66504C6.1875 7.88053 6.1019 8.08719 5.94952 8.23956C5.79715 8.39194 5.59049 8.47754 5.375 8.47754C5.15951 8.47754 4.95285 8.39194 4.80048 8.23956C4.6481 8.08719 4.5625 7.88053 4.5625 7.66504ZM7.8125 4.41504C7.8125 4.19955 7.8981 3.99289 8.05048 3.84051C8.20285 3.68814 8.40951 3.60254 8.625 3.60254C8.84049 3.60254 9.04715 3.68814 9.19952 3.84051C9.3519 3.99289 9.4375 4.19955 9.4375 4.41504C9.4375 4.63053 9.3519 4.83719 9.19952 4.98956C9.04715 5.14194 8.84049 5.22754 8.625 5.22754C8.40951 5.22754 8.20285 5.14194 8.05048 4.98956C7.8981 4.83719 7.8125 4.63053 7.8125 4.41504ZM7.8125 7.66504C7.8125 7.44955 7.8981 7.24289 8.05048 7.09051C8.20285 6.93814 8.40951 6.85254 8.625 6.85254C8.84049 6.85254 9.04715 6.93814 9.19952 7.09051C9.3519 7.24289 9.4375 7.44955 9.4375 7.66504C9.4375 7.88053 9.3519 8.08719 9.19952 8.23956C9.04715 8.39194 8.84049 8.47754 8.625 8.47754C8.40951 8.47754 8.20285 8.39194 8.05048 8.23956C7.8981 8.08719 7.8125 7.88053 7.8125 7.66504ZM4.5625 10.915C4.5625 10.6996 4.6481 10.4929 4.80048 10.3405C4.95285 10.1881 5.15951 10.1025 5.375 10.1025C5.59049 10.1025 5.79715 10.1881 5.94952 10.3405C6.1019 10.4929 6.1875 10.6996 6.1875 10.915C6.1875 11.1305 6.1019 11.3372 5.94952 11.4896C5.79715 11.6419 5.59049 11.7275 5.375 11.7275C5.15951 11.7275 4.95285 11.6419 4.80048 11.4896C4.6481 11.3372 4.5625 11.1305 4.5625 10.915ZM7.8125 10.915C7.8125 10.6996 7.8981 10.4929 8.05048 10.3405C8.20285 10.1881 8.40951 10.1025 8.625 10.1025C8.84049 10.1025 9.04715 10.1881 9.19952 10.3405C9.3519 10.4929 9.4375 10.6996 9.4375 10.915C9.4375 11.1305 9.3519 11.3372 9.19952 11.4896C9.04715 11.6419 8.84049 11.7275 8.625 11.7275C8.40951 11.7275 8.20285 11.6419 8.05048 11.4896C7.8981 11.3372 7.8125 11.1305 7.8125 10.915Z" fill="#2A2E34"/>
</svg>
