<svg width="25" height="25" viewBox="0 0 16 17" fill="none" xmlns="http://www.w3.org/2000/svg">
<path fill-rule="evenodd" clip-rule="evenodd" d="M4.138 3.96546C4.01227 3.84402 3.84386 3.77683 3.66907 3.77835C3.49427 3.77986 3.32706 3.84998 3.20345 3.97358C3.07985 4.09719 3.00974 4.2644 3.00822 4.43919C3.0067 4.61399 3.07389 4.78239 3.19533 4.90813L9.05733 10.7701H6.66667C6.48986 10.7701 6.32029 10.8404 6.19526 10.9654C6.07024 11.0904 6 11.26 6 11.4368C6 11.6136 6.07024 11.7832 6.19526 11.9082C6.32029 12.0332 6.48986 12.1035 6.66667 12.1035H10.6667C10.8435 12.1035 11.013 12.0332 11.1381 11.9082C11.2631 11.7832 11.3333 11.6136 11.3333 11.4368V7.43679C11.3333 7.25998 11.2631 7.09041 11.1381 6.96539C11.013 6.84037 10.8435 6.77013 10.6667 6.77013C10.4899 6.77013 10.3203 6.84037 10.1953 6.96539C10.0702 7.09041 10 7.25998 10 7.43679V9.82746L4.138 3.96546ZM2.66667 13.4368C2.48986 13.4368 2.32029 13.507 2.19526 13.6321C2.07024 13.7571 2 13.9267 2 14.1035C2 14.2803 2.07024 14.4498 2.19526 14.5749C2.32029 14.6999 2.48986 14.7701 2.66667 14.7701H13.3333C13.5101 14.7701 13.6797 14.6999 13.8047 14.5749C13.9298 14.4498 14 14.2803 14 14.1035C14 13.9267 13.9298 13.7571 13.8047 13.6321C13.6797 13.507 13.5101 13.4368 13.3333 13.4368H2.66667Z" fill="#656F7D"/>
</svg>
