<svg width="14" height="15" viewBox="0 0 14 15" fill="none" xmlns="http://www.w3.org/2000/svg">
<path fill-rule="evenodd" clip-rule="evenodd" d="M6.99999 10.6875C6.8453 10.6875 6.69695 10.626 6.58758 10.5166L3.08758 7.01659C2.98132 6.90657 2.92252 6.75922 2.92385 6.60627C2.92518 6.45332 2.98653 6.30702 3.09468 6.19886C3.20284 6.09071 3.34914 6.02936 3.50209 6.02803C3.65504 6.0267 3.80239 6.0855 3.91241 6.19176L6.99999 9.27934L10.0876 6.19176C10.1414 6.13604 10.2058 6.0916 10.2769 6.06103C10.3481 6.03046 10.4246 6.01437 10.5021 6.01369C10.5795 6.01302 10.6564 6.02778 10.728 6.05711C10.7997 6.08644 10.8649 6.12976 10.9196 6.18453C10.9744 6.2393 11.0177 6.30443 11.0471 6.37612C11.0764 6.44781 11.0911 6.52462 11.0905 6.60207C11.0898 6.67953 11.0737 6.75607 11.0431 6.82724C11.0126 6.89841 10.9681 6.96278 10.9124 7.01659L7.41241 10.5166C7.30304 10.626 7.15469 10.6875 6.99999 10.6875Z" fill="#656F7D"/>
</svg>
