<svg width="16" height="17" viewBox="0 0 16 17" fill="none" xmlns="http://www.w3.org/2000/svg">
<path d="M10 1.91602H4.6665C4.48973 1.91602 4.32021 1.98624 4.19521 2.11123C4.07022 2.23622 4 2.40575 4 2.58252V5.41602L10 8.91602L13 10.182L16 8.91602V5.41602L10 1.91602Z" fill="#21A366"/>
<path d="M4 5.41602H10V8.91602H4V5.41602Z" fill="#107C41"/>
<path d="M15.3335 1.91602H10V5.41602H16V2.58252C16 2.40575 15.9298 2.23622 15.8048 2.11123C15.6798 1.98624 15.5103 1.91602 15.3335 1.91602Z" fill="#33C481"/>
<path d="M10 8.91602H4V15.2495C4 15.4263 4.07022 15.5958 4.19521 15.7208C4.32021 15.8458 4.48973 15.916 4.6665 15.916H15.3335C15.5103 15.916 15.6798 15.8458 15.8048 15.7208C15.9298 15.5958 16 15.4263 16 15.2495V12.416L10 8.91602Z" fill="#185C37"/>
<path d="M10 8.91602H16V12.416H10V8.91602Z" fill="#107C41"/>
<path opacity="0.1" d="M8.3335 4.41602H4V13.916H8.3335C8.5101 13.9155 8.67933 13.8451 8.8042 13.7202C8.92908 13.5953 8.99947 13.4261 9 13.2495V5.08252C8.99947 4.90591 8.92908 4.73669 8.8042 4.61181C8.67933 4.48693 8.5101 4.41654 8.3335 4.41602Z" fill="black"/>
<path opacity="0.2" d="M7.8335 4.91602H4V14.416H7.8335C8.0101 14.4155 8.17933 14.3451 8.3042 14.2202C8.42908 14.0953 8.49947 13.9261 8.5 13.7495V5.58252C8.49947 5.40591 8.42908 5.23669 8.3042 5.11181C8.17933 4.98693 8.0101 4.91654 7.8335 4.91602Z" fill="black"/>
<path opacity="0.2" d="M7.8335 4.91602H4V13.416H7.8335C8.0101 13.4155 8.17933 13.3451 8.3042 13.2202C8.42908 13.0953 8.49947 12.9261 8.5 12.7495V5.58252C8.49947 5.40591 8.42908 5.23669 8.3042 5.11181C8.17933 4.98693 8.0101 4.91654 7.8335 4.91602Z" fill="black"/>
<path opacity="0.2" d="M7.3335 4.91602H4V13.416H7.3335C7.5101 13.4155 7.67933 13.3451 7.8042 13.2202C7.92908 13.0953 7.99947 12.9261 8 12.7495V5.58252C7.99947 5.40591 7.92908 5.23669 7.8042 5.11181C7.67933 4.98693 7.5101 4.91654 7.3335 4.91602Z" fill="black"/>
<path d="M0.6665 4.91602H7.3335C7.51027 4.91602 7.67979 4.98624 7.80479 5.11123C7.92978 5.23622 8 5.40575 8 5.58252V12.2495C8 12.4263 7.92978 12.5958 7.80479 12.7208C7.67979 12.8458 7.51027 12.916 7.3335 12.916H0.6665C0.489733 12.916 0.320206 12.8458 0.195213 12.7208C0.0702203 12.5958 0 12.4263 0 12.2495L0 5.58252C0 5.40575 0.0702203 5.23622 0.195213 5.11123C0.320206 4.98624 0.489733 4.91602 0.6665 4.91602Z" fill="#107C41"/>
<path d="M1.7666 11.416L3.3846 8.90902L1.9026 6.41602H3.0951L3.9041 8.00952C3.9786 8.16052 4.0296 8.27302 4.0576 8.34752H4.0681C4.1216 8.22702 4.1771 8.10952 4.2356 7.99552L5.1001 6.41602H6.1946L4.6746 8.89502L6.2331 11.416H5.0681L4.1336 9.66602C4.08958 9.59147 4.05226 9.51316 4.0221 9.43202H4.0081C3.9806 9.51152 3.9446 9.58702 3.9001 9.65852L2.9386 11.416H1.7666Z" fill="white"/>
</svg>
