<svg width="20" height="20" viewBox="0 0 16 17" fill="none" xmlns="http://www.w3.org/2000/svg">
<path fill-rule="evenodd" clip-rule="evenodd" d="M6.93128 2.45782C7.24575 2.24168 7.61836 2.12598 7.99995 2.12598C8.38153 2.12598 8.75415 2.24168 9.06861 2.45782L13.0686 5.20782C13.3208 5.38118 13.5271 5.61329 13.6696 5.88414C13.8121 6.15499 13.8866 6.45644 13.8866 6.76249V12.3945C13.8866 12.6423 13.8378 12.8876 13.743 13.1165C13.6482 13.3454 13.5092 13.5534 13.334 13.7286C13.1588 13.9038 12.9508 14.0427 12.7219 14.1375C12.493 14.2324 12.2477 14.2812 11.9999 14.2812H3.99995C3.49957 14.2812 3.01969 14.0824 2.66587 13.7286C2.31205 13.3747 2.11328 12.8949 2.11328 12.3945V6.76249C2.11331 6.45644 2.18778 6.15499 2.33029 5.88414C2.4728 5.61329 2.67906 5.38118 2.93128 5.20782L6.93128 2.45782ZM8.44195 3.36982C8.3119 3.28039 8.15778 3.2325 7.99995 3.2325C7.84211 3.2325 7.68799 3.28039 7.55795 3.36982L3.55795 6.11982C3.45372 6.19151 3.36849 6.28747 3.3096 6.39943C3.25072 6.51139 3.21995 6.63599 3.21995 6.76249V12.3945C3.21995 12.8252 3.56928 13.1745 3.99995 13.1745H5.44661V11.0612C5.44661 10.384 5.71563 9.73452 6.19447 9.25568C6.67331 8.77684 7.32276 8.50782 7.99995 8.50782C8.67713 8.50782 9.32658 8.77684 9.80543 9.25568C10.2843 9.73452 10.5533 10.384 10.5533 11.0612V13.1745H11.9999C12.2068 13.1745 12.4052 13.0923 12.5515 12.946C12.6978 12.7998 12.7799 12.6014 12.7799 12.3945V6.76249C12.7799 6.50582 12.6533 6.26516 12.4419 6.11982L8.44195 3.36982ZM9.44661 13.1745V11.0612C9.44661 10.6775 9.2942 10.3095 9.0229 10.0382C8.75159 9.76691 8.38363 9.61449 7.99995 9.61449C7.61627 9.61449 7.2483 9.76691 6.977 10.0382C6.7057 10.3095 6.55328 10.6775 6.55328 11.0612V13.1745H9.44661Z" fill="#2A2E34"/>
</svg>
