<svg width="73" height="13" viewBox="0 0 73 13" fill="none" xmlns="http://www.w3.org/2000/svg">
<g clip-path="url(#clip0_6616_12540)">
<g clip-path="url(#clip1_6616_12540)">
<path d="M28.7411 2.03072C28.7411 1.4242 29.2307 0.933594 29.8334 0.933594C30.4382 0.933594 30.9295 1.4242 30.9295 2.03072C30.9295 2.63653 30.438 3.12757 29.8334 3.12757C29.2307 3.12757 28.7411 2.63653 28.7411 2.03072ZM46.0069 9.32817C46.0069 8.72136 46.4962 8.23032 47.0989 8.23032C47.7034 8.23032 48.1947 8.72136 48.1947 9.32817C48.1947 9.9334 47.7034 10.425 47.0989 10.425C46.4962 10.425 46.0069 9.9334 46.0069 9.32817ZM10.7815 8.85398C9.83907 8.85398 9.18416 8.10548 9.18416 7.03585C9.18416 5.96665 9.83907 5.21858 10.7815 5.21858C11.7293 5.21858 12.3915 5.96665 12.3915 7.03585C12.3915 8.12232 11.7432 8.85398 10.7815 8.85398ZM10.7815 3.62076C8.78773 3.62076 7.34068 5.05744 7.34068 7.03585C7.34068 9.0144 8.78773 10.4508 10.7815 10.4508C12.7828 10.4508 14.2359 9.0144 14.2359 7.03585C14.2359 5.05744 12.783 3.62076 10.7815 3.62076ZM26.6217 7.20678C26.5443 7.0609 26.4554 6.9375 26.3608 6.83943L26.3003 6.77535L26.3638 6.71459C26.4647 6.60769 26.5568 6.49284 26.6392 6.37115L28.3988 3.7554H26.2628L24.9408 5.80163C24.866 5.91122 24.7148 5.96665 24.4887 5.96665H24.1873V2.09826C24.1873 1.32455 23.7053 1.21929 23.1845 1.21929H22.2931L22.2946 10.3503H24.1873V7.61113H24.3646C24.5804 7.61113 24.7273 7.63604 24.7947 7.75325L25.8387 9.72403C26.1304 10.2588 26.421 10.35 26.9678 10.35H28.4183L27.338 8.56311L26.6217 7.20678ZM35.8101 3.60622C34.8474 3.60622 34.2331 4.0339 33.8888 4.39548L33.7739 4.51169L33.7333 4.35372C33.6322 3.96636 33.2914 3.7531 32.7784 3.7531H31.9303L31.9355 10.3478H33.8152V7.30844C33.8152 7.01123 33.854 6.75332 33.9324 6.51803C34.1417 5.80595 34.7254 5.36315 35.4549 5.36315C36.0417 5.36315 36.271 5.67275 36.271 6.4731V9.34531C36.271 10.0283 36.5869 10.3478 37.2703 10.3478H38.165L38.162 6.15357C38.162 4.48706 37.3493 3.60622 35.8105 3.60622M29.8583 3.75598H28.9673L28.9734 8.85499H28.9728V10.3494H29.9239C29.9359 10.3494 29.9455 10.3507 29.9575 10.3507L30.4004 10.3493H30.8414V10.3468H30.8444L30.8483 4.75721C30.8483 4.08271 30.5257 3.75598 29.859 3.75598M18.1652 8.85398C17.2229 8.85398 16.5667 8.10548 16.5667 7.03585C16.5667 5.96665 17.2229 5.21858 18.1652 5.21858C19.1112 5.21858 19.7752 5.96665 19.7752 7.03585C19.7752 8.12232 19.127 8.85398 18.1652 8.85398ZM18.1652 3.62076C16.1694 3.62076 14.7222 5.05744 14.7222 7.03585C14.7222 9.0144 16.1694 10.4508 18.1652 10.4508C20.1645 10.4508 21.6199 9.0144 21.6199 7.03585C21.6199 5.05744 20.1644 3.62076 18.1652 3.62076ZM58.4591 8.85398C57.5171 8.85398 56.8604 8.10548 56.8604 7.03585C56.8604 5.96665 57.5171 5.21858 58.4591 5.21858C59.4052 5.21858 60.0695 5.96665 60.0695 7.03585C60.0695 8.12232 59.421 8.85398 58.4591 8.85398ZM58.4591 3.62076C56.4637 3.62076 55.0164 5.05744 55.0164 7.03585C55.0164 9.0144 56.4636 10.4508 58.4591 10.4508C60.4585 10.4508 61.9137 9.0144 61.9137 7.03585C61.9137 5.05744 60.4585 3.62076 58.4591 3.62076ZM42.1256 8.56383C41.0978 8.56383 40.7321 7.66714 40.7321 6.82691C40.7321 6.45668 40.8257 5.25011 42.0268 5.25011C42.6238 5.25011 43.4193 5.42119 43.4193 6.88897C43.4193 8.27338 42.7152 8.56383 42.1256 8.56383ZM44.3953 3.73841C44.0386 3.73841 43.764 3.88054 43.6265 4.14017L43.5746 4.24097L43.4874 4.16551C43.184 3.90286 42.6399 3.59139 41.7565 3.59139C39.9987 3.59139 38.8153 4.91157 38.8153 6.8763C38.8153 8.83858 40.0397 10.21 41.7918 10.21C42.3902 10.21 42.8631 10.0703 43.2381 9.78667L43.3831 9.67766V9.86083C43.3831 10.7417 42.8134 11.2277 41.781 11.2277C41.2791 11.2277 40.8224 11.1054 40.5168 10.9947C40.1179 10.8743 39.8842 10.9739 39.7225 11.374L39.5733 11.7432L39.3622 12.2823L39.493 12.352C40.1539 12.7028 41.0142 12.9122 41.7918 12.9122C43.3928 12.9122 45.2622 12.0925 45.2622 9.78652L45.2689 3.73827H44.3956M3.78073 8.77838L2.25045 8.7768V6.94729C2.25045 6.55633 2.40209 6.353 2.73717 6.30621H3.78073C4.5255 6.30621 5.00674 6.77593 5.00732 7.53596C5.00674 8.31586 4.53745 8.77781 3.78073 8.77838ZM2.25045 3.8431V3.36142C2.25045 2.93994 2.42873 2.73949 2.82012 2.71386H3.60318C4.27465 2.71386 4.67684 3.11561 4.67684 3.78809C4.67684 4.30073 4.40152 4.8989 3.62781 4.8989H2.25045V3.8431ZM5.73495 5.66901L5.45847 5.51349L5.69981 5.30699C5.98061 5.06551 6.45149 4.52263 6.45149 3.58476C6.45149 2.14952 5.33837 1.22318 3.61528 1.22318H1.64911V1.2226H1.4252C1.17866 1.23143 0.944992 1.33487 0.77271 1.51144C0.600428 1.68802 0.502766 1.92416 0.5 2.17084L0.5 10.3169H1.4023C1.4046 10.3174 1.40547 10.3169 1.40619 10.3174L3.65416 10.3169C5.56949 10.3169 6.80573 9.27432 6.80573 7.65951C6.80573 6.79019 6.40613 6.04686 5.73466 5.66886M70.3108 3.62753C69.5309 3.62753 68.7769 3.99286 68.293 4.60529L68.1567 4.77809L68.0499 4.58484C67.7017 3.9498 67.1024 3.62753 66.2692 3.62753C65.3954 3.62753 64.8093 4.11497 64.5372 4.40484L64.359 4.5978L64.2905 4.34407C64.1911 3.97875 63.866 3.77758 63.3732 3.77758H62.5831L62.5755 10.3468H64.3707V7.44697C64.3707 7.19295 64.4022 6.94153 64.4658 6.67873C64.6374 5.97803 65.1083 5.22434 65.9 5.29979C66.3881 5.34659 66.6266 5.72373 66.6266 6.45251V10.3468H68.4345V7.44697C68.4345 7.12945 68.4642 6.89185 68.5357 6.65353C68.6812 5.98451 69.1729 5.29864 69.9367 5.29864C70.4894 5.29864 70.6939 5.6117 70.6939 6.45251V9.38649C70.6939 10.0502 70.9899 10.3468 71.653 10.3468H72.498L72.4996 6.15299C72.4996 4.4777 71.762 3.62753 70.3105 3.62753M53.977 8.06588C53.9717 8.0725 53.1991 8.88696 52.182 8.88696C51.2554 8.88696 50.3193 8.31845 50.3193 7.04924C50.3193 5.95341 51.045 5.18733 52.084 5.18733C52.4215 5.18733 52.8051 5.30829 52.8652 5.51162L52.8741 5.54589C53.0123 6.00697 53.4314 6.0316 53.5136 6.0316L54.4971 6.03261V5.17293C54.4971 4.03879 53.0548 3.62753 52.084 3.62753C50.0084 3.62753 48.5021 5.07271 48.5021 7.06292C48.5021 9.05227 49.992 10.4954 52.046 10.4954C53.8282 10.4954 54.7975 9.324 54.8064 9.31233L54.8583 9.24897L54.0792 7.95672L53.977 8.06588Z" fill="white"/>
</g>
</g>
<defs>
<clipPath id="clip0_6616_12540">
<rect width="72" height="12" fill="white" transform="translate(0.5 0.916016)"/>
</clipPath>
<clipPath id="clip1_6616_12540">
<rect width="72" height="11.9632" fill="white" transform="translate(0.5 0.933594)"/>
</clipPath>
</defs>
</svg>
