<svg width="20" height="21" viewBox="0 0 20 21" fill="none" xmlns="http://www.w3.org/2000/svg">
<path fill-rule="evenodd" clip-rule="evenodd" d="M4.75276 5.05747C4.95909 4.69638 5.25723 4.39627 5.61696 4.18757C5.97669 3.97888 6.38521 3.86902 6.80109 3.86914H13.1994C13.6152 3.86917 14.0235 3.97909 14.3831 4.18778C14.7427 4.39647 15.0407 4.6965 15.2469 5.05747L18.1011 10.0508C18.1607 10.1554 18.192 10.2737 18.1919 10.3941V14.5608C18.1919 15.1863 17.9435 15.7861 17.5012 16.2284C17.0589 16.6707 16.4591 16.9191 15.8336 16.9191H4.16693C3.54146 16.9191 2.94161 16.6707 2.49933 16.2284C2.05706 15.7861 1.80859 15.1863 1.80859 14.5608V10.3941C1.80873 10.2737 1.84033 10.1553 1.90026 10.0508L4.75276 5.05747ZM6.80109 5.25247C6.45109 5.25247 6.12776 5.43997 5.95443 5.74414L3.69193 9.70247H6.66693C6.75777 9.70245 6.84772 9.72032 6.93165 9.75507C7.01558 9.78981 7.09185 9.84075 7.15609 9.90497L8.62026 11.3691H11.3803L12.8444 9.90497C12.9087 9.84075 12.9849 9.78981 13.0689 9.75507C13.1528 9.72032 13.2428 9.70245 13.3336 9.70247H16.3086L14.0461 5.74414C13.9609 5.59481 13.8376 5.47068 13.6889 5.38433C13.5403 5.29798 13.3714 5.25249 13.1994 5.25247H6.80109ZM16.8086 11.0858H13.6203L12.1561 12.55C12.0918 12.6142 12.0156 12.6651 11.9317 12.6999C11.8477 12.7346 11.7578 12.7525 11.6669 12.7525H8.33359C8.24275 12.7525 8.1528 12.7346 8.06887 12.6999C7.98494 12.6651 7.90867 12.6142 7.84443 12.55L6.38026 11.0858H3.19193V14.5608C3.19193 15.0991 3.62859 15.5358 4.16693 15.5358H15.8336C16.0922 15.5358 16.3402 15.4331 16.523 15.2502C16.7059 15.0674 16.8086 14.8194 16.8086 14.5608V11.0858Z" fill="#4F5762"/>
</svg>
