<svg width="20" height="21" viewBox="0 0 20 21" fill="none" xmlns="http://www.w3.org/2000/svg">
<rect y="0.394531" width="20" height="20" rx="4" fill="#FDE5AD"/>
<path d="M14.5254 15.3945H12.6562V10.3672C12.6562 9.82422 12.6797 9.22461 12.7266 8.56836H12.6797C12.582 9.08398 12.4941 9.45508 12.416 9.68164L10.4473 15.3945H8.90039L6.89648 9.74023C6.8418 9.58789 6.75391 9.19727 6.63281 8.56836H6.58008C6.63086 9.39648 6.65625 10.123 6.65625 10.748V15.3945H4.95117V6.99219H7.72266L9.43945 11.9727C9.57617 12.3711 9.67578 12.7715 9.73828 13.1738H9.77344C9.87891 12.709 9.99023 12.3047 10.1074 11.9609L11.8242 6.99219H14.5254V15.3945Z" fill="#6C5723"/>
</svg>
