<svg width="14" height="15" viewBox="0 0 14 15" fill="none" xmlns="http://www.w3.org/2000/svg">
<path fill-rule="evenodd" clip-rule="evenodd" d="M9.38361 2.31229C9.6024 2.09357 9.89909 1.9707 10.2084 1.9707C10.5178 1.9707 10.8145 2.09357 11.0333 2.31229L11.9584 3.23745C12.1772 3.45624 12.3 3.75293 12.3 4.06229C12.3 4.37165 12.1772 4.66834 11.9584 4.88712L4.61661 12.229C4.39783 12.4477 4.10114 12.5705 3.79178 12.5705C3.48242 12.5705 3.18573 12.4477 2.96695 12.229L2.04178 11.3038C1.82306 11.085 1.7002 10.7883 1.7002 10.479C1.7002 10.1696 1.82306 9.8729 2.04178 9.65412L9.38361 2.31229ZM8.99161 4.35395L9.91678 5.27912L11.1336 4.06229L10.2084 3.13712L8.99161 4.35395ZM9.09195 6.10395L8.16678 5.17879L2.86661 10.479L3.79178 11.4041L9.09195 6.10395Z" fill="#4F5762"/>
<path d="M6.09395 3.25243C6.10362 3.27184 6.11852 3.28817 6.13696 3.29959C6.15541 3.31101 6.17667 3.31705 6.19836 3.31705C6.22005 3.31705 6.24132 3.31101 6.25976 3.29959C6.27821 3.28817 6.2931 3.27184 6.30278 3.25243L6.5822 2.69359C6.59361 2.67106 6.61204 2.65284 6.6347 2.64168L7.19295 2.36226C7.21236 2.35259 7.22869 2.33769 7.24011 2.31924C7.25152 2.3008 7.25757 2.27954 7.25757 2.25784C7.25757 2.23615 7.25152 2.21489 7.24011 2.19645C7.22869 2.178 7.21236 2.1631 7.19295 2.15343L6.63411 1.87459C6.61136 1.86328 6.59293 1.84484 6.58161 1.82209L6.30278 1.26384C6.2931 1.24443 6.27821 1.2281 6.25976 1.21668C6.24132 1.20527 6.22005 1.19922 6.19836 1.19922C6.17667 1.19922 6.15541 1.20527 6.13696 1.21668C6.11852 1.2281 6.10362 1.24443 6.09395 1.26384L5.81453 1.82209C5.80321 1.84484 5.78478 1.86328 5.76203 1.87459L5.20378 2.15343C5.18436 2.1631 5.16803 2.178 5.15662 2.19645C5.1452 2.21489 5.13915 2.23615 5.13915 2.25784C5.13915 2.27954 5.1452 2.3008 5.15662 2.31924C5.16803 2.33769 5.18436 2.35259 5.20378 2.36226L5.76261 2.64168C5.78536 2.65299 5.8038 2.67143 5.81511 2.69418L6.09395 3.25243ZM3.0402 5.38859C3.05248 5.4127 3.07123 5.43292 3.09435 5.44698C3.11747 5.46104 3.14405 5.4684 3.17111 5.46821C3.19817 5.46803 3.22465 5.46032 3.24758 5.44595C3.27051 5.43158 3.28898 5.41112 3.30095 5.38684L3.80261 4.36426C3.81663 4.33576 3.83957 4.31262 3.86795 4.29834L4.91211 3.77626C4.93651 3.76404 4.95698 3.74522 4.97122 3.72194C4.98545 3.69866 4.99286 3.67186 4.99262 3.64458C4.99238 3.61729 4.98448 3.59062 4.96984 3.5676C4.9552 3.54458 4.93439 3.52613 4.90978 3.51434L3.87028 3.01384C3.84044 2.9995 3.81637 2.97543 3.80203 2.94559L3.30153 1.90609C3.28981 1.88133 3.27135 1.86037 3.24826 1.84561C3.22518 1.83085 3.19841 1.8229 3.17101 1.82265C3.14361 1.82241 3.1167 1.82989 3.09336 1.84423C3.07002 1.85858 3.05119 1.87921 3.03903 1.90376L2.51753 2.94793C2.50326 2.9763 2.48011 2.99924 2.45161 3.01326L1.42903 3.51493C1.40476 3.52689 1.38429 3.54537 1.36992 3.5683C1.35555 3.59123 1.34784 3.6177 1.34766 3.64476C1.34748 3.67182 1.35483 3.6984 1.36889 3.72152C1.38295 3.74464 1.40317 3.76339 1.42728 3.77568L2.45336 4.29893C2.48094 4.3128 2.50341 4.33506 2.51753 4.36251L3.0402 5.38918V5.38859ZM10.9578 9.12484C10.9461 9.10008 10.9276 9.07912 10.9045 9.06436C10.8814 9.0496 10.8547 9.04165 10.8273 9.0414C10.7999 9.04116 10.773 9.04864 10.7496 9.06298C10.7263 9.07733 10.7074 9.09796 10.6953 9.12251L10.1738 10.1667C10.1595 10.1951 10.1364 10.218 10.1079 10.232L9.08528 10.7337C9.06101 10.7456 9.04054 10.7641 9.02617 10.787C9.0118 10.81 9.00409 10.8365 9.00391 10.8635C9.00373 10.8906 9.01108 10.9171 9.02514 10.9403C9.0392 10.9634 9.05942 10.9821 9.08353 10.9944L10.1096 11.5171C10.1373 11.5311 10.1597 11.5536 10.1738 11.5813L10.6964 12.6079C10.7088 12.632 10.7276 12.6522 10.7507 12.6662C10.7739 12.6802 10.8005 12.6875 10.8275 12.6873C10.8546 12.687 10.8811 12.6792 10.904 12.6648C10.9269 12.6504 10.9453 12.6299 10.9572 12.6056L11.4589 11.583C11.4729 11.5545 11.4958 11.5314 11.5242 11.5171L12.5684 10.995C12.5928 10.9828 12.6132 10.964 12.6275 10.9407C12.6417 10.9174 12.6491 10.8906 12.6489 10.8633C12.6486 10.836 12.6407 10.8094 12.6261 10.7864C12.6114 10.7633 12.5906 10.7449 12.566 10.7331L11.5265 10.2326C11.4967 10.2183 11.4726 10.1942 11.4583 10.1643L10.9578 9.12484Z" fill="#4F5762"/>
</svg>
