<svg width="18" height="19" viewBox="0 0 18 19" fill="none" xmlns="http://www.w3.org/2000/svg">
<path fill-rule="evenodd" clip-rule="evenodd" d="M3.74945 2.77246C2.99195 2.77246 2.37695 3.38746 2.37695 4.14496V7.51996C2.37695 8.27746 2.99195 8.89246 3.74945 8.89246H7.12445C7.88195 8.89246 8.49695 8.27746 8.49695 7.51996V4.14496C8.49695 3.38746 7.88195 2.77246 7.12445 2.77246H3.74945ZM3.62195 4.14496C3.62195 4.11115 3.63539 4.07872 3.6593 4.0548C3.68321 4.03089 3.71564 4.01746 3.74945 4.01746H7.12445C7.15827 4.01746 7.1907 4.03089 7.21461 4.0548C7.23852 4.07872 7.25195 4.11115 7.25195 4.14496V7.51996C7.25195 7.55378 7.23852 7.58621 7.21461 7.61012C7.1907 7.63403 7.15827 7.64746 7.12445 7.64746H3.74945C3.71564 7.64746 3.68321 7.63403 3.6593 7.61012C3.63539 7.58621 3.62195 7.55378 3.62195 7.51996V4.14496ZM10.8745 2.77246C10.117 2.77246 9.50195 3.38746 9.50195 4.14496V7.51996C9.50195 8.27746 10.117 8.89246 10.8745 8.89246H14.2495C15.007 8.89246 15.622 8.27746 15.622 7.51996V4.14496C15.622 3.38746 15.007 2.77246 14.2495 2.77246H10.8745ZM10.747 4.14496C10.747 4.11115 10.7604 4.07872 10.7843 4.0548C10.8082 4.03089 10.8406 4.01746 10.8745 4.01746H14.2495C14.2833 4.01746 14.3157 4.03089 14.3396 4.0548C14.3635 4.07872 14.377 4.11115 14.377 4.14496V7.51996C14.377 7.55378 14.3635 7.58621 14.3396 7.61012C14.3157 7.63403 14.2833 7.64746 14.2495 7.64746H10.8745C10.8406 7.64746 10.8082 7.63403 10.7843 7.61012C10.7604 7.58621 10.747 7.55378 10.747 7.51996V4.14496ZM9.50195 11.27C9.50195 10.5125 10.117 9.89746 10.8745 9.89746H14.2495C15.007 9.89746 15.622 10.5125 15.622 11.27V14.645C15.622 15.4025 15.007 16.0175 14.2495 16.0175H10.8745C10.5104 16.0175 10.1613 15.8729 9.90395 15.6155C9.64656 15.3581 9.50195 15.009 9.50195 14.645V11.27ZM10.8745 11.1425C10.8406 11.1425 10.8082 11.1559 10.7843 11.1798C10.7604 11.2037 10.747 11.2361 10.747 11.27V14.645C10.747 14.7155 10.804 14.7725 10.8745 14.7725H14.2495C14.2833 14.7725 14.3157 14.759 14.3396 14.7351C14.3635 14.7112 14.377 14.6788 14.377 14.645V11.27C14.377 11.2361 14.3635 11.2037 14.3396 11.1798C14.3157 11.1559 14.2833 11.1425 14.2495 11.1425H10.8745ZM3.74945 9.89746C2.99195 9.89746 2.37695 10.5125 2.37695 11.27V14.645C2.37695 15.4025 2.99195 16.0175 3.74945 16.0175H7.12445C7.88195 16.0175 8.49695 15.4025 8.49695 14.645V11.27C8.49695 10.5125 7.88195 9.89746 7.12445 9.89746H3.74945ZM3.62195 11.27C3.62195 11.2361 3.63539 11.2037 3.6593 11.1798C3.68321 11.1559 3.71564 11.1425 3.74945 11.1425H7.12445C7.15827 11.1425 7.1907 11.1559 7.21461 11.1798C7.23852 11.2037 7.25195 11.2361 7.25195 11.27V14.645C7.25195 14.6788 7.23852 14.7112 7.21461 14.7351C7.1907 14.759 7.15827 14.7725 7.12445 14.7725H3.74945C3.71564 14.7725 3.68321 14.759 3.6593 14.7351C3.63539 14.7112 3.62195 14.6788 3.62195 14.645V11.27Z" fill="#4F5762"/>
</svg>
