<svg width="25" height="25" viewBox="0 0 20 21" fill="none" xmlns="http://www.w3.org/2000/svg">
<path fill-rule="evenodd" clip-rule="evenodd" d="M4.16693 4.40872C3.90834 4.40872 3.66035 4.51145 3.4775 4.69429C3.29465 4.87714 3.19193 5.12514 3.19193 5.38372V15.3837C3.19193 15.9221 3.62859 16.3587 4.16693 16.3587H8.47526V4.40872H4.16693ZM9.85859 4.40872V16.3587H15.8336C16.0922 16.3587 16.3402 16.256 16.523 16.0732C16.7059 15.8903 16.8086 15.6423 16.8086 15.3837V5.38372C16.8086 5.12514 16.7059 4.87714 16.523 4.69429C16.3402 4.51145 16.0922 4.40872 15.8336 4.40872H9.85859ZM1.80859 5.38372C1.80859 4.75826 2.05706 4.1584 2.49933 3.71613C2.94161 3.27386 3.54146 3.02539 4.16693 3.02539H15.8336C16.4591 3.02539 17.0589 3.27386 17.5012 3.71613C17.9435 4.1584 18.1919 4.75826 18.1919 5.38372V15.3837C18.1919 16.0092 17.9435 16.609 17.5012 17.0513C17.0589 17.4936 16.4591 17.7421 15.8336 17.7421H4.16693C3.54146 17.7421 2.94161 17.4936 2.49933 17.0513C2.05706 16.609 1.80859 16.0092 1.80859 15.3837V5.38372ZM4.30859 7.05039C4.30859 6.86695 4.38147 6.69102 4.51118 6.56131C4.64089 6.4316 4.81682 6.35872 5.00026 6.35872H6.66693C6.85037 6.35872 7.0263 6.4316 7.15601 6.56131C7.28572 6.69102 7.35859 6.86695 7.35859 7.05039C7.35859 7.23383 7.28572 7.40976 7.15601 7.53947C7.0263 7.66919 6.85037 7.74206 6.66693 7.74206H5.00026C4.81682 7.74206 4.64089 7.66919 4.51118 7.53947C4.38147 7.40976 4.30859 7.23383 4.30859 7.05039ZM4.30859 9.13372C4.30859 8.95028 4.38147 8.77435 4.51118 8.64464C4.64089 8.51493 4.81682 8.44206 5.00026 8.44206H6.66693C6.75776 8.44206 6.8477 8.45995 6.93162 8.49471C7.01553 8.52947 7.09178 8.58041 7.15601 8.64464C7.22024 8.70887 7.27118 8.78512 7.30594 8.86903C7.3407 8.95295 7.35859 9.04289 7.35859 9.13372C7.35859 9.22455 7.3407 9.3145 7.30594 9.39841C7.27118 9.48233 7.22024 9.55858 7.15601 9.62281C7.09178 9.68703 7.01553 9.73798 6.93162 9.77274C6.8477 9.8075 6.75776 9.82539 6.66693 9.82539H5.00026C4.81682 9.82539 4.64089 9.75252 4.51118 9.62281C4.38147 9.49309 4.30859 9.31717 4.30859 9.13372ZM4.30859 11.2171C4.30859 11.0336 4.38147 10.8577 4.51118 10.728C4.64089 10.5983 4.81682 10.5254 5.00026 10.5254H6.66693C6.85037 10.5254 7.0263 10.5983 7.15601 10.728C7.28572 10.8577 7.35859 11.0336 7.35859 11.2171C7.35859 11.4005 7.28572 11.5764 7.15601 11.7061C7.0263 11.8359 6.85037 11.9087 6.66693 11.9087H5.00026C4.90943 11.9087 4.81949 11.8908 4.73557 11.8561C4.65165 11.8213 4.57541 11.7704 4.51118 11.7061C4.44695 11.6419 4.396 11.5657 4.36124 11.4817C4.32648 11.3978 4.30859 11.3079 4.30859 11.2171Z" fill="#4F5762"/>
</svg>
