<svg width="20" height="20" viewBox="0 0 16 17" fill="none" xmlns="http://www.w3.org/2000/svg">
<path fill-rule="evenodd" clip-rule="evenodd" d="M3.33301 5.43717C3.33301 5.26036 3.40325 5.09079 3.52827 4.96577C3.65329 4.84075 3.82286 4.77051 3.99967 4.77051H11.9997C12.1765 4.77051 12.3461 4.84075 12.4711 4.96577C12.5961 5.09079 12.6663 5.26036 12.6663 5.43717C12.6663 5.61399 12.5961 5.78355 12.4711 5.90858C12.3461 6.0336 12.1765 6.10384 11.9997 6.10384H3.99967C3.82286 6.10384 3.65329 6.0336 3.52827 5.90858C3.40325 5.78355 3.33301 5.61399 3.33301 5.43717ZM3.33301 8.77051C3.33301 8.5937 3.40325 8.42413 3.52827 8.2991C3.65329 8.17408 3.82286 8.10384 3.99967 8.10384H11.9997C12.1765 8.10384 12.3461 8.17408 12.4711 8.2991C12.5961 8.42413 12.6663 8.5937 12.6663 8.77051C12.6663 8.94732 12.5961 9.11689 12.4711 9.24191C12.3461 9.36694 12.1765 9.43717 11.9997 9.43717H3.99967C3.82286 9.43717 3.65329 9.36694 3.52827 9.24191C3.40325 9.11689 3.33301 8.94732 3.33301 8.77051ZM3.33301 12.1038C3.33301 11.927 3.40325 11.7575 3.52827 11.6324C3.65329 11.5074 3.82286 11.4372 3.99967 11.4372H11.9997C12.1765 11.4372 12.3461 11.5074 12.4711 11.6324C12.5961 11.7575 12.6663 11.927 12.6663 12.1038C12.6663 12.2807 12.5961 12.4502 12.4711 12.5752C12.3461 12.7003 12.1765 12.7705 11.9997 12.7705H3.99967C3.82286 12.7705 3.65329 12.7003 3.52827 12.5752C3.40325 12.4502 3.33301 12.2807 3.33301 12.1038Z" fill="#656F7D"/>
</svg>
