<svg width="17" height="17" viewBox="0 0 17 17" fill="none" xmlns="http://www.w3.org/2000/svg">
<path d="M3.93016 5.04879C4.28356 5.04879 4.62248 4.9084 4.87238 4.65851C5.12227 4.40862 5.26266 4.06969 5.26266 3.71629C5.26266 3.36289 5.12227 3.02396 4.87238 2.77407C4.62248 2.52418 4.28356 2.38379 3.93016 2.38379C3.57676 2.38379 3.23783 2.52418 2.98794 2.77407C2.73804 3.02396 2.59766 3.36289 2.59766 3.71629C2.59766 4.06969 2.73804 4.40862 2.98794 4.65851C3.23783 4.9084 3.57676 5.04879 3.93016 5.04879ZM9.92641 3.71629C9.92641 4.06969 9.78602 4.40862 9.53613 4.65851C9.28623 4.9084 8.94731 5.04879 8.59391 5.04879C8.24051 5.04879 7.90158 4.9084 7.65169 4.65851C7.40179 4.40862 7.26141 4.06969 7.26141 3.71629C7.26141 3.36289 7.40179 3.02396 7.65169 2.77407C7.90158 2.52418 8.24051 2.38379 8.59391 2.38379C8.94731 2.38379 9.28623 2.52418 9.53613 2.77407C9.78602 3.02396 9.92641 3.36289 9.92641 3.71629ZM14.5902 3.71629C14.5902 4.06969 14.4498 4.40862 14.1999 4.65851C13.95 4.9084 13.6111 5.04879 13.2577 5.04879C12.9043 5.04879 12.5653 4.9084 12.3154 4.65851C12.0655 4.40862 11.9252 4.06969 11.9252 3.71629C11.9252 3.36289 12.0655 3.02396 12.3154 2.77407C12.5653 2.52418 12.9043 2.38379 13.2577 2.38379C13.6111 2.38379 13.95 2.52418 14.1999 2.77407C14.4498 3.02396 14.5902 3.36289 14.5902 3.71629ZM14.5902 8.38004C14.5902 8.73344 14.4498 9.07237 14.1999 9.32226C13.95 9.57215 13.6111 9.71254 13.2577 9.71254C12.9043 9.71254 12.5653 9.57215 12.3154 9.32226C12.0655 9.07237 11.9252 8.73344 11.9252 8.38004C11.9252 8.02664 12.0655 7.68771 12.3154 7.43782C12.5653 7.18793 12.9043 7.04754 13.2577 7.04754C13.6111 7.04754 13.95 7.18793 14.1999 7.43782C14.4498 7.68771 14.5902 8.02664 14.5902 8.38004ZM8.59391 9.71254C8.94731 9.71254 9.28623 9.57215 9.53613 9.32226C9.78602 9.07237 9.92641 8.73344 9.92641 8.38004C9.92641 8.02664 9.78602 7.68771 9.53613 7.43782C9.28623 7.18793 8.94731 7.04754 8.59391 7.04754C8.24051 7.04754 7.90158 7.18793 7.65169 7.43782C7.40179 7.68771 7.26141 8.02664 7.26141 8.38004C7.26141 8.73344 7.40179 9.07237 7.65169 9.32226C7.90158 9.57215 8.24051 9.71254 8.59391 9.71254ZM5.26266 8.38004C5.26266 8.73344 5.12227 9.07237 4.87238 9.32226C4.62248 9.57215 4.28356 9.71254 3.93016 9.71254C3.57676 9.71254 3.23783 9.57215 2.98794 9.32226C2.73804 9.07237 2.59766 8.73344 2.59766 8.38004C2.59766 8.02664 2.73804 7.68771 2.98794 7.43782C3.23783 7.18793 3.57676 7.04754 3.93016 7.04754C4.28356 7.04754 4.62248 7.18793 4.87238 7.43782C5.12227 7.68771 5.26266 8.02664 5.26266 8.38004ZM13.2577 14.3763C13.6111 14.3763 13.95 14.2359 14.1999 13.986C14.4498 13.7361 14.5902 13.3972 14.5902 13.0438C14.5902 12.6904 14.4498 12.3515 14.1999 12.1016C13.95 11.8517 13.6111 11.7113 13.2577 11.7113C12.9043 11.7113 12.5653 11.8517 12.3154 12.1016C12.0655 12.3515 11.9252 12.6904 11.9252 13.0438C11.9252 13.3972 12.0655 13.7361 12.3154 13.986C12.5653 14.2359 12.9043 14.3763 13.2577 14.3763ZM9.92641 13.0438C9.92641 13.3972 9.78602 13.7361 9.53613 13.986C9.28623 14.2359 8.94731 14.3763 8.59391 14.3763C8.24051 14.3763 7.90158 14.2359 7.65169 13.986C7.40179 13.7361 7.26141 13.3972 7.26141 13.0438C7.26141 12.6904 7.40179 12.3515 7.65169 12.1016C7.90158 11.8517 8.24051 11.7113 8.59391 11.7113C8.94731 11.7113 9.28623 11.8517 9.53613 12.1016C9.78602 12.3515 9.92641 12.6904 9.92641 13.0438ZM3.93016 14.3763C4.28356 14.3763 4.62248 14.2359 4.87238 13.986C5.12227 13.7361 5.26266 13.3972 5.26266 13.0438C5.26266 12.6904 5.12227 12.3515 4.87238 12.1016C4.62248 11.8517 4.28356 11.7113 3.93016 11.7113C3.57676 11.7113 3.23783 11.8517 2.98794 12.1016C2.73804 12.3515 2.59766 12.6904 2.59766 13.0438C2.59766 13.3972 2.73804 13.7361 2.98794 13.986C3.23783 14.2359 3.57676 14.3763 3.93016 14.3763Z" fill="white"/>
</svg>
