<svg width="16" height="17" viewBox="0 0 16 17" fill="none" xmlns="http://www.w3.org/2000/svg">
<g clip-path="url(#clip0_6616_13211)">
<path d="M1.95724 13.6108C1.60936 13.6115 1.26751 13.5199 0.966623 13.3453C0.665734 13.1707 0.416589 12.9194 0.244644 12.617C0.0753797 12.3167 -0.00902143 11.976 0.000477754 11.6314C0.00997694 11.2868 0.113019 10.9513 0.29857 10.6608L3.82568 5.12246C4.00623 4.82485 4.26253 4.58048 4.56841 4.41432C4.87428 4.24816 5.21878 4.16616 5.56672 4.17668C5.91433 4.18499 6.2535 4.28549 6.54952 4.46791C6.84554 4.65033 7.08778 4.90812 7.25146 5.2149C7.41268 5.51945 7.48799 5.86213 7.4693 6.20621C7.45062 6.55029 7.33864 6.8828 7.14538 7.16809L3.62064 12.7065C3.4419 12.985 3.19573 13.2139 2.90495 13.372C2.61418 13.5301 2.2882 13.6122 1.95724 13.6108Z" fill="#F62B54"/>
<path d="M8.00674 13.6105C7.29563 13.6105 6.64081 13.2307 6.29711 12.6191C6.12819 12.3197 6.04396 11.9799 6.05346 11.6362C6.06296 11.2925 6.16583 10.9579 6.35103 10.6683L9.87103 5.14236C10.0489 4.84061 10.3042 4.59193 10.6106 4.42209C10.9169 4.25225 11.2631 4.16743 11.6133 4.17643C11.9636 4.1831 12.3058 4.28352 12.6041 4.46726C12.9025 4.65099 13.1462 4.91132 13.3098 5.22117C13.4703 5.5285 13.5434 5.87397 13.521 6.21995C13.4986 6.56593 13.3817 6.89913 13.183 7.18324L9.66303 12.7086C9.4849 12.9859 9.23979 13.2139 8.95032 13.3715C8.66085 13.5291 8.33634 13.6113 8.00674 13.6105Z" fill="#FFCC00"/>
<path d="M13.9224 13.6571C14.9251 13.6571 15.7381 12.8607 15.7381 11.8793C15.7381 10.8974 14.9251 10.1016 13.9224 10.1016C12.9197 10.1016 12.1067 10.8974 12.1067 11.8793C12.1067 12.8607 12.9197 13.6571 13.9224 13.6571Z" fill="#00CA72"/>
</g>
<defs>
<clipPath id="clip0_6616_13211">
<rect width="16" height="16" fill="white" transform="translate(0 0.916016)"/>
</clipPath>
</defs>
</svg>
