<svg width="20" height="21" viewBox="0 0 20 21" fill="none" xmlns="http://www.w3.org/2000/svg">
<path d="M6.25 11.6445C6.58152 11.6445 6.89946 11.5128 7.13388 11.2784C7.3683 11.044 7.5 10.7261 7.5 10.3945C7.5 10.063 7.3683 9.74507 7.13388 9.51065C6.89946 9.27623 6.58152 9.14453 6.25 9.14453C5.91848 9.14453 5.60054 9.27623 5.36612 9.51065C5.1317 9.74507 5 10.063 5 10.3945C5 10.7261 5.1317 11.044 5.36612 11.2784C5.60054 11.5128 5.91848 11.6445 6.25 11.6445ZM10 11.6445C10.3315 11.6445 10.6495 11.5128 10.8839 11.2784C11.1183 11.044 11.25 10.7261 11.25 10.3945C11.25 10.063 11.1183 9.74507 10.8839 9.51065C10.6495 9.27623 10.3315 9.14453 10 9.14453C9.66848 9.14453 9.35054 9.27623 9.11612 9.51065C8.8817 9.74507 8.75 10.063 8.75 10.3945C8.75 10.7261 8.8817 11.044 9.11612 11.2784C9.35054 11.5128 9.66848 11.6445 10 11.6445ZM15 10.3945C15 10.7261 14.8683 11.044 14.6339 11.2784C14.3995 11.5128 14.0815 11.6445 13.75 11.6445C13.4185 11.6445 13.1005 11.5128 12.8661 11.2784C12.6317 11.044 12.5 10.7261 12.5 10.3945C12.5 10.063 12.6317 9.74507 12.8661 9.51065C13.1005 9.27623 13.4185 9.14453 13.75 9.14453C14.0815 9.14453 14.3995 9.27623 14.6339 9.51065C14.8683 9.74507 15 10.063 15 10.3945Z" fill="#4F5762"/>
<path fill-rule="evenodd" clip-rule="evenodd" d="M10.0003 2.20312C5.47526 2.20312 1.80859 5.86979 1.80859 10.3948C1.80859 14.9198 5.47526 18.5865 10.0003 18.5865C14.5253 18.5865 18.1919 14.919 18.1919 10.3948C18.1919 5.87063 14.5244 2.20312 10.0003 2.20312ZM3.19193 10.3948C3.19193 9.50071 3.36803 8.61538 3.71018 7.78935C4.05233 6.96333 4.55383 6.21279 5.18604 5.58057C5.81825 4.94836 6.5688 4.44686 7.39482 4.10471C8.22085 3.76256 9.10618 3.58646 10.0003 3.58646C10.8943 3.58646 11.7797 3.76256 12.6057 4.10471C13.4317 4.44686 14.1823 4.94836 14.8145 5.58057C15.4467 6.21279 15.9482 6.96333 16.2903 7.78935C16.6325 8.61538 16.8086 9.50071 16.8086 10.3948C16.8086 12.2005 16.0913 13.9322 14.8145 15.209C13.5377 16.4858 11.8059 17.2031 10.0003 17.2031C8.19458 17.2031 6.46285 16.4858 5.18604 15.209C3.90923 13.9322 3.19193 12.2005 3.19193 10.3948Z" fill="#4F5762"/>
</svg>
