<svg width="16" height="17" viewBox="0 0 16 17" fill="none" xmlns="http://www.w3.org/2000/svg">
<g clip-path="url(#clip0_6616_13220)">
<path fill-rule="evenodd" clip-rule="evenodd" d="M9.73 1.44997L1.405 2.06297C0.734 2.12097 0.5 2.55897 0.5 3.08297V12.182C0.5 12.591 0.646 12.94 0.996 13.407L2.954 15.944C3.274 16.353 3.567 16.44 4.181 16.411L13.848 15.828C14.666 15.769 14.9 15.39 14.9 14.748V4.51197C14.9 4.18097 14.769 4.08497 14.382 3.80197C14.3596 3.786 14.3373 3.76999 14.315 3.75397L11.658 1.88797C11.015 1.42097 10.752 1.36297 9.73 1.44997ZM4.4 4.34397C3.61 4.39797 3.431 4.40997 2.983 4.04597L1.843 3.14197C1.727 3.02497 1.785 2.87897 2.077 2.84997L10.081 2.26697C10.752 2.20797 11.103 2.44197 11.366 2.64697L12.738 3.63697C12.797 3.66697 12.943 3.84097 12.768 3.84097L4.502 4.33797L4.4 4.34397ZM3.48 14.661V5.97097C3.48 5.59097 3.596 5.41697 3.947 5.38697L13.439 4.83297C13.761 4.80397 13.907 5.00797 13.907 5.38697V14.019C13.907 14.399 13.848 14.719 13.322 14.749L4.239 15.274C3.713 15.303 3.48 15.128 3.48 14.661ZM12.447 6.43697C12.505 6.69897 12.447 6.96197 12.183 6.99097L11.746 7.07897V13.494C11.366 13.699 11.016 13.815 10.723 13.815C10.256 13.815 10.139 13.669 9.789 13.232L6.926 8.74097V13.086L7.832 13.291C7.832 13.291 7.832 13.815 7.101 13.815L5.086 13.932C5.027 13.815 5.086 13.524 5.29 13.465L5.816 13.32V7.57497L5.086 7.51597C5.027 7.25297 5.173 6.87497 5.582 6.84597L7.744 6.69997L10.724 11.25V7.22397L9.964 7.13597C9.905 6.81597 10.139 6.58197 10.431 6.55297L12.447 6.43697Z" fill="#4F5762"/>
</g>
<defs>
<clipPath id="clip0_6616_13220">
<rect width="16" height="16" fill="white" transform="translate(0 0.916016)"/>
</clipPath>
</defs>
</svg>
