<svg width="17" height="17" viewBox="0 0 17 17" fill="none" xmlns="http://www.w3.org/2000/svg">
<path fill-rule="evenodd" clip-rule="evenodd" d="M8.06289 2.9116C6.64929 2.9116 5.29358 3.47315 4.29401 4.47272C3.29444 5.47229 2.73289 6.828 2.73289 8.2416C2.73289 9.65521 3.29444 11.0109 4.29401 12.0105C5.29358 13.01 6.64929 13.5716 8.06289 13.5716C9.47649 13.5716 10.8322 13.01 11.8318 12.0105C12.8313 11.0109 13.3929 9.65521 13.3929 8.2416C13.3929 6.828 12.8313 5.47229 11.8318 4.47272C10.8322 3.47315 9.47649 2.9116 8.06289 2.9116ZM1.40039 8.2416C1.40039 4.5619 4.38319 1.5791 8.06289 1.5791C11.7426 1.5791 14.7254 4.5619 14.7254 8.2416C14.7254 11.9213 11.7426 14.9041 8.06289 14.9041C4.38319 14.9041 1.40039 11.9213 1.40039 8.2416ZM8.06289 4.98431C8.23959 4.98431 8.40905 5.0545 8.534 5.17945C8.65895 5.30439 8.72914 5.47385 8.72914 5.65056V7.57535H10.8018C10.9785 7.57535 11.148 7.64555 11.273 7.77049C11.3979 7.89544 11.4681 8.0649 11.4681 8.2416C11.4681 8.4183 11.3979 8.58777 11.273 8.71271C11.148 8.83766 10.9785 8.90785 10.8018 8.90785H8.72914V10.9806C8.72914 11.1573 8.65895 11.3267 8.534 11.4517C8.40905 11.5766 8.23959 11.6468 8.06289 11.6468C7.88619 11.6468 7.71673 11.5766 7.59178 11.4517C7.46683 11.3267 7.39664 11.1573 7.39664 10.9806V8.90785H5.47184C5.29514 8.90785 5.12568 8.83766 5.00073 8.71271C4.87579 8.58777 4.80559 8.4183 4.80559 8.2416C4.80559 8.0649 4.87579 7.89544 5.00073 7.77049C5.12568 7.64555 5.29514 7.57535 5.47184 7.57535H7.39664V5.65056C7.39664 5.47385 7.46683 5.30439 7.59178 5.17945C7.71673 5.0545 7.88619 4.98431 8.06289 4.98431Z" fill="white"/>
</svg>
