<svg width="17" height="18" viewBox="0 0 17 18" fill="none" xmlns="http://www.w3.org/2000/svg">
<path fill-rule="evenodd" clip-rule="evenodd" d="M11.0762 11.9787C10.1964 12.8002 9.02915 13.2431 7.82588 13.2122C6.62262 13.1812 5.47967 12.6788 4.64327 11.8133C3.80687 10.9477 3.34396 9.78818 3.35428 8.58456C3.3646 7.38094 3.84732 6.22955 4.69843 5.37843C5.54955 4.52731 6.70095 4.0446 7.90456 4.03428C9.10818 4.02396 10.2677 4.48687 11.1333 5.32327C11.9989 6.15967 12.5012 7.30262 12.5322 8.50588C12.5631 9.70915 12.1202 10.8764 11.2987 11.7562C11.2079 11.8116 11.1316 11.8879 11.0762 11.9787ZM11.6339 13.2566C10.4505 14.1993 8.95124 14.6533 7.44371 14.5256C5.93617 14.3978 4.53469 13.698 3.52684 12.5696C2.51899 11.4412 1.98121 9.96992 2.02384 8.45758C2.06647 6.94524 2.68628 5.50656 3.75609 4.43675C4.8259 3.36694 6.26458 2.74713 7.77691 2.7045C9.28925 2.66187 10.7606 3.19966 11.8889 4.20751C13.0173 5.21535 13.7172 6.61684 13.8449 8.12437C13.9727 9.63191 13.5186 11.1312 12.5759 12.3145L15.0777 14.8156C15.1991 14.9413 15.2662 15.1096 15.2647 15.2843C15.2632 15.459 15.1931 15.6261 15.0696 15.7496C14.9461 15.8731 14.779 15.9432 14.6043 15.9447C14.4296 15.9462 14.2613 15.8791 14.1356 15.7577L11.6339 13.2566Z" fill="white" fill-opacity="0.8"/>
</svg>
