<svg width="20" height="21" viewBox="0 0 20 21" fill="none" xmlns="http://www.w3.org/2000/svg">
<path fill-rule="evenodd" clip-rule="evenodd" d="M2.64258 5.39447C2.64258 4.769 2.89104 4.16915 3.33332 3.72687C3.77559 3.2846 4.37544 3.03613 5.00091 3.03613H15.0009C15.6264 3.03613 16.2262 3.2846 16.6685 3.72687C17.1108 4.16915 17.3592 4.769 17.3592 5.39447V15.3945C17.3592 16.0199 17.1108 16.6198 16.6685 17.0621C16.2262 17.5043 15.6264 17.7528 15.0009 17.7528H5.00091C4.37544 17.7528 3.77559 17.5043 3.33332 17.0621C2.89104 16.6198 2.64258 16.0199 2.64258 15.3945V5.39447ZM5.00091 4.41947C4.74233 4.41947 4.49433 4.52219 4.31148 4.70504C4.12863 4.88788 4.02591 5.13588 4.02591 5.39447V15.3945C4.02591 15.9328 4.46258 16.3695 5.00091 16.3695H15.0009C15.2595 16.3695 15.5075 16.2667 15.6903 16.0839C15.8732 15.901 15.9759 15.6531 15.9759 15.3945V5.39447C15.9759 5.13588 15.8732 4.88788 15.6903 4.70504C15.5075 4.52219 15.2595 4.41947 15.0009 4.41947H5.00091ZM13.3342 6.36947C13.5177 6.36947 13.6936 6.44234 13.8233 6.57205C13.953 6.70176 14.0259 6.87769 14.0259 7.06113V13.7278C14.0259 13.9112 13.953 14.0872 13.8233 14.2169C13.6936 14.3466 13.5177 14.4195 13.3342 14.4195C13.1508 14.4195 12.9749 14.3466 12.8452 14.2169C12.7154 14.0872 12.6426 13.9112 12.6426 13.7278V7.06113C12.6426 6.87769 12.7154 6.70176 12.8452 6.57205C12.9749 6.44234 13.1508 6.36947 13.3342 6.36947ZM10.0009 8.4528C10.1844 8.4528 10.3603 8.52567 10.49 8.65538C10.6197 8.7851 10.6926 8.96102 10.6926 9.14447V13.7278C10.6926 13.8186 10.6747 13.9086 10.6399 13.9925C10.6052 14.0764 10.5542 14.1527 10.49 14.2169C10.4258 14.2811 10.3495 14.3321 10.2656 14.3668C10.1817 14.4016 10.0917 14.4195 10.0009 14.4195C9.91008 14.4195 9.82014 14.4016 9.73622 14.3668C9.65231 14.3321 9.57606 14.2811 9.51183 14.2169C9.4476 14.1527 9.39665 14.0764 9.36189 13.9925C9.32714 13.9086 9.30924 13.8186 9.30924 13.7278V9.14447C9.30924 8.96102 9.38212 8.7851 9.51183 8.65538C9.64154 8.52567 9.81747 8.4528 10.0009 8.4528ZM6.66758 10.5361C6.85102 10.5361 7.02695 10.609 7.15666 10.7387C7.28637 10.8684 7.35924 11.0444 7.35924 11.2278V13.7278C7.35924 13.9112 7.28637 14.0872 7.15666 14.2169C7.02695 14.3466 6.85102 14.4195 6.66758 14.4195C6.48414 14.4195 6.30821 14.3466 6.1785 14.2169C6.04878 14.0872 5.97591 13.9112 5.97591 13.7278V11.2278C5.97591 11.0444 6.04878 10.8684 6.1785 10.7387C6.30821 10.609 6.48414 10.5361 6.66758 10.5361Z" fill="#4F5762"/>
</svg>
