<svg width="18" height="19" viewBox="0 0 18 19" fill="none" xmlns="http://www.w3.org/2000/svg">
<path fill-rule="evenodd" clip-rule="evenodd" d="M9 2.76228C8.76787 2.76248 8.54533 2.85488 8.38133 3.01917C8.21732 3.18345 8.1253 3.40615 8.1255 3.63828C8.1257 3.87041 8.2181 4.09296 8.38239 4.25696C8.54667 4.42096 8.76937 4.51298 9.0015 4.51278C9.23363 4.51258 9.45618 4.42018 9.62018 4.2559C9.78418 4.09161 9.8762 3.86891 9.876 3.63678C9.8758 3.40465 9.7834 3.18211 9.61912 3.01811C9.45483 2.85411 9.23213 2.76208 9 2.76228ZM6.885 3.63828C6.8846 3.07688 7.10718 2.53831 7.5038 2.14098C7.90042 1.74366 8.4386 1.52013 9 1.51953C9.50749 1.51967 9.99807 1.70196 10.3825 2.03324C10.767 2.36453 11.0197 2.82279 11.0948 3.32469C11.1699 3.82659 11.0624 4.33877 10.7918 4.76809C10.5212 5.1974 10.1055 5.51533 9.62025 5.66403V7.97478C10.0705 8.11373 10.4616 8.39874 10.7318 8.78478L12.9255 8.07078V8.03253C12.9251 7.47113 13.1477 6.93256 13.5443 6.53523C13.9409 6.13791 14.4791 5.91438 15.0405 5.91378C15.3185 5.91398 15.5938 5.96894 15.8506 6.07552C16.1074 6.18211 16.3407 6.33823 16.5372 6.53497C16.7336 6.73171 16.8894 6.96523 16.9957 7.22218C17.1019 7.47913 17.1564 7.75449 17.1562 8.03253C17.1564 8.5938 16.9338 9.13218 16.5372 9.52934C16.1406 9.9265 15.6025 10.1499 15.0413 10.1505C14.7017 10.1509 14.3672 10.0695 14.0658 9.91305C13.7645 9.75664 13.5053 9.5299 13.3102 9.25203L11.115 9.96603V10.0005C11.115 10.479 10.9575 10.92 10.6905 11.274L12.0503 13.1475C12.3691 13.0383 12.7095 13.0067 13.043 13.0555C13.3765 13.1043 13.6935 13.232 13.9677 13.428C14.2419 13.6241 14.4654 13.8827 14.6195 14.1825C14.7736 14.4822 14.8539 14.8145 14.8538 15.1515C14.8539 15.7129 14.6312 16.2514 14.2344 16.6486C13.8377 17.0458 13.2994 17.2691 12.738 17.2695C12.3445 17.2695 11.9588 17.1598 11.6241 16.9527C11.2895 16.7457 11.0192 16.4494 10.8435 16.0973C10.6679 15.7452 10.5939 15.351 10.6298 14.9592C10.6657 14.5673 10.8101 14.1932 11.0468 13.8788L9.687 12.0053C9.24183 12.1586 8.75817 12.1586 8.313 12.0053L6.9525 13.8788C7.18916 14.1931 7.33355 14.5672 7.36947 14.959C7.4054 15.3508 7.33144 15.7448 7.15588 16.097C6.98033 16.4491 6.71013 16.7453 6.3756 16.9524C6.04108 17.1596 5.65545 17.2694 5.262 17.2695C4.7006 17.2689 4.16242 17.0454 3.7658 16.6481C3.36918 16.2508 3.1466 15.7122 3.147 15.1508C3.14699 14.8139 3.22739 14.4818 3.3815 14.1822C3.53562 13.8826 3.75901 13.6241 4.0331 13.4282C4.3072 13.2323 4.62409 13.1047 4.95744 13.0558C5.2908 13.007 5.63099 13.0385 5.94975 13.1475L7.3095 11.274C7.02578 10.8977 6.87609 10.4373 6.88425 9.96603L4.68975 9.25203C4.4948 9.52984 4.23575 9.75656 3.93455 9.91296C3.63335 10.0694 3.29889 10.1509 2.9595 10.1505C2.3981 10.1501 1.85984 9.92679 1.46308 9.52961C1.06632 9.13243 0.843552 8.59393 0.843751 8.03253C0.843352 7.47113 1.06593 6.93256 1.46255 6.53523C1.85917 6.13791 2.39735 5.91438 2.95875 5.91378C3.24004 5.91393 3.51848 5.97013 3.77781 6.0791C4.03714 6.18807 4.27215 6.34762 4.46913 6.54843C4.6661 6.74925 4.82109 6.9873 4.92503 7.24868C5.02897 7.51006 5.07978 7.78954 5.0745 8.07078L7.26825 8.78403C7.53854 8.39827 7.92962 8.11353 8.37975 7.97478V5.66403C7.9466 5.53072 7.5676 5.26202 7.29843 4.89741C7.02926 4.5328 6.88409 4.09149 6.88425 3.63828H6.885ZM2.9595 7.15578C2.84451 7.15583 2.73066 7.17853 2.62444 7.22258C2.51823 7.26663 2.42172 7.33117 2.34045 7.41251C2.25918 7.49385 2.19472 7.59041 2.15076 7.69667C2.1068 7.80292 2.0842 7.91679 2.08425 8.03178C2.0843 8.14677 2.107 8.26062 2.15105 8.36684C2.1951 8.47306 2.25964 8.56956 2.34098 8.65083C2.42232 8.73211 2.51888 8.79656 2.62513 8.84052C2.73139 8.88448 2.84526 8.90708 2.96025 8.90703C3.07519 8.90698 3.18899 8.88429 3.29517 8.84026C3.40134 8.79623 3.4978 8.73172 3.57904 8.65041C3.66028 8.5691 3.7247 8.47259 3.76864 8.36638C3.81258 8.26017 3.83517 8.14635 3.83513 8.03141C3.83508 7.91647 3.81239 7.80266 3.76836 7.69649C3.72433 7.59032 3.65981 7.49386 3.57851 7.41262C3.4972 7.33138 3.40068 7.26695 3.29447 7.22301C3.18826 7.17907 3.07444 7.15573 2.9595 7.15578ZM15.0405 7.15578C14.9255 7.15588 14.8117 7.17863 14.7055 7.22272C14.5993 7.26682 14.5028 7.3314 14.4216 7.41278C14.3403 7.49416 14.2759 7.59074 14.232 7.69701C14.1881 7.80329 14.1655 7.91717 14.1656 8.03216C14.1657 8.14715 14.1885 8.26099 14.2326 8.36719C14.2767 8.47338 14.3412 8.56986 14.4226 8.6511C14.504 8.73234 14.6006 8.79675 14.7069 8.84066C14.8131 8.88458 14.927 8.90713 15.042 8.90703C15.1569 8.90693 15.2707 8.8842 15.3769 8.84012C15.483 8.79604 15.5795 8.73149 15.6607 8.65015C15.7419 8.5688 15.8063 8.47226 15.8502 8.36603C15.8941 8.2598 15.9166 8.14597 15.9165 8.03103C15.9164 7.91609 15.8937 7.8023 15.8496 7.69614C15.8055 7.58999 15.741 7.49356 15.6596 7.41236C15.5783 7.33115 15.4817 7.26676 15.3755 7.22287C15.2693 7.17897 15.1554 7.15568 15.0405 7.15578ZM9 9.12603C8.88506 9.12608 8.77126 9.14877 8.66509 9.1928C8.55891 9.23683 8.46245 9.30134 8.38122 9.38265C8.21714 9.54686 8.12503 9.76953 8.12513 10.0017C8.12523 10.2338 8.21753 10.4564 8.38175 10.6204C8.54596 10.7845 8.76862 10.8766 9.00075 10.8765C9.23298 10.8764 9.45566 10.7841 9.6198 10.6198C9.78394 10.4555 9.8761 10.2328 9.876 10.0005C9.8759 9.7683 9.78355 9.54562 9.61927 9.38148C9.45499 9.21734 9.23223 9.12518 9 9.12528V9.12603ZM5.262 14.2763C5.02987 14.2765 4.80733 14.3689 4.64332 14.5332C4.47932 14.6974 4.3873 14.9202 4.3875 15.1523C4.3877 15.3844 4.4801 15.607 4.64439 15.771C4.80867 15.935 5.03137 16.027 5.2635 16.0268C5.37844 16.0267 5.49223 16.0039 5.59839 15.9599C5.70454 15.9158 5.80097 15.8512 5.88218 15.7699C5.96338 15.6886 6.02777 15.592 6.07166 15.4858C6.11556 15.3796 6.1381 15.2657 6.138 15.1508C6.1379 15.0358 6.11517 14.922 6.07109 14.8159C6.02701 14.7097 5.96246 14.6133 5.88111 14.5321C5.79977 14.4509 5.70323 14.3865 5.597 14.3426C5.49077 14.2987 5.37694 14.2762 5.262 14.2763ZM12.738 14.2763C12.623 14.2763 12.5092 14.299 12.403 14.343C12.2968 14.387 12.2003 14.4516 12.1191 14.5329C12.0379 14.6143 11.9735 14.7109 11.9296 14.8172C11.8858 14.9234 11.8633 15.0373 11.8635 15.1523C11.8636 15.3254 11.9151 15.4946 12.0114 15.6384C12.1077 15.7823 12.2445 15.8943 12.4045 15.9604C12.5645 16.0266 12.7405 16.0437 12.9102 16.0098C13.08 15.9759 13.2359 15.8924 13.3582 15.7699C13.4805 15.6474 13.5637 15.4914 13.5973 15.3215C13.631 15.1517 13.6135 14.9758 13.5471 14.8159C13.4807 14.656 13.3684 14.5194 13.2244 14.4234C13.0804 14.3273 12.9111 14.2761 12.738 14.2763Z" fill="#4F5762"/>
</svg>
