<svg width="30" height="30" viewBox="0 0 20 21" fill="none" xmlns="http://www.w3.org/2000/svg">
<path fill-rule="evenodd" clip-rule="evenodd" d="M5.00008 5.91602H15.0001C15.2977 5.91595 15.59 5.99561 15.8464 6.1467C16.1029 6.29778 16.3142 6.5148 16.4584 6.77518C16.3529 6.80254 16.2538 6.85039 16.1667 6.91602L10.0001 11.541L3.83341 6.91602C3.74637 6.85039 3.64727 6.80254 3.54175 6.77518C3.68596 6.5148 3.89728 6.29778 4.15373 6.1467C4.41019 5.99561 4.70243 5.91595 5.00008 5.91602ZM3.33341 8.62435V14.2493C3.33341 14.6914 3.50901 15.1153 3.82157 15.4279C4.13413 15.7404 4.55805 15.916 5.00008 15.916H15.0001C15.4421 15.916 15.866 15.7404 16.1786 15.4279C16.4912 15.1153 16.6667 14.6914 16.6667 14.2493V8.62435L10.5001 13.2493C10.3558 13.3575 10.1804 13.416 10.0001 13.416C9.81977 13.416 9.64433 13.3575 9.50008 13.2493L3.33341 8.62435ZM1.66675 7.58268C1.66675 6.69863 2.01794 5.85078 2.64306 5.22566C3.26818 4.60054 4.11603 4.24935 5.00008 4.24935H15.0001C15.8841 4.24935 16.732 4.60054 17.3571 5.22566C17.9822 5.85078 18.3334 6.69863 18.3334 7.58268V14.2493C18.3334 15.1334 17.9822 15.9812 17.3571 16.6064C16.732 17.2315 15.8841 17.5827 15.0001 17.5827H5.00008C4.11603 17.5827 3.26818 17.2315 2.64306 16.6064C2.01794 15.9812 1.66675 15.1334 1.66675 14.2493V7.58268Z" fill="#B9BEC7"/>
</svg>
