<svg width="20" height="21" viewBox="0 0 20 21" fill="none" xmlns="http://www.w3.org/2000/svg">
<g clip-path="url(#clip0_6616_15906)">
<path fill-rule="evenodd" clip-rule="evenodd" d="M9.52109 7.46426C8.31276 6.72842 6.80859 7.62259 6.80859 9.00926V13.4459C6.80859 14.8326 8.31359 15.7268 9.52109 14.9909L13.1611 12.7726C14.3136 12.0709 14.3136 10.3843 13.1611 9.68259L9.52109 7.46426ZM8.19193 9.00926C8.19193 8.66509 8.54693 8.49092 8.80026 8.64509L12.4419 10.8634C12.7086 11.0268 12.7086 11.4284 12.4419 11.5918L8.80026 13.8101C8.73768 13.8465 8.66649 13.8654 8.5941 13.865C8.52172 13.8645 8.45077 13.8446 8.38866 13.8075C8.32655 13.7703 8.27554 13.7171 8.24094 13.6536C8.20634 13.59 8.18942 13.5183 8.19193 13.4459V9.00926Z" fill="#4F5762"/>
<path fill-rule="evenodd" clip-rule="evenodd" d="M6.66693 0.536133C6.48349 0.536133 6.30756 0.609005 6.17784 0.738717C6.04813 0.86843 5.97526 1.04436 5.97526 1.2278C5.97526 1.41124 6.04813 1.58717 6.17784 1.71688C6.30756 1.84659 6.48349 1.91947 6.66693 1.91947H9.30859V3.06447C5.10859 3.41613 1.80859 6.93697 1.80859 11.2278C1.80859 15.752 5.47609 19.4195 10.0003 19.4195C14.5244 19.4195 18.1919 15.752 18.1919 11.2278C18.1919 6.93613 14.8919 3.41613 10.6919 3.06447V1.91947H13.3336C13.517 1.91947 13.693 1.84659 13.8227 1.71688C13.9524 1.58717 14.0253 1.41124 14.0253 1.2278C14.0253 1.04436 13.9524 0.86843 13.8227 0.738717C13.693 0.609005 13.517 0.536133 13.3336 0.536133H6.66693ZM3.19193 11.2278C3.19193 10.3337 3.36803 9.44839 3.71018 8.62236C4.05233 7.79634 4.55383 7.04579 5.18604 6.41358C5.81825 5.78137 6.5688 5.27987 7.39482 4.93772C8.22085 4.59557 9.10618 4.41947 10.0003 4.41947C10.8943 4.41947 11.7797 4.59557 12.6057 4.93772C13.4317 5.27987 14.1823 5.78137 14.8145 6.41358C15.4467 7.04579 15.9482 7.79634 16.2903 8.62236C16.6325 9.44839 16.8086 10.3337 16.8086 11.2278C16.8086 13.0335 16.0913 14.7652 14.8145 16.042C13.5377 17.3188 11.8059 18.0361 10.0003 18.0361C8.19458 18.0361 6.46285 17.3188 5.18604 16.042C3.90923 14.7652 3.19193 13.0335 3.19193 11.2278Z" fill="#4F5762"/>
</g>
<defs>
<clipPath id="clip0_6616_15906">
<rect width="20" height="20" fill="white" transform="translate(0 0.394531)"/>
</clipPath>
</defs>
</svg>
