<svg width="16" height="17" viewBox="0 0 16 17" fill="none" xmlns="http://www.w3.org/2000/svg">
<g clip-path="url(#clip0_6616_13150)">
<path d="M13.1934 1.38672H1.88424C1.38521 1.38796 0.906954 1.58662 0.553914 1.9393C0.200874 2.29199 0.00173895 2.77005 0 3.26907L0 14.5632C0 15.5985 0.848 16.4455 1.88424 16.4455H13.1953C14.2315 16.4455 15.0795 15.5985 15.0795 14.5632V3.26907C15.0795 2.23378 14.2315 1.38672 13.1944 1.38672H13.1934Z" fill="#E44332"/>
<path d="M3.19623 8.52151C3.45976 8.36716 9.12094 5.07681 9.25082 5.00152C9.37976 4.92622 9.38635 4.69375 9.24141 4.60999C9.06648 4.51047 8.89204 4.41008 8.71812 4.30881C8.64662 4.26945 8.56617 4.2492 8.48456 4.25002C8.40294 4.25085 8.32292 4.27272 8.25223 4.31352C8.17882 4.35587 3.34212 7.16528 3.18024 7.25752C3.08523 7.31237 2.97746 7.34124 2.86776 7.34124C2.75806 7.34124 2.6503 7.31237 2.55529 7.25752L0 5.75822V7.03257C0.621176 7.39963 2.16847 8.30787 2.54212 8.52246C2.64025 8.58427 2.75394 8.61691 2.86992 8.61658C2.9859 8.61625 3.0994 8.58295 3.19718 8.52057" fill="white"/>
<path d="M3.19623 10.9273L9.25082 7.40731C9.37976 7.33201 9.38635 7.10048 9.24141 7.01672L8.71812 6.7146C8.64654 6.67538 8.56605 6.6553 8.48444 6.65628C8.40282 6.65727 8.32284 6.67931 8.25223 6.72025C8.17882 6.7626 3.34212 9.57201 3.18024 9.66425C3.08523 9.7191 2.97746 9.74797 2.86776 9.74797C2.75806 9.74797 2.6503 9.7191 2.55529 9.66425L0 8.16495V9.43931C0.845716 9.93844 1.69309 10.4348 2.54212 10.9282C2.64016 10.9902 2.7538 11.023 2.86978 11.0228C2.98576 11.0227 3.09931 10.9895 3.19718 10.9273" fill="white"/>
<path d="M3.19623 13.4898C3.45976 13.3355 9.12094 10.0451 9.25082 9.96981C9.37976 9.89451 9.38635 9.66298 9.24141 9.57922L8.71812 9.2771C8.64654 9.23788 8.56605 9.2178 8.48444 9.21878C8.40282 9.21977 8.32284 9.24181 8.25223 9.28275C8.17882 9.3251 3.34212 12.1345 3.18024 12.2267C3.08523 12.2816 2.97746 12.3105 2.86776 12.3105C2.75806 12.3105 2.6503 12.2816 2.55529 12.2267L0 10.7275V12.0018C0.621176 12.3679 2.16847 13.2771 2.54212 13.4907C2.64016 13.5527 2.7538 13.5855 2.86978 13.5853C2.98576 13.5852 3.09931 13.552 3.19718 13.4898" fill="white"/>
</g>
<defs>
<clipPath id="clip0_6616_13150">
<rect width="16" height="16" fill="white" transform="translate(0 0.916016)"/>
</clipPath>
</defs>
</svg>
