<svg width="16" height="17" viewBox="0 0 16 17" fill="none" xmlns="http://www.w3.org/2000/svg">
<g clip-path="url(#clip0_6616_13162)">
<path fill-rule="evenodd" clip-rule="evenodd" d="M13.28 1.38672H1.79107C0.802836 1.38672 0.000953295 2.18672 1.21182e-05 3.17495V14.6479C-0.000855104 14.8837 0.044832 15.1173 0.134453 15.3353C0.224074 15.5534 0.355865 15.7516 0.522266 15.9186C0.688668 16.0856 0.886406 16.2182 1.10414 16.3086C1.32187 16.399 1.55531 16.4455 1.79107 16.4455H13.28C13.5155 16.4452 13.7487 16.3984 13.9661 16.3078C14.1835 16.2172 14.3809 16.0846 14.547 15.9176C14.7131 15.7507 14.8446 15.5526 14.9341 15.3347C15.0235 15.1168 15.0691 14.8834 15.0682 14.6479V3.17495C15.0675 2.70091 14.8789 2.2465 14.5437 1.91131C14.2085 1.57611 13.7541 1.38747 13.28 1.38672ZM6.49884 12.2328C6.49859 12.3117 6.48277 12.3897 6.45228 12.4624C6.4218 12.5351 6.37724 12.6011 6.32119 12.6566C6.26513 12.712 6.19867 12.7558 6.12562 12.7855C6.05258 12.8152 5.97439 12.8302 5.89554 12.8295H3.38448C3.22688 12.8285 3.07607 12.7652 2.96498 12.6534C2.85389 12.5416 2.79154 12.3904 2.79154 12.2328V4.76178C2.79154 4.43237 3.05601 4.16695 3.38448 4.16507H5.89554C6.05348 4.16582 6.20473 4.22895 6.31632 4.34072C6.42791 4.45249 6.49081 4.60384 6.49131 4.76178L6.49884 12.2328ZM12.2918 8.80319C12.2918 8.88219 12.2761 8.9604 12.2456 9.03329C12.2152 9.10618 12.1706 9.1723 12.1144 9.22781C12.0581 9.28332 11.9915 9.32711 11.9182 9.35665C11.8449 9.38619 11.7665 9.40089 11.6875 9.3999H9.17837C9.02026 9.3994 8.86878 9.33637 8.75698 9.22458C8.64518 9.11278 8.58216 8.96129 8.58166 8.80319V4.76178C8.58216 4.60367 8.64518 4.45219 8.75698 4.34039C8.86878 4.22859 9.02026 4.16557 9.17837 4.16507H11.6885C11.8462 4.16582 11.9973 4.22901 12.1086 4.34084C12.2199 4.45266 12.2824 4.60401 12.2824 4.76178L12.2918 8.80225V8.80319Z" fill="#2684FF"/>
</g>
<defs>
<clipPath id="clip0_6616_13162">
<rect width="16" height="16" fill="white" transform="translate(0 0.916016)"/>
</clipPath>
</defs>
</svg>
