<svg width="30" height="30" viewBox="0 0 20 21" fill="none" xmlns="http://www.w3.org/2000/svg">
<path fill-rule="evenodd" clip-rule="evenodd" d="M10.0001 4.5822C9.22657 4.5822 8.4847 4.88949 7.93772 5.43647C7.39074 5.98346 7.08345 6.72532 7.08345 7.49887C7.08345 8.27242 7.39074 9.01428 7.93772 9.56126C8.4847 10.1082 9.22657 10.4155 10.0001 10.4155C10.7737 10.4155 11.5155 10.1082 12.0625 9.56126C12.6095 9.01428 12.9168 8.27242 12.9168 7.49887C12.9168 6.72532 12.6095 5.98346 12.0625 5.43647C11.5155 4.88949 10.7737 4.5822 10.0001 4.5822ZM12.9476 11.0089C13.6677 10.404 14.1843 9.59233 14.4273 8.68389C14.6704 7.77545 14.6281 6.81424 14.3062 5.93065C13.9844 5.04705 13.3985 4.28385 12.6281 3.74456C11.8577 3.20528 10.9401 2.91602 9.9997 2.91602C9.05931 2.91602 8.14168 3.20528 7.37129 3.74456C6.6009 4.28385 6.01504 5.04705 5.69318 5.93065C5.37132 6.81424 5.32904 7.77545 5.57208 8.68389C5.81512 9.59233 6.33172 10.404 7.05178 11.0089C4.62512 12.0314 2.84595 14.2805 2.50679 16.978C2.4833 17.1952 2.54605 17.413 2.68152 17.5844C2.81699 17.7558 3.01435 17.8671 3.23111 17.8944C3.44786 17.9217 3.66667 17.8628 3.84043 17.7304C4.01418 17.598 4.12899 17.4026 4.16012 17.1864C4.52095 14.3139 6.99345 12.0822 10.0001 12.0822C13.006 12.0822 15.4793 14.3139 15.8401 17.1864C15.852 17.2964 15.8857 17.403 15.9392 17.4998C15.9928 17.5967 16.065 17.6819 16.1519 17.7506C16.2387 17.8192 16.3383 17.8698 16.4449 17.8995C16.5515 17.9292 16.663 17.9374 16.7728 17.9236C16.8826 17.9097 16.9886 17.8742 17.0845 17.8189C17.1804 17.7637 17.2643 17.6899 17.3314 17.6019C17.3985 17.5139 17.4474 17.4134 17.4752 17.3063C17.503 17.1992 17.5092 17.0876 17.4935 16.978C17.1543 14.2805 15.3751 12.0314 12.9476 11.0089Z" fill="#B9BEC7"/>
</svg>
