<svg width="22" height="22" viewBox="0 0 22 22" fill="none" xmlns="http://www.w3.org/2000/svg">
<rect x="0.488281" y="0.384766" width="20" height="20" rx="10" fill="#E040FB"/>
<g clip-path="url(#clip0_6616_14881)">
<path fill-rule="evenodd" clip-rule="evenodd" d="M21.9783 17.3798C21.9783 19.8621 19.9656 21.8748 17.4833 21.8748C15.0009 21.8748 12.9883 19.8621 12.9883 17.3798C12.9883 14.8974 15.0009 12.8848 17.4833 12.8848C19.9656 12.8848 21.9783 14.8974 21.9783 17.3798Z" fill="#323452"/>
<path d="M20.4806 17.38C20.4806 18.1749 20.1649 18.9372 19.6028 19.4993C19.0407 20.0614 18.2784 20.3771 17.4835 20.3771C16.6886 20.3771 15.9263 20.0614 15.3642 19.4993C14.8021 18.9372 14.4863 18.1749 14.4863 17.38C14.4863 16.5851 14.8021 15.8227 15.3642 15.2607C15.9263 14.6986 16.6886 14.3828 17.4835 14.3828C18.2784 14.3828 19.0407 14.6986 19.6028 15.2607C20.1649 15.8227 20.4806 16.5851 20.4806 17.38Z" fill="#33A069"/>
</g>
<path d="M13.5889 14.8848H12.6807L11.9385 12.9219H8.96973L8.27148 14.8848H7.3584L10.0439 7.88281H10.8936L13.5889 14.8848ZM11.6699 12.1846L10.5713 9.20117C10.5355 9.10352 10.4997 8.94727 10.4639 8.73242H10.4443C10.4118 8.93099 10.3743 9.08724 10.332 9.20117L9.24316 12.1846H11.6699Z" fill="white" fill-opacity="0.9"/>
<defs>
<clipPath id="clip0_6616_14881">
<rect width="8.99" height="8.99" fill="white" transform="translate(12.9883 12.8848)"/>
</clipPath>
</defs>
</svg>
