<svg width="20" height="21" viewBox="0 0 20 21" fill="none" xmlns="http://www.w3.org/2000/svg">
<path fill-rule="evenodd" clip-rule="evenodd" d="M4.62552 4.69717C4.32641 4.74997 4.03826 4.8525 3.77302 5.0005C3.53135 5.143 3.08219 5.59217 2.93969 5.83384C2.78669 6.10708 2.68342 6.40532 2.63469 6.71467C2.59052 7.0255 2.59052 14.2638 2.63469 14.5747C2.71219 15.1072 2.91885 15.5113 3.31802 15.9105C3.72302 16.3155 4.13719 16.5247 4.67469 16.5947C4.99552 16.6363 12.1722 16.6363 12.493 16.5947C12.8097 16.5488 13.1155 16.4455 13.3947 16.2888C13.6364 16.1463 14.0855 15.6972 14.228 15.4555C14.4805 15.0255 14.5655 14.6205 14.5664 13.8372L14.5672 13.3297L15.8422 13.9638C17.2747 14.6763 17.3605 14.7055 17.8047 14.6322C18.1155 14.5885 18.4024 14.4411 18.6189 14.2138C18.843 13.988 18.9764 13.7388 19.0314 13.443C19.0805 13.1755 19.0805 8.11384 19.0314 7.84634C18.9775 7.55268 18.8333 7.28319 18.6189 7.0755C18.4029 6.8495 18.118 6.70174 17.8089 6.6555C17.3697 6.5805 17.2755 6.613 15.8422 7.3255L14.5672 7.95967L14.5664 7.45217C14.5655 6.66884 14.4805 6.26384 14.228 5.83384C14.0855 5.59217 13.6364 5.143 13.3947 5.0005C13.1214 4.84751 12.8232 4.74424 12.5139 4.6955C12.2314 4.6555 4.90469 4.65634 4.62552 4.69717ZM12.5089 6.19467C12.7339 6.27884 12.948 6.493 13.0347 6.72217C13.0989 6.8905 13.1005 6.99217 13.1005 10.6447C13.1005 14.2972 13.0989 14.3988 13.0347 14.5672C12.9866 14.6857 12.9153 14.7934 12.825 14.8839C12.7347 14.9745 12.6272 15.0462 12.5089 15.0947C12.3355 15.1597 12.2439 15.1613 8.58385 15.1613C4.92385 15.1613 4.83219 15.1597 4.65885 15.0947C4.54051 15.0462 4.43304 14.9745 4.34275 14.8839C4.25245 14.7934 4.18115 14.6857 4.13302 14.5672C4.06885 14.3988 4.06719 14.2972 4.06719 10.6455C4.06719 6.98467 4.06885 6.893 4.13385 6.71967C4.23157 6.48369 4.41799 6.29548 4.65302 6.1955C4.81135 6.133 4.94552 6.13134 8.57385 6.12967C12.2455 6.128 12.3355 6.12967 12.5089 6.19467ZM17.6005 10.6447C17.6005 12.0472 17.593 13.1947 17.5839 13.1947C17.5747 13.1947 16.8922 12.8572 16.0672 12.4447L14.5672 11.6947V9.59467L16.0589 8.84634C16.5614 8.5905 17.0672 8.3405 17.5755 8.09634C17.5897 8.0955 17.6005 9.24217 17.6005 10.6447Z" fill="#4F5762"/>
</svg>
