<svg width="17" height="17" viewBox="0 0 17 17" fill="none" xmlns="http://www.w3.org/2000/svg">
<path fill-rule="evenodd" clip-rule="evenodd" d="M4.37792 3.82471C4.13878 3.86693 3.9084 3.9489 3.69635 4.06723C3.50313 4.18116 3.14403 4.54026 3.0301 4.73348C2.90778 4.95194 2.82521 5.19038 2.78625 5.4377C2.75094 5.68621 2.75094 11.4733 2.78625 11.7218C2.84821 12.1475 3.01344 12.4706 3.33257 12.7898C3.65637 13.1136 3.9875 13.2808 4.41723 13.3368C4.67374 13.3701 10.4115 13.3701 10.668 13.3368C10.9212 13.3001 11.1657 13.2175 11.3889 13.0922C11.5821 12.9783 11.9412 12.6192 12.0551 12.426C12.257 12.0822 12.325 11.7584 12.3256 11.1321L12.3263 10.7264L13.3456 11.2334C14.4909 11.8031 14.5596 11.8264 14.9147 11.7677C15.1631 11.7328 15.3925 11.615 15.5656 11.4333C15.7448 11.2527 15.8514 11.0535 15.8954 10.817C15.9347 10.6031 15.9347 6.55634 15.8954 6.34247C15.8524 6.1077 15.7371 5.89223 15.5656 5.72619C15.393 5.5455 15.1651 5.42736 14.918 5.3904C14.5669 5.33044 14.4916 5.35642 13.3456 5.92606L12.3263 6.43308L12.3256 6.02733C12.325 5.40106 12.257 5.07726 12.0551 4.73348C11.9412 4.54026 11.5821 4.18116 11.3889 4.06723C11.1704 3.94491 10.932 3.86234 10.6846 3.82338C10.4588 3.7914 4.60111 3.79207 4.37792 3.82471ZM10.6806 5.02196C10.8605 5.08925 11.0318 5.26048 11.101 5.4437C11.1524 5.57828 11.1537 5.65956 11.1537 8.57974C11.1537 11.4999 11.1524 11.5812 11.101 11.7158C11.0626 11.8105 11.0056 11.8966 10.9334 11.969C10.8612 12.0415 10.7753 12.0987 10.6806 12.1375C10.5421 12.1895 10.4688 12.1908 7.54261 12.1908C4.61644 12.1908 4.54315 12.1895 4.40457 12.1375C4.30995 12.0987 4.22403 12.0415 4.15184 11.969C4.07965 11.8966 4.02264 11.8105 3.98417 11.7158C3.93287 11.5812 3.93153 11.4999 3.93153 8.5804C3.93153 5.65357 3.93287 5.58028 3.98483 5.4417C4.06296 5.25304 4.212 5.10256 4.39991 5.02263C4.52649 4.97266 4.63376 4.97133 7.53461 4.97C10.4701 4.96866 10.5421 4.97 10.6806 5.02196ZM14.7514 8.57974C14.7514 9.70104 14.7454 10.6185 14.7381 10.6185C14.7308 10.6185 14.1851 10.3486 13.5255 10.0188L12.3263 9.41921V7.74026L13.5189 7.14197C13.9206 6.93743 14.325 6.73756 14.7314 6.54235C14.7428 6.54168 14.7514 7.45844 14.7514 8.57974Z" fill="white"/>
</svg>
