<svg width="16" height="17" viewBox="0 0 16 17" fill="none" xmlns="http://www.w3.org/2000/svg">
<g clip-path="url(#clip0_6616_13191)">
<path d="M3.65789 7.59342C4.41297 7.59342 4.76928 7.7325 5.31574 8.2808L8.24989 11.2199C8.33666 11.3079 8.35451 11.3423 8.37112 11.394C8.37974 11.4119 8.37974 11.4371 8.37974 11.4556C8.37974 11.4722 8.37974 11.4986 8.37112 11.5165C8.35389 11.5682 8.33666 11.6026 8.24989 11.69L6.24497 13.7085C6.15759 13.7946 6.12312 13.8125 6.07082 13.8297C6.05359 13.8383 6.02774 13.8383 6.01051 13.8383C5.99328 13.8383 5.96743 13.8383 5.94959 13.8297C5.89789 13.8125 5.86343 13.7953 5.77605 13.7085L0.0905088 8.01065C-0.0737989 7.8445 -0.0134912 7.5928 0.264047 7.5928H3.65789V7.59342ZM11.9385 4.0008C11.1834 4.0008 10.8277 4.1405 10.2807 4.68819L7.34774 7.6285C7.26035 7.71465 7.24312 7.74973 7.22589 7.80203C7.21728 7.81988 7.21728 7.84511 7.21728 7.86357C7.21728 7.88019 7.21728 7.90665 7.22589 7.92388C7.24312 7.97557 7.26035 8.01126 7.34774 8.09803L9.35266 10.1073C9.43943 10.194 9.47389 10.2119 9.5262 10.2291C9.54568 10.2362 9.56644 10.2392 9.58712 10.2377C9.60435 10.2377 9.6302 10.2377 9.64743 10.2291C9.69974 10.2119 9.73482 10.194 9.82159 10.1073L15.5065 4.41003C15.672 4.24388 15.6111 3.99219 15.333 3.99219H11.9385V4.0008Z" fill="#08CF65"/>
</g>
<defs>
<clipPath id="clip0_6616_13191">
<rect width="16" height="16" fill="white" transform="translate(0 0.916016)"/>
</clipPath>
</defs>
</svg>
