<svg width="17" height="17" viewBox="0 0 17 17" fill="none" xmlns="http://www.w3.org/2000/svg">
<path fill-rule="evenodd" clip-rule="evenodd" d="M10.8634 4.1043C10.3948 4.1043 9.97011 4.28564 9.65277 4.58297C9.58886 4.64285 9.51379 4.68956 9.43182 4.72043C9.34986 4.7513 9.26262 4.76572 9.17509 4.76287C9.08755 4.76002 9.00144 4.73996 8.92166 4.70383C8.84187 4.6677 8.76999 4.61621 8.71011 4.5523C8.65023 4.48839 8.60352 4.41331 8.57265 4.33135C8.54178 4.24939 8.52736 4.16215 8.53021 4.07462C8.53596 3.89783 8.6117 3.73057 8.74077 3.60964C9.33893 3.04393 10.1373 2.73901 10.9603 2.76195C11.7832 2.78489 12.5634 3.13382 13.1291 3.73197C13.6948 4.33012 13.9997 5.1285 13.9768 5.95147C13.9539 6.77444 13.6049 7.5546 13.0068 8.1203C13.7725 8.47711 14.4356 9.02189 14.9341 9.70392C15.4327 10.3859 15.7505 11.183 15.8581 12.021C15.8707 12.1086 15.8658 12.1979 15.8435 12.2836C15.8212 12.3693 15.7821 12.4497 15.7285 12.5201C15.6748 12.5905 15.6076 12.6495 15.5309 12.6937C15.4542 12.7379 15.3694 12.7663 15.2816 12.7774C15.1937 12.7885 15.1046 12.7819 15.0193 12.7582C14.934 12.7344 14.8543 12.6939 14.7848 12.639C14.7154 12.5841 14.6576 12.5159 14.6147 12.4384C14.5719 12.3609 14.545 12.2757 14.5354 12.1876C14.3088 10.383 12.7541 8.97897 10.8634 8.97897C10.6866 8.97897 10.5171 8.90873 10.392 8.78371C10.267 8.65868 10.1968 8.48911 10.1968 8.3123C10.1968 8.13549 10.267 7.96592 10.392 7.8409C10.5171 7.71587 10.6866 7.64564 10.8634 7.64564C11.3331 7.64564 11.7834 7.45908 12.1155 7.12702C12.4476 6.79496 12.6341 6.34458 12.6341 5.87497C12.6341 5.40536 12.4476 4.95498 12.1155 4.62292C11.7834 4.29085 11.3331 4.1043 10.8634 4.1043ZM6.19677 6.1043C5.72716 6.1043 5.27679 6.29085 4.94472 6.62292C4.61266 6.95498 4.42611 7.40536 4.42611 7.87497C4.42611 8.34458 4.61266 8.79496 4.94472 9.12702C5.27679 9.45908 5.72716 9.64564 6.19677 9.64564C6.66638 9.64564 7.11676 9.45908 7.44882 9.12702C7.78089 8.79496 7.96744 8.34458 7.96744 7.87497C7.96744 7.40536 7.78089 6.95498 7.44882 6.62292C7.11676 6.29085 6.66638 6.1043 6.19677 6.1043ZM8.34011 10.1203C8.78861 9.69215 9.0986 9.13949 9.23013 8.53356C9.36166 7.92762 9.30871 7.29617 9.07809 6.72061C8.84747 6.14504 8.44976 5.65173 7.93621 5.30427C7.42267 4.9568 6.81682 4.7711 6.19677 4.7711C5.57672 4.7711 4.97088 4.9568 4.45734 5.30427C3.94379 5.65173 3.54608 6.14504 3.31546 6.72061C3.08484 7.29617 3.03189 7.92762 3.16342 8.53356C3.29495 9.13949 3.60494 9.69215 4.05344 10.1203C3.28767 10.4771 2.62465 11.0219 2.1261 11.7039C1.62755 12.3859 1.30968 13.183 1.20211 14.021C1.18332 14.1947 1.23352 14.3689 1.3419 14.506C1.45027 14.6432 1.60816 14.7322 1.78156 14.7541C1.95497 14.7759 2.13002 14.7288 2.26902 14.6229C2.40803 14.5169 2.49987 14.3606 2.52477 14.1876C2.75144 12.383 4.30611 10.979 6.19677 10.979C8.08744 10.979 9.64211 12.383 9.86877 14.1876C9.87829 14.2757 9.90525 14.3609 9.94807 14.4384C9.99089 14.5159 10.0487 14.5841 10.1182 14.639C10.1876 14.6939 10.2673 14.7344 10.3526 14.7582C10.4379 14.7819 10.5271 14.7885 10.6149 14.7774C10.7028 14.7663 10.7875 14.7379 10.8643 14.6937C10.941 14.6495 11.0081 14.5905 11.0618 14.5201C11.1155 14.4497 11.1546 14.3693 11.1768 14.2836C11.1991 14.1979 11.2041 14.1086 11.1914 14.021C10.9741 12.289 9.86611 10.8343 8.34011 10.1203Z" fill="#656F7D"/>
</svg>
