<svg width="17" height="17" viewBox="0 0 17 17" fill="none" xmlns="http://www.w3.org/2000/svg">
<path fill-rule="evenodd" clip-rule="evenodd" d="M10.6339 3.43406H2.63891C2.46221 3.43406 2.29274 3.36387 2.1678 3.23892C2.04285 3.11398 1.97266 2.94451 1.97266 2.76781C1.97266 2.59111 2.04285 2.42165 2.1678 2.2967C2.29274 2.17176 2.46221 2.10156 2.63891 2.10156H10.6339C10.8106 2.10156 10.9801 2.17176 11.105 2.2967C11.23 2.42165 11.3002 2.59111 11.3002 2.76781C11.3002 2.94451 11.23 3.11398 11.105 3.23892C10.9801 3.36387 10.8106 3.43406 10.6339 3.43406ZM5.97016 5.43281C5.97016 5.25611 6.04035 5.08665 6.1653 4.9617C6.29024 4.83676 6.45971 4.76656 6.63641 4.76656H14.6314C14.8081 4.76656 14.9776 4.83676 15.1025 4.9617C15.2275 5.08665 15.2977 5.25611 15.2977 5.43281C15.2977 5.60951 15.2275 5.77898 15.1025 5.90392C14.9776 6.02887 14.8081 6.09906 14.6314 6.09906H6.63641C6.45971 6.09906 6.29024 6.02887 6.1653 5.90392C6.04035 5.77898 5.97016 5.60951 5.97016 5.43281ZM1.97266 8.09781C1.97266 7.92111 2.04285 7.75165 2.1678 7.6267C2.29274 7.50176 2.46221 7.43156 2.63891 7.43156H10.6339C10.8106 7.43156 10.9801 7.50176 11.105 7.6267C11.23 7.75165 11.3002 7.92111 11.3002 8.09781C11.3002 8.27451 11.23 8.44398 11.105 8.56892C10.9801 8.69387 10.8106 8.76406 10.6339 8.76406H2.63891C2.46221 8.76406 2.29274 8.69387 2.1678 8.56892C2.04285 8.44398 1.97266 8.27451 1.97266 8.09781ZM5.97016 10.7628C5.97016 10.5861 6.04035 10.4166 6.1653 10.2917C6.29024 10.1668 6.45971 10.0966 6.63641 10.0966H14.6314C14.8081 10.0966 14.9776 10.1668 15.1025 10.2917C15.2275 10.4166 15.2977 10.5861 15.2977 10.7628C15.2977 10.9395 15.2275 11.109 15.1025 11.2339C14.9776 11.3589 14.8081 11.4291 14.6314 11.4291H6.63641C6.45971 11.4291 6.29024 11.3589 6.1653 11.2339C6.04035 11.109 5.97016 10.9395 5.97016 10.7628ZM1.97266 13.4278C1.97266 13.2511 2.04285 13.0816 2.1678 12.9567C2.29274 12.8318 2.46221 12.7616 2.63891 12.7616H10.6339C10.8106 12.7616 10.9801 12.8318 11.105 12.9567C11.23 13.0816 11.3002 13.2511 11.3002 13.4278C11.3002 13.6045 11.23 13.774 11.105 13.8989C10.9801 14.0239 10.8106 14.0941 10.6339 14.0941H2.63891C2.46221 14.0941 2.29274 14.0239 2.1678 13.8989C2.04285 13.774 1.97266 13.6045 1.97266 13.4278Z" fill="#656F7D"/>
</svg>
