<svg width="17" height="17" viewBox="0 0 17 17" fill="none" xmlns="http://www.w3.org/2000/svg">
<g id="cu3-icon-appAdd">
<path id="Vector" fill-rule="evenodd" clip-rule="evenodd" d="M2.90625 4.77219C2.90625 4.24209 3.11683 3.7337 3.49167 3.35886C3.86651 2.98402 4.3749 2.77344 4.905 2.77344H6.2375C6.7676 2.77344 7.27599 2.98402 7.65083 3.35886C8.02567 3.7337 8.23625 4.24209 8.23625 4.77219V6.10469C8.23625 6.63479 8.02567 7.14318 7.65083 7.51802C7.27599 7.89286 6.7676 8.10344 6.2375 8.10344H4.905C4.3749 8.10344 3.86651 7.89286 3.49167 7.51802C3.11683 7.14318 2.90625 6.63479 2.90625 6.10469V4.77219ZM4.905 4.10594C4.7283 4.10594 4.55884 4.17613 4.43389 4.30108C4.30894 4.42602 4.23875 4.59549 4.23875 4.77219V6.10469C4.23875 6.28139 4.30894 6.45085 4.43389 6.5758C4.55884 6.70074 4.7283 6.77094 4.905 6.77094H6.2375C6.4142 6.77094 6.58366 6.70074 6.70861 6.5758C6.83356 6.45085 6.90375 6.28139 6.90375 6.10469V4.77219C6.90375 4.59549 6.83356 4.42602 6.70861 4.30108C6.58366 4.17613 6.4142 4.10594 6.2375 4.10594H4.905ZM9.56875 4.77219C9.56875 4.24209 9.77933 3.7337 10.1542 3.35886C10.529 2.98402 11.0374 2.77344 11.5675 2.77344H12.9C13.4301 2.77344 13.9385 2.98402 14.3133 3.35886C14.6882 3.7337 14.8987 4.24209 14.8988 4.77219V6.10469C14.8987 6.63479 14.6882 7.14318 14.3133 7.51802C13.9385 7.89286 13.4301 8.10344 12.9 8.10344H11.5675C11.0374 8.10344 10.529 7.89286 10.1542 7.51802C9.77933 7.14318 9.56875 6.63479 9.56875 6.10469V4.77219ZM11.5675 4.10594C11.3908 4.10594 11.2213 4.17613 11.0964 4.30108C10.9714 4.42602 10.9012 4.59549 10.9012 4.77219V6.10469C10.9012 6.28139 10.9714 6.45085 11.0964 6.5758C11.2213 6.70074 11.3908 6.77094 11.5675 6.77094H12.9C13.0767 6.77094 13.2462 6.70074 13.3711 6.5758C13.4961 6.45085 13.5662 6.28139 13.5662 6.10469V4.77219C13.5662 4.59549 13.4961 4.42602 13.3711 4.30108C13.2462 4.17613 13.0767 4.10594 12.9 4.10594H11.5675ZM2.90625 11.4347C2.90625 10.9046 3.11683 10.3962 3.49167 10.0214C3.86651 9.64652 4.3749 9.43594 4.905 9.43594H6.2375C6.7676 9.43594 7.27599 9.64652 7.65083 10.0214C8.02567 10.3962 8.23625 10.9046 8.23625 11.4347V12.7672C8.23625 13.2973 8.02567 13.8057 7.65083 14.1805C7.27599 14.5554 6.7676 14.7659 6.2375 14.7659H4.905C4.3749 14.7659 3.86651 14.5554 3.49167 14.1805C3.11683 13.8057 2.90625 13.2973 2.90625 12.7672V11.4347ZM4.905 10.7684C4.7283 10.7684 4.55884 10.8386 4.43389 10.9636C4.30894 11.0885 4.23875 11.258 4.23875 11.4347V12.7672C4.23875 12.9439 4.30894 13.1134 4.43389 13.2383C4.55884 13.3632 4.7283 13.4334 4.905 13.4334H6.2375C6.4142 13.4334 6.58366 13.3632 6.70861 13.2383C6.83356 13.1134 6.90375 12.9439 6.90375 12.7672V11.4347C6.90375 11.258 6.83356 11.0885 6.70861 10.9636C6.58366 10.8386 6.4142 10.7684 6.2375 10.7684H4.905ZM12.2337 9.43594C12.4104 9.43594 12.5799 9.50613 12.7049 9.63108C12.8298 9.75602 12.9 9.92549 12.9 10.1022V11.4347H14.2325C14.4092 11.4347 14.5787 11.5049 14.7036 11.6298C14.8286 11.7548 14.8988 11.9242 14.8988 12.1009C14.8988 12.2776 14.8286 12.4471 14.7036 12.572C14.5787 12.697 14.4092 12.7672 14.2325 12.7672H12.9V14.0997C12.9 14.2764 12.8298 14.4459 12.7049 14.5708C12.5799 14.6957 12.4104 14.7659 12.2337 14.7659C12.057 14.7659 11.8876 14.6957 11.7626 14.5708C11.6377 14.4459 11.5675 14.2764 11.5675 14.0997V12.7672H10.235C10.0583 12.7672 9.88884 12.697 9.76389 12.572C9.63894 12.4471 9.56875 12.2776 9.56875 12.1009C9.56875 11.9242 9.63894 11.7548 9.76389 11.6298C9.88884 11.5049 10.0583 11.4347 10.235 11.4347H11.5675V10.1022C11.5675 9.92549 11.6377 9.75602 11.7626 9.63108C11.8876 9.50613 12.057 9.43594 12.2337 9.43594Z" fill="#808080"/>
</g>
</svg>
