<svg width="17" height="17" viewBox="0 0 17 17" fill="none" xmlns="http://www.w3.org/2000/svg">
<path fill-rule="evenodd" clip-rule="evenodd" d="M9.2018 2.71312C9.2018 2.53642 9.1316 2.36696 9.00666 2.24202C8.88171 2.11707 8.71225 2.04688 8.53555 2.04688C8.35885 2.04688 8.18938 2.11707 8.06444 2.24202C7.93949 2.36696 7.8693 2.53642 7.8693 2.71312V8.04313H2.5393C2.3626 8.04313 2.19313 8.11332 2.06819 8.23827C1.94324 8.36321 1.87305 8.53267 1.87305 8.70937C1.87305 8.88608 1.94324 9.05554 2.06819 9.18048C2.19313 9.30543 2.3626 9.37562 2.5393 9.37562H7.8693V14.7056C7.8693 14.8823 7.93949 15.0518 8.06444 15.1767C8.18938 15.3017 8.35885 15.3719 8.53555 15.3719C8.71225 15.3719 8.88171 15.3017 9.00666 15.1767C9.1316 15.0518 9.2018 14.8823 9.2018 14.7056V9.37562H14.5318C14.7085 9.37562 14.878 9.30543 15.0029 9.18048C15.1279 9.05554 15.198 8.88608 15.198 8.70937C15.198 8.53267 15.1279 8.36321 15.0029 8.23827C14.878 8.11332 14.7085 8.04313 14.5318 8.04313H9.2018V2.71312Z" fill="white"/>
</svg>
