<svg width="15" height="14" viewBox="0 0 15 14" fill="none" xmlns="http://www.w3.org/2000/svg">
<path fill-rule="evenodd" clip-rule="evenodd" d="M0.999674 0.4375C0.822863 0.4375 0.653294 0.507738 0.52827 0.632762C0.403246 0.757787 0.333008 0.927356 0.333008 1.10417C0.333008 1.28098 0.403246 1.45055 0.52827 1.57557C0.653294 1.7006 0.822863 1.77083 0.999674 1.77083H11.6663C11.8432 1.77083 12.0127 1.7006 12.1377 1.57557C12.2628 1.45055 12.333 1.28098 12.333 1.10417C12.333 0.927356 12.2628 0.757787 12.1377 0.632762C12.0127 0.507738 11.8432 0.4375 11.6663 0.4375H0.999674ZM0.999674 4.4375C0.822863 4.4375 0.653294 4.50774 0.52827 4.63276C0.403246 4.75779 0.333008 4.92736 0.333008 5.10417C0.333008 5.28098 0.403246 5.45055 0.52827 5.57557C0.653294 5.7006 0.822863 5.77083 0.999674 5.77083H11.6663C11.8432 5.77083 12.0127 5.7006 12.1377 5.57557C12.2628 5.45055 12.333 5.28098 12.333 5.10417C12.333 4.92736 12.2628 4.75779 12.1377 4.63276C12.0127 4.50774 11.8432 4.4375 11.6663 4.4375H0.999674ZM0.999674 8.4375C0.822863 8.4375 0.653294 8.50774 0.52827 8.63276C0.403246 8.75779 0.333008 8.92736 0.333008 9.10417C0.333008 9.28098 0.403246 9.45055 0.52827 9.57557C0.653294 9.7006 0.822863 9.77083 0.999674 9.77083H6.33301C6.50982 9.77083 6.67939 9.7006 6.80441 9.57557C6.92944 9.45055 6.99967 9.28098 6.99967 9.10417C6.99967 8.92736 6.92944 8.75779 6.80441 8.63276C6.67939 8.50774 6.50982 8.4375 6.33301 8.4375H0.999674ZM12.333 8.4375C12.333 8.26069 12.2628 8.09112 12.1377 7.9661C12.0127 7.84107 11.8432 7.77083 11.6663 7.77083C11.4895 7.77083 11.32 7.84107 11.1949 7.9661C11.0699 8.09112 10.9997 8.26069 10.9997 8.4375V9.77083H9.66634C9.48953 9.77083 9.31996 9.84107 9.19494 9.96609C9.06991 10.0911 8.99967 10.2607 8.99967 10.4375C8.99967 10.6143 9.06991 10.7839 9.19494 10.9089C9.31996 11.0339 9.48953 11.1042 9.66634 11.1042H10.9997V12.4375C10.9997 12.6143 11.0699 12.7839 11.1949 12.9089C11.32 13.0339 11.4895 13.1042 11.6663 13.1042C11.8432 13.1042 12.0127 13.0339 12.1377 12.9089C12.2628 12.7839 12.333 12.6143 12.333 12.4375V11.1042H13.6663C13.8432 11.1042 14.0127 11.0339 14.1377 10.9089C14.2628 10.7839 14.333 10.6143 14.333 10.4375C14.333 10.2607 14.2628 10.0911 14.1377 9.96609C14.0127 9.84107 13.8432 9.77083 13.6663 9.77083H12.333V8.4375Z" fill="#4F5762"/>
</svg>
