<svg width="16" height="16" viewBox="0 0 16 16" fill="none" xmlns="http://www.w3.org/2000/svg">
<path fill-rule="evenodd" clip-rule="evenodd" d="M7.99967 2.66634C6.58519 2.66634 5.22863 3.22824 4.22844 4.22844C3.22824 5.22863 2.66634 6.58519 2.66634 7.99967C2.66634 9.41416 3.22824 10.7707 4.22844 11.7709C5.22863 12.7711 6.58519 13.333 7.99967 13.333C9.41416 13.333 10.7707 12.7711 11.7709 11.7709C12.7711 10.7707 13.333 9.41416 13.333 7.99967C13.333 6.58519 12.7711 5.22863 11.7709 4.22844C10.7707 3.22824 9.41416 2.66634 7.99967 2.66634ZM1.33301 7.99967C1.33301 4.31767 4.31767 1.33301 7.99967 1.33301C11.6817 1.33301 14.6663 4.31767 14.6663 7.99967C14.6663 11.6817 11.6817 14.6663 7.99967 14.6663C4.31767 14.6663 1.33301 11.6817 1.33301 7.99967ZM7.99967 4.74034C8.17649 4.74034 8.34605 4.81058 8.47108 4.9356C8.5961 5.06063 8.66634 5.2302 8.66634 5.40701V7.33301H10.7403C10.9172 7.33301 11.0867 7.40325 11.2117 7.52827C11.3368 7.65329 11.407 7.82286 11.407 7.99967C11.407 8.17649 11.3368 8.34605 11.2117 8.47108C11.0867 8.5961 10.9172 8.66634 10.7403 8.66634H8.66634V10.7403C8.66634 10.9172 8.5961 11.0867 8.47108 11.2117C8.34605 11.3368 8.17649 11.407 7.99967 11.407C7.82286 11.407 7.65329 11.3368 7.52827 11.2117C7.40325 11.0867 7.33301 10.9172 7.33301 10.7403V8.66634H5.40701C5.2302 8.66634 5.06063 8.5961 4.9356 8.47108C4.81058 8.34605 4.74034 8.17649 4.74034 7.99967C4.74034 7.82286 4.81058 7.65329 4.9356 7.52827C5.06063 7.40325 5.2302 7.33301 5.40701 7.33301H7.33301V5.40701C7.33301 5.2302 7.40325 5.06063 7.52827 4.9356C7.65329 4.81058 7.82286 4.74034 7.99967 4.74034Z" fill="white"/>
</svg>
