<svg width="17" height="17" viewBox="0 0 17 17" fill="none" xmlns="http://www.w3.org/2000/svg">
<g id="cu3-icon-chevronDown">
<path id="Vector" fill-rule="evenodd" clip-rule="evenodd" d="M8.97588 11.9163C8.79919 11.9163 8.62975 11.8461 8.50484 11.7211L4.50734 7.7236C4.38597 7.59794 4.31882 7.42965 4.32034 7.25496C4.32186 7.08027 4.39192 6.91317 4.51545 6.78964C4.63898 6.66611 4.80608 6.59604 4.98077 6.59452C5.15546 6.59301 5.32376 6.66016 5.44941 6.78152L8.97588 10.308L12.5023 6.78152C12.5638 6.71789 12.6373 6.66713 12.7186 6.63222C12.7999 6.5973 12.8873 6.57892 12.9758 6.57815C13.0642 6.57738 13.152 6.59424 13.2338 6.62774C13.3157 6.66124 13.3901 6.71071 13.4527 6.77327C13.5152 6.83582 13.5647 6.91021 13.5982 6.99209C13.6317 7.07397 13.6486 7.1617 13.6478 7.25016C13.647 7.33863 13.6286 7.42605 13.5937 7.50734C13.5588 7.58862 13.508 7.66214 13.4444 7.7236L9.44691 11.7211C9.322 11.8461 9.15256 11.9163 8.97588 11.9163Z" fill="black"/>
</g>
</svg>
