<svg width="17" height="17" viewBox="0 0 17 17" fill="none" xmlns="http://www.w3.org/2000/svg">
<path fill-rule="evenodd" clip-rule="evenodd" d="M14.5238 2.04674C14.6455 2.0972 14.7495 2.18262 14.8227 2.2922C14.8959 2.40178 14.9349 2.53059 14.9349 2.66235V5.66048C14.9349 5.83718 14.8647 6.00664 14.7397 6.13159C14.6148 6.25653 14.4453 6.32673 14.2686 6.32673C14.0919 6.32673 13.9225 6.25653 13.7975 6.13159C13.6726 6.00664 13.6024 5.83718 13.6024 5.66048V4.27068L8.74342 9.12964C8.68196 9.19327 8.60844 9.24403 8.52716 9.27895C8.44587 9.31386 8.35845 9.33224 8.26998 9.33301C8.18152 9.33378 8.09379 9.31692 8.01191 9.28342C7.93003 9.24992 7.85564 9.20045 7.79309 9.1379C7.73053 9.07534 7.68106 9.00095 7.64756 8.91907C7.61406 8.83719 7.5972 8.74946 7.59797 8.661C7.59874 8.57253 7.61712 8.48511 7.65204 8.40382C7.68695 8.32254 7.73771 8.24902 7.80134 8.18756L12.6536 3.33526L11.2678 3.3286C11.1803 3.32821 11.0938 3.31058 11.0131 3.27674C10.9324 3.24289 10.8592 3.19349 10.7976 3.13134C10.6732 3.00583 10.6038 2.83605 10.6046 2.65935C10.6054 2.48265 10.6763 2.3135 10.8019 2.18912C10.9274 2.06474 11.0971 1.99531 11.2738 1.9961L14.1374 2.00943C14.267 1.98319 14.4016 1.99617 14.5238 2.04674ZM2.94238 5.9936C2.94238 5.2868 3.22316 4.60895 3.72294 4.10916C4.22273 3.60938 4.90058 3.3286 5.60738 3.3286H8.27238C8.44908 3.3286 8.61855 3.39879 8.74349 3.52374C8.86844 3.64869 8.93863 3.81815 8.93863 3.99485C8.93863 4.17155 8.86844 4.34101 8.74349 4.46596C8.61855 4.59091 8.44908 4.6611 8.27238 4.6611H5.60738C5.25398 4.6611 4.91506 4.80149 4.66516 5.05138C4.41527 5.30127 4.27488 5.6402 4.27488 5.9936V11.3236C4.27488 11.677 4.41527 12.0159 4.66516 12.2658C4.91506 12.5157 5.25398 12.6561 5.60738 12.6561H10.9374C11.2908 12.6561 11.6297 12.5157 11.8796 12.2658C12.1295 12.0159 12.2699 11.677 12.2699 11.3236V8.6586C12.2699 8.4819 12.3401 8.31244 12.465 8.18749C12.59 8.06254 12.7594 7.99235 12.9361 7.99235C13.1128 7.99235 13.2823 8.06254 13.4072 8.18749C13.5322 8.31244 13.6024 8.4819 13.6024 8.6586V11.3236C13.6024 12.0304 13.3216 12.7083 12.8218 13.208C12.322 13.7078 11.6442 13.9886 10.9374 13.9886H5.60738C4.90058 13.9886 4.22273 13.7078 3.72294 13.208C3.22316 12.7083 2.94238 12.0304 2.94238 11.3236V5.9936Z" fill="#4F5762"/>
</svg>
