<svg width="17" height="17" viewBox="0 0 17 17" fill="none" xmlns="http://www.w3.org/2000/svg">
<path fill-rule="evenodd" clip-rule="evenodd" d="M9.62044 3.43685C8.9574 3.43685 8.32152 3.70024 7.85268 4.16908C7.38383 4.63792 7.12044 5.27381 7.12044 5.93685V10.1035C7.12044 10.3687 7.2258 10.6231 7.41334 10.8106C7.60087 10.9982 7.85523 11.1035 8.12044 11.1035C8.38566 11.1035 8.64001 10.9982 8.82755 10.8106C9.01509 10.6231 9.12044 10.3687 9.12044 10.1035V6.10352C9.12044 5.9267 9.19068 5.75714 9.31571 5.63211C9.44073 5.50709 9.6103 5.43685 9.78711 5.43685C9.96392 5.43685 10.1335 5.50709 10.2585 5.63211C10.3835 5.75714 10.4538 5.9267 10.4538 6.10352V10.1035C10.4538 10.4099 10.3934 10.7134 10.2762 10.9964C10.1589 11.2795 9.98703 11.5368 9.77036 11.7534C9.55369 11.9701 9.29646 12.142 9.01337 12.2592C8.73028 12.3765 8.42686 12.4368 8.12044 12.4368C7.81402 12.4368 7.51061 12.3765 7.22752 12.2592C6.94442 12.142 6.6872 11.9701 6.47053 11.7534C6.25386 11.5368 6.08198 11.2795 5.96472 10.9964C5.84746 10.7134 5.78711 10.4099 5.78711 10.1035V5.93685C5.78711 4.92019 6.19098 3.94516 6.90987 3.22627C7.62876 2.50738 8.60378 2.10352 9.62044 2.10352C10.6371 2.10352 11.6121 2.50738 12.331 3.22627C13.0499 3.94516 13.4538 4.92019 13.4538 5.93685V10.1035C13.4538 11.518 12.8919 12.8746 11.8917 13.8748C10.8915 14.8749 9.53493 15.4368 8.12044 15.4368C6.70595 15.4368 5.3494 14.8749 4.34921 13.8748C3.34901 12.8746 2.78711 11.518 2.78711 10.1035V6.10352C2.78711 5.9267 2.85735 5.75714 2.98237 5.63211C3.1074 5.50709 3.27697 5.43685 3.45378 5.43685C3.63059 5.43685 3.80016 5.50709 3.92518 5.63211C4.0502 5.75714 4.12044 5.9267 4.12044 6.10352V10.1035C4.12044 11.1644 4.54187 12.1818 5.29202 12.9319C6.04216 13.6821 7.05958 14.1035 8.12044 14.1035C9.18131 14.1035 10.1987 13.6821 10.9489 12.9319C11.699 12.1818 12.1204 11.1644 12.1204 10.1035V5.93685C12.1204 5.27381 11.8571 4.63792 11.3882 4.16908C10.9194 3.70024 10.2835 3.43685 9.62044 3.43685Z" fill="#656F7D"/>
</svg>
