<svg width="17" height="17" viewBox="0 0 17 17" fill="none" xmlns="http://www.w3.org/2000/svg">
<path fill-rule="evenodd" clip-rule="evenodd" d="M7.57043 2.94458C7.69533 3.06952 7.7655 3.23895 7.7655 3.41562C7.7655 3.59228 7.69533 3.76172 7.57043 3.88666L4.04397 7.41312H14.4281C14.6048 7.41312 14.7743 7.48331 14.8992 7.60826C15.0242 7.73321 15.0944 7.90267 15.0944 8.07937C15.0944 8.25607 15.0242 8.42553 14.8992 8.55048C14.7743 8.67542 14.6048 8.74562 14.4281 8.74562H4.04397L7.57043 12.2721C7.69179 12.3977 7.75894 12.566 7.75743 12.7407C7.75591 12.9154 7.68584 13.0825 7.56231 13.206C7.43878 13.3296 7.27168 13.3996 7.09699 13.4012C6.9223 13.4027 6.75401 13.3355 6.62835 13.2142L1.9646 8.55041C1.8397 8.42547 1.76953 8.25603 1.76953 8.07937C1.76953 7.9027 1.8397 7.73327 1.9646 7.60833L6.62835 2.94458C6.75329 2.81968 6.92272 2.74951 7.09939 2.74951C7.27605 2.74951 7.44549 2.81968 7.57043 2.94458Z" fill="#4F5762"/>
</svg>
