<svg width="17" height="17" viewBox="0 0 17 17" fill="none" xmlns="http://www.w3.org/2000/svg">
<path fill-rule="evenodd" clip-rule="evenodd" d="M10.067 3.20066H7.40203C7.22533 3.20066 7.05587 3.27086 6.93092 3.3958C6.80598 3.52075 6.73578 3.69021 6.73578 3.86691V4.53316H10.7333V3.86691C10.7333 3.69021 10.6631 3.52075 10.5381 3.3958C10.4132 3.27086 10.2437 3.20066 10.067 3.20066ZM5.40328 3.86691V4.53316H4.73703C4.20693 4.53316 3.69854 4.74375 3.3237 5.11858C2.94886 5.49342 2.73828 6.00181 2.73828 6.53191V12.5282C2.73828 13.0583 2.94886 13.5667 3.3237 13.9415C3.69854 14.3163 4.20693 14.5269 4.73703 14.5269H12.732C13.2621 14.5269 13.7705 14.3163 14.1454 13.9415C14.5202 13.5667 14.7308 13.0583 14.7308 12.5282V6.53191C14.7308 6.00181 14.5202 5.49342 14.1454 5.11858C13.7705 4.74375 13.2621 4.53316 12.732 4.53316H12.0658V3.86691C12.0658 3.33681 11.8552 2.82842 11.4804 2.45358C11.1055 2.07875 10.5971 1.86816 10.067 1.86816H7.40203C6.87193 1.86816 6.36354 2.07875 5.9887 2.45358C5.61386 2.82842 5.40328 3.33681 5.40328 3.86691ZM13.3983 7.86441V6.53191C13.3983 6.35521 13.3281 6.18575 13.2031 6.0608C13.0782 5.93586 12.9087 5.86566 12.732 5.86566H4.73703C4.56033 5.86566 4.39087 5.93586 4.26592 6.0608C4.14098 6.18575 4.07078 6.35521 4.07078 6.53191V7.86441H6.42797C6.57869 7.86432 6.72499 7.91533 6.84297 8.00911C6.96096 8.10289 7.04366 8.23391 7.07757 8.38076L7.12421 8.58196C7.20824 8.9462 7.41324 9.2712 7.70577 9.50393C7.99829 9.73665 8.36106 9.86335 8.73486 9.86335C9.10867 9.86335 9.47144 9.73665 9.76396 9.50393C10.0565 9.2712 10.2615 8.9462 10.3455 8.58196L10.3922 8.38076C10.426 8.23424 10.5084 8.10348 10.626 8.00973C10.7436 7.91598 10.8894 7.86477 11.0398 7.86441H13.3983ZM4.07078 9.19691H5.91629C6.12093 9.78111 6.50205 10.2873 7.00694 10.6454C7.51183 11.0035 8.11553 11.1959 8.73453 11.1959C9.35353 11.1959 9.95723 11.0035 10.4621 10.6454C10.967 10.2873 11.3481 9.78111 11.5528 9.19691H13.3983V12.5282C13.3983 12.7049 13.3281 12.8743 13.2031 12.9993C13.0782 13.1242 12.9087 13.1944 12.732 13.1944H4.73703C4.56033 13.1944 4.39087 13.1242 4.26592 12.9993C4.14098 12.8743 4.07078 12.7049 4.07078 12.5282V9.19691Z" fill="#4F5762"/>
</svg>
