<svg width="131" height="30" viewBox="0 0 131 30" fill="none" xmlns="http://www.w3.org/2000/svg">
<g id="basecamp.7c23303299c16173ffa16bc180861088.svg" clip-path="url(#clip0_6893_29411)">
<g id="Layer 2">
<g id="Layer 1">
<path id="Vector" d="M38.2256 8.42969H43.6798C46.701 8.42969 48.2695 9.66847 48.2695 11.9945V12.1104C48.3126 12.792 48.1096 13.4665 47.6974 14.0111C47.2853 14.5557 46.6914 14.9343 46.0237 15.0781C46.8233 15.1485 47.5628 15.5314 48.0817 16.1438C48.6007 16.7562 48.8571 17.5485 48.7953 18.3488V18.4291C48.7953 20.969 47.1288 22.3058 43.9293 22.3058H38.2256V8.42969ZM43.1718 14.1245C44.6869 14.1245 45.284 13.5809 45.284 12.3421V12.2619C45.284 11.1033 44.6245 10.5775 43.154 10.5775H41.2913V14.1423L43.1718 14.1245ZM43.4392 20.1224C44.9899 20.1224 45.6939 19.4183 45.6939 18.1617V18.0815C45.6939 16.7981 44.9899 16.1476 43.2877 16.1476H41.2913V20.1313L43.4392 20.1224ZM49.6152 19.4807C49.6152 17.1101 51.7809 16.2189 54.8912 16.2189H56.032V15.8178C56.032 14.6147 55.6666 13.9552 54.3832 13.9552C54.1755 13.9305 53.9649 13.9486 53.7644 14.0084C53.564 14.0682 53.3778 14.1684 53.2175 14.3028C53.0573 14.4372 52.9262 14.603 52.8324 14.79C52.7386 14.977 52.684 15.1812 52.6721 15.39H49.9985C50.1767 12.9838 52.075 11.9143 54.5615 11.9143C57.0479 11.9143 58.8036 12.9214 58.8036 15.6752V22.288H56.0676V21.067C55.7242 21.5508 55.2613 21.9373 54.724 22.1888C54.1866 22.4403 53.5933 22.5482 53.0018 22.5019C51.1659 22.5019 49.6152 21.6107 49.6152 19.4807ZM56.032 18.741V17.8498H54.9447C53.3138 17.8498 52.3691 18.2063 52.3691 19.2846C52.3691 20.0243 52.8147 20.5145 53.8396 20.5145C55.0784 20.5501 56.032 19.8639 56.032 18.741ZM59.9889 19.1064H62.6091C62.7249 19.9976 63.1705 20.5501 64.3915 20.5501C65.4788 20.5501 65.9868 20.1402 65.9868 19.4361C65.9868 18.7321 65.3807 18.4469 63.9281 18.2419C61.2544 17.8319 60.185 17.0566 60.185 15.0781C60.185 13.0996 62.1278 11.9143 64.1954 11.9143C66.4502 11.9143 68.1346 12.7342 68.3841 15.0603H65.8085C65.657 14.2225 65.1847 13.8393 64.2222 13.8393C63.2597 13.8393 62.7873 14.2671 62.7873 14.882C62.7873 15.497 63.2686 15.7733 64.7391 15.9871C67.279 16.3525 68.6782 16.9942 68.6782 19.1688C68.6782 21.3433 67.0919 22.5019 64.4093 22.5019C61.7268 22.5019 60.087 21.2988 59.9889 19.1064ZM69.4001 17.3418V17.1903C69.3663 16.4938 69.4775 15.7979 69.7268 15.1466C69.976 14.4954 70.3578 13.903 70.8479 13.407C71.338 12.911 71.9258 12.5222 72.5741 12.2653C73.2223 12.0083 73.9168 11.8888 74.6137 11.9143C77.2338 11.9143 79.5599 13.4472 79.5599 17.0744V17.8498H72.2787C72.35 19.5342 73.2679 20.5234 74.7919 20.5234C76.0931 20.5234 76.7347 19.9619 76.913 19.1064H79.5866C79.2569 21.2988 77.5101 22.5197 74.7384 22.5197C71.6281 22.5019 69.4001 20.5858 69.4001 17.3418ZM76.8239 16.1208C76.7347 14.5879 75.9505 13.8928 74.6137 13.8928C74.0118 13.89 73.4323 14.1205 72.9969 14.536C72.5615 14.9515 72.3041 15.5195 72.2787 16.1208H76.8239ZM80.2996 17.3418V17.1903C80.2656 16.4922 80.3773 15.7948 80.6276 15.1423C80.8779 14.4897 81.2613 13.8965 81.7534 13.4002C82.2455 12.9039 82.8355 12.5155 83.4858 12.2597C84.1362 12.0039 84.8327 11.8863 85.531 11.9143C87.8838 11.9143 90.0494 12.9392 90.3079 15.8535H87.6342C87.6165 15.6033 87.5486 15.3593 87.4347 15.1359C87.3207 14.9125 87.1631 14.7143 86.971 14.553C86.779 14.3918 86.5565 14.2707 86.3168 14.1971C86.0771 14.1235 85.825 14.0988 85.5755 14.1245C84.1229 14.1245 83.1515 15.2118 83.1515 17.1546V17.3061C83.1515 19.347 84.0427 20.3897 85.6379 20.3897C85.9093 20.4053 86.1812 20.3668 86.4375 20.2763C86.6939 20.1859 86.9298 20.0453 87.1313 19.8629C87.3328 19.6804 87.4961 19.4597 87.6115 19.2135C87.7269 18.9673 87.7922 18.7007 87.8036 18.4291H90.3435C90.192 20.8353 88.4452 22.5019 85.4953 22.5019C82.5454 22.5019 80.2996 20.6571 80.2996 17.3418ZM90.9941 19.4807C90.9941 17.1101 93.1597 16.2189 96.2612 16.2189H97.4108V15.8178C97.4108 14.6147 97.0365 13.9552 95.7621 13.9552C95.553 13.9279 95.3405 13.944 95.1379 14.0026C94.9353 14.0612 94.747 14.1609 94.5847 14.2956C94.4224 14.4303 94.2897 14.597 94.1948 14.7853C94.0999 14.9736 94.0448 15.1795 94.0331 15.39H91.3595C91.5377 12.9838 93.436 11.9143 95.9136 11.9143C98.3911 11.9143 100.165 12.9214 100.165 15.6752V22.288H97.4286V21.067C97.0853 21.5508 96.6223 21.9373 96.085 22.1888C95.5477 22.4403 94.9543 22.5482 94.3629 22.5019C92.5805 22.5019 90.9941 21.6107 90.9941 19.4807ZM97.4108 18.741V17.8498H96.3414C94.7104 17.8498 93.7568 18.2063 93.7568 19.2846C93.7568 20.0243 94.2114 20.5145 95.2363 20.5145C96.4929 20.5501 97.4465 19.8639 97.4465 18.741H97.4108ZM102.143 12.1104H104.95V13.6611C105.257 13.1101 105.707 12.653 106.254 12.339C106.8 12.0249 107.422 11.8658 108.052 11.8787C108.653 11.8306 109.254 11.9781 109.765 12.2993C110.276 12.6205 110.669 13.0982 110.886 13.6611C111.26 13.1021 111.769 12.6459 112.365 12.3345C112.962 12.0231 113.627 11.8664 114.299 11.8787C116.18 11.8787 117.632 13.064 117.632 15.7554V22.2523H114.843V16.103C114.843 14.8018 114.264 14.2225 113.248 14.2225C112.977 14.2108 112.708 14.2575 112.457 14.3594C112.207 14.4614 111.981 14.6162 111.796 14.8133C111.61 15.0105 111.47 15.2452 111.384 15.5016C111.297 15.758 111.267 16.03 111.296 16.2991V22.288H108.497V16.103C108.497 14.8018 107.9 14.2225 106.911 14.2225C106.64 14.2095 106.369 14.2552 106.118 14.3565C105.866 14.4579 105.639 14.6126 105.453 14.8098C105.267 15.0071 105.125 15.2423 105.039 15.4994C104.952 15.7565 104.922 16.0293 104.95 16.2991V22.288H102.143V12.1104ZM119.557 12.1104H122.374V13.7056C122.709 13.1477 123.183 12.6861 123.75 12.3659C124.317 12.0458 124.958 11.8779 125.609 11.8787C128.095 11.8787 130.065 13.7235 130.065 17.0744V17.2348C130.065 20.5858 128.166 22.4662 125.609 22.4662C124.958 22.4929 124.313 22.3409 123.742 22.0267C123.172 21.7125 122.699 21.248 122.374 20.6838V25.7459H119.557V12.1104ZM127.177 17.2527V17.1012C127.177 15.0425 126.17 14.0354 124.753 14.0354C123.336 14.0354 122.276 15.0603 122.276 17.1012V17.2527C122.276 19.2846 123.247 20.2739 124.78 20.2739C126.313 20.2739 127.177 19.2401 127.177 17.2883V17.2527Z" fill="black"/>
<path id="Vector_2" d="M1.61426 16.3297C3.94031 9.73471 8.39636 2.07031 17.3887 2.07031C26.381 2.07031 30.8281 13.8967 31.3896 21.9175C29.0279 26.0171 23.3687 27.5589 17.3887 27.5589C14.9682 27.5983 12.5677 27.1147 10.3513 26.1411C8.13485 25.1674 6.15477 23.7268 4.54634 21.9175C4.54634 21.9175 7.36256 14.3155 9.99163 14.2977C11.9256 14.2977 13.5565 17.8625 15.0983 17.8625C16.64 17.8625 19.8484 11.0181 19.8484 11.0181" stroke="black" stroke-width="3.03902" stroke-linecap="round" stroke-linejoin="round"/>
</g>
</g>
</g>
<defs>
<clipPath id="clip0_6893_29411">
<rect width="129.938" height="28.59" fill="white" transform="translate(0.0898438 0.53125)"/>
</clipPath>
</defs>
</svg>
