<svg width="310" height="134" viewBox="0 0 310 134" fill="none" xmlns="http://www.w3.org/2000/svg">
<g filter="url(#filter0_d_6616_38345)">
<path d="M22.5029 14.3818C22.5029 12.1727 24.2938 10.3818 26.5029 10.3818H283.173C285.382 10.3818 287.173 12.1727 287.173 14.3818V130.382H22.5029V14.3818Z" fill="white" shape-rendering="crispEdges"/>
<g clip-path="url(#clip0_6616_38345)">
<path fill-rule="evenodd" clip-rule="evenodd" d="M126.843 40.3721C126.312 40.3721 125.804 40.5828 125.429 40.9579C125.053 41.3329 124.843 41.8416 124.843 42.3721V58.3721H120.843V42.3721C120.843 40.7808 121.475 39.2546 122.6 38.1294C123.725 37.0042 125.251 36.3721 126.843 36.3721H142.843V40.3721H126.843ZM126.843 100.372C126.312 100.372 125.804 100.161 125.429 99.7863C125.053 99.4112 124.843 98.9025 124.843 98.3721V82.3721H120.843V98.3721C120.843 99.9634 121.475 101.489 122.6 102.615C123.725 103.74 125.251 104.372 126.843 104.372H142.843V100.372H126.843ZM182.843 40.3721C183.373 40.3721 183.882 40.5828 184.257 40.9579C184.632 41.3329 184.843 41.8416 184.843 42.3721V58.3721H188.843V42.3721C188.843 40.7808 188.211 39.2546 187.085 38.1294C185.96 37.0042 184.434 36.3721 182.843 36.3721H166.843V40.3721H182.843ZM182.843 100.372C183.373 100.372 183.882 100.161 184.257 99.7863C184.632 99.4112 184.843 98.9025 184.843 98.3721V82.3721H188.843V98.3721C188.843 99.9634 188.211 101.489 187.085 102.615C185.96 103.74 184.434 104.372 182.843 104.372H166.843V100.372H182.843Z" fill="#B9BEC7" fill-opacity="0.15"/>
</g>
<path d="M139.077 86.1401C139.381 86.4389 139.743 86.6732 140.14 86.829C140.537 86.9847 140.962 87.0588 141.388 87.0468C143.793 87.0468 146.695 85.2335 147.828 84.5068L149.778 83.1918C151.358 83.7918 153.033 84.1001 154.723 84.0985C158.332 84.098 161.792 82.6645 164.343 80.1132C166.894 77.5618 168.328 74.1016 168.328 70.4935C168.33 68.8042 168.022 67.129 167.422 65.5501L168.738 63.6001C169.735 62.0118 172.728 57.2051 170.37 54.8468C168.012 52.4868 165.018 53.9835 159.667 57.7935C157.202 56.8443 154.515 56.6307 151.931 57.1785C149.347 57.7263 146.977 59.012 145.11 60.8797C143.242 62.7474 141.956 65.1168 141.408 67.7007C140.861 70.2846 141.074 72.9719 142.023 75.4368C138.213 80.7868 137.217 84.3251 139.077 86.1401ZM164.702 70.4935C164.708 71.8054 164.454 73.1056 163.954 74.3188C163.455 75.532 162.72 76.6343 161.792 77.5619C160.865 78.4895 159.762 79.2242 158.549 79.7233C157.336 80.2225 156.035 80.4763 154.723 80.4701L153.407 80.3801C155.446 78.6962 157.4 76.91 159.258 75.0285C161.14 73.1701 162.926 71.2176 164.61 69.1785C164.663 69.6135 164.693 70.0535 164.702 70.4935ZM167.603 57.6118C167.467 58.4285 166.742 59.9701 165.382 62.0568C165.058 61.6432 164.71 61.2497 164.338 60.8785C163.979 60.4947 163.583 60.1454 163.158 59.8351C165.472 58.3385 166.878 57.7485 167.603 57.6118ZM147.648 63.4185C149.533 61.5573 152.075 60.5136 154.723 60.5136C157.372 60.5136 159.914 61.5573 161.798 63.4185C162.302 63.9685 162.757 64.5601 163.158 65.1851C161.162 67.7481 159.011 70.187 156.718 72.4885C154.418 74.7814 151.979 76.932 149.417 78.9285C148.79 78.5264 148.198 78.0714 147.648 77.5685C145.798 75.6784 144.762 73.1386 144.762 70.4935C144.762 67.8484 145.798 65.3086 147.648 63.4185ZM144.065 78.9285C144.375 79.3535 144.725 79.7485 145.108 80.1085L146.287 81.1518C144.2 82.5118 142.658 83.2368 141.842 83.3735C141.978 82.6485 142.568 81.2418 144.065 78.9285Z" fill="#B9BEC7" fill-opacity="0.2"/>
</g>
<defs>
<filter id="filter0_d_6616_38345" x="20.5029" y="9.38184" width="268.67" height="124" filterUnits="userSpaceOnUse" color-interpolation-filters="sRGB">
<feFlood flood-opacity="0" result="BackgroundImageFix"/>
<feColorMatrix in="SourceAlpha" type="matrix" values="0 0 0 0 0 0 0 0 0 0 0 0 0 0 0 0 0 0 127 0" result="hardAlpha"/>
<feOffset dy="1"/>
<feGaussianBlur stdDeviation="1"/>
<feComposite in2="hardAlpha" operator="out"/>
<feColorMatrix type="matrix" values="0 0 0 0 0 0 0 0 0 0 0 0 0 0 0 0 0 0 0.055 0"/>
<feBlend mode="normal" in2="BackgroundImageFix" result="effect1_dropShadow_6616_38345"/>
<feBlend mode="normal" in="SourceGraphic" in2="effect1_dropShadow_6616_38345" result="shape"/>
</filter>
<clipPath id="clip0_6616_38345">
<rect width="68" height="68" fill="white" transform="translate(120.843 36.3721)"/>
</clipPath>
</defs>
</svg>
