<svg width="17" height="17" viewBox="0 0 17 17" fill="none" xmlns="http://www.w3.org/2000/svg">
<path d="M5.70645 1.58594C4.38263 1.58594 3.30859 2.66043 3.30859 3.9848V11.981C3.30859 13.3054 4.38263 14.3799 5.70645 14.3799H12.9H13.6993C14.1414 14.3799 14.4986 14.0225 14.4986 13.5802C14.4986 13.138 14.1414 12.7806 13.6993 12.7806V11.1814C14.1414 11.1814 14.4986 10.8241 14.4986 10.3818V2.38556C14.4986 1.94327 14.1414 1.58594 13.6993 1.58594H12.9H5.70645ZM5.70645 11.1814H12.1007V12.7806H5.70645C5.26435 12.7806 4.90717 12.4233 4.90717 11.981C4.90717 11.5387 5.26435 11.1814 5.70645 11.1814ZM6.50574 5.18423C6.50574 4.96433 6.68558 4.78442 6.90538 4.78442H11.7011C11.9209 4.78442 12.1007 4.96433 12.1007 5.18423C12.1007 5.40413 11.9209 5.58404 11.7011 5.58404H6.90538C6.68558 5.58404 6.50574 5.40413 6.50574 5.18423ZM6.90538 6.38366H11.7011C11.9209 6.38366 12.1007 6.56358 12.1007 6.78347C12.1007 7.00337 11.9209 7.18328 11.7011 7.18328H6.90538C6.68558 7.18328 6.50574 7.00337 6.50574 6.78347C6.50574 6.56358 6.68558 6.38366 6.90538 6.38366Z" fill="#6A85FF"/>
</svg>
