<svg width="81" height="81" viewBox="0 0 81 81" fill="none" xmlns="http://www.w3.org/2000/svg">
<g id="svg-sprite-box-colored" clip-path="url(#clip0_6893_31687)">
<g id="Group">
<path id="Vector" fill-rule="evenodd" clip-rule="evenodd" d="M42.1718 55.4188C37.2347 55.4188 33.2316 51.4193 33.2316 46.4822C33.2316 41.5493 37.2347 37.5507 42.1718 37.5507C47.1068 37.5507 51.1079 41.5493 51.1079 46.4822C51.1079 51.4193 47.1068 55.4188 42.1718 55.4188ZM15.8477 55.4188C10.9116 55.4188 6.90571 51.4203 6.90571 46.4841C6.90571 41.5493 10.9116 37.5507 15.8477 37.5507C20.7832 37.5507 24.7808 41.5493 24.7808 46.4822C24.7808 51.4193 20.7832 55.4188 15.8477 55.4188ZM42.1718 31.5861C36.4706 31.5861 31.5094 34.7928 29.0109 39.5012C26.5116 34.7928 21.5528 31.5861 15.8477 31.5861C12.4977 31.5861 9.40289 32.6941 6.90571 34.5659V22.014C6.8762 20.3921 5.55351 19.0938 3.92592 19.0938C2.29833 19.0938 0.988482 20.3921 0.951172 22.014V46.7305H0.954469C1.08566 54.8461 7.69894 61.3837 15.8477 61.3837C21.5528 61.3837 26.5116 58.174 29.0109 53.4701C31.5094 58.174 36.4706 61.3837 42.1718 61.3837C50.3972 61.3837 57.0699 54.7137 57.0699 46.4822C57.0699 38.2545 50.3972 31.5861 42.1718 31.5861Z" fill="#355B99"/>
<path id="Vector_2" fill-rule="evenodd" clip-rule="evenodd" d="M80.1875 56.3952L72.0893 46.462L80.1974 36.5096C81.2223 35.1966 80.9285 33.3636 79.5133 32.3895C78.0964 31.4073 76.1085 31.6591 75.0121 32.933V32.9309L68.0367 41.48L61.0672 32.9309V32.933C59.9822 31.6591 57.9819 31.4073 56.5693 32.3895C55.1567 33.3644 54.8615 35.1966 55.8916 36.5096H55.8888L63.9822 46.462L55.8888 56.3952H55.8916C54.8615 57.7118 55.1567 59.5397 56.5693 60.5176C57.9819 61.4958 59.9822 61.2468 61.0672 59.9709L68.0367 51.4337L75.0023 59.9709C76.0997 61.2468 78.0872 61.4958 79.5039 60.5176C80.9193 59.5397 81.2145 57.7118 80.1875 56.3952Z" fill="#355B99"/>
</g>
</g>
<defs>
<clipPath id="clip0_6893_31687">
<rect width="80" height="80" fill="white" transform="translate(0.951172 0.210938)"/>
</clipPath>
</defs>
</svg>
