<svg width="21" height="21" viewBox="0 0 21 21" fill="none" xmlns="http://www.w3.org/2000/svg">
<path fill-rule="evenodd" clip-rule="evenodd" d="M16.2201 4.98112H4.55339V7.48112H16.2201V4.98112ZM17.0392 8.93279C17.2964 8.78762 17.5105 8.5767 17.6594 8.32162C17.8083 8.06655 17.8868 7.77648 17.8867 7.48112V4.98112C17.8867 4.53909 17.7111 4.11517 17.3986 3.80261C17.086 3.49005 16.6621 3.31445 16.2201 3.31445H4.55339C4.11136 3.31445 3.68743 3.49005 3.37487 3.80261C3.06231 4.11517 2.88672 4.53909 2.88672 4.98112V7.48112C2.8866 7.7764 2.96493 8.06641 3.11369 8.32148C3.26246 8.57654 3.47632 8.78751 3.73339 8.93279C3.72469 9.00413 3.72024 9.07592 3.72005 9.14779V16.6478C3.72005 17.0898 3.89565 17.5137 4.20821 17.8263C4.52077 18.1389 4.94469 18.3145 5.38672 18.3145H15.3867C15.8287 18.3145 16.2527 18.1389 16.5652 17.8263C16.8778 17.5137 17.0534 17.0898 17.0534 16.6478V9.14779C17.0534 9.07529 17.0484 9.00279 17.0392 8.93279ZM15.3867 9.14779H5.38672V16.6478H15.3867V9.14779ZM7.88672 11.6478C7.88672 11.4268 7.97452 11.2148 8.1308 11.0585C8.28708 10.9023 8.49904 10.8145 8.72005 10.8145H12.0534C12.2744 10.8145 12.4864 10.9023 12.6426 11.0585C12.7989 11.2148 12.8867 11.4268 12.8867 11.6478C12.8867 11.8688 12.7989 12.0808 12.6426 12.237C12.4864 12.3933 12.2744 12.4811 12.0534 12.4811H8.72005C8.49904 12.4811 8.28708 12.3933 8.1308 12.237C7.97452 12.0808 7.88672 11.8688 7.88672 11.6478Z" fill="#4F5762"/>
</svg>
