<svg width="23" height="24" viewBox="0 0 23 24" fill="none" xmlns="http://www.w3.org/2000/svg">
<g filter="url(#filter0_d_6616_32503)">
<path fill-rule="evenodd" clip-rule="evenodd" d="M4.9707 4.31711C4.9707 3.78701 5.18129 3.27862 5.55612 2.90378C5.93096 2.52894 6.43935 2.31836 6.96945 2.31836H8.9682C9.4983 2.31836 10.0067 2.52894 10.3815 2.90378C10.7564 3.27862 10.967 3.78701 10.967 4.31711V6.31586C10.967 6.84596 10.7564 7.35435 10.3815 7.72919C10.0067 8.10403 9.4983 8.31461 8.9682 8.31461H6.96945C6.43935 8.31461 5.93096 8.10403 5.55612 7.72919C5.18129 7.35435 4.9707 6.84596 4.9707 6.31586V4.31711ZM6.96945 3.65086C6.79275 3.65086 6.62329 3.72105 6.49834 3.846C6.3734 3.97095 6.3032 4.14041 6.3032 4.31711V6.31586C6.3032 6.49256 6.3734 6.66202 6.49834 6.78697C6.62329 6.91192 6.79275 6.98211 6.96945 6.98211H8.9682C9.1449 6.98211 9.31437 6.91192 9.43931 6.78697C9.56426 6.66202 9.63445 6.49256 9.63445 6.31586V4.31711C9.63445 4.14041 9.56426 3.97095 9.43931 3.846C9.31437 3.72105 9.1449 3.65086 8.9682 3.65086H6.96945ZM12.2995 4.31711C12.2995 3.78701 12.51 3.27862 12.8849 2.90378C13.2597 2.52894 13.7681 2.31836 14.2982 2.31836H16.297C16.8271 2.31836 17.3354 2.52894 17.7103 2.90378C18.0851 3.27862 18.2957 3.78701 18.2957 4.31711V6.31586C18.2957 6.84596 18.0851 7.35435 17.7103 7.72919C17.3354 8.10403 16.8271 8.31461 16.297 8.31461H14.2982C13.7681 8.31461 13.2597 8.10403 12.8849 7.72919C12.51 7.35435 12.2995 6.84596 12.2995 6.31586V4.31711ZM14.2982 3.65086C14.1215 3.65086 13.952 3.72105 13.8271 3.846C13.7021 3.97095 13.632 4.14041 13.632 4.31711V6.31586C13.632 6.49256 13.7021 6.66202 13.8271 6.78697C13.952 6.91192 14.1215 6.98211 14.2982 6.98211H16.297C16.4737 6.98211 16.6431 6.91192 16.7681 6.78697C16.893 6.66202 16.9632 6.49256 16.9632 6.31586V4.31711C16.9632 4.14041 16.893 3.97095 16.7681 3.846C16.6431 3.72105 16.4737 3.65086 16.297 3.65086H14.2982ZM4.9707 11.6459C4.9707 11.1158 5.18129 10.6074 5.55612 10.2325C5.93096 9.85769 6.43935 9.64711 6.96945 9.64711H8.9682C9.4983 9.64711 10.0067 9.85769 10.3815 10.2325C10.7564 10.6074 10.967 11.1158 10.967 11.6459V13.6446C10.967 14.1747 10.7564 14.6831 10.3815 15.0579C10.0067 15.4328 9.4983 15.6434 8.9682 15.6434H6.96945C6.43935 15.6434 5.93096 15.4328 5.55612 15.0579C5.18129 14.6831 4.9707 14.1747 4.9707 13.6446V11.6459ZM6.96945 10.9796C6.79275 10.9796 6.62329 11.0498 6.49834 11.1747C6.3734 11.2997 6.3032 11.4692 6.3032 11.6459V13.6446C6.3032 13.8213 6.3734 13.9908 6.49834 14.1157C6.62329 14.2407 6.79275 14.3109 6.96945 14.3109H8.9682C9.1449 14.3109 9.31437 14.2407 9.43931 14.1157C9.56426 13.9908 9.63445 13.8213 9.63445 13.6446V11.6459C9.63445 11.4692 9.56426 11.2997 9.43931 11.1747C9.31437 11.0498 9.1449 10.9796 8.9682 10.9796H6.96945ZM15.2976 9.64711C15.4743 9.64711 15.6437 9.7173 15.7687 9.84225C15.8936 9.9672 15.9638 10.1367 15.9638 10.3134V11.979H17.6295C17.8062 11.979 17.9756 12.0492 18.1006 12.1741C18.2255 12.2991 18.2957 12.4685 18.2957 12.6452C18.2957 12.8219 18.2255 12.9914 18.1006 13.1163C17.9756 13.2413 17.8062 13.3115 17.6295 13.3115H15.9638V14.9771C15.9638 15.1538 15.8936 15.3233 15.7687 15.4482C15.6437 15.5732 15.4743 15.6434 15.2976 15.6434C15.1209 15.6434 14.9514 15.5732 14.8265 15.4482C14.7015 15.3233 14.6313 15.1538 14.6313 14.9771V13.3115H12.9657C12.789 13.3115 12.6195 13.2413 12.4946 13.1163C12.3696 12.9914 12.2995 12.8219 12.2995 12.6452C12.2995 12.4685 12.3696 12.2991 12.4946 12.1741C12.6195 12.0492 12.789 11.979 12.9657 11.979H14.6313V10.3134C14.6313 10.1367 14.7015 9.9672 14.8265 9.84225C14.9514 9.7173 15.1209 9.64711 15.2976 9.64711Z" fill="#4F5762"/>
</g>
<defs>
<filter id="filter0_d_6616_32503" x="-0.361328" y="0.98584" width="23.9902" height="23.9902" filterUnits="userSpaceOnUse" color-interpolation-filters="sRGB">
<feFlood flood-opacity="0" result="BackgroundImageFix"/>
<feColorMatrix in="SourceAlpha" type="matrix" values="0 0 0 0 0 0 0 0 0 0 0 0 0 0 0 0 0 0 127 0" result="hardAlpha"/>
<feOffset dy="4"/>
<feGaussianBlur stdDeviation="2"/>
<feComposite in2="hardAlpha" operator="out"/>
<feColorMatrix type="matrix" values="0 0 0 0 0 0 0 0 0 0 0 0 0 0 0 0 0 0 0.25 0"/>
<feBlend mode="normal" in2="BackgroundImageFix" result="effect1_dropShadow_6616_32503"/>
<feBlend mode="normal" in="SourceGraphic" in2="effect1_dropShadow_6616_32503" result="shape"/>
</filter>
</defs>
</svg>
