<svg width="17" height="17" viewBox="0 0 17 17" fill="none" xmlns="http://www.w3.org/2000/svg">
<path fill-rule="evenodd" clip-rule="evenodd" d="M4.96859 4.31688C4.70354 4.31688 4.44935 4.42217 4.26193 4.60959C4.07451 4.79701 3.96922 5.0512 3.96922 5.31625C3.96922 5.5813 4.07451 5.8355 4.26193 6.02292C4.44935 6.21034 4.70354 6.31563 4.96859 6.31563H5.96797V5.31625C5.96797 5.0512 5.86268 4.79701 5.67526 4.60959C5.48784 4.42217 5.23365 4.31688 4.96859 4.31688ZM7.30047 6.31563V5.31625C7.30047 4.85505 7.16371 4.40421 6.90748 4.02073C6.65125 3.63726 6.28706 3.33837 5.86096 3.16188C5.43487 2.98539 4.96601 2.93921 4.51367 3.02918C4.06133 3.11916 3.64583 3.34125 3.31971 3.66737C2.99359 3.99349 2.7715 4.40899 2.68153 4.86132C2.59155 5.31366 2.63773 5.78253 2.81422 6.20862C2.99072 6.63472 3.2896 6.9989 3.67307 7.25513C4.05655 7.51136 4.50739 7.64813 4.96859 7.64813H5.96797V10.3131H4.96859C4.50739 10.3131 4.05655 10.4499 3.67307 10.7061C3.2896 10.9623 2.99072 11.3265 2.81422 11.7526C2.63773 12.1787 2.59155 12.6476 2.68153 13.0999C2.7715 13.5523 2.99359 13.9678 3.31971 14.2939C3.64583 14.62 4.06133 14.8421 4.51367 14.9321C4.96601 15.022 5.43487 14.9759 5.86096 14.7994C6.28706 14.6229 6.65125 14.324 6.90748 13.9405C7.16371 13.557 7.30047 13.1062 7.30047 12.645V11.6456H9.96547V12.645C9.96547 13.1062 10.1022 13.557 10.3585 13.9405C10.6147 14.324 10.9789 14.6229 11.405 14.7994C11.8311 14.9759 12.2999 15.022 12.7523 14.9321C13.2046 14.8421 13.6201 14.62 13.9462 14.2939C14.2723 13.9678 14.4944 13.5523 14.5844 13.0999C14.6744 12.6476 14.6282 12.1787 14.4517 11.7526C14.2752 11.3265 13.9763 10.9623 13.5929 10.7061C13.2094 10.4499 12.7585 10.3131 12.2973 10.3131H11.298V7.64813H12.2973C12.7585 7.64813 13.2094 7.51136 13.5929 7.25513C13.9763 6.9989 14.2752 6.63472 14.4517 6.20862C14.6282 5.78253 14.6744 5.31366 14.5844 4.86132C14.4944 4.40899 14.2723 3.99349 13.9462 3.66737C13.6201 3.34125 13.2046 3.11916 12.7523 3.02918C12.2999 2.93921 11.8311 2.98539 11.405 3.16188C10.9789 3.33837 10.6147 3.63726 10.3585 4.02073C10.1022 4.40421 9.96547 4.85505 9.96547 5.31625V6.31563H7.30047ZM7.30047 7.64813V10.3131H9.96547V7.64813H7.30047ZM11.298 6.31563H12.2973C12.495 6.31563 12.6882 6.25701 12.8526 6.1472C13.0169 6.03739 13.145 5.88131 13.2206 5.6987C13.2963 5.51608 13.3161 5.31514 13.2775 5.12128C13.239 4.92742 13.1438 4.74935 13.004 4.60959C12.8642 4.46982 12.6862 4.37464 12.4923 4.33608C12.2985 4.29752 12.0975 4.31731 11.9149 4.39295C11.7323 4.46859 11.5762 4.59668 11.4664 4.76103C11.3566 4.92537 11.298 5.11859 11.298 5.31625V6.31563ZM11.298 11.6456V12.645C11.298 12.8427 11.3566 13.0359 11.4664 13.2002C11.5762 13.3646 11.7323 13.4927 11.9149 13.5683C12.0975 13.6439 12.2985 13.6637 12.4923 13.6252C12.6862 13.5866 12.8642 13.4914 13.004 13.3517C13.1438 13.2119 13.239 13.0338 13.2775 12.84C13.3161 12.6461 13.2963 12.4452 13.2206 12.2626C13.145 12.0799 13.0169 11.9239 12.8526 11.8141C12.6882 11.7042 12.495 11.6456 12.2973 11.6456H11.298ZM5.96797 11.6456H4.96859C4.77094 11.6456 4.57772 11.7042 4.41337 11.8141C4.24903 11.9239 4.12093 12.0799 4.04529 12.2626C3.96965 12.4452 3.94986 12.6461 3.98842 12.84C4.02698 13.0338 4.12216 13.2119 4.26193 13.3517C4.4017 13.4914 4.57977 13.5866 4.77363 13.6252C4.96749 13.6637 5.16843 13.6439 5.35104 13.5683C5.53365 13.4927 5.68973 13.3646 5.79954 13.2002C5.90936 13.0359 5.96797 12.8427 5.96797 12.645V11.6456Z" fill="#4F5762"/>
</svg>
