<svg width="41" height="41" viewBox="0 0 41 41" fill="none" xmlns="http://www.w3.org/2000/svg">
<path fill-rule="evenodd" clip-rule="evenodd" d="M14.1149 15.6132C14.1149 15.3224 14.3749 15.0182 14.7816 15.0182H26.7816C27.1882 15.0182 27.4482 15.3224 27.4482 15.6132V22.7566C27.4482 23.0474 27.1882 23.3516 26.7816 23.3516H14.7816C14.3749 23.3516 14.1149 23.0474 14.1149 22.7566V15.6132ZM14.7816 13.3516C13.5316 13.3516 12.4482 14.3266 12.4482 15.6132V22.7566C12.4482 24.0432 13.5316 25.0182 14.7816 25.0182H26.7816C28.0316 25.0182 29.1149 24.0432 29.1149 22.7566V15.6132C29.1149 14.3266 28.0316 13.3516 26.7816 13.3516H14.7816ZM15.7816 26.6849C15.5606 26.6849 15.3486 26.7727 15.1923 26.929C15.036 27.0853 14.9482 27.2972 14.9482 27.5182C14.9482 27.7392 15.036 27.9512 15.1923 28.1075C15.3486 28.2638 15.5606 28.3516 15.7816 28.3516H25.7816C26.0026 28.3516 26.2146 28.2638 26.3708 28.1075C26.5271 27.9512 26.6149 27.7392 26.6149 27.5182C26.6149 27.2972 26.5271 27.0853 26.3708 26.929C26.2146 26.7727 26.0026 26.6849 25.7816 26.6849H15.7816Z" fill="#808080"/>
<rect x="21.3008" y="21.375" width="18.98" height="18.98" rx="9.49" fill="#FFFBED"/>
<path fill-rule="evenodd" clip-rule="evenodd" d="M30.7855 37.5281C34.4652 37.5281 37.448 34.5453 37.448 30.8656C37.448 27.1859 34.4652 24.2031 30.7855 24.2031C27.1058 24.2031 24.123 27.1859 24.123 30.8656C24.123 34.5453 27.1058 37.5281 30.7855 37.5281ZM29.2578 28.3958C29.1322 28.2745 28.9639 28.2073 28.7892 28.2088C28.6145 28.2104 28.4474 28.2804 28.3239 28.404C28.2003 28.5275 28.1303 28.6946 28.1288 28.8693C28.1272 29.044 28.1944 29.2123 28.3158 29.3379L29.8435 30.8656L28.3158 32.3933C28.2521 32.4548 28.2014 32.5283 28.1665 32.6096C28.1315 32.6909 28.1132 32.7783 28.1124 32.8668C28.1116 32.9552 28.1285 33.043 28.162 33.1248C28.1955 33.2067 28.2449 33.2811 28.3075 33.3437C28.3701 33.4062 28.4444 33.4557 28.5263 33.4892C28.6082 33.5227 28.6959 33.5396 28.7844 33.5388C28.8729 33.538 28.9603 33.5196 29.0416 33.4847C29.1229 33.4498 29.1964 33.399 29.2578 33.3354L30.7855 31.8077L32.3133 33.3354C32.4389 33.4568 32.6072 33.5239 32.7819 33.5224C32.9566 33.5209 33.1237 33.4508 33.2472 33.3273C33.3707 33.2038 33.4408 33.0367 33.4423 32.862C33.4439 32.6873 33.3767 32.519 33.2553 32.3933L31.7276 30.8656L33.2553 29.3379C33.3767 29.2123 33.4439 29.044 33.4423 28.8693C33.4408 28.6946 33.3707 28.5275 33.2472 28.404C33.1237 28.2804 32.9566 28.2104 32.7819 28.2088C32.6072 28.2073 32.4389 28.2745 32.3133 28.3958L30.7855 29.9235L29.2578 28.3958Z" fill="#FFCC00"/>
</svg>
