<svg width="16" height="17" viewBox="0 0 16 17" fill="none" xmlns="http://www.w3.org/2000/svg">
<path fill-rule="evenodd" clip-rule="evenodd" d="M6.33301 14.7653C6.33301 14.9421 6.40325 15.1117 6.52827 15.2367C6.65329 15.3617 6.82286 15.432 6.99967 15.432H8.99967C9.17649 15.432 9.34606 15.3617 9.47108 15.2367C9.5961 15.1117 9.66634 14.9421 9.66634 14.7653C9.66634 14.5885 9.5961 14.4189 9.47108 14.2939C9.34606 14.1689 9.17649 14.0986 8.99967 14.0986H6.99967C6.82286 14.0986 6.65329 14.1689 6.52827 14.2939C6.40325 14.4189 6.33301 14.5885 6.33301 14.7653ZM5.66634 12.7653C5.66634 12.9421 5.73658 13.1117 5.8616 13.2367C5.98663 13.3617 6.1562 13.432 6.33301 13.432H9.66634C9.84315 13.432 10.0127 13.3617 10.1377 13.2367C10.2628 13.1117 10.333 12.9421 10.333 12.7653C10.333 12.5885 10.2628 12.4189 10.1377 12.2939C10.0127 12.1689 9.84315 12.0986 9.66634 12.0986H6.33301C6.1562 12.0986 5.98663 12.1689 5.8616 12.2939C5.73658 12.4189 5.66634 12.5885 5.66634 12.7653ZM5.99967 11.432C5.85477 11.432 5.71379 11.3849 5.59807 11.2977C5.48235 11.2105 5.39819 11.0879 5.35834 10.9486C4.93834 9.4773 3.33301 8.7653 3.33301 6.7653C3.33301 5.52762 3.82467 4.34064 4.69984 3.46547C5.57501 2.5903 6.762 2.09863 7.99967 2.09863C9.23735 2.09863 10.4243 2.5903 11.2995 3.46547C12.1747 4.34064 12.6663 5.52762 12.6663 6.7653C12.6663 8.7653 11.061 9.4773 10.6403 10.9486C10.6005 11.0878 10.5165 11.2103 10.4009 11.2975C10.2853 11.3847 10.1445 11.4319 9.99967 11.432H5.99967ZM9.51567 10.0986H8.66634V7.78863L9.36967 7.31997C9.51678 7.22184 9.61888 7.06929 9.65351 6.89588C9.68814 6.72247 9.65247 6.54241 9.55434 6.3953C9.45621 6.24819 9.30366 6.14609 9.13025 6.11146C8.95684 6.07683 8.77678 6.1125 8.62967 6.21063L7.99967 6.63063L7.36967 6.21063C7.22257 6.1125 7.0425 6.07683 6.8691 6.11146C6.69569 6.14609 6.54314 6.24819 6.44501 6.3953C6.34688 6.54241 6.3112 6.72247 6.34584 6.89588C6.38047 7.06929 6.48257 7.22184 6.62967 7.31997L7.33301 7.78863V10.0986H6.48367C6.10234 9.0573 4.66634 8.09863 4.66634 6.7653C4.66634 5.88124 5.01753 5.0334 5.64265 4.40828C6.26777 3.78316 7.11562 3.43197 7.99967 3.43197C8.88373 3.43197 9.73158 3.78316 10.3567 4.40828C10.9818 5.0334 11.333 5.88124 11.333 6.7653C11.333 8.09863 9.89034 9.0753 9.51567 10.0986Z" fill="#656F7D"/>
</svg>
