<svg width="17" height="17" viewBox="0 0 17 17" fill="none" xmlns="http://www.w3.org/2000/svg">
<g id="cu3-icon-calendar">
<path id="Vector" fill-rule="evenodd" clip-rule="evenodd" d="M5.57125 1.42188C5.74795 1.42188 5.91741 1.49207 6.04236 1.61702C6.16731 1.74196 6.2375 1.91142 6.2375 2.08812V2.75437H11.5675V2.08812C11.5675 1.91142 11.6377 1.74196 11.7626 1.61702C11.8876 1.49207 12.057 1.42188 12.2337 1.42188C12.4104 1.42188 12.5799 1.49207 12.7049 1.61702C12.8298 1.74196 12.9 1.91142 12.9 2.08812V2.83832C14.0493 3.13414 14.8988 4.17748 14.8988 5.41937V12.0819C14.8988 12.7887 14.618 13.4665 14.1182 13.9663C13.6184 14.4661 12.9406 14.7469 12.2337 14.7469H5.57125C4.86445 14.7469 4.18659 14.4661 3.68681 13.9663C3.18703 13.4665 2.90625 12.7887 2.90625 12.0819V5.41937C2.90633 4.8285 3.10268 4.25438 3.46445 3.78721C3.82623 3.32003 4.33294 2.98626 4.905 2.83832V2.08812C4.905 1.91142 4.97519 1.74196 5.10014 1.61702C5.22509 1.49207 5.39455 1.42188 5.57125 1.42188ZM5.57125 4.08687C5.21785 4.08687 4.87892 4.22726 4.62903 4.47716C4.37914 4.72705 4.23875 5.06597 4.23875 5.41937V6.08562H13.5662V5.41937C13.5662 5.06597 13.4259 4.72705 13.176 4.47716C12.9261 4.22726 12.5872 4.08687 12.2337 4.08687H5.57125ZM13.5662 7.41813H4.23875V12.0819C4.23875 12.4353 4.37914 12.7742 4.62903 13.0241C4.87892 13.274 5.21785 13.4144 5.57125 13.4144H12.2337C12.5872 13.4144 12.9261 13.274 13.176 13.0241C13.4259 12.7742 13.5662 12.4353 13.5662 12.0819V7.41813Z" fill="#808080"/>
</g>
</svg>
