<svg width="36" height="36" viewBox="0 0 36 36" fill="none" xmlns="http://www.w3.org/2000/svg">
<g clip-path="url(#clip0_6616_16085)">
<path d="M28 0.5H8C3.85786 0.5 0.5 3.85786 0.5 8V28C0.5 32.1421 3.85786 35.5 8 35.5H28C32.1421 35.5 35.5 32.1421 35.5 28V8C35.5 3.85786 32.1421 0.5 28 0.5Z" fill="url(#paint0_linear_6616_16085)"/>
<path fill-rule="evenodd" clip-rule="evenodd" d="M13.833 9.66652C14.293 9.66652 14.667 10.0395 14.667 10.4995V11.3325H21.333V10.4995C21.333 10.2785 21.4208 10.0665 21.5771 9.91014C21.7334 9.75383 21.9454 9.66602 22.1665 9.66602C22.3876 9.66602 22.5996 9.75383 22.7559 9.91014C22.9122 10.0665 23 10.2785 23 10.4995V11.4375C23.7156 11.6226 24.3495 12.0402 24.802 12.6246C25.2545 13.2091 25.5 13.9273 25.5 14.6665V22.9995C25.5 23.8835 25.1488 24.7312 24.5238 25.3563C23.8987 25.9814 23.051 26.3325 22.167 26.3325H13.833C13.3953 26.3325 12.9619 26.2463 12.5575 26.0788C12.1531 25.9113 11.7857 25.6658 11.4762 25.3563C11.1667 25.0468 10.9212 24.6794 10.7537 24.275C10.5862 23.8706 10.5 23.4372 10.5 22.9995V14.6665C10.5 13.9273 10.7455 13.2091 11.198 12.6246C11.6505 12.0402 12.2844 11.6226 13 11.4375V10.4995C13 10.0395 13.373 9.66652 13.833 9.66652ZM13.833 12.9995C12.913 12.9995 12.167 13.7455 12.167 14.6665V15.4995H23.833V14.6665C23.833 13.7465 23.087 12.9995 22.167 12.9995H13.833ZM23.833 17.1665H12.167V22.9995C12.167 23.9195 12.913 24.6665 13.833 24.6665H22.167C23.087 24.6665 23.833 23.9195 23.833 22.9995V17.1665Z" fill="white"/>
<path d="M28 0.5H8C3.85786 0.5 0.5 3.85786 0.5 8V28C0.5 32.1421 3.85786 35.5 8 35.5H28C32.1421 35.5 35.5 32.1421 35.5 28V8C35.5 3.85786 32.1421 0.5 28 0.5Z" stroke="url(#paint1_linear_6616_16085)"/>
</g>
<defs>
<linearGradient id="paint0_linear_6616_16085" x1="18" y1="-1.05372e-08" x2="18" y2="36" gradientUnits="userSpaceOnUse">
<stop stop-color="#D099EB"/>
<stop offset="1" stop-color="#B660E0"/>
</linearGradient>
<linearGradient id="paint1_linear_6616_16085" x1="18" y1="-1.05372e-08" x2="18" y2="36" gradientUnits="userSpaceOnUse">
<stop stop-color="#DCB3F0"/>
<stop offset="1" stop-color="#844EA2"/>
</linearGradient>
<clipPath id="clip0_6616_16085">
<rect width="36" height="36" fill="white"/>
</clipPath>
</defs>
</svg>
