<svg width="81" height="81" viewBox="0 0 81 81" fill="none" xmlns="http://www.w3.org/2000/svg">
<g filter="url(#filter0_d_6616_15354)">
<path d="M18.9336 29.613C18.9336 23.7216 23.7089 18.9463 29.6003 18.9463H50.9336C56.8249 18.9463 61.6003 23.7216 61.6003 29.613V50.9463C61.6003 56.8376 56.8249 61.613 50.9336 61.613H29.6003C23.7089 61.613 18.9336 56.8376 18.9336 50.9463V29.613Z" fill="url(#paint0_linear_6616_15354)"/>
<path fill-rule="evenodd" clip-rule="evenodd" d="M60.2669 50.9463V29.613C60.2669 24.4583 56.0883 20.2796 50.9336 20.2796H29.6003C24.4456 20.2796 20.2669 24.4583 20.2669 29.613V50.9463C20.2669 56.101 24.4456 60.2796 29.6003 60.2796H50.9336C56.0883 60.2796 60.2669 56.101 60.2669 50.9463ZM29.6003 18.9463C23.7089 18.9463 18.9336 23.7216 18.9336 29.613V50.9463C18.9336 56.8376 23.7089 61.613 29.6003 61.613H50.9336C56.8249 61.613 61.6003 56.8376 61.6003 50.9463V29.613C61.6003 23.7216 56.8249 18.9463 50.9336 18.9463H29.6003Z" fill="white"/>
<path fill-rule="evenodd" clip-rule="evenodd" d="M60.9336 50.9463V29.613C60.9336 24.0903 56.4563 19.613 50.9336 19.613H29.6003C24.0776 19.613 19.6003 24.0903 19.6003 29.613V50.9463C19.6003 56.469 24.0776 60.9463 29.6003 60.9463H50.9336C56.4563 60.9463 60.9336 56.469 60.9336 50.9463ZM29.6003 18.9463C23.7089 18.9463 18.9336 23.7216 18.9336 29.613V50.9463C18.9336 56.8376 23.7089 61.613 29.6003 61.613H50.9336C56.8249 61.613 61.6003 56.8376 61.6003 50.9463V29.613C61.6003 23.7216 56.8249 18.9463 50.9336 18.9463H29.6003Z" fill="url(#paint1_linear_6616_15354)"/>
<path fill-rule="evenodd" clip-rule="evenodd" d="M52.4317 31.4344C52.5903 31.587 52.7164 31.7701 52.8026 31.9726C52.8887 32.1751 52.9331 32.393 52.9331 32.6131C52.9331 32.8331 52.8887 33.051 52.8026 33.2535C52.7164 33.456 52.5903 33.6391 52.4317 33.7917L37.3684 48.4584C37.0433 48.7713 36.6096 48.9462 36.1584 48.9462C35.7071 48.9462 35.2735 48.7713 34.9484 48.4584L28.101 41.7917C27.9425 41.6391 27.8163 41.456 27.7302 41.2535C27.644 41.051 27.5996 40.8331 27.5996 40.6131C27.5996 40.393 27.644 40.1751 27.7302 39.9726C27.8163 39.7701 27.9425 39.587 28.101 39.4344C28.4262 39.1212 28.86 38.9463 29.3114 38.9463C29.7628 38.9463 30.1966 39.1212 30.5217 39.4344L36.1584 44.9231L50.011 31.4344C50.3362 31.1212 50.77 30.9463 51.2214 30.9463C51.6728 30.9463 52.1066 31.1212 52.4317 31.4344Z" fill="#BDBEC2"/>
</g>
<defs>
<filter id="filter0_d_6616_15354" x="12.2669" y="17.613" width="55.9993" height="56.0003" filterUnits="userSpaceOnUse" color-interpolation-filters="sRGB">
<feFlood flood-opacity="0" result="BackgroundImageFix"/>
<feColorMatrix in="SourceAlpha" type="matrix" values="0 0 0 0 0 0 0 0 0 0 0 0 0 0 0 0 0 0 127 0" result="hardAlpha"/>
<feOffset dy="5.33333"/>
<feGaussianBlur stdDeviation="3.33333"/>
<feComposite in2="hardAlpha" operator="out"/>
<feColorMatrix type="matrix" values="0 0 0 0 0.34902 0 0 0 0 0.364706 0 0 0 0 0.4 0 0 0 0.2 0"/>
<feBlend mode="normal" in2="BackgroundImageFix" result="effect1_dropShadow_6616_15354"/>
<feBlend mode="normal" in="SourceGraphic" in2="effect1_dropShadow_6616_15354" result="shape"/>
</filter>
<linearGradient id="paint0_linear_6616_15354" x1="32.4076" y1="60.6283" x2="32.8649" y2="9.92896" gradientUnits="userSpaceOnUse">
<stop stop-color="white"/>
<stop offset="1" stop-color="#EEEFF0"/>
</linearGradient>
<linearGradient id="paint1_linear_6616_15354" x1="40.2669" y1="18.9463" x2="40.2669" y2="61.613" gradientUnits="userSpaceOnUse">
<stop stop-color="#DEDFE0"/>
<stop offset="1" stop-color="#EEEFF0"/>
</linearGradient>
</defs>
</svg>
