<svg width="81" height="80" viewBox="0 0 81 80" fill="none" xmlns="http://www.w3.org/2000/svg">
<g filter="url(#filter0_d_6616_15202)">
<path d="M19.0449 29.3288C19.0449 23.4374 23.8203 18.6621 29.7116 18.6621H51.0449C56.9363 18.6621 61.7116 23.4374 61.7116 29.3288V50.6621C61.7116 56.5534 56.9363 61.3288 51.0449 61.3288H29.7116C23.8203 61.3288 19.0449 56.5534 19.0449 50.6621V29.3288Z" fill="url(#paint0_linear_6616_15202)"/>
<path fill-rule="evenodd" clip-rule="evenodd" d="M60.3783 50.6621V29.3288C60.3783 24.1741 56.1996 19.9954 51.0449 19.9954H29.7116C24.5569 19.9954 20.3783 24.1741 20.3783 29.3288V50.6621C20.3783 55.8168 24.5569 59.9954 29.7116 59.9954H51.0449C56.1996 59.9954 60.3783 55.8168 60.3783 50.6621ZM29.7116 18.6621C23.8203 18.6621 19.0449 23.4374 19.0449 29.3288V50.6621C19.0449 56.5534 23.8203 61.3288 29.7116 61.3288H51.0449C56.9363 61.3288 61.7116 56.5534 61.7116 50.6621V29.3288C61.7116 23.4374 56.9363 18.6621 51.0449 18.6621H29.7116Z" fill="white"/>
<path fill-rule="evenodd" clip-rule="evenodd" d="M61.0449 50.6621V29.3288C61.0449 23.8061 56.5676 19.3288 51.0449 19.3288H29.7116C24.1889 19.3288 19.7116 23.8061 19.7116 29.3288V50.6621C19.7116 56.1848 24.1889 60.6621 29.7116 60.6621H51.0449C56.5676 60.6621 61.0449 56.1848 61.0449 50.6621ZM29.7116 18.6621C23.8203 18.6621 19.0449 23.4374 19.0449 29.3288V50.6621C19.0449 56.5534 23.8203 61.3288 29.7116 61.3288H51.0449C56.9363 61.3288 61.7116 56.5534 61.7116 50.6621V29.3288C61.7116 23.4374 56.9363 18.6621 51.0449 18.6621H29.7116Z" fill="url(#paint1_linear_6616_15202)"/>
<path fill-rule="evenodd" clip-rule="evenodd" d="M52.543 31.1502C52.7016 31.3028 52.8277 31.4859 52.9139 31.6884C53.0001 31.891 53.0445 32.1088 53.0445 32.3289C53.0445 32.549 53.0001 32.7668 52.9139 32.9693C52.8277 33.1719 52.7016 33.3549 52.543 33.5075L37.4797 48.1742C37.1546 48.4872 36.7209 48.662 36.2697 48.662C35.8185 48.662 35.3848 48.4872 35.0597 48.1742L28.2124 41.5075C28.0538 41.3549 27.9277 41.1719 27.8415 40.9693C27.7553 40.7668 27.7109 40.549 27.7109 40.3289C27.7109 40.1088 27.7553 39.891 27.8415 39.6884C27.9277 39.4859 28.0538 39.3028 28.2124 39.1502C28.5375 38.8371 28.9713 38.6621 29.4227 38.6621C29.8741 38.6621 30.3079 38.8371 30.633 39.1502L36.2697 44.6389L50.1224 31.1502C50.4475 30.8371 50.8813 30.6621 51.3327 30.6621C51.7841 30.6621 52.2179 30.8371 52.543 31.1502Z" fill="#BDBEC2"/>
<path d="M67.0443 59.9958C67.0443 63.6778 64.0596 66.6624 60.3776 66.6624C56.6956 66.6624 53.7109 63.6778 53.7109 59.9958C53.7109 56.3138 56.6956 53.3291 60.3776 53.3291C64.0596 53.3291 67.0443 56.3138 67.0443 59.9958Z" fill="#262A33"/>
<path fill-rule="evenodd" clip-rule="evenodd" d="M60.3776 65.9958C61.9689 65.9958 63.495 65.3636 64.6202 64.2384C65.7455 63.1132 66.3776 61.5871 66.3776 59.9958C66.3776 58.4045 65.7455 56.8783 64.6202 55.7531C63.495 54.6279 61.9689 53.9958 60.3776 53.9958C58.7863 53.9958 57.2602 54.6279 56.135 55.7531C55.0097 56.8783 54.3776 58.4045 54.3776 59.9958C54.3776 61.5871 55.0097 63.1132 56.135 64.2384C57.2602 65.3636 58.7863 65.9958 60.3776 65.9958ZM60.3776 66.6624C64.0596 66.6624 67.0443 63.6778 67.0443 59.9958C67.0443 56.3138 64.0596 53.3291 60.3776 53.3291C56.6956 53.3291 53.7109 56.3138 53.7109 59.9958C53.7109 63.6778 56.6956 66.6624 60.3776 66.6624Z" fill="url(#paint2_linear_6616_15202)"/>
<path d="M61.0457 57.2018C61.0457 57.1107 61.0277 57.0204 60.9929 56.9362C60.958 56.852 60.9069 56.7755 60.8424 56.7111C60.778 56.6466 60.7015 56.5955 60.6173 56.5606C60.5331 56.5258 60.4428 56.5078 60.3517 56.5078C60.2606 56.5078 60.1703 56.5258 60.0861 56.5606C60.0019 56.5955 59.9254 56.6466 59.861 56.7111C59.7965 56.7755 59.7454 56.852 59.7105 56.9362C59.6756 57.0204 59.6577 57.1107 59.6577 57.2018V59.2745H57.6237C57.4396 59.2745 57.2631 59.3476 57.133 59.4777C57.0028 59.6079 56.9297 59.7844 56.9297 59.9685C56.9297 60.1525 57.0028 60.3291 57.133 60.4592C57.2631 60.5894 57.4396 60.6625 57.6237 60.6625H59.6577V62.7878C59.6577 62.972 59.7308 63.1486 59.8611 63.2788C59.9913 63.409 60.1679 63.4821 60.352 63.4821C60.5362 63.4821 60.7128 63.409 60.843 63.2788C60.9732 63.1486 61.0464 62.972 61.0464 62.7878V60.6625H63.2104C63.3944 60.6625 63.5709 60.5894 63.7011 60.4592C63.8312 60.3291 63.9044 60.1525 63.9044 59.9685C63.9044 59.7844 63.8312 59.6079 63.7011 59.4777C63.5709 59.3476 63.3944 59.2745 63.2104 59.2745H61.0464V57.2011L61.0457 57.2018Z" fill="white"/>
</g>
<defs>
<filter id="filter0_d_6616_15202" x="12.3783" y="17.3288" width="61.3333" height="61.3333" filterUnits="userSpaceOnUse" color-interpolation-filters="sRGB">
<feFlood flood-opacity="0" result="BackgroundImageFix"/>
<feColorMatrix in="SourceAlpha" type="matrix" values="0 0 0 0 0 0 0 0 0 0 0 0 0 0 0 0 0 0 127 0" result="hardAlpha"/>
<feOffset dy="5.33333"/>
<feGaussianBlur stdDeviation="3.33333"/>
<feComposite in2="hardAlpha" operator="out"/>
<feColorMatrix type="matrix" values="0 0 0 0 0.34902 0 0 0 0 0.364706 0 0 0 0 0.4 0 0 0 0.2 0"/>
<feBlend mode="normal" in2="BackgroundImageFix" result="effect1_dropShadow_6616_15202"/>
<feBlend mode="normal" in="SourceGraphic" in2="effect1_dropShadow_6616_15202" result="shape"/>
</filter>
<linearGradient id="paint0_linear_6616_15202" x1="32.5189" y1="60.3441" x2="32.9763" y2="9.64478" gradientUnits="userSpaceOnUse">
<stop stop-color="white"/>
<stop offset="1" stop-color="#EEEFF0"/>
</linearGradient>
<linearGradient id="paint1_linear_6616_15202" x1="40.3783" y1="18.6621" x2="40.3783" y2="61.3288" gradientUnits="userSpaceOnUse">
<stop stop-color="#DEDFE0"/>
<stop offset="1" stop-color="#EEEFF0"/>
</linearGradient>
<linearGradient id="paint2_linear_6616_15202" x1="60.3776" y1="53.3291" x2="60.3776" y2="66.6624" gradientUnits="userSpaceOnUse">
<stop stop-color="#595D66"/>
<stop offset="1" stop-color="#1D2026"/>
</linearGradient>
</defs>
</svg>
