<svg width="16" height="16" viewBox="0 0 16 16" fill="none" xmlns="http://www.w3.org/2000/svg">
<path fill-rule="evenodd" clip-rule="evenodd" d="M12.4714 4.86218C12.5964 4.9872 12.6666 5.15674 12.6666 5.33352C12.6666 5.51029 12.5964 5.67983 12.4714 5.80485L7.14072 11.1355L7.13872 11.1382C7.07681 11.2002 7.00328 11.2493 6.92235 11.2829C6.84142 11.3164 6.75466 11.3337 6.66705 11.3337C6.57944 11.3337 6.49269 11.3164 6.41176 11.2829C6.33083 11.2493 6.2573 11.2002 6.19539 11.1382L3.52872 8.47152C3.46505 8.41002 3.41426 8.33646 3.37932 8.25512C3.34438 8.17378 3.32599 8.0863 3.32522 7.99778C3.32445 7.90926 3.34132 7.82148 3.37484 7.73955C3.40836 7.65762 3.45786 7.58318 3.52046 7.52059C3.58305 7.45799 3.65749 7.40849 3.73942 7.37497C3.82135 7.34145 3.90914 7.32458 3.99766 7.32535C4.08617 7.32612 4.17365 7.34451 4.25499 7.37945C4.33633 7.41439 4.40989 7.46518 4.47139 7.52885L6.66672 9.72418L11.5287 4.86218C11.6537 4.7372 11.8233 4.66699 12.0001 4.66699C12.1768 4.66699 12.3464 4.7372 12.4714 4.86218Z" fill="white"/>
</svg>
