<svg width="19" height="19" viewBox="0 0 19 19" fill="none" xmlns="http://www.w3.org/2000/svg">
<path d="M13.4556 7.6724C13.5922 7.53095 13.6678 7.3415 13.6661 7.14485C13.6644 6.9482 13.5855 6.76009 13.4465 6.62104C13.3074 6.48198 13.1193 6.4031 12.9227 6.4014C12.726 6.39969 12.5366 6.47528 12.3951 6.6119L8.42535 10.5817L6.7056 8.8619C6.56415 8.72528 6.3747 8.64969 6.17805 8.6514C5.98141 8.6531 5.7933 8.73198 5.65424 8.87104C5.51518 9.01009 5.43631 9.1982 5.4346 9.39485C5.43289 9.5915 5.50849 9.78095 5.6451 9.9224L7.8951 12.1724C8.03575 12.313 8.22648 12.392 8.42535 12.392C8.62423 12.392 8.81496 12.313 8.9556 12.1724L13.4556 7.6724Z" fill="#B660E0"/>
<path fill-rule="evenodd" clip-rule="evenodd" d="M9.54981 1.51709C5.40756 1.51709 2.0498 4.87484 2.0498 9.01709C2.0498 13.1593 5.40756 16.5171 9.54981 16.5171C13.6921 16.5171 17.0498 13.1593 17.0498 9.01709C17.0498 4.87484 13.6921 1.51709 9.54981 1.51709ZM3.5498 9.01709C3.5498 7.42579 4.18195 5.89967 5.30716 4.77445C6.43238 3.64923 7.95851 3.01709 9.54981 3.01709C11.1411 3.01709 12.6672 3.64923 13.7924 4.77445C14.9177 5.89967 15.5498 7.42579 15.5498 9.01709C15.5498 10.6084 14.9177 12.1345 13.7924 13.2597C12.6672 14.3849 11.1411 15.0171 9.54981 15.0171C7.95851 15.0171 6.43238 14.3849 5.30716 13.2597C4.18195 12.1345 3.5498 10.6084 3.5498 9.01709Z" fill="#B660E0"/>
</svg>
