<svg width="13" height="13" viewBox="0 0 13 13" fill="none" xmlns="http://www.w3.org/2000/svg">
<g clip-path="url(#clip0_6616_19245)">
<path d="M5.32455 10.4305L3.78955 9.14551L4.42955 8.38051L5.30455 9.11051L7.77455 6.89551L8.44455 7.64051L5.32455 10.4305Z" fill="#656F7D"/>
<path d="M10.6099 1.77051H9.60986V1.27051C9.60986 1.1379 9.55719 1.01072 9.46342 0.916954C9.36965 0.823186 9.24247 0.770508 9.10986 0.770508C8.97725 0.770508 8.85008 0.823186 8.75631 0.916954C8.66254 1.01072 8.60986 1.1379 8.60986 1.27051V1.77051H4.10986V1.27051C4.10986 1.1379 4.05718 1.01072 3.96342 0.916954C3.86965 0.823186 3.74247 0.770508 3.60986 0.770508C3.47726 0.770508 3.35008 0.823186 3.25631 0.916954C3.16254 1.01072 3.10986 1.1379 3.10986 1.27051V1.77051H1.60986C1.21204 1.77051 0.830508 1.92854 0.549203 2.20985C0.267899 2.49115 0.109863 2.87268 0.109863 3.27051L0.109863 11.2705C0.109863 11.6683 0.267899 12.0499 0.549203 12.3312C0.830508 12.6125 1.21204 12.7705 1.60986 12.7705H10.6099C11.0077 12.7705 11.3892 12.6125 11.6705 12.3312C11.9518 12.0499 12.1099 11.6683 12.1099 11.2705V3.27051C12.1099 2.87268 11.9518 2.49115 11.6705 2.20985C11.3892 1.92854 11.0077 1.77051 10.6099 1.77051ZM11.1099 11.2705C11.1099 11.4031 11.0572 11.5303 10.9634 11.6241C10.8696 11.7178 10.7425 11.7705 10.6099 11.7705H1.60986C1.47725 11.7705 1.35008 11.7178 1.25631 11.6241C1.16254 11.5303 1.10986 11.4031 1.10986 11.2705V5.77051H11.1099V11.2705ZM11.1099 4.77051H1.10986V3.27051C1.10986 3.1379 1.16254 3.01072 1.25631 2.91695C1.35008 2.82319 1.47725 2.77051 1.60986 2.77051H3.10986V3.27051C3.10986 3.40312 3.16254 3.53029 3.25631 3.62406C3.35008 3.71783 3.47726 3.77051 3.60986 3.77051C3.74247 3.77051 3.86965 3.71783 3.96342 3.62406C4.05718 3.53029 4.10986 3.40312 4.10986 3.27051V2.77051H8.60986V3.27051C8.60986 3.40312 8.66254 3.53029 8.75631 3.62406C8.85008 3.71783 8.97725 3.77051 9.10986 3.77051C9.24247 3.77051 9.36965 3.71783 9.46342 3.62406C9.55719 3.53029 9.60986 3.40312 9.60986 3.27051V2.77051H10.6099C10.7425 2.77051 10.8696 2.82319 10.9634 2.91695C11.0572 3.01072 11.1099 3.1379 11.1099 3.27051V4.77051Z" fill="#656F7D"/>
</g>
<defs>
<clipPath id="clip0_6616_19245">
<rect width="12" height="12" fill="white" transform="translate(0.109863 0.770508)"/>
</clipPath>
</defs>
</svg>
