<svg width="17" height="17" viewBox="0 0 17 17" fill="none" xmlns="http://www.w3.org/2000/svg">
<path fill-rule="evenodd" clip-rule="evenodd" d="M7.98093 1.59452C8.16259 1.43719 8.39487 1.35059 8.63519 1.35059C8.87551 1.35059 9.10778 1.43719 9.28944 1.59452L13.8106 5.51273C13.9113 5.60002 13.9936 5.70657 14.0525 5.8261C14.1114 5.94564 14.1458 6.07576 14.1537 6.20879C14.1616 6.34183 14.1428 6.4751 14.0984 6.60076C14.054 6.72642 13.9849 6.84193 13.8952 6.94051L12.676 8.28167C12.5016 8.47346 12.2595 8.58998 12.0008 8.60664C11.7421 8.6233 11.4871 8.53878 11.2895 8.37094L8.63519 6.11436L5.98085 8.37161C5.78329 8.53945 5.52825 8.62396 5.26956 8.6073C5.01087 8.59065 4.76878 8.47412 4.59438 8.28233L3.37514 6.94117C3.28545 6.8426 3.21638 6.72709 3.172 6.60143C3.12761 6.47577 3.10881 6.3425 3.11669 6.20946C3.12457 6.07642 3.15899 5.94631 3.2179 5.82677C3.27682 5.70723 3.35905 5.60068 3.45976 5.5134L7.98093 1.59585V1.59452ZM8.63519 2.79043L4.59038 6.29624L5.36323 7.14704L8.16082 4.7692C8.29328 4.65671 8.46141 4.59496 8.63519 4.59496C8.80897 4.59496 8.97709 4.65671 9.10956 4.7692L11.9071 7.14704L12.68 6.29624L8.63519 2.79043ZM5.21333 11.0852L4.44048 11.6855C5.09607 12.4291 6.52917 13.7016 8.63519 13.7016C10.7419 13.7016 12.175 12.4291 12.8299 11.6855L12.057 11.0852C11.7954 11.3566 11.5095 11.6035 11.2029 11.8228C10.5713 12.2718 9.69186 12.7022 8.63519 12.7022C7.57851 12.7022 6.69906 12.2718 6.06746 11.8228C5.7609 11.6034 5.475 11.3566 5.21333 11.0852ZM4.81291 9.70877C4.97335 9.58454 5.1763 9.52858 5.37773 9.55302C5.57917 9.57747 5.76284 9.68036 5.8889 9.83936C6.01016 9.99193 6.34595 10.3857 6.84031 10.7368C7.33467 11.0886 7.94695 11.3697 8.63519 11.3697C9.32342 11.3697 9.93571 11.0886 10.4301 10.7368C10.7862 10.4819 11.1062 10.18 11.3815 9.83936C11.5074 9.68025 11.6911 9.57724 11.8925 9.55267C12.0939 9.5281 12.2969 9.58395 12.4575 9.70811L13.9339 10.8567C14.3356 11.1692 14.4635 11.7728 14.1138 12.2239C13.5474 12.9527 11.6766 15.0341 8.63519 15.0341C5.59376 15.0341 3.72226 12.9527 3.15661 12.2239C2.80683 11.7728 2.93475 11.1692 3.3365 10.8567L4.81291 9.70877Z" fill="#4F5762"/>
</svg>
