<svg width="36" height="36" viewBox="0 0 36 36" fill="none" xmlns="http://www.w3.org/2000/svg">
<g clip-path="url(#clip0_6616_16066)">
<path d="M28 0.5H8C3.85786 0.5 0.5 3.85786 0.5 8V28C0.5 32.1421 3.85786 35.5 8 35.5H28C32.1421 35.5 35.5 32.1421 35.5 28V8C35.5 3.85786 32.1421 0.5 28 0.5Z" fill="url(#paint0_linear_6616_16066)"/>
<path fill-rule="evenodd" clip-rule="evenodd" d="M18.001 11.3325C17.1254 11.3325 16.2585 11.505 15.4496 11.84C14.6407 12.1751 13.9058 12.6661 13.2867 13.2852C12.6676 13.9043 12.1765 14.6393 11.8415 15.4482C11.5064 16.257 11.334 17.124 11.334 17.9995C11.334 18.875 11.5064 19.742 11.8415 20.5509C12.1765 21.3597 12.6676 22.0947 13.2867 22.7138C13.9058 23.3329 14.6407 23.824 15.4496 24.159C16.2585 24.4941 17.1254 24.6665 18.001 24.6665C19.7692 24.6665 21.4649 23.9641 22.7153 22.7138C23.9656 21.4635 24.668 19.7677 24.668 17.9995C24.668 16.2313 23.9656 14.5355 22.7153 13.2852C21.4649 12.0349 19.7692 11.3325 18.001 11.3325ZM9.66797 17.9995C9.66797 15.7893 10.546 13.6697 12.1088 12.1068C13.6716 10.544 15.7913 9.66602 18.0015 9.66602C20.2117 9.66602 22.3313 10.544 23.8941 12.1068C25.457 13.6697 26.335 15.7893 26.335 17.9995C26.335 20.2097 25.457 22.3294 23.8941 23.8922C22.3313 25.455 20.2117 26.333 18.0015 26.333C15.7913 26.333 13.6716 25.455 12.1088 23.8922C10.546 22.3294 9.66797 20.2097 9.66797 17.9995ZM18.001 12.9995C18.461 12.9995 18.835 13.3725 18.835 13.8325V17.9995C18.8349 18.1543 18.7917 18.3059 18.7103 18.4375C18.6289 18.5691 18.5124 18.6754 18.374 18.7445L15.041 20.4115C14.9431 20.4605 14.8366 20.4897 14.7275 20.4975C14.6183 20.5054 14.5087 20.4916 14.4049 20.4571C14.3011 20.4225 14.2051 20.3679 14.1224 20.2962C14.0397 20.2246 13.972 20.1374 13.923 20.0395C13.874 19.9417 13.8448 19.8352 13.8369 19.726C13.8291 19.6169 13.8429 19.5073 13.8774 19.4035C13.912 19.2997 13.9666 19.2037 14.0383 19.121C14.1099 19.0383 14.1971 18.9705 14.295 18.9215L17.168 17.4845V13.8325C17.168 13.3725 17.541 12.9995 18.001 12.9995Z" fill="white"/>
<path d="M28 0.5H8C3.85786 0.5 0.5 3.85786 0.5 8V28C0.5 32.1421 3.85786 35.5 8 35.5H28C32.1421 35.5 35.5 32.1421 35.5 28V8C35.5 3.85786 32.1421 0.5 28 0.5Z" stroke="url(#paint1_linear_6616_16066)"/>
</g>
<defs>
<linearGradient id="paint0_linear_6616_16066" x1="18" y1="-1.05372e-08" x2="18" y2="36" gradientUnits="userSpaceOnUse">
<stop stop-color="#66B8EB"/>
<stop offset="1" stop-color="#1090E0"/>
</linearGradient>
<linearGradient id="paint1_linear_6616_16066" x1="18" y1="-1.05372e-08" x2="18" y2="36" gradientUnits="userSpaceOnUse">
<stop stop-color="#8CCAF0"/>
<stop offset="1" stop-color="#196DA2"/>
</linearGradient>
<clipPath id="clip0_6616_16066">
<rect width="36" height="36" fill="white"/>
</clipPath>
</defs>
</svg>
