<svg width="17" height="17" viewBox="0 0 17 17" fill="none" xmlns="http://www.w3.org/2000/svg">
<path d="M2.9424 2.97722C3.84935 2.09968 5.29677 2.11312 6.23058 2.96251C6.26877 2.99749 6.29726 3.04175 6.31331 3.09098C6.32936 3.14022 6.33242 3.19277 6.32219 3.24354C6.31196 3.2943 6.28879 3.34156 6.25492 3.38074C6.22105 3.41992 6.17764 3.44968 6.12889 3.46715C4.86938 3.93241 3.78891 4.78345 3.04154 5.89891C3.0133 5.9411 2.97482 5.97543 2.9297 5.9987C2.88458 6.02196 2.83429 6.0334 2.78355 6.03193C2.73281 6.03046 2.68326 6.01613 2.63956 5.99029C2.59587 5.96446 2.55944 5.92795 2.53369 5.8842C2.26684 5.42381 2.16202 4.88725 2.236 4.36028C2.30997 3.83331 2.5591 3.34634 2.9424 2.97722ZM14.3599 2.95675C13.4389 2.09329 11.9915 2.12911 11.0711 2.99321C11.0336 3.02875 11.006 3.07332 10.9908 3.12265C10.9756 3.17197 10.9733 3.22438 10.9843 3.27482C10.9952 3.32526 11.0189 3.37205 11.0532 3.41066C11.0874 3.44927 11.131 3.47842 11.1798 3.49529C12.4466 3.94112 13.5403 4.7756 14.3049 5.87972C14.3338 5.9214 14.3728 5.95508 14.4182 5.9776C14.4636 6.00013 14.514 6.01077 14.5647 6.00854C14.6153 6.0063 14.6646 5.99126 14.7079 5.96482C14.7511 5.93838 14.787 5.9014 14.8121 5.85734C15.072 5.39293 15.1686 4.85481 15.0867 4.32899C15.0047 3.80317 14.7488 3.32002 14.3599 2.95675ZM9.22391 7.43907C9.22391 7.26943 9.15652 7.10675 9.03658 6.9868C8.91663 6.86685 8.75394 6.79947 8.58431 6.79947C8.41468 6.79947 8.25199 6.86685 8.13205 6.9868C8.0121 7.10675 7.94471 7.26943 7.94471 7.43907V9.67767C7.94475 9.84728 8.01216 10.0099 8.13211 10.1299L9.59872 11.5415C9.71935 11.658 9.88091 11.7224 10.0486 11.721C10.2163 11.7195 10.3767 11.6523 10.4953 11.5337C10.6139 11.4151 10.6812 11.2547 10.6826 11.087C10.6841 10.9193 10.6196 10.7577 10.5031 10.6371L9.22391 9.41287V7.43907Z" fill="#4F5762"/>
<path fill-rule="evenodd" clip-rule="evenodd" d="M3.18335 9.60171C3.18333 8.73443 3.38794 7.87938 3.78054 7.10606C4.17315 6.33273 4.74267 5.66295 5.44283 5.15114C6.14298 4.63933 6.95402 4.29994 7.81002 4.16054C8.66602 4.02114 9.54284 4.08568 10.3692 4.3489C11.1956 4.61213 11.9482 5.06661 12.5659 5.67542C13.1835 6.28422 13.6488 7.03017 13.924 7.85265C14.1991 8.67512 14.2764 9.55091 14.1494 10.4088C14.0224 11.2668 13.6947 12.0826 13.1931 12.7901L14.3987 13.9958C14.4596 14.0566 14.5079 14.1289 14.5408 14.2084C14.5737 14.2879 14.5907 14.3731 14.5907 14.4591C14.5907 14.5452 14.5737 14.6304 14.5408 14.7099C14.5079 14.7894 14.4596 14.8617 14.3987 14.9225C14.3379 14.9834 14.2656 15.0317 14.1861 15.0646C14.1066 15.0975 14.0214 15.1145 13.9353 15.1145C13.8493 15.1145 13.7641 15.0975 13.6846 15.0646C13.6051 15.0317 13.5328 14.9834 13.472 14.9225L12.3124 13.7623C11.3103 14.6359 10.0254 15.1163 8.69607 15.1144C7.36505 15.1165 6.07857 14.6351 5.07593 13.7597L3.91442 14.9225C3.79143 15.0455 3.62463 15.1146 3.45071 15.1146C3.27678 15.1146 3.10998 15.0455 2.987 14.9225C2.86401 14.7996 2.79492 14.6328 2.79492 14.4588C2.79492 14.2849 2.86401 14.1181 2.987 13.9951L4.19648 12.7863C3.5361 11.8558 3.18219 10.7427 3.18399 9.60171H3.18335ZM8.69607 5.39122C8.13873 5.38435 7.58557 5.48819 7.06867 5.69672C6.55177 5.90526 6.08141 6.21433 5.68486 6.60602C5.28831 6.99771 4.97346 7.46423 4.75858 7.97852C4.54369 8.49281 4.43304 9.04465 4.43304 9.60203C4.43304 10.1594 4.54369 10.7112 4.75858 11.2255C4.97346 11.7398 5.28831 12.2063 5.68486 12.598C6.08141 12.9897 6.55177 13.2988 7.06867 13.5073C7.58557 13.7159 8.13873 13.8197 8.69607 13.8128C9.80385 13.7992 10.8616 13.3495 11.6402 12.5613C12.4187 11.7731 12.8553 10.7099 12.8553 9.60203C12.8553 8.49416 12.4187 7.43091 11.6402 6.64272C10.8616 5.85452 9.80385 5.40487 8.69607 5.39122Z" fill="#4F5762"/>
</svg>
