<svg width="17" height="17" viewBox="0 0 17 17" fill="none" xmlns="http://www.w3.org/2000/svg">
<g id="cu3-icon-cloud" clip-path="url(#clip0_6893_28467)">
<path id="Vector" fill-rule="evenodd" clip-rule="evenodd" d="M8.23691 4.75376C7.43917 4.75382 6.66792 5.04009 6.06334 5.56055C5.45877 6.08102 5.06099 6.80112 4.94231 7.58999C4.92267 7.72147 4.86415 7.84407 4.77427 7.94202C4.68439 8.03997 4.56727 8.1088 4.43796 8.13964C3.96359 8.25568 3.54806 8.54127 3.26974 8.94255C2.99141 9.34384 2.86952 9.83309 2.92705 10.318C2.98457 10.803 3.21754 11.2502 3.58202 11.5752C3.9465 11.9002 4.41731 12.0807 4.90566 12.0825H12.5675C12.8913 12.0819 13.2114 12.0138 13.5074 11.8827C13.8034 11.7515 14.0689 11.5602 14.2869 11.3208C14.5049 11.0814 14.6707 10.7993 14.7737 10.4923C14.8767 10.1854 14.9146 9.86034 14.8851 9.53792C14.8555 9.2155 14.7592 8.90277 14.6021 8.61963C14.4451 8.33649 14.2308 8.08916 13.973 7.89338C13.7151 7.6976 13.4193 7.55767 13.1043 7.48249C12.7894 7.40732 12.4623 7.39855 12.1438 7.45674C11.9866 7.48554 11.8242 7.45683 11.6863 7.37586C11.5485 7.29489 11.4444 7.16705 11.3929 7.01568C11.1691 6.35621 10.7443 5.78342 10.1783 5.37773C9.61224 4.97204 8.93333 4.75384 8.23691 4.75376ZM3.70641 6.97504C3.936 6.03958 4.44951 5.19812 5.17646 4.56619C5.90341 3.93426 6.80814 3.54284 7.76645 3.44568C8.72475 3.34851 9.68964 3.55036 10.5286 4.02351C11.3676 4.49667 12.0396 5.21792 12.4523 6.08826C12.9385 6.07221 13.4231 6.15316 13.8778 6.32638C14.3325 6.4996 14.7481 6.76163 15.1004 7.09718C15.4527 7.43274 15.7347 7.83509 15.9298 8.28076C16.125 8.72644 16.2294 9.20652 16.2371 9.693C16.2447 10.1795 16.1554 10.6626 15.9744 11.1142C15.7933 11.5658 15.5242 11.9768 15.1826 12.3233C14.841 12.6698 14.4339 12.9447 13.9849 13.1322C13.5359 13.3196 13.0541 13.4158 12.5675 13.415H4.90566C4.12759 13.4155 3.37389 13.1436 2.7753 12.6466C2.17672 12.1495 1.77102 11.4585 1.62857 10.6936C1.48613 9.9287 1.61593 9.13805 1.99547 8.45882C2.375 7.77959 2.98032 7.25464 3.70641 6.97504Z" fill="#808080"/>
</g>
<defs>
<clipPath id="clip0_6893_28467">
<rect width="15.99" height="15.99" fill="white" transform="translate(0.908203 0.757812)"/>
</clipPath>
</defs>
</svg>
