<svg width="16" height="17" viewBox="0 0 16 17" fill="none" xmlns="http://www.w3.org/2000/svg">
<g clip-path="url(#clip0_6616_18708)">
<path fill-rule="evenodd" clip-rule="evenodd" d="M4.00027 1.43164H12.0003C12.3505 1.43164 12.6973 1.50064 13.0209 1.63471C13.3444 1.76877 13.6384 1.96527 13.886 2.21298C14.1336 2.46069 14.33 2.75475 14.4639 3.07837C14.5979 3.402 14.6667 3.74883 14.6666 4.09907V13.4316C14.6667 13.7819 14.5979 14.1287 14.4639 14.4523C14.33 14.776 14.1336 15.07 13.886 15.3177C13.6384 15.5654 13.3444 15.7619 13.0209 15.896C12.6973 16.0301 12.3505 16.0991 12.0003 16.0991H4.00027C3.65003 16.0991 3.30323 16.0301 2.97966 15.896C2.6561 15.7619 2.36212 15.5654 2.11452 15.3177C1.86691 15.07 1.67054 14.776 1.53662 14.4523C1.40269 14.1287 1.33383 13.7819 1.33398 13.4316V4.09907C1.33383 3.74883 1.40269 3.402 1.53662 3.07837C1.67054 2.75475 1.86691 2.46069 2.11452 2.21298C2.36212 1.96527 2.6561 1.76877 2.97966 1.63471C3.30323 1.50064 3.65003 1.43164 4.00027 1.43164ZM4.00027 2.76535C3.26427 2.76535 2.66656 3.36193 2.66656 4.09907V13.4316C2.66656 14.1688 3.26427 14.7654 4.00027 14.7654H12.0003C12.7363 14.7654 13.334 14.1688 13.334 13.4316V4.09907C13.334 3.36193 12.7363 2.76535 12.0003 2.76535H4.00027Z" fill="#656F7D"/>
<path fill-rule="evenodd" clip-rule="evenodd" d="M7.50098 14.7656V2.76562H8.83355V14.7656H7.50098Z" fill="#656F7D"/>
</g>
<defs>
<clipPath id="clip0_6616_18708">
<rect width="16" height="16" fill="white" transform="translate(0 0.765625)"/>
</clipPath>
</defs>
</svg>
