<svg width="81" height="81" viewBox="0 0 81 81" fill="none" xmlns="http://www.w3.org/2000/svg">
<g clip-path="url(#clip0_6616_15169)">
<g filter="url(#filter0_d_6616_15169)">
<path d="M18.7949 17.8281C17.7341 17.8281 16.7166 18.2496 15.9665 18.9997C15.2163 19.7498 14.7949 20.7673 14.7949 21.8281V40.4948C14.7949 41.5557 15.2163 42.5731 15.9665 43.3232C16.7166 44.0734 17.7341 44.4948 18.7949 44.4948H20.4616C20.55 44.4948 20.6348 44.5299 20.6973 44.5924C20.7598 44.6549 20.7949 44.7397 20.7949 44.8281V47.9428C20.7949 49.1301 22.2309 49.7255 23.0709 48.8855L26.8756 45.0808C27.0613 44.895 27.2819 44.7476 27.5246 44.647C27.7674 44.5465 28.0275 44.4948 28.2903 44.4948H43.4616C44.5225 44.4948 45.5399 44.0734 46.29 43.3232C47.0402 42.5731 47.4616 41.5557 47.4616 40.4948V21.8281C47.4616 20.7673 47.0402 19.7498 46.29 18.9997C45.5399 18.2496 44.5225 17.8281 43.4616 17.8281H18.7949Z" fill="url(#paint0_linear_6616_15169)"/>
<path fill-rule="evenodd" clip-rule="evenodd" d="M18.7949 19.1615C18.0877 19.1615 17.4094 19.4424 16.9093 19.9425C16.4092 20.4426 16.1283 21.1209 16.1283 21.8281V40.4948C16.1283 41.202 16.4092 41.8803 16.9093 42.3804C17.4094 42.8805 18.0877 43.1615 18.7949 43.1615H20.4616C20.9036 43.1615 21.3275 43.3371 21.6401 43.6496C21.9527 43.9622 22.1283 44.3861 22.1283 44.8281V47.9428L25.9329 44.1381C26.2425 43.8285 26.61 43.5829 27.0144 43.4153C27.4189 43.2477 27.8524 43.1615 28.2903 43.1615H43.4616C44.1688 43.1615 44.8471 42.8805 45.3472 42.3804C45.8473 41.8803 46.1283 41.202 46.1283 40.4948V21.8281C46.1283 21.1209 45.8473 20.4426 45.3472 19.9425C44.8471 19.4424 44.1688 19.1615 43.4616 19.1615H18.7949ZM14.7949 21.8281C14.7949 20.7673 15.2163 19.7498 15.9665 18.9997C16.7166 18.2496 17.7341 17.8281 18.7949 17.8281H43.4616C44.5225 17.8281 45.5399 18.2496 46.29 18.9997C47.0402 19.7498 47.4616 20.7673 47.4616 21.8281V40.4948C47.4616 41.5557 47.0402 42.5731 46.29 43.3232C45.5399 44.0734 44.5225 44.4948 43.4616 44.4948H28.2903C28.0275 44.4948 27.7674 44.5465 27.5246 44.647C27.2819 44.7476 27.0613 44.895 26.8756 45.0808L23.0709 48.8855C22.2309 49.7255 20.7949 49.1301 20.7949 47.9428V44.8281C20.7949 44.7397 20.7598 44.6549 20.6973 44.5924C20.6348 44.5299 20.55 44.4948 20.4616 44.4948H18.7949C17.7341 44.4948 16.7166 44.0734 15.9665 43.3232C15.2163 42.5731 14.7949 41.5557 14.7949 40.4948V21.8281Z" fill="white"/>
<path fill-rule="evenodd" clip-rule="evenodd" d="M21.4616 43.8281V47.9428C21.4616 48.5361 22.1796 48.8341 22.5996 48.4141L27.1856 43.8281H43.4616C44.3456 43.8281 45.1935 43.4769 45.8186 42.8518C46.4437 42.2267 46.7949 41.3788 46.7949 40.4948V21.8281C46.7949 20.9441 46.4437 20.0962 45.8186 19.4711C45.1935 18.846 44.3456 18.4948 43.4616 18.4948H18.7949C17.9109 18.4948 17.063 18.846 16.4379 19.4711C15.8128 20.0962 15.4616 20.9441 15.4616 21.8281V40.4948C15.4616 41.3788 15.8128 42.2267 16.4379 42.8518C17.063 43.4769 17.9109 43.8281 18.7949 43.8281H21.4616ZM18.7949 44.4948C17.7341 44.4948 16.7166 44.0734 15.9665 43.3232C15.2163 42.5731 14.7949 41.5557 14.7949 40.4948V21.8281C14.7949 20.7673 15.2163 19.7498 15.9665 18.9997C16.7166 18.2496 17.7341 17.8281 18.7949 17.8281H43.4616C44.5225 17.8281 45.5399 18.2496 46.29 18.9997C47.0402 19.7498 47.4616 20.7673 47.4616 21.8281V40.4948C47.4616 41.5557 47.0402 42.5731 46.29 43.3232C45.5399 44.0734 44.5225 44.4948 43.4616 44.4948H27.4616L23.0709 48.8855C22.2309 49.7255 20.7949 49.1301 20.7949 47.9428V44.4948H18.7949Z" fill="url(#paint1_linear_6616_15169)"/>
<path d="M36.7949 30.4951C35.7341 30.4951 34.7166 30.9165 33.9665 31.6667C33.2163 32.4168 32.7949 33.4343 32.7949 34.4951V53.1618C32.7949 54.2227 33.2163 55.2401 33.9665 55.9902C34.7166 56.7404 35.7341 57.1618 36.7949 57.1618H38.4616C38.55 57.1618 38.6348 57.1969 38.6973 57.2594C38.7598 57.3219 38.7949 57.4067 38.7949 57.4951V60.6098C38.7949 61.7971 40.2309 62.3925 41.0709 61.5525L44.8756 57.7478C45.0613 57.562 45.2819 57.4146 45.5246 57.314C45.7674 57.2135 46.0275 57.1618 46.2903 57.1618H61.4616C62.5225 57.1618 63.5399 56.7404 64.29 55.9902C65.0402 55.2401 65.4616 54.2227 65.4616 53.1618V34.4951C65.4616 33.4343 65.0402 32.4168 64.29 31.6667C63.5399 30.9165 62.5225 30.4951 61.4616 30.4951H36.7949Z" fill="url(#paint2_linear_6616_15169)"/>
<path fill-rule="evenodd" clip-rule="evenodd" d="M36.7949 31.8285C36.0877 31.8285 35.4094 32.1094 34.9093 32.6095C34.4092 33.1096 34.1283 33.7879 34.1283 34.4951V53.1618C34.1283 53.869 34.4092 54.5473 34.9093 55.0474C35.4094 55.5475 36.0877 55.8285 36.7949 55.8285H38.4616C38.9036 55.8285 39.3275 56.004 39.6401 56.3166C39.9527 56.6292 40.1283 57.0531 40.1283 57.4951V60.6098L43.9329 56.8051C44.2425 56.4955 44.61 56.2499 45.0144 56.0823C45.4189 55.9147 45.8524 55.8285 46.2903 55.8285H61.4616C62.1688 55.8285 62.8471 55.5475 63.3472 55.0474C63.8473 54.5473 64.1283 53.869 64.1283 53.1618V34.4951C64.1283 33.7879 63.8473 33.1096 63.3472 32.6095C62.8471 32.1094 62.1688 31.8285 61.4616 31.8285H36.7949ZM32.7949 34.4951C32.7949 33.4343 33.2163 32.4168 33.9665 31.6667C34.7166 30.9165 35.7341 30.4951 36.7949 30.4951H61.4616C62.5225 30.4951 63.5399 30.9165 64.29 31.6667C65.0402 32.4168 65.4616 33.4343 65.4616 34.4951V53.1618C65.4616 54.2227 65.0402 55.2401 64.29 55.9902C63.5399 56.7404 62.5225 57.1618 61.4616 57.1618H46.2903C46.0275 57.1618 45.7674 57.2135 45.5246 57.314C45.2819 57.4146 45.0613 57.562 44.8756 57.7478L41.0709 61.5525C40.2309 62.3925 38.7949 61.7971 38.7949 60.6098V57.4951C38.7949 57.4067 38.7598 57.3219 38.6973 57.2594C38.6348 57.1969 38.55 57.1618 38.4616 57.1618H36.7949C35.7341 57.1618 34.7166 56.7404 33.9665 55.9902C33.2163 55.2401 32.7949 54.2227 32.7949 53.1618V34.4951Z" fill="white"/>
<path fill-rule="evenodd" clip-rule="evenodd" d="M39.4616 56.4951V60.6098C39.4616 61.2031 40.1796 61.5011 40.5996 61.0811L45.1856 56.4951H61.4616C62.3456 56.4951 63.1935 56.1439 63.8186 55.5188C64.4437 54.8937 64.7949 54.0458 64.7949 53.1618V34.4951C64.7949 33.6111 64.4437 32.7632 63.8186 32.1381C63.1935 31.513 62.3456 31.1618 61.4616 31.1618H36.7949C35.9109 31.1618 35.063 31.513 34.4379 32.1381C33.8128 32.7632 33.4616 33.6111 33.4616 34.4951V53.1618C33.4616 54.0458 33.8128 54.8937 34.4379 55.5188C35.063 56.1439 35.9109 56.4951 36.7949 56.4951H39.4616ZM36.7949 57.1618C35.7341 57.1618 34.7166 56.7404 33.9665 55.9902C33.2163 55.2401 32.7949 54.2227 32.7949 53.1618V34.4951C32.7949 33.4343 33.2163 32.4168 33.9665 31.6667C34.7166 30.9165 35.7341 30.4951 36.7949 30.4951H61.4616C62.5225 30.4951 63.5399 30.9165 64.29 31.6667C65.0402 32.4168 65.4616 33.4343 65.4616 34.4951V53.1618C65.4616 54.2227 65.0402 55.2401 64.29 55.9902C63.5399 56.7404 62.5225 57.1618 61.4616 57.1618H45.4616L41.0709 61.5525C40.2309 62.3925 38.7949 61.7971 38.7949 60.6098V57.1618H36.7949Z" fill="url(#paint3_linear_6616_15169)"/>
<path d="M45.4609 43.8281C45.4609 44.3586 45.2502 44.8673 44.8752 45.2423C44.5001 45.6174 43.9914 45.8281 43.4609 45.8281C42.9305 45.8281 42.4218 45.6174 42.0467 45.2423C41.6717 44.8673 41.4609 44.3586 41.4609 43.8281C41.4609 43.2977 41.6717 42.789 42.0467 42.4139C42.4218 42.0388 42.9305 41.8281 43.4609 41.8281C43.9914 41.8281 44.5001 42.0388 44.8752 42.4139C45.2502 42.789 45.4609 43.2977 45.4609 43.8281ZM51.4609 43.8281C51.4609 44.3586 51.2502 44.8673 50.8752 45.2423C50.5001 45.6174 49.9914 45.8281 49.4609 45.8281C48.9305 45.8281 48.4218 45.6174 48.0467 45.2423C47.6716 44.8673 47.4609 44.3586 47.4609 43.8281C47.4609 43.2977 47.6716 42.789 48.0467 42.4139C48.4218 42.0388 48.9305 41.8281 49.4609 41.8281C49.9914 41.8281 50.5001 42.0388 50.8752 42.4139C51.2502 42.789 51.4609 43.2977 51.4609 43.8281ZM57.4609 43.8281C57.4609 44.3586 57.2502 44.8673 56.8752 45.2423C56.5001 45.6174 55.9914 45.8281 55.4609 45.8281C54.9305 45.8281 54.4218 45.6174 54.0467 45.2423C53.6716 44.8673 53.4609 44.3586 53.4609 43.8281C53.4609 43.2977 53.6716 42.789 54.0467 42.4139C54.4218 42.0388 54.9305 41.8281 55.4609 41.8281C55.9914 41.8281 56.5001 42.0388 56.8752 42.4139C57.2502 42.789 57.4609 43.2977 57.4609 43.8281Z" fill="#BDBEC2"/>
<path d="M72.1283 60.4948C72.1283 64.1768 69.1436 67.1615 65.4616 67.1615C61.7796 67.1615 58.7949 64.1768 58.7949 60.4948C58.7949 56.8128 61.7796 53.8281 65.4616 53.8281C69.1436 53.8281 72.1283 56.8128 72.1283 60.4948Z" fill="#262A33"/>
<path fill-rule="evenodd" clip-rule="evenodd" d="M65.4616 66.4948C67.0529 66.4948 68.579 65.8626 69.7042 64.7374C70.8294 63.6122 71.4616 62.0861 71.4616 60.4948C71.4616 59.3081 71.1097 58.1481 70.4504 57.1614C69.7911 56.1747 68.854 55.4056 67.7577 54.9515C66.6613 54.4974 65.4549 54.3786 64.291 54.6101C63.1272 54.8416 62.0581 55.413 61.2189 56.2522C60.3798 57.0913 59.8084 58.1604 59.5769 59.3242C59.3454 60.4881 59.4642 61.6945 59.9183 62.7909C60.3724 63.8872 61.1415 64.8243 62.1282 65.4836C63.1149 66.1429 64.2749 66.4948 65.4616 66.4948ZM65.4616 67.1615C69.1436 67.1615 72.1283 64.1768 72.1283 60.4948C72.1283 56.8128 69.1436 53.8281 65.4616 53.8281C61.7796 53.8281 58.7949 56.8128 58.7949 60.4948C58.7949 64.1768 61.7796 67.1615 65.4616 67.1615Z" fill="url(#paint4_linear_6616_15169)"/>
<path fill-rule="evenodd" clip-rule="evenodd" d="M69.2672 58.0233C69.3922 58.1483 69.4624 58.3179 69.4624 58.4946C69.4624 58.6714 69.3922 58.841 69.2672 58.966L65.4052 62.828C64.7385 63.4946 64.1865 63.4946 63.5198 62.828L61.6578 60.966C61.5364 60.8402 61.4692 60.6718 61.4707 60.497C61.4722 60.3223 61.5424 60.155 61.666 60.0314C61.7896 59.9078 61.9568 59.8377 62.1316 59.8362C62.3064 59.8347 62.4748 59.9019 62.6005 60.0233L64.4152 61.838C64.4214 61.8442 64.4287 61.8492 64.4369 61.8526C64.445 61.856 64.4537 61.8577 64.4625 61.8577C64.4713 61.8577 64.48 61.856 64.4881 61.8526C64.4963 61.8492 64.5036 61.8442 64.5098 61.838L68.3245 58.0233C68.4495 57.8983 68.6191 57.8281 68.7958 57.8281C68.9726 57.8281 69.1422 57.8983 69.2672 58.0233Z" fill="white"/>
</g>
</g>
<defs>
<filter id="filter0_d_6616_15169" x="8.12825" y="16.4948" width="70.6673" height="62.6663" filterUnits="userSpaceOnUse" color-interpolation-filters="sRGB">
<feFlood flood-opacity="0" result="BackgroundImageFix"/>
<feColorMatrix in="SourceAlpha" type="matrix" values="0 0 0 0 0 0 0 0 0 0 0 0 0 0 0 0 0 0 127 0" result="hardAlpha"/>
<feOffset dy="5.33333"/>
<feGaussianBlur stdDeviation="3.33333"/>
<feComposite in2="hardAlpha" operator="out"/>
<feColorMatrix type="matrix" values="0 0 0 0 0.34902 0 0 0 0 0.364706 0 0 0 0 0.4 0 0 0 0.2 0"/>
<feBlend mode="normal" in2="BackgroundImageFix" result="effect1_dropShadow_6616_15169"/>
<feBlend mode="normal" in="SourceGraphic" in2="effect1_dropShadow_6616_15169" result="shape"/>
</filter>
<linearGradient id="paint0_linear_6616_15169" x1="29.4616" y1="35.8281" x2="27.1756" y2="18.6188" gradientUnits="userSpaceOnUse">
<stop stop-color="white"/>
<stop offset="1" stop-color="#EEEFF0"/>
</linearGradient>
<linearGradient id="paint1_linear_6616_15169" x1="31.1283" y1="17.8281" x2="31.1283" y2="49.2788" gradientUnits="userSpaceOnUse">
<stop stop-color="#DEDFE0"/>
<stop offset="1" stop-color="#EEEFF0"/>
</linearGradient>
<linearGradient id="paint2_linear_6616_15169" x1="43.1109" y1="61.2044" x2="43.4496" y2="23.0411" gradientUnits="userSpaceOnUse">
<stop stop-color="white"/>
<stop offset="1" stop-color="#EEEFF0"/>
</linearGradient>
<linearGradient id="paint3_linear_6616_15169" x1="49.1283" y1="30.4951" x2="49.1283" y2="61.9458" gradientUnits="userSpaceOnUse">
<stop stop-color="#DEDFE0"/>
<stop offset="1" stop-color="#EEEFF0"/>
</linearGradient>
<linearGradient id="paint4_linear_6616_15169" x1="65.4616" y1="53.8281" x2="65.4616" y2="67.1615" gradientUnits="userSpaceOnUse">
<stop stop-color="#595D66"/>
<stop offset="1" stop-color="#1D2026"/>
</linearGradient>
<clipPath id="clip0_6616_15169">
<rect width="80" height="80" fill="white" transform="translate(0.128906 0.495117)"/>
</clipPath>
</defs>
</svg>
