<svg width="150" height="20" viewBox="0 0 150 20" fill="none" xmlns="http://www.w3.org/2000/svg">
<g id="confluence.278c952aa72bb09f820b2aa5c050f7bf.svg" clip-path="url(#clip0_6893_29420)">
<g id="Layer 2">
<g id="Blue">
<path id="Vector" d="M39.5869 18.086C38.5265 18.7851 36.8462 19.0935 35.0896 19.0935C29.5084 19.0935 26.3535 15.733 26.3535 10.3839C26.3535 5.21388 29.5084 1.59489 35.0397 1.59489C36.6935 1.59489 38.3473 1.90627 39.5634 2.76989V5.02001C38.3473 4.24451 37.0049 3.84501 35.0397 3.84501C31.0594 3.84501 28.68 6.48875 28.68 10.3839C28.68 14.279 31.1358 16.8728 35.1689 16.8728C36.6994 16.8867 38.2107 16.5321 39.5752 15.8388L39.5869 18.086ZM41.2113 12.352C41.2113 8.47449 43.485 5.65744 47.3624 5.65744C51.2399 5.65744 53.4636 8.47449 53.4636 12.352C53.4636 16.2295 51.2135 19.1082 47.3624 19.1082C43.5114 19.1082 41.2113 16.2295 41.2113 12.352ZM43.3821 12.352C43.3821 14.8077 44.5983 17.0314 47.3624 17.0314C50.1266 17.0314 51.2928 14.8077 51.2928 12.352C51.2928 9.89624 50.1178 7.72543 47.3654 7.72543C44.613 7.72543 43.388 9.89624 43.388 12.352H43.3821ZM67.0407 18.8409H64.817V11.036C64.817 8.70949 63.8858 7.6755 61.7679 7.6755C59.7117 7.6755 58.2782 9.04437 58.2782 11.6558V18.8409H56.0545V5.91594H58.2782V8.03681C58.6738 7.30281 59.2644 6.69226 59.9848 6.27243C60.7053 5.85261 61.5276 5.63979 62.3613 5.65744C65.334 5.65744 67.0407 7.71368 67.0407 11.268V18.8409ZM73.23 5.91594H76.564V7.97218H73.23V18.8409H71.0592V7.97218H68.9647V5.91594H71.0592V4.49419C71.0592 2.09133 72.4046 0.461021 75.1717 0.461021C75.6783 0.458196 76.1827 0.527431 76.6698 0.666645V2.72289C76.2099 2.63543 75.7426 2.59215 75.2745 2.59364C73.9056 2.59364 73.2182 3.39557 73.2182 4.55882L73.23 5.91594ZM82.4214 18.9173C80.3005 18.9173 78.9581 17.9097 78.9581 15.5303V0.513895H81.1818V15.2718C81.1818 16.4468 81.9573 16.8493 82.9149 16.8493C83.1306 16.8529 83.3464 16.844 83.5611 16.8228V18.8145C83.1868 18.8947 82.8041 18.9292 82.4214 18.9173ZM85.4441 5.91594H87.6678V13.7208C87.6678 16.0473 88.5989 17.0813 90.7169 17.0813C92.7731 17.0813 94.2066 15.7125 94.2066 13.101V5.91594H96.4362V18.8409H94.2125V16.72C93.8168 17.454 93.2263 18.0646 92.5058 18.4844C91.7854 18.9042 90.963 19.117 90.1294 19.0994C87.1566 19.0994 85.4499 17.0432 85.4499 13.4917L85.4441 5.91594ZM105.968 19.0994C101.133 19.0994 99.0153 16.3088 99.0153 12.3432C99.0153 8.43924 101.186 5.64863 105.116 5.64863C109.097 5.64863 110.698 8.41574 110.698 12.3432V13.3507H101.265C101.577 15.548 102.999 16.9697 106.048 16.9697C107.389 16.9685 108.719 16.7319 109.978 16.2706V18.3268C108.915 18.8908 107.287 19.0994 105.968 19.0994ZM101.239 11.4619H108.45C108.321 9.05905 107.234 7.68725 105.014 7.68725C102.661 7.67256 101.471 9.19712 101.239 11.4472V11.4619ZM124.322 18.8409H122.098V11.036C122.098 8.70949 121.167 7.6755 119.049 7.6755C116.993 7.6755 115.559 9.04437 115.559 11.6558V18.8409H113.336V5.91594H115.559V8.03681C115.955 7.30281 116.545 6.69226 117.266 6.27243C117.986 5.85261 118.809 5.63979 119.642 5.65744C122.615 5.65744 124.322 7.71368 124.322 11.268V18.8409ZM136.551 18.5031C135.775 18.9173 134.585 19.0906 133.396 19.0906C128.796 19.0906 126.639 16.3 126.639 12.3344C126.639 8.43043 128.784 5.63982 133.396 5.63982C134.455 5.60506 135.508 5.81726 136.471 6.25963V8.31587C135.559 7.8861 134.559 7.67392 133.551 7.69606C130.191 7.69606 128.822 9.81693 128.822 12.3226C128.822 14.8283 130.217 16.9785 133.601 16.9785C134.601 17.0049 135.596 16.8476 136.539 16.5144L136.551 18.5031ZM145.26 19.0994C140.425 19.0994 138.307 16.3088 138.307 12.3432C138.307 8.43924 140.478 5.64863 144.408 5.64863C148.389 5.64863 149.99 8.41574 149.99 12.3432V13.3507H140.554C140.866 15.548 142.287 16.9697 145.337 16.9697C146.677 16.9685 148.008 16.7319 149.267 16.2706V18.3268C148.206 18.8908 146.579 19.0994 145.26 19.0994ZM140.531 11.4619H147.742C147.613 9.05905 146.526 7.68725 144.305 7.68725C141.953 7.67256 140.763 9.19712 140.531 11.4472V11.4619Z" fill="black"/>
<path id="Vector_2" d="M0.741659 15.0116C0.550722 15.323 0.336286 15.6843 0.154161 15.9721C0.0757984 16.1046 0.0525162 16.2624 0.0893185 16.4119C0.126121 16.5613 0.22007 16.6903 0.350973 16.7711L4.16971 19.1211C4.23607 19.1621 4.30992 19.1894 4.38696 19.2016C4.464 19.2137 4.54268 19.2104 4.61842 19.1918C4.69416 19.1732 4.76544 19.1397 4.8281 19.0933C4.89076 19.0469 4.94355 18.9884 4.9834 18.9214C5.13614 18.6658 5.33296 18.3339 5.54739 17.9784C7.0602 15.4816 8.58182 15.7871 11.3254 17.0972L15.1119 18.8979C15.1828 18.9317 15.2599 18.9509 15.3384 18.9543C15.4169 18.9578 15.4954 18.9455 15.5691 18.9181C15.6427 18.8907 15.7102 18.8488 15.7674 18.7949C15.8246 18.7409 15.8704 18.6761 15.902 18.6041L17.7204 14.4916C17.7821 14.3505 17.7859 14.1907 17.731 14.0467C17.676 13.9028 17.5667 13.7862 17.4266 13.722C16.6276 13.346 15.0384 12.597 13.6079 11.9067C8.46138 9.40685 4.08746 9.56841 0.741659 15.0116Z" fill="url(#paint0_linear_6893_29420)"/>
<path id="Vector_3" d="M17.8639 5.67852C18.0548 5.36714 18.2693 5.00583 18.4514 4.71796C18.5298 4.58554 18.553 4.42765 18.5162 4.27825C18.4794 4.12884 18.3855 3.99984 18.2546 3.91896L14.4358 1.56897C14.369 1.52394 14.2936 1.49315 14.2143 1.47852C14.1351 1.46388 14.0536 1.46571 13.9751 1.4839C13.8966 1.50208 13.8226 1.53623 13.7579 1.58422C13.6931 1.63221 13.6389 1.69301 13.5987 1.76284C13.4459 2.01841 13.2491 2.35034 13.0347 2.70578C11.5219 5.20265 10.0002 4.89715 7.25662 3.58703L3.48194 1.79516C3.41096 1.76137 3.33392 1.74218 3.25539 1.7387C3.17686 1.73523 3.09842 1.74756 3.02474 1.77495C2.95106 1.80234 2.88362 1.84424 2.82642 1.89817C2.76923 1.9521 2.72343 2.01696 2.69176 2.08891L0.873452 6.20139C0.811705 6.34257 0.807893 6.50235 0.86284 6.64631C0.917786 6.79027 1.02709 6.90688 1.1672 6.97101C1.9662 7.34701 3.55538 8.09607 4.98594 8.78638C10.1442 11.2832 14.5181 11.1158 17.8639 5.67852Z" fill="url(#paint1_linear_6893_29420)"/>
</g>
</g>
</g>
<defs>
<linearGradient id="paint0_linear_6893_29420" x1="17.6175" y1="20.3343" x2="6.06439" y2="13.6956" gradientUnits="userSpaceOnUse">
<stop offset="0.18" stop-color="#0052CC"/>
<stop offset="1" stop-color="#2684FF"/>
</linearGradient>
<linearGradient id="paint1_linear_6893_29420" x1="0.988015" y1="0.352848" x2="12.5441" y2="6.99451" gradientUnits="userSpaceOnUse">
<stop offset="0.18" stop-color="#0052CC"/>
<stop offset="1" stop-color="#2684FF"/>
</linearGradient>
<clipPath id="clip0_6893_29420">
<rect width="149.903" height="18.75" fill="white" transform="translate(0.0869141 0.460938)"/>
</clipPath>
</defs>
</svg>
