<svg width="21" height="16" viewBox="0 0 21 16" fill="none" xmlns="http://www.w3.org/2000/svg">
<path fill-rule="evenodd" clip-rule="evenodd" d="M2.02637 4.50672C2.02646 4.034 2.16067 3.57101 2.41339 3.17151C2.66612 2.77202 3.02699 2.45243 3.4541 2.24984C3.88121 2.04726 4.35703 1.97 4.8263 2.02705C5.29556 2.08409 5.73902 2.2731 6.10515 2.57211C6.47129 2.87112 6.74508 3.26787 6.89474 3.71627C7.04439 4.16468 7.06376 4.64634 6.9506 5.10531C6.83744 5.56429 6.59639 5.98174 6.25545 6.30919C5.9145 6.63664 5.48766 6.86064 5.02449 6.95519V9.50359C5.02449 9.83169 5.08912 10.1566 5.21467 10.4597C5.34023 10.7628 5.52427 11.0383 5.75627 11.2703C6.22482 11.7388 6.8603 12.002 7.52293 12.002H9.07196C9.19579 11.3954 9.54046 10.8563 10.0392 10.4894C10.5378 10.1224 11.155 9.9537 11.771 10.0159C12.3871 10.0782 12.958 10.3669 13.3732 10.8262C13.7885 11.2855 14.0184 11.8826 14.0184 12.5017C14.0184 13.1209 13.7885 13.718 13.3732 14.1772C12.958 14.6365 12.3871 14.9253 11.771 14.9875C11.155 15.0497 10.5378 14.881 10.0392 14.5141C9.54046 14.1471 9.19579 13.608 9.07196 13.0014H7.52293C6.59525 13.0014 5.70557 12.6329 5.0496 11.9769C4.39364 11.321 4.02512 10.4313 4.02512 9.50359V6.95519C3.46079 6.83999 2.95359 6.53336 2.58936 6.08718C2.22513 5.641 2.02625 5.08268 2.02637 4.50672ZM4.5248 3.00766C4.12723 3.00766 3.74594 3.16559 3.46481 3.44672C3.18368 3.72785 3.02574 4.10914 3.02574 4.50672C3.02574 4.90429 3.18368 5.28559 3.46481 5.56672C3.74594 5.84784 4.12723 6.00578 4.5248 6.00578C4.92238 6.00578 5.30367 5.84784 5.5848 5.56672C5.86593 5.28559 6.02387 4.90429 6.02387 4.50672C6.02387 4.10914 5.86593 3.72785 5.5848 3.44672C5.30367 3.16559 4.92238 3.00766 4.5248 3.00766ZM11.5204 11.0027C11.3236 11.0027 11.1286 11.0414 10.9468 11.1168C10.7649 11.1921 10.5996 11.3025 10.4604 11.4417C10.3212 11.5809 10.2108 11.7462 10.1355 11.9281C10.0601 12.1099 10.0214 12.3049 10.0214 12.5017C10.0214 12.6986 10.0601 12.8935 10.1355 13.0754C10.2108 13.2573 10.3212 13.4225 10.4604 13.5617C10.5996 13.7009 10.7649 13.8113 10.9468 13.8867C11.1286 13.962 11.3236 14.0008 11.5204 14.0008C11.918 14.0008 12.2993 13.8428 12.5804 13.5617C12.8616 13.2806 13.0195 12.8993 13.0195 12.5017C13.0195 12.1041 12.8616 11.7228 12.5804 11.4417C12.2993 11.1606 11.918 11.0027 11.5204 11.0027Z" fill="#656F7D"/>
</svg>
