<svg width="16" height="17" viewBox="0 0 16 17" fill="none" xmlns="http://www.w3.org/2000/svg">
<path d="M6.90468 1.66699H5.90537C5.24333 1.66699 4.70621 2.20416 4.70621 2.86625V5.66452C4.70621 6.54648 5.42321 7.26354 6.3051 7.26354H9.50287C10.3848 7.26354 11.1018 6.54648 11.1018 5.66452V2.86625C11.1018 2.20416 10.5646 1.66699 9.9026 1.66699H8.90329V3.66576C8.90329 3.88562 8.72341 4.06551 8.50357 4.06551H7.3044C7.08455 4.06551 6.90468 3.88562 6.90468 3.66576V1.66699ZM2.30787 8.06304C1.42599 8.06304 0.708984 8.7801 0.708984 9.66205V12.8601C0.708984 13.742 1.42599 14.4591 2.30787 14.4591H6.3051C7.18698 14.4591 7.90398 13.742 7.90398 12.8601V9.66205C7.90398 8.7801 7.18698 8.06304 6.3051 8.06304H5.30579V10.0618C5.30579 10.2817 5.12592 10.4616 4.90607 10.4616H3.7069C3.48705 10.4616 3.30718 10.2817 3.30718 10.0618V8.06304H2.30787ZM9.50287 14.4591H13.5001C14.382 14.4591 15.099 13.742 15.099 12.8601V9.66205C15.099 8.7801 14.382 8.06304 13.5001 8.06304H12.5008V10.0618C12.5008 10.2817 12.3209 10.4616 12.1011 10.4616H10.9019C10.6821 10.4616 10.5022 10.2817 10.5022 10.0618V8.06304H9.50287C9.12813 8.06304 8.78337 8.19046 8.51106 8.40783C8.63348 8.66767 8.70343 8.95749 8.70343 9.2623V13.2598C8.70343 13.5646 8.63348 13.8545 8.51106 14.1143C8.78337 14.3317 9.12813 14.4591 9.50287 14.4591Z" fill="#BBA399"/>
</svg>
