<svg width="17" height="17" viewBox="0 0 17 17" fill="none" xmlns="http://www.w3.org/2000/svg">
<path fill-rule="evenodd" clip-rule="evenodd" d="M4.87789 2.84812C4.52449 2.84812 4.18556 2.98851 3.93567 3.23841C3.68578 3.4883 3.54539 3.82722 3.54539 4.18062V8.17812C3.54539 8.53153 3.68578 8.87045 3.93567 9.12034C4.18556 9.37024 4.52449 9.51062 4.87789 9.51062V10.8431C4.17109 10.8431 3.49324 10.5623 2.99345 10.0626C2.49367 9.56278 2.21289 8.88493 2.21289 8.17812V4.18062C2.21289 3.47382 2.49367 2.79597 2.99345 2.29619C3.49324 1.7964 4.17109 1.51563 4.87789 1.51562H8.87539C9.58219 1.51563 10.26 1.7964 10.7598 2.29619C11.2596 2.79597 11.5404 3.47382 11.5404 4.18062H10.2079C10.2079 3.82722 10.0675 3.4883 9.81761 3.23841C9.56772 2.98851 9.22879 2.84812 8.87539 2.84812H4.87789ZM8.87539 6.84562C8.52199 6.84562 8.18306 6.98601 7.93317 7.23591C7.68328 7.4858 7.54289 7.82472 7.54289 8.17812V12.1756C7.54289 12.529 7.68328 12.868 7.93317 13.1178C8.18306 13.3677 8.52199 13.5081 8.87539 13.5081H12.8729C13.2263 13.5081 13.5652 13.3677 13.8151 13.1178C14.065 12.868 14.2054 12.529 14.2054 12.1756V8.17812C14.2054 7.82472 14.065 7.4858 13.8151 7.23591C13.5652 6.98601 13.2263 6.84562 12.8729 6.84562H8.87539ZM6.21039 8.17812C6.21039 7.47132 6.49117 6.79347 6.99095 6.29369C7.49074 5.7939 8.16859 5.51312 8.87539 5.51312H12.8729C13.5797 5.51312 14.2575 5.7939 14.7573 6.29369C15.2571 6.79347 15.5379 7.47132 15.5379 8.17812V12.1756C15.5379 12.8824 15.2571 13.5603 14.7573 14.0601C14.2575 14.5598 13.5797 14.8406 12.8729 14.8406H8.87539C8.16859 14.8406 7.49074 14.5598 6.99095 14.0601C6.49117 13.5603 6.21039 12.8824 6.21039 12.1756V8.17812Z" fill="#4F5762"/>
</svg>
