<svg width="17" height="17" viewBox="0 0 17 17" fill="none" xmlns="http://www.w3.org/2000/svg">
<path fill-rule="evenodd" clip-rule="evenodd" d="M6.8422 3.20076C6.32315 3.20076 5.82535 3.40695 5.45832 3.77398C5.09129 4.14101 4.8851 4.63881 4.8851 5.15787C4.8851 5.67692 5.09129 6.17472 5.45832 6.54175C5.82535 6.90878 6.32315 7.11498 6.8422 7.11498C7.36126 7.11498 7.85906 6.90878 8.22609 6.54175C8.59312 6.17472 8.79931 5.67692 8.79931 5.15787C8.79931 4.63881 8.59312 4.14101 8.22609 3.77398C7.85906 3.40695 7.36126 3.20076 6.8422 3.20076ZM9.05815 7.58935C9.54871 7.14231 9.8926 6.55736 10.0447 5.91132C10.1967 5.26528 10.1498 4.58835 9.9101 3.96945C9.67041 3.35055 9.24913 2.81862 8.7016 2.44351C8.15407 2.06841 7.5059 1.86768 6.8422 1.86768C6.17851 1.86768 5.53033 2.06841 4.98281 2.44351C4.43528 2.81862 4.014 3.35055 3.77431 3.96945C3.53462 4.58835 3.48771 5.26528 3.63976 5.91132C3.79181 6.55736 4.13569 7.14231 4.62626 7.58935C2.96396 8.33888 1.75272 9.90656 1.51754 11.7787C1.49876 11.9524 1.54893 12.1265 1.65724 12.2635C1.76555 12.4005 1.92333 12.4895 2.09663 12.5114C2.26992 12.5332 2.44486 12.4861 2.58378 12.3802C2.7227 12.2744 2.81449 12.1182 2.83938 11.9453C3.08655 9.97719 4.78149 8.44748 6.8422 8.44748C7.65886 8.4458 8.45683 8.69181 9.13077 9.15303C9.203 9.20247 9.28425 9.23719 9.3699 9.25522C9.45554 9.27325 9.5439 9.27424 9.62993 9.25812C9.71595 9.24201 9.79796 9.2091 9.87127 9.16129C9.94458 9.11348 10.0078 9.0517 10.0572 8.97948C10.1066 8.90725 10.1414 8.826 10.1594 8.74035C10.1774 8.65471 10.1784 8.56635 10.1623 8.48032C10.1462 8.39429 10.1133 8.31229 10.0655 8.23898C10.0176 8.16567 9.95586 8.10249 9.88364 8.05306C9.6238 7.87517 9.34797 7.71993 9.05749 7.58935H9.05815ZM11.8024 8.29157C12.0773 8.01695 12.4499 7.86269 12.8385 7.86269C13.227 7.86269 13.5996 8.01695 13.8745 8.29157L14.4101 8.82657C14.5463 8.96269 14.6543 9.1243 14.7281 9.30218C14.8018 9.48006 14.8397 9.67071 14.8397 9.86326C14.8397 10.0558 14.8018 10.2465 14.7281 10.4243C14.6543 10.6022 14.5463 10.7638 14.4101 10.8999L10.6445 14.6649C10.5463 14.7633 10.4198 14.8285 10.2827 14.8515L8.28397 15.1846C8.17939 15.2019 8.07218 15.1941 7.97125 15.1617C7.87031 15.1293 7.77857 15.0732 7.70364 14.9982C7.62872 14.9232 7.57277 14.8314 7.54044 14.7305C7.50811 14.6295 7.50035 14.5223 7.51778 14.4177L7.85091 12.419C7.87364 12.282 7.93864 12.1555 8.03679 12.0572L11.8024 8.29157ZM12.9331 9.23432C12.9207 9.22193 12.906 9.2121 12.8898 9.20539C12.8736 9.19869 12.8563 9.19524 12.8388 9.19524C12.8213 9.19524 12.8039 9.19869 12.7878 9.20539C12.7716 9.2121 12.7569 9.22193 12.7445 9.23432L9.13011 12.8487L8.98553 13.7162L9.85365 13.5716L13.4681 9.9572C13.4929 9.93223 13.5068 9.89846 13.5068 9.86326C13.5068 9.82805 13.4929 9.79428 13.4681 9.76932L12.9331 9.23432Z" fill="#4F5762"/>
</svg>
