<svg width="43" height="43" viewBox="0 0 43 43" fill="none" xmlns="http://www.w3.org/2000/svg">
<rect x="1.04688" y="1.10645" width="40.99" height="40.99" rx="9.5" fill="url(#paint0_linear_6616_38814)"/>
<rect x="1.04688" y="1.10645" width="40.99" height="40.99" rx="9.5" stroke="#E8EAED"/>
<path fill-rule="evenodd" clip-rule="evenodd" d="M25.0651 13.9034L19.8718 19.0967C19.5908 19.3686 19.3669 19.6938 19.2128 20.0531C19.0588 20.4125 18.9779 20.799 18.9747 21.1899C18.9715 21.5809 19.0462 21.9686 19.1944 22.3304C19.3425 22.6923 19.5612 23.021 19.8377 23.2975C20.1141 23.5739 20.4429 23.7926 20.8047 23.9408C21.1665 24.0889 21.5542 24.1636 21.9452 24.1604C22.3362 24.1572 22.7226 24.0763 23.082 23.9223C23.4414 23.7683 23.7665 23.5443 24.0384 23.2634L29.2318 18.07C29.4253 17.8766 29.5788 17.6469 29.6835 17.3941C29.7883 17.1413 29.8422 16.8703 29.8422 16.5967C29.8422 16.3231 29.7883 16.0521 29.6835 15.7993C29.5788 15.5465 29.4253 15.3168 29.2318 15.1234L28.0118 13.9034C27.8183 13.7098 27.5886 13.5563 27.3358 13.4516C27.083 13.3469 26.8121 13.293 26.5384 13.293C26.2648 13.293 25.9939 13.3469 25.7411 13.4516C25.4883 13.5563 25.2586 13.7098 25.0651 13.9034ZM26.8334 15.0817L28.0534 16.3025C28.1316 16.3807 28.1754 16.4866 28.1754 16.5971C28.1754 16.7076 28.1316 16.8136 28.0534 16.8917L22.8601 22.085C22.7419 22.2067 22.6007 22.3037 22.4446 22.3704C22.2886 22.437 22.1209 22.472 21.9512 22.4732C21.7816 22.4745 21.6134 22.442 21.4564 22.3776C21.2994 22.3132 21.1568 22.2183 21.0368 22.0983C20.9168 21.9784 20.8219 21.8358 20.7575 21.6788C20.6932 21.5218 20.6607 21.3536 20.6619 21.1839C20.6632 21.0142 20.6981 20.8465 20.7648 20.6905C20.8314 20.5345 20.9284 20.3932 21.0501 20.275L26.2434 15.0817C26.2821 15.0429 26.3281 15.0121 26.3787 14.9911C26.4294 14.9701 26.4836 14.9593 26.5384 14.9593C26.5932 14.9593 26.6475 14.9701 26.6981 14.9911C26.7488 15.0121 26.7947 15.0429 26.8334 15.0817Z" fill="#2A2E34"/>
<path d="M17.3704 14.0967H21.9663L20.2996 15.7633H17.3704C16.9284 15.7633 16.5045 15.9389 16.1919 16.2515C15.8794 16.5641 15.7038 16.988 15.7038 17.43V25.7633C15.7038 26.2054 15.8794 26.6293 16.1919 26.9419C16.5045 27.2544 16.9284 27.43 17.3704 27.43H25.7038C26.1458 27.43 26.5697 27.2544 26.8823 26.9419C27.1948 26.6293 27.3704 26.2054 27.3704 25.7633V22.8342L29.0371 21.1675V25.7633C29.0371 26.6474 28.6859 27.4952 28.0608 28.1204C27.4357 28.7455 26.5878 29.0967 25.7038 29.0967H17.3704C16.4864 29.0967 15.6385 28.7455 15.0134 28.1204C14.3883 27.4952 14.0371 26.6474 14.0371 25.7633V17.43C14.0371 16.546 14.3883 15.6981 15.0134 15.073C15.6385 14.4479 16.4864 14.0967 17.3704 14.0967Z" fill="#2A2E34"/>
<defs>
<linearGradient id="paint0_linear_6616_38814" x1="41.779" y1="43.3031" x2="1.30472" y2="-0.100253" gradientUnits="userSpaceOnUse">
<stop offset="0.1786" stop-color="#F7F8F9"/>
<stop offset="0.8104" stop-color="white"/>
</linearGradient>
</defs>
</svg>
