<svg width="17" height="17" viewBox="0 0 17 17" fill="none" xmlns="http://www.w3.org/2000/svg">
<path fill-rule="evenodd" clip-rule="evenodd" d="M5.76762 5.63589C5.61045 6.0806 5.30111 6.45544 4.89429 6.69413C4.48748 6.93282 4.00937 7.02001 3.54448 6.94028C3.0796 6.86054 2.65787 6.61902 2.35384 6.25841C2.04981 5.8978 1.88306 5.44131 1.88306 4.96964C1.88306 4.49796 2.04981 4.04147 2.35384 3.68086C2.65787 3.32025 3.0796 3.07873 3.54448 2.99899C4.00937 2.91926 4.48748 3.00645 4.89429 3.24514C5.30111 3.48384 5.61045 3.85867 5.76762 4.30339H14.5421C14.7188 4.30339 14.8883 4.37358 15.0132 4.49853C15.1382 4.62347 15.2084 4.79293 15.2084 4.96964C15.2084 5.14634 15.1382 5.3158 15.0132 5.44074C14.8883 5.56569 14.7188 5.63589 14.5421 5.63589H5.76762ZM4.54838 4.96964C4.54838 5.14634 4.47819 5.3158 4.35324 5.44074C4.2283 5.56569 4.05883 5.63589 3.88213 5.63589C3.70543 5.63589 3.53597 5.56569 3.41102 5.44074C3.28608 5.3158 3.21588 5.14634 3.21588 4.96964C3.21588 4.79293 3.28608 4.62347 3.41102 4.49853C3.53597 4.37358 3.70543 4.30339 3.88213 4.30339C4.05883 4.30339 4.2283 4.37358 4.35324 4.49853C4.47819 4.62347 4.54838 4.79293 4.54838 4.96964ZM2.54963 8.30089C2.37293 8.30089 2.20347 8.37108 2.07852 8.49603C1.95358 8.62097 1.88338 8.79043 1.88338 8.96713C1.88338 9.14384 1.95358 9.3133 2.07852 9.43824C2.20347 9.56319 2.37293 9.63339 2.54963 9.63339H9.99164C10.1293 10.0235 10.3846 10.3613 10.7223 10.6003C11.0599 10.8392 11.4634 10.9675 11.8771 10.9675C12.2908 10.9675 12.6943 10.8392 13.032 10.6003C13.3697 10.3613 13.625 10.0235 13.7626 9.63339H14.5421C14.7188 9.63339 14.8883 9.56319 15.0132 9.43824C15.1382 9.3133 15.2084 9.14384 15.2084 8.96713C15.2084 8.79043 15.1382 8.62097 15.0132 8.49603C14.8883 8.37108 14.7188 8.30089 14.5421 8.30089H13.7626C13.625 7.91077 13.3697 7.57296 13.032 7.33402C12.6943 7.09507 12.2908 6.96675 11.8771 6.96675C11.4634 6.96675 11.0599 7.09507 10.7223 7.33402C10.3846 7.57296 10.1293 7.91077 9.99164 8.30089H2.54963ZM11.8771 9.63339C12.0538 9.63339 12.2233 9.56319 12.3482 9.43824C12.4732 9.3133 12.5434 9.14384 12.5434 8.96713C12.5434 8.79043 12.4732 8.62097 12.3482 8.49603C12.2233 8.37108 12.0538 8.30089 11.8771 8.30089C11.7004 8.30089 11.531 8.37108 11.406 8.49603C11.2811 8.62097 11.2109 8.79043 11.2109 8.96713C11.2109 9.14384 11.2811 9.3133 11.406 9.43824C11.531 9.56319 11.7004 9.63339 11.8771 9.63339ZM2.54963 12.2984C2.37293 12.2984 2.20347 12.3686 2.07852 12.4935C1.95358 12.6185 1.88338 12.7879 1.88338 12.9646C1.88338 13.1413 1.95358 13.3108 2.07852 13.4357C2.20347 13.5607 2.37293 13.6309 2.54963 13.6309H4.66164C4.7996 14.0207 5.05498 14.3582 5.39264 14.5968C5.7303 14.8355 6.13363 14.9637 6.54713 14.9637C6.96063 14.9637 7.36397 14.8355 7.70162 14.5968C8.03928 14.3582 8.29466 14.0207 8.43262 13.6309H14.5421C14.7188 13.6309 14.8883 13.5607 15.0132 13.4357C15.1382 13.3108 15.2084 13.1413 15.2084 12.9646C15.2084 12.7879 15.1382 12.6185 15.0132 12.4935C14.8883 12.3686 14.7188 12.2984 14.5421 12.2984H8.43262C8.29497 11.9083 8.03971 11.5705 7.70201 11.3315C7.36431 11.0926 6.96081 10.9643 6.54713 10.9643C6.13345 10.9643 5.72995 11.0926 5.39225 11.3315C5.05456 11.5705 4.79929 11.9083 4.66164 12.2984H2.54963ZM7.21338 12.9646C7.21338 13.1413 7.14319 13.3108 7.01824 13.4357C6.8933 13.5607 6.72383 13.6309 6.54713 13.6309C6.37043 13.6309 6.20097 13.5607 6.07602 13.4357C5.95108 13.3108 5.88088 13.1413 5.88088 12.9646C5.88088 12.7879 5.95108 12.6185 6.07602 12.4935C6.20097 12.3686 6.37043 12.2984 6.54713 12.2984C6.72383 12.2984 6.8933 12.3686 7.01824 12.4935C7.14319 12.6185 7.21338 12.7879 7.21338 12.9646Z" fill="#4F5762"/>
</svg>
