<svg width="111" height="112" viewBox="0 0 111 112" fill="none" xmlns="http://www.w3.org/2000/svg">
<path d="M98.6615 44.1598C105.066 68.0638 90.8815 92.6338 66.9765 99.0398C43.0725 105.445 18.5015 91.2588 12.0965 67.3548C5.69149 43.4508 19.8775 18.8798 43.7815 12.4748C45.8477 11.9207 47.9507 11.514 50.0745 11.2578C52.8455 12.8578 65.5795 19.2188 73.3875 23.2848C80.5945 27.4458 91.2125 32.0978 94.5375 34.0188C96.3301 37.2134 97.7156 40.6209 98.6615 44.1598Z" fill="#7F77F1"/>
<path d="M98.6167 44.1717C105.016 68.0517 90.8437 92.5967 66.9637 98.9957C43.0837 105.394 18.5387 91.2227 12.1397 67.3427C5.74169 43.4627 19.9127 18.9167 43.7927 12.5187C45.8827 11.9587 47.9767 11.5567 50.0637 11.3037C51.7287 12.2637 56.8987 14.8977 62.4537 17.7297C66.2407 19.6597 70.2067 21.6797 73.3647 23.3247C76.9697 25.4057 81.4267 27.6097 85.3977 29.5327L87.6107 30.6017C90.6267 32.0547 93.1577 33.2747 94.5037 34.0517C96.2914 37.2403 97.6731 40.64 98.6167 44.1717Z" stroke="black" stroke-opacity="0.2" stroke-width="0.091"/>
<path d="M53.3183 15.1025C50.2757 15.2148 47.2556 15.6704 44.3153 16.4605C22.8133 22.2215 10.0533 44.3225 15.8153 65.8245C21.5763 87.3255 43.6773 100.086 65.1793 94.3245C86.6803 88.5625 99.4403 66.4625 93.6783 44.9605C92.6328 41.0443 91.0025 37.3083 88.8423 33.8785" stroke="white" stroke-width="0.679"/>
<path d="M50.0225 11.2725C50.0225 11.2725 55.6365 25.2325 67.9175 30.8435C80.2005 36.4565 94.5405 34.0195 94.5405 34.0195L50.0225 11.2725Z" fill="url(#paint0_linear_6616_21198)"/>
<path d="M50.1113 11.3691L94.3973 33.9961L94.3703 34.0001C94.2623 34.0161 94.1033 34.0401 93.8953 34.0681C93.4793 34.1231 92.8723 34.1961 92.1053 34.2671C90.5693 34.4071 88.3953 34.5371 85.8363 34.4901C80.7193 34.3981 74.0703 33.6051 67.9373 30.8021C61.8073 28.0011 57.3383 23.1151 54.4023 18.9271C53.1919 17.2005 52.0994 15.394 51.1323 13.5201C50.8509 12.9749 50.5831 12.4228 50.3293 11.8641C50.2614 11.7145 50.195 11.5642 50.1303 11.4131L50.1113 11.3691Z" stroke="black" stroke-opacity="0.1" stroke-width="0.091"/>
<path d="M39.145 57.6572L36.609 58.3372L33.797 47.8422L33.712 47.8652C33.049 48.5702 32.001 49.6922 31.253 50.5722L30.627 48.2352C31.4535 47.2588 32.3165 46.3138 33.214 45.4022L35.684 44.7402L39.145 57.6572ZM39.457 51.1332L39.216 50.2342C38.209 46.4772 39.309 43.5042 42.451 42.6642C45.611 41.8162 47.979 43.8392 48.991 47.6142L49.231 48.5142C50.195 52.1102 49.251 55.2122 45.996 56.0842C42.846 56.9292 40.462 54.8802 39.457 51.1332ZM41.764 49.5612L41.997 50.4312C42.737 53.1952 44.038 54.3782 45.457 53.9982C46.887 53.6152 47.409 51.9332 46.672 49.1792L46.438 48.3092C45.703 45.5652 44.412 44.3792 42.983 44.7622C41.563 45.1422 41.026 46.8082 41.763 49.5622L41.764 49.5612ZM50.387 48.2042L50.146 47.3052C49.139 43.5492 50.239 40.5762 53.381 39.7352C56.541 38.8882 58.909 40.9102 59.921 44.6862L60.161 45.5852C61.125 49.1812 60.181 52.2842 56.926 53.1552C53.776 54.0002 51.391 51.9522 50.386 48.2052L50.387 48.2042ZM52.694 46.6332L52.927 47.5032C53.667 50.2662 54.968 51.4492 56.387 51.0692C57.817 50.6862 58.339 49.0042 57.601 46.2512L57.368 45.3812C56.633 42.6362 55.342 41.4512 53.913 41.8332C52.493 42.2132 51.957 43.8792 52.694 46.6332ZM63.527 43.9132C61.824 44.3692 60.482 43.4102 59.992 41.5832L59.873 41.1392C59.383 39.3122 60.088 37.8152 61.792 37.3592C63.495 36.9032 64.825 37.8542 65.314 39.6812L65.434 40.1262C65.908 41.8962 65.268 43.4472 63.527 43.9132ZM65.434 50.6132L63.466 51.1402L66.896 43.0102L69.941 35.5602L71.909 35.0332L68.536 43.0372L65.434 50.6132ZM63.114 42.3302C63.596 42.2002 63.784 41.6122 63.52 40.6282L63.406 40.2032C63.144 39.2282 62.686 38.8032 62.203 38.9332C61.711 39.0642 61.526 39.6612 61.787 40.6362L61.901 41.0622C62.165 42.0462 62.621 42.4622 63.113 42.3292L63.114 42.3302ZM73.525 48.5972C71.831 49.0512 70.489 48.0922 70 46.2652L69.88 45.8212C69.391 43.9942 70.095 42.4972 71.799 42.0412C73.5019 41.5842 74.829 42.5272 75.322 44.3632L75.441 44.8082C75.915 46.5772 75.276 48.1282 73.525 48.5972ZM73.111 47.0142C73.603 46.8822 73.791 46.2942 73.527 45.3102L73.413 44.8842C73.152 43.9102 72.693 43.4842 72.201 43.6172C71.7179 43.7472 71.533 44.3432 71.795 45.3172L71.909 45.7442C72.172 46.7282 72.629 47.1442 73.111 47.0142Z" fill="white"/>
<path d="M39.1434 57.6574L39.1674 57.7444L39.2544 57.7214L39.2314 57.6334L39.1434 57.6574ZM36.6074 58.3374L36.5204 58.3604L36.5434 58.4474L36.6314 58.4244L36.6074 58.3374ZM33.7954 47.8424L33.8834 47.8184L33.8594 47.7314L33.7724 47.7544L33.7954 47.8424ZM33.7104 47.8654L33.6874 47.7774L33.6624 47.7844L33.6444 47.8034L33.7104 47.8654ZM31.2514 50.5724L31.1644 50.5964L31.2084 50.7624L31.3204 50.6314L31.2514 50.5724ZM30.6254 48.2354L30.5554 48.1774L30.5254 48.2134L30.5374 48.2594L30.6254 48.2354ZM33.2124 45.4024L33.1894 45.3144L33.1654 45.3214L33.1484 45.3384L33.2124 45.4024ZM35.6824 44.7404L35.7704 44.7164L35.7464 44.6294L35.6594 44.6524L35.6824 44.7404ZM39.1204 57.5704L36.5844 58.2494L36.6314 58.4244L39.1674 57.7444L39.1204 57.5704ZM36.6954 58.3134L33.8834 47.8184L33.7084 47.8654L36.5204 58.3604L36.6954 58.3134ZM33.7724 47.7544L33.6874 47.7774L33.7334 47.9524L33.8194 47.9294L33.7724 47.7544ZM33.6444 47.8034C32.9814 48.5084 31.9324 49.6324 31.1824 50.5134L31.3204 50.6314C32.0664 49.7534 33.1134 48.6324 33.7764 47.9274L33.6444 47.8034ZM31.3384 50.5494L30.7124 48.2124L30.5374 48.2594L31.1644 50.5964L31.3384 50.5494ZM30.6944 48.2934C31.5197 47.3187 32.3813 46.3754 33.2774 45.4654L33.1484 45.3384C32.2491 46.2523 31.3835 47.1986 30.5554 48.1774L30.6944 48.2934ZM33.2364 45.4894L35.7064 44.8274L35.6594 44.6524L33.1894 45.3144L33.2364 45.4894ZM35.5954 44.7634L39.0554 57.6804L39.2314 57.6334L35.7704 44.7164L35.5954 44.7634ZM39.5424 51.1094L39.3024 50.2114L39.1264 50.2574L39.3674 51.1574L39.5424 51.1094ZM39.3024 50.2114C38.8024 48.3454 38.8274 46.6844 39.3594 45.3904C39.8904 44.1004 40.9274 43.1654 42.4724 42.7504L42.4254 42.5764C40.8294 43.0044 39.7454 43.9764 39.1924 45.3214C38.6404 46.6634 38.6204 48.3674 39.1264 50.2574L39.3014 50.2104L39.3024 50.2114ZM42.4724 42.7504C44.0274 42.3334 45.3794 42.6244 46.4694 43.4774C47.5624 44.3324 48.3994 45.7624 48.9014 47.6384L49.0764 47.5914C48.5674 45.6914 47.7144 44.2224 46.5804 43.3344C45.4434 42.4444 44.0314 42.1454 42.4254 42.5764L42.4724 42.7504ZM48.9014 47.6384L49.1424 48.5384L49.3174 48.4904L49.0764 47.5914L48.9014 47.6384ZM49.1424 48.5384C49.6214 50.3234 49.6224 51.9774 49.1104 53.2884C48.5984 54.5944 47.5724 55.5684 45.9714 55.9984L46.0184 56.1724C47.6724 55.7294 48.7454 54.7154 49.2784 53.3534C49.8104 51.9964 49.8014 50.3004 49.3174 48.4904L49.1424 48.5384ZM45.9714 55.9984C44.4214 56.4124 43.0674 56.1164 41.9754 55.2594C40.8804 54.4004 40.0414 52.9714 39.5424 51.1094L39.3674 51.1574C39.8724 53.0434 40.7274 54.5114 41.8634 55.4024C43.0034 56.2954 44.4164 56.6024 46.0184 56.1724L45.9714 55.9984ZM41.6744 49.5854L41.9074 50.4554L42.0824 50.4084L41.8494 49.5384L41.6744 49.5854ZM41.9074 50.4554C42.2804 51.8454 42.7964 52.8484 43.4074 53.4584C44.0214 54.0714 44.7344 54.2854 45.4794 54.0854L45.4324 53.9104C44.7584 54.0904 44.1104 53.9044 43.5344 53.3304C42.9554 52.7524 42.4514 51.7834 42.0824 50.4084L41.9074 50.4554ZM45.4794 54.0854C46.2294 53.8854 46.7394 53.3404 46.9634 52.5014C47.1854 51.6674 47.1284 50.5414 46.7574 49.1564L46.5824 49.2034C46.9494 50.5734 46.9994 51.6634 46.7884 52.4544C46.5784 53.2404 46.1114 53.7284 45.4324 53.9104L45.4794 54.0854ZM46.7574 49.1564L46.5244 48.2854L46.3494 48.3324L46.5824 49.2034L46.7574 49.1564ZM46.5244 48.2854C46.1544 46.9054 45.6424 45.9064 45.0334 45.2994C44.4194 44.6874 43.7074 44.4744 42.9574 44.6754L43.0044 44.8494C43.6844 44.6674 44.3314 44.8554 44.9044 45.4274C45.4824 46.0034 45.9844 46.9674 46.3494 48.3324L46.5244 48.2854ZM42.9574 44.6754C42.2134 44.8754 41.7024 45.4134 41.4754 46.2484C41.2494 47.0784 41.3024 48.2004 41.6744 49.5854L41.8494 49.5384C41.4824 48.1684 41.4364 47.0824 41.6494 46.2954C41.8624 45.5154 42.3294 45.0304 43.0044 44.8494L42.9574 44.6754ZM50.4724 48.1814L50.2314 47.2814L50.0564 47.3294L50.2974 48.2284L50.4724 48.1814ZM50.2314 47.2814C49.7314 45.4164 49.7574 43.7554 50.2894 42.4614C50.8204 41.1714 51.8574 40.2364 53.4024 39.8214L53.3554 39.6474C51.7594 40.0754 50.6754 41.0474 50.1224 42.3924C49.5704 43.7344 49.5504 45.4384 50.0564 47.3294L50.2314 47.2814ZM53.4024 39.8214C54.9574 39.4054 56.3094 39.6954 57.3994 40.5484C58.4924 41.4044 59.3294 42.8334 59.8314 44.7104L60.0064 44.6634C59.4974 42.7634 58.6444 41.2934 57.5104 40.4054C56.3734 39.5154 54.9614 39.2174 53.3554 39.6474L53.4024 39.8214ZM59.8314 44.7104L60.0724 45.6084L60.2474 45.5624L60.0074 44.6624L59.8314 44.7104ZM60.0724 45.6084C60.5514 47.3944 60.5524 49.0484 60.0404 50.3584C59.5284 51.6664 58.5024 52.6404 56.9004 53.0684L56.9484 53.2434C58.6024 52.8004 59.6754 51.7874 60.2084 50.4254C60.7404 49.0674 60.7324 47.3724 60.2474 45.5624L60.0724 45.6084ZM56.9004 53.0684C55.3504 53.4844 53.9974 53.1884 52.9054 52.3314C51.8104 51.4714 50.9714 50.0434 50.4724 48.1814L50.2974 48.2284C50.8024 50.1134 51.6574 51.5824 52.7934 52.4734C53.9334 53.3674 55.3464 53.6734 56.9484 53.2434L56.9004 53.0684ZM52.6044 46.6564L52.8384 47.5264L53.0124 47.4804L52.7794 46.6104L52.6044 46.6564ZM52.8384 47.5264C53.2104 48.9164 53.7264 49.9204 54.3374 50.5294C54.9514 51.1424 55.6644 51.3564 56.4094 51.1564L56.3624 50.9824C55.6884 51.1624 55.0404 50.9754 54.4644 50.4014C53.8854 49.8234 53.3804 48.8544 53.0124 47.4804L52.8384 47.5274V47.5264ZM56.4094 51.1564C57.1594 50.9564 57.6684 50.4124 57.8934 49.5724C58.1154 48.7384 58.0584 47.6124 57.6874 46.2274L57.5124 46.2744C57.8794 47.6444 57.9294 48.7344 57.7184 49.5264C57.5084 50.3114 57.0414 50.8004 56.3624 50.9824L56.4094 51.1564ZM57.6874 46.2274L57.4544 45.3574L57.2794 45.4044L57.5124 46.2744L57.6874 46.2274ZM57.4544 45.3574C57.0844 43.9774 56.5724 42.9774 55.9634 42.3704C55.3494 41.7594 54.6374 41.5454 53.8874 41.7464L53.9344 41.9214C54.6144 41.7394 55.2614 41.9264 55.8344 42.4984C56.4124 43.0744 56.9144 44.0404 57.2794 45.4044L57.4544 45.3574ZM53.8874 41.7464C53.1434 41.9464 52.6324 42.4844 52.4054 43.3194C52.1794 44.1494 52.2324 45.2724 52.6044 46.6564L52.7794 46.6104C52.4124 45.2414 52.3664 44.1534 52.5794 43.3674C52.7924 42.5854 53.2594 42.1014 53.9344 41.9214L53.8874 41.7464ZM65.4324 50.6134L65.4564 50.7004L65.4994 50.6884L65.5164 50.6474L65.4324 50.6134ZM63.4644 51.1404L63.3804 51.1054L63.3084 51.2754L63.4884 51.2274L63.4644 51.1404ZM69.9394 35.5604L69.9154 35.4734L69.8724 35.4854L69.8554 35.5274L69.9394 35.5604ZM71.9074 35.0334L71.9914 35.0694L72.0624 34.8994L71.8844 34.9464L71.9074 35.0334ZM63.5024 43.8254C62.6724 44.0474 61.9394 43.9244 61.3534 43.5294C60.7664 43.1334 60.3184 42.4584 60.0784 41.5604L59.9034 41.6074C60.1524 42.5364 60.6204 43.2534 61.2524 43.6794C61.8864 44.1064 62.6744 44.2344 63.5494 43.9994L63.5024 43.8254ZM60.0784 41.5604L59.9584 41.1154L59.7844 41.1624L59.9034 41.6074L60.0784 41.5604ZM59.9584 41.1154C59.7184 40.2184 59.7744 39.4114 60.0894 38.7754C60.4044 38.1424 60.9844 37.6694 61.8134 37.4464L61.7664 37.2724C60.8924 37.5064 60.2684 38.0094 59.9274 38.6954C59.5874 39.3794 59.5354 40.2334 59.7844 41.1624L59.9584 41.1154ZM61.8134 37.4464C62.6434 37.2244 63.3734 37.3464 63.9564 37.7394C64.5404 38.1334 64.9844 38.8064 65.2254 39.7044L65.4004 39.6574C65.1514 38.7294 64.6864 38.0134 64.0574 37.5894C63.4274 37.1634 62.6404 37.0374 61.7674 37.2724L61.8134 37.4464ZM65.2254 39.7044L65.3454 40.1494L65.5194 40.1024L65.4004 39.6574L65.2254 39.7044ZM65.3454 40.1494C65.5774 41.0194 65.5354 41.8254 65.2274 42.4694C64.9224 43.1094 64.3494 43.5984 63.5024 43.8254L63.5494 44.0004C64.4434 43.7604 65.0604 43.2404 65.3914 42.5474C65.7214 41.8554 65.7614 41.0034 65.5194 40.1024L65.3454 40.1494ZM65.4094 50.5254L63.4414 51.0524L63.4884 51.2274L65.4564 50.7004L65.4094 50.5254ZM63.5474 51.1754L66.9784 43.0454L66.8114 42.9754L63.3804 51.1054L63.5474 51.1754ZM66.9774 43.0444L70.0234 35.5954L69.8554 35.5274L66.8104 42.9764L66.9784 43.0454L66.9774 43.0444ZM69.9624 35.6484L71.9314 35.1214L71.8844 34.9464L69.9154 35.4734L69.9624 35.6484ZM71.8244 34.9984L68.4514 43.0024L68.6184 43.0724L71.9914 35.0694L71.8244 34.9984ZM68.4504 43.0034L65.3484 50.5784L65.5164 50.6474L68.6184 43.0724L68.4504 43.0034ZM63.1354 42.4174C63.4134 42.3424 63.6014 42.1344 63.6824 41.8224C63.7624 41.5154 63.7394 41.1044 63.6054 40.6054L63.4304 40.6524C63.5604 41.1364 63.5754 41.5124 63.5074 41.7774C63.4394 42.0374 63.2934 42.1874 63.0874 42.2424L63.1354 42.4174ZM63.6054 40.6054L63.4914 40.1794L63.3164 40.2264L63.4304 40.6524L63.6054 40.6054ZM63.4914 40.1794C63.3584 39.6844 63.1734 39.3184 62.9504 39.0904C62.7244 38.8604 62.4564 38.7704 62.1784 38.8454L62.2244 39.0204C62.4294 38.9654 62.6314 39.0244 62.8214 39.2174C63.0134 39.4134 63.1874 39.7474 63.3164 40.2264L63.4914 40.1794ZM62.1784 38.8454C61.8954 38.9214 61.7054 39.1324 61.6234 39.4454C61.5434 39.7554 61.5654 40.1654 61.6984 40.6604L61.8734 40.6134C61.7444 40.1334 61.7294 39.7574 61.7984 39.4914C61.8674 39.2294 62.0154 39.0764 62.2244 39.0204L62.1784 38.8454ZM61.6984 40.6604L61.8124 41.0854L61.9874 41.0394L61.8734 40.6134L61.6984 40.6604ZM61.8124 41.0854C61.9464 41.5854 62.1324 41.9524 62.3554 42.1784C62.5834 42.4084 62.8534 42.4924 63.1354 42.4174L63.0874 42.2424C62.8774 42.2984 62.6734 42.2424 62.4844 42.0504C62.2914 41.8564 62.1174 41.5234 61.9874 41.0394L61.8124 41.0854ZM73.5004 48.5094C72.6754 48.7304 71.9444 48.6064 71.3604 48.2114C70.7734 47.8154 70.3264 47.1404 70.0854 46.2424L69.9104 46.2894C70.1604 47.2174 70.6274 47.9354 71.2584 48.3614C71.8904 48.7894 72.6774 48.9174 73.5464 48.6844L73.5004 48.5094ZM70.0854 46.2424L69.9664 45.7974L69.7914 45.8444L69.9104 46.2894L70.0854 46.2424ZM69.9664 45.7974C69.7264 44.9004 69.7814 44.0934 70.0964 43.4574C70.4124 42.8244 70.9914 42.3514 71.8204 42.1284L71.7734 41.9534C70.8994 42.1884 70.2754 42.6914 69.9344 43.3774C69.5944 44.0614 69.5424 44.9154 69.7914 45.8444L69.9664 45.7974ZM71.8204 42.1284C72.6504 41.9064 73.3804 42.0264 73.9624 42.4184C74.5464 42.8104 74.9904 43.4844 75.2324 44.3864L75.4074 44.3394C75.1574 43.4064 74.6924 42.6904 74.0634 42.2674C73.4334 41.8434 72.6474 41.7194 71.7734 41.9534L71.8204 42.1284ZM75.2324 44.3864L75.3524 44.8314L75.5264 44.7844L75.4074 44.3394L75.2324 44.3864ZM75.3524 44.8314C75.5844 45.7014 75.5424 46.5074 75.2344 47.1514C74.9274 47.7924 74.3524 48.2814 73.5004 48.5094L73.5464 48.6844C74.4454 48.4444 75.0664 47.9224 75.3964 47.2294C75.7284 46.5374 75.7674 45.6844 75.5264 44.7844L75.3524 44.8314ZM73.1324 47.1014C73.4144 47.0264 73.6064 46.8184 73.6884 46.5054C73.7694 46.1974 73.7464 45.7864 73.6124 45.2874L73.4374 45.3344C73.5674 45.8184 73.5834 46.1944 73.5134 46.4594C73.4444 46.7194 73.2964 46.8704 73.0864 46.9274L73.1324 47.1014ZM73.6124 45.2874L73.4994 44.8614L73.3244 44.9084L73.4374 45.3344L73.6124 45.2874ZM73.4994 44.8614C73.3674 44.3664 73.1814 43.9994 72.9574 43.7724C72.7294 43.5424 72.4594 43.4544 72.1774 43.5294L72.2234 43.7044C72.4334 43.6484 72.6384 43.7074 72.8284 43.8994C73.0214 44.0954 73.1964 44.4284 73.3244 44.9084L73.4994 44.8614ZM72.1774 43.5294C71.8994 43.6044 71.7114 43.8154 71.6304 44.1284C71.5504 44.4364 71.5744 44.8464 71.7064 45.3414L71.8814 45.2944C71.7524 44.8144 71.7374 44.4394 71.8054 44.1734C71.8734 43.9114 72.0194 43.7594 72.2234 43.7044L72.1774 43.5294ZM71.7064 45.3414L71.8204 45.7674L71.9954 45.7204L71.8814 45.2944L71.7064 45.3414ZM71.8204 45.7674C71.9544 46.2674 72.1404 46.6344 72.3624 46.8604C72.5894 47.0904 72.8564 47.1764 73.1344 47.1014L73.0874 46.9264C72.8824 46.9814 72.6804 46.9244 72.4914 46.7334C72.2994 46.5384 72.1254 46.2054 71.9954 45.7204L71.8204 45.7674Z" fill="black" fill-opacity="0.1"/>
<path d="M32.1099 71.7785L30.2949 65.0025L31.6849 64.6295L35.1199 69.2965L35.1999 69.2745L35.8369 63.5175L37.2269 63.1445L39.0429 69.9215L37.9529 70.2135L36.6629 65.3945L36.5779 65.4175L35.9899 70.7395L35.1639 70.9605L31.9939 66.6455L31.9139 66.6675L33.2049 71.4855L32.1099 71.7785ZM42.3999 69.1325C40.8599 69.5455 39.6599 68.7895 39.2149 67.1275L39.2119 67.1175C38.7709 65.4695 39.4439 64.2075 40.9699 63.7975C42.5009 63.3875 43.7099 64.1405 44.1529 65.7935L44.1549 65.8035C44.6009 67.4655 43.9349 68.7205 42.3999 69.1325ZM42.1459 68.1845C42.9579 67.9665 43.2479 67.2095 42.9589 66.1285L42.9569 66.1195C42.6669 65.0395 42.0309 64.5255 41.2229 64.7415C40.4109 64.9595 40.1169 65.7225 40.4059 66.8025L40.4089 66.8125C40.6989 67.8925 41.3329 68.4025 42.1459 68.1845ZM45.5789 68.1705L44.2039 63.0365L45.3739 62.7235L45.5839 63.5075L45.6639 63.4865C45.7599 62.8715 46.1639 62.4065 46.9059 62.2065C48.0519 61.9005 48.8619 62.4235 49.1889 63.6445L50.0789 66.9645L48.9089 67.2775L48.0929 64.2295C47.8779 63.4315 47.4459 63.1145 46.7369 63.3045C46.0419 63.4905 45.7409 64.0945 45.9469 64.8645L46.7489 67.8565L45.5789 68.1705ZM53.2479 66.2265C51.7209 66.6355 50.5219 65.8595 50.0839 64.2245L50.0829 64.2205C49.6499 62.6045 50.3009 61.2975 51.7619 60.9055C53.2219 60.5155 54.3979 61.2965 54.8139 62.8465L54.9169 63.2315L51.3289 64.1935C51.5889 65.1095 52.2309 65.5115 53.0249 65.2995C53.6589 65.1295 53.9349 64.7135 53.9849 64.4485L53.9899 64.4115L55.1029 64.1135L55.0999 64.1595C55.1129 64.8655 54.6429 65.8525 53.2479 66.2265ZM52.0209 61.8185C51.3679 61.9925 50.9979 62.5655 51.1279 63.4065L53.5659 62.7535C53.2599 61.9335 52.6739 61.6435 52.0209 61.8185ZM57.1689 66.9985C57.0202 67.0389 56.8697 67.0722 56.7179 67.0985L56.4779 66.2015C56.5739 66.1855 56.7059 66.1545 56.8279 66.1215C57.3079 65.9935 57.5409 65.7195 57.5429 65.2215L57.5419 64.9695L54.3289 60.3235L55.6059 59.9815L57.8779 63.6715L57.9679 63.6475L58.0859 59.3175L59.3159 58.9875L58.8799 64.7225C58.7829 66.1275 58.3049 66.6935 57.1689 66.9985ZM66.2649 62.7185C65.5459 62.9105 64.8989 62.7315 64.4679 62.2485L64.3879 62.2695L64.6029 63.0725L63.4329 63.3865L61.5259 56.2665L62.6959 55.9525L63.4459 58.7565L63.5259 58.7355C63.6459 58.1095 64.1389 57.6055 64.8439 57.4155C66.1439 57.0675 67.2239 57.8655 67.6619 59.4995L67.6649 59.5095C68.0999 61.1335 67.5509 62.3735 66.2649 62.7185ZM65.6339 61.8295C66.4319 61.6165 66.7489 60.8615 66.4719 59.8295L66.4689 59.8195C66.1929 58.7865 65.5399 58.2865 64.7419 58.4995C63.9479 58.7125 63.6249 59.4795 63.8999 60.5075L63.9029 60.5175C64.1789 61.5455 64.8399 62.0415 65.6339 61.8295ZM70.5049 61.5815C69.5279 61.8435 68.6579 61.4325 68.4079 60.4975L68.4049 60.4885C68.1599 59.5725 68.7149 58.8495 69.9449 58.4395L71.2429 58.0065L71.1249 57.5655C70.9879 57.0535 70.5789 56.8605 69.9499 57.0295C69.4139 57.1725 69.1179 57.4585 69.0909 57.8275V57.8475L67.9879 58.1435L67.9809 58.1005C67.8629 57.2055 68.5359 56.4115 69.7569 56.0845C71.0769 55.7305 71.9899 56.1705 72.2799 57.2545L73.2199 60.7645L72.0649 61.0735L71.8759 60.3685L71.7959 60.3905C71.6479 60.9635 71.1799 61.4005 70.5049 61.5815ZM69.5479 60.1315C69.6649 60.5685 70.1049 60.7275 70.6219 60.5895C71.3259 60.3995 71.7239 59.8005 71.5609 59.1895L71.4499 58.7765L70.3149 59.1615C69.6729 59.3785 69.4319 59.6995 69.5449 60.1225L69.5479 60.1325V60.1315ZM76.4179 60.0175C74.8729 60.4315 73.6929 59.6755 73.2439 57.9985L73.2419 57.9895C72.7969 56.3315 73.4379 55.0975 74.9839 54.6835C76.3039 54.3305 77.2889 54.8515 77.7039 55.8775L77.7099 55.8965L76.6059 56.1925L76.5969 56.1795C76.3559 55.7095 75.8799 55.4555 75.2409 55.6265C74.4429 55.8405 74.1409 56.5965 74.4299 57.6715L74.4319 57.6805C74.7239 58.7705 75.3699 59.2815 76.1639 59.0695C76.7689 58.9065 77.0659 58.5295 77.0669 57.9515L77.0709 57.9295L78.1739 57.6295V57.6695C78.2869 58.7665 77.7189 59.6695 76.4179 60.0175ZM79.3479 59.1215L77.4409 52.0015L78.6109 51.6885L79.7059 55.7785L79.7859 55.7585L81.1149 53.1465L82.4669 52.7845L80.9819 55.5075L83.9839 57.8795L82.5739 58.2575L80.3309 56.4775L80.0349 57.0045L80.5179 58.8085L79.3479 59.1215ZM41.0059 78.8945C39.0429 79.4205 37.4559 78.3805 36.8699 76.1925L36.8669 76.1825C36.2869 74.0175 37.1509 72.3015 39.0809 71.7845C40.6449 71.3645 42.0119 71.9595 42.5969 73.2225L42.6149 73.2685L41.4119 73.5905L41.3859 73.5475C40.9659 72.8645 40.2309 72.5985 39.3619 72.8315C38.1779 73.1485 37.6899 74.3115 38.0999 75.8415L38.1019 75.8515C38.5189 77.4065 39.5379 78.1655 40.7449 77.8415C41.7779 77.5645 42.3099 76.7325 42.0649 75.7665L42.0329 75.6245L40.4079 76.0595L40.1599 75.1345L42.9729 74.3805L43.1999 75.2255C43.6699 76.9775 42.8139 78.4095 41.0059 78.8945ZM46.5019 77.3515C45.3469 77.6615 44.5689 77.1245 44.2419 75.9035L43.3519 72.5835L44.5219 72.2695L45.3389 75.3215C45.5519 76.1155 45.9559 76.4405 46.6599 76.2515C47.4169 76.0485 47.6899 75.4515 47.4829 74.6815L46.6819 71.6905L47.8509 71.3775L49.2259 76.5105L48.0559 76.8235L47.8479 76.0435L47.7679 76.0655C47.6759 76.6795 47.2439 77.1525 46.5019 77.3515ZM51.6389 75.9545C50.6619 76.2165 49.7919 75.8045 49.5409 74.8705L49.5389 74.8605C49.2939 73.9455 49.8489 73.2225 51.0789 72.8125L52.3769 72.3795L52.2589 71.9375C52.1219 71.4255 51.7129 71.2335 51.0839 71.4015C50.5479 71.5455 50.2519 71.8315 50.2249 72.2015V72.2215L49.1219 72.5165L49.1149 72.4725C48.9969 71.5785 49.6699 70.7845 50.8909 70.4565C52.2109 70.1035 53.1239 70.5435 53.4139 71.6285L54.3539 75.1365L53.1989 75.4465L53.0099 74.7415L52.9299 74.7625C52.7819 75.3365 52.3149 75.7725 51.6389 75.9545ZM50.6819 74.5045C50.7989 74.9415 51.2389 75.1005 51.7559 74.9615C52.4599 74.7735 52.8579 74.1735 52.6939 73.5625L52.5839 73.1495L51.4479 73.5345C50.8079 73.7515 50.5659 74.0725 50.6789 74.4945L50.6819 74.5045ZM55.3219 74.8775L53.9459 69.7435L55.1159 69.4305L55.3259 70.2205L55.4059 70.1985C55.4329 69.6025 55.8159 69.1525 56.4919 68.9715C56.6709 68.9235 56.8599 68.8975 56.9819 68.9005L57.2619 69.9475C57.0594 69.9574 56.8584 69.9875 56.6619 70.0375C55.8819 70.2475 55.4959 70.8485 55.6919 71.5815L56.4909 74.5635L55.3219 74.8775ZM60.2419 73.6495C59.2649 73.9115 58.3949 73.4995 58.1449 72.5655L58.1419 72.5555C57.8969 71.6405 58.4519 70.9175 59.6819 70.5075L60.9799 70.0735L60.8619 69.6325C60.7249 69.1205 60.3159 68.9285 59.6869 69.0965C59.1509 69.2405 58.8549 69.5265 58.8289 69.8955V69.9155L57.7249 70.2115L57.7179 70.1675C57.5999 69.2735 58.2729 68.4785 59.4939 68.1515C60.8139 67.7985 61.7269 68.2385 62.0169 69.3225L62.9569 72.8315L61.8019 73.1415L61.6129 72.4365L61.5329 72.4575C61.3849 73.0305 60.9179 73.4675 60.2419 73.6495ZM59.2849 72.1995C59.4019 72.6365 59.8419 72.7955 60.3589 72.6565C61.0629 72.4675 61.4609 71.8685 61.2969 71.2565L61.1869 70.8445L60.0509 71.2285C59.4109 71.4465 59.1689 71.7675 59.2819 72.1905L59.2849 72.1995ZM63.9249 72.5725L62.5489 67.4385L63.7189 67.1255L63.9289 67.9095L64.0089 67.8885C64.1049 67.2735 64.5089 66.8085 65.2509 66.6085C66.3969 66.3025 67.2069 66.8245 67.5339 68.0465L68.4239 71.3665L67.2539 71.6795L66.4369 68.6315C66.2239 67.8335 65.7909 67.5165 65.0819 67.7065C64.3869 67.8925 64.0859 68.4965 64.2919 69.2665L65.0939 72.2585L63.9239 72.5715L63.9249 72.5725ZM71.3929 70.5955C70.2139 70.9115 69.6249 70.6475 69.3589 69.6555L68.5919 66.7915L67.7929 67.0055L67.5499 66.0985L68.3489 65.8845L68.0109 64.6265L69.1999 64.3075L69.5369 65.5665L70.6219 65.2765L70.8649 66.1825L69.7799 66.4725L70.4729 69.0605C70.6099 69.5725 70.8699 69.7345 71.3589 69.6035C71.5229 69.5595 71.6109 69.5305 71.7479 69.4785L71.9899 70.3805C71.8299 70.4585 71.6179 70.5355 71.3929 70.5955ZM74.9029 69.7405C73.3769 70.1505 72.1769 69.3735 71.7399 67.7405L71.7379 67.7345C71.3049 66.1195 71.9569 64.8125 73.4179 64.4205C74.8779 64.0305 76.0539 64.8115 76.4689 66.3615L76.5729 66.7465L72.9849 67.7085C73.2449 68.6245 73.8859 69.0265 74.6799 68.8145C75.3139 68.6445 75.5899 68.2275 75.6399 67.9625L75.6449 67.9265L76.7579 67.6285L76.7559 67.6745C76.7689 68.3805 76.2979 69.3675 74.9029 69.7405ZM73.6769 65.3325C73.0239 65.5075 72.6539 66.0805 72.7839 66.9215L75.2209 66.2685C74.9159 65.4485 74.3299 65.1585 73.6769 65.3325ZM80.1389 68.3375C78.6129 68.7475 77.4139 67.9705 76.9759 66.3375L76.9739 66.3325C76.5409 64.7165 77.1929 63.4095 78.6539 63.0175C80.1139 62.6275 81.2899 63.4085 81.7049 64.9585L81.8089 65.3435L78.2209 66.3055C78.4809 67.2215 79.1219 67.6235 79.9159 67.4115C80.5499 67.2415 80.8259 66.8245 80.8759 66.5595L80.8809 66.5235L81.9939 66.2255L81.9919 66.2715C82.0049 66.9775 81.5339 67.9635 80.1389 68.3375ZM78.9129 63.9295C78.2599 64.1045 77.8899 64.6775 78.0199 65.5185L80.4569 64.8655C80.1519 64.0455 79.5659 63.7555 78.9129 63.9295Z" fill="white"/>
<path d="M32.1096 71.7781L32.0226 71.8022L32.0466 71.8891L32.1336 71.8661L32.1096 71.7781ZM30.2946 65.0021L30.2716 64.9142L30.1836 64.9371L30.2076 65.0252L30.2946 65.0021ZM31.6846 64.6291L31.7576 64.5751L31.7206 64.5252L31.6606 64.5421L31.6846 64.6291ZM35.1196 69.2961L35.0466 69.3491L35.0836 69.3992L35.1436 69.3831L35.1196 69.2961ZM35.1996 69.2742L35.2226 69.3621L35.2826 69.3461L35.2896 69.2841L35.1996 69.2742ZM35.8366 63.5171L35.8126 63.4291L35.7526 63.4451L35.7466 63.5071L35.8366 63.5171ZM37.2266 63.1441L37.3136 63.1211L37.2906 63.0331L37.2036 63.0571L37.2266 63.1441ZM39.0426 69.9211L39.0656 70.0081L39.1536 69.9851L39.1296 69.8981L39.0426 69.9211ZM37.9526 70.2131L37.8656 70.2361L37.8886 70.3241L37.9766 70.3001L37.9526 70.2131ZM36.6626 65.3941L36.7496 65.3712L36.7256 65.2841L36.6386 65.3071L36.6626 65.3941ZM36.5776 65.4171L36.5536 65.3302L36.4936 65.3461L36.4876 65.4071L36.5776 65.4171ZM35.9896 70.7391L36.0136 70.8261L36.0736 70.8101L36.0796 70.7491L35.9896 70.7391ZM35.1636 70.9601L35.0906 71.0141L35.1266 71.0641L35.1866 71.0481L35.1636 70.9601ZM31.9936 66.6451L32.0666 66.5921L32.0296 66.5421L31.9696 66.5581L31.9936 66.6451ZM31.9136 66.6671L31.8906 66.5792L31.8026 66.6031L31.8266 66.6901L31.9136 66.6671ZM33.2046 71.4851L33.2286 71.5731L33.3156 71.5491L33.2926 71.4621L33.2046 71.4851ZM32.1976 71.7551L30.3816 64.9781L30.2076 65.0252L32.0226 71.8022L32.1976 71.7551ZM30.3176 65.0891L31.7076 64.7161L31.6616 64.5421L30.2716 64.9142L30.3176 65.0891ZM31.6116 64.6831L35.0466 69.3491L35.1926 69.2421L31.7576 64.5751L31.6116 64.6831ZM35.1436 69.3831L35.2226 69.3621L35.1766 69.1871L35.0966 69.2081L35.1436 69.3831ZM35.2896 69.2841L35.9266 63.5261L35.7466 63.5061L35.1096 69.2641L35.2896 69.2841ZM35.8596 63.6041L37.2496 63.2321L37.2036 63.0571L35.8126 63.4291L35.8596 63.6041ZM37.1396 63.1681L38.9546 69.9451L39.1296 69.8981L37.3136 63.1211L37.1396 63.1681ZM39.0196 69.8341L37.9296 70.1251L37.9766 70.3001L39.0666 70.0091L39.0196 69.8341ZM38.0396 70.1901L36.7496 65.3712L36.5746 65.4181L37.8656 70.2361L38.0396 70.1901ZM36.6386 65.3071L36.5536 65.3302L36.6006 65.5051L36.6856 65.4822L36.6386 65.3071ZM36.4876 65.4071L35.8996 70.7291L36.0796 70.7491L36.6676 65.4272L36.4876 65.4071ZM35.9666 70.6521L35.1396 70.8731L35.1866 71.0481L36.0136 70.8261L35.9666 70.6521ZM35.2366 70.9071L32.0666 66.5921L31.9206 66.6991L35.0906 71.0141L35.2366 70.9071ZM31.9696 66.5581L31.8896 66.5792L31.9366 66.7541L32.0166 66.7332L31.9706 66.5581H31.9696ZM31.8266 66.6901L33.1166 71.5091L33.2926 71.4621L32.0016 66.6431L31.8266 66.6901ZM33.1816 71.3981L32.0866 71.6912L32.1336 71.8661L33.2286 71.5731L33.1816 71.3981ZM42.3756 69.0451C41.6256 69.2451 40.9676 69.1602 40.4446 68.8312C39.9206 68.5012 39.5206 67.9191 39.3016 67.1031L39.1266 67.1502C39.3536 67.9972 39.7766 68.6241 40.3476 68.9841C40.9216 69.3451 41.6326 69.4312 42.4226 69.2201L42.3756 69.0451ZM39.3016 67.1031L39.2996 67.0932L39.1246 67.1411L39.1266 67.1502L39.3016 67.1031ZM39.2996 67.0932C39.0826 66.2862 39.1426 65.5831 39.4326 65.0351C39.7226 64.4881 40.2506 64.0841 40.9926 63.8851L40.9466 63.7101C40.1636 63.9201 39.5906 64.3511 39.2726 64.9501C38.9556 65.5481 38.8996 66.3011 39.1246 67.1411L39.2996 67.0932ZM40.9926 63.8851C41.7376 63.6851 42.3976 63.7701 42.9216 64.0981C43.4466 64.4271 43.8476 65.0062 44.0656 65.8172L44.2396 65.7701C44.0136 64.9271 43.5896 64.3041 43.0176 63.9451C42.4436 63.5851 41.7316 63.4991 40.9466 63.7101L40.9926 63.8851ZM44.0656 65.8172L44.0676 65.8271L44.2426 65.7791L44.2396 65.7701L44.0646 65.8172H44.0656ZM44.0676 65.8271C44.2856 66.6421 44.2296 67.3471 43.9406 67.8941C43.6506 68.4411 43.1236 68.8451 42.3756 69.0451L42.4226 69.2201C43.2106 69.0091 43.7836 68.5781 44.1006 67.9791C44.4166 67.3811 44.4696 66.6271 44.2426 65.7791L44.0676 65.8271ZM42.1686 68.2711C42.6006 68.1551 42.9006 67.8931 43.0486 67.5131C43.1966 67.1361 43.1936 66.6561 43.0466 66.1051L42.8716 66.1521C43.0136 66.6821 43.0096 67.1191 42.8816 67.4461C42.7546 67.7691 42.5016 67.9942 42.1216 68.0961L42.1686 68.2711ZM43.0466 66.1051L43.0436 66.0951L42.8686 66.1421L42.8716 66.1521L43.0466 66.1051ZM43.0436 66.0951C42.8956 65.5451 42.6566 65.1251 42.3406 64.8731C42.0206 64.6181 41.6296 64.5381 41.1996 64.6531L41.2466 64.8281C41.6246 64.7281 41.9556 64.7981 42.2266 65.0141C42.5036 65.2341 42.7266 65.6141 42.8686 66.1421L43.0436 66.0951ZM41.1996 64.6531C40.7676 64.7681 40.4666 65.0342 40.3166 65.4151C40.1686 65.7921 40.1706 66.2751 40.3186 66.8251L40.4936 66.7791C40.3516 66.2491 40.3566 65.8101 40.4856 65.4811C40.6136 65.1571 40.8656 64.9311 41.2456 64.8281L41.1996 64.6531ZM40.3186 66.8251L40.3206 66.8361L40.4956 66.7882L40.4936 66.7791L40.3186 66.8251ZM40.3206 66.8361C40.4686 67.3861 40.7076 67.8041 41.0246 68.0561C41.3446 68.3101 41.7366 68.3861 42.1686 68.2711L42.1216 68.0961C41.7416 68.1981 41.4096 68.1301 41.1366 67.9132C40.8606 67.6952 40.6376 67.3172 40.4966 66.7882L40.3216 66.8351L40.3206 66.8361ZM45.5786 68.1701L45.4916 68.1931L45.5146 68.2801L45.6026 68.2571L45.5786 68.1701ZM44.2036 63.0361L44.1806 62.9491L44.0926 62.9721L44.1156 63.0601L44.2036 63.0361ZM45.3736 62.7231L45.4606 62.7001L45.4366 62.6121L45.3496 62.6361L45.3736 62.7231ZM45.5836 63.5071L45.4956 63.5311L45.5186 63.6181L45.6066 63.5951L45.5836 63.5071ZM45.6636 63.4861L45.6866 63.5731L45.7436 63.5581L45.7526 63.5001L45.6626 63.4861H45.6636ZM50.0786 66.9641L50.1016 67.0511L50.1896 67.0281L50.1656 66.9412L50.0786 66.9641ZM48.9086 67.2771L48.8216 67.3011L48.8446 67.3881L48.9326 67.3651L48.9086 67.2771ZM46.7486 67.8572L46.7716 67.9441L46.8596 67.9201L46.8356 67.8331L46.7486 67.8561V67.8572ZM45.6666 68.1471L44.2896 63.0121L44.1156 63.0601L45.4906 68.1922L45.6656 68.1451L45.6666 68.1471ZM44.2266 63.1241L45.3966 62.8111L45.3496 62.6361L44.1806 62.9491L44.2266 63.1241ZM45.2856 62.7471L45.4956 63.5311L45.6706 63.4841L45.4606 62.7001L45.2856 62.7471ZM45.6066 63.5951L45.6866 63.5731L45.6396 63.3991L45.5596 63.4191L45.6066 63.5951ZM45.7526 63.5001C45.8426 62.9241 46.2186 62.4851 46.9296 62.2941L46.8826 62.1191C46.1086 62.3261 45.6766 62.8191 45.5736 63.4721L45.7526 63.5001ZM46.9296 62.2941C47.4846 62.1451 47.9456 62.2001 48.3056 62.4281C48.6666 62.6581 48.9416 63.0701 49.1016 63.6681L49.2756 63.6201C49.1086 62.9961 48.8146 62.5371 48.4026 62.2761C47.9896 62.0141 47.4726 61.9611 46.8826 62.1191L46.9296 62.2941ZM49.1016 63.6681L49.9916 66.9871L50.1656 66.9412L49.2756 63.6201L49.1006 63.6671L49.1016 63.6681ZM50.0546 66.8771L48.8846 67.1901L48.9326 67.3651L50.1016 67.0511L50.0546 66.8771ZM48.9966 67.2541L48.1796 64.2061L48.0046 64.2531L48.8216 67.3011L48.9966 67.2541ZM48.1796 64.2061C48.0696 63.7971 47.8996 63.4941 47.6516 63.3221C47.3996 63.1471 47.0846 63.1171 46.7136 63.2171L46.7606 63.3911C47.0976 63.3011 47.3536 63.3351 47.5486 63.4711C47.7466 63.6081 47.9006 63.8631 48.0046 64.2531L48.1796 64.2061ZM46.7136 63.2171C46.3436 63.3171 46.0726 63.5281 45.9236 63.8241C45.7736 64.1201 45.7516 64.4871 45.8596 64.8881L46.0346 64.8411C45.9346 64.4711 45.9606 64.1521 46.0846 63.9061C46.2076 63.6611 46.4346 63.4791 46.7596 63.3911L46.7136 63.2171ZM45.8596 64.8881L46.6606 67.8801L46.8356 67.8331L46.0346 64.8411L45.8596 64.8881ZM46.7246 67.7681L45.5556 68.0821L45.6026 68.2571L46.7716 67.9441L46.7246 67.7681ZM54.9166 63.2311L54.9396 63.3191L55.0276 63.2951L55.0036 63.2081L54.9166 63.2311ZM51.3286 64.1931L51.3046 64.1051L51.2166 64.1291L51.2416 64.2171L51.3286 64.1931ZM53.9836 64.4481L54.0736 64.4641V64.4601L53.9836 64.4481ZM53.9896 64.4111L53.9656 64.3231L53.9086 64.3391L53.8996 64.3992L53.9896 64.4111ZM55.1026 64.1131L55.1926 64.1181L55.2006 63.9931L55.0786 64.0251L55.1026 64.1131ZM55.0996 64.1591L55.0096 64.1531V64.1601L55.0996 64.1591ZM51.1276 63.4061L51.0376 63.4201L51.0536 63.5201L51.1506 63.4931L51.1276 63.4061ZM53.5656 62.7531L53.5886 62.8401L53.6846 62.8141L53.6496 62.7211L53.5656 62.7531ZM53.2236 66.1381C52.4816 66.3381 51.8266 66.2462 51.3056 65.9151C50.7846 65.5831 50.3856 65.0021 50.1706 64.2011L49.9956 64.2481C50.2196 65.0811 50.6396 65.7051 51.2086 66.0681C51.7786 66.4301 52.4876 66.5231 53.2706 66.3131L53.2236 66.1381ZM50.1706 64.2011V64.1961L49.9946 64.2431L49.9966 64.2481L50.1706 64.2011ZM50.1706 64.1961C49.9576 63.4051 50.0136 62.6981 50.2926 62.1441C50.5716 61.5921 51.0766 61.1831 51.7846 60.9931L51.7376 60.8181C50.9856 61.0201 50.4346 61.4601 50.1306 62.0631C49.8276 62.6641 49.7736 63.4191 49.9946 64.2431L50.1696 64.1961H50.1706ZM51.7846 60.9931C52.4936 60.8031 53.1256 60.8991 53.6306 61.2241C54.1356 61.5501 54.5226 62.1111 54.7256 62.8701L54.9006 62.8231C54.6886 62.0311 54.2806 61.4271 53.7286 61.0721C53.1756 60.7161 52.4886 60.6171 51.7376 60.8181L51.7846 60.9931ZM54.7256 62.8701L54.8296 63.2551L55.0036 63.2081L54.9006 62.8231L54.7256 62.8701ZM54.8936 63.1441L51.3046 64.1051L51.3516 64.2801L54.9396 63.3191L54.8936 63.1441ZM51.2416 64.2171C51.3756 64.6911 51.6116 65.0421 51.9276 65.2451C52.2446 65.4501 52.6306 65.4982 53.0476 65.3862L53.0006 65.2111C52.6246 65.3121 52.2926 65.2662 52.0256 65.0932C51.7566 64.9202 51.5416 64.6121 51.4156 64.1681L51.2416 64.2171ZM53.0476 65.3862C53.7116 65.2072 54.0166 64.7671 54.0736 64.4641L53.8946 64.4311C53.8526 64.6581 53.6046 65.0501 53.0006 65.2111L53.0476 65.3862ZM54.0736 64.4601L54.0786 64.4241L53.8996 64.3981L53.8946 64.4351L54.0736 64.4601ZM54.0136 64.4981L55.1256 64.2001L55.0786 64.0251L53.9656 64.3231L54.0136 64.4981ZM55.0116 64.1081L55.0096 64.1531L55.1896 64.1641L55.1926 64.1181L55.0116 64.1081ZM55.0096 64.1601C55.0216 64.8241 54.5796 65.7751 53.2236 66.1381L53.2706 66.3131C54.7046 65.9291 55.2036 64.9061 55.1906 64.1571L55.0096 64.1601ZM51.9976 61.7301C51.8328 61.77 51.6776 61.8424 51.541 61.943C51.4045 62.0437 51.2895 62.1705 51.2026 62.3161C51.0326 62.6081 50.9706 62.9831 51.0386 63.4201L51.2176 63.3921C51.1546 62.9871 51.2136 62.6561 51.3586 62.4081C51.5036 62.1601 51.7386 61.9871 52.0446 61.9051L51.9976 61.7301ZM51.1506 63.4931L53.5886 62.8401L53.5416 62.6651L51.1046 63.3181L51.1506 63.4931ZM53.6496 62.7211C53.4926 62.2971 53.2576 62.0011 52.9686 61.8341C52.6786 61.6671 52.3436 61.6371 51.9976 61.7301L52.0446 61.9051C52.3516 61.8231 52.6356 61.8511 52.8786 61.9911C53.1216 62.1311 53.3326 62.3891 53.4806 62.7841L53.6496 62.7211ZM56.7176 67.0981L56.6296 67.1212L56.6506 67.2011L56.7316 67.1871L56.7176 67.0981ZM56.4776 66.2011L56.4626 66.1111L56.3626 66.1281L56.3896 66.2241L56.4776 66.2011ZM57.5416 64.9692H57.6316V64.9412L57.6156 64.9181L57.5416 64.9692ZM54.3286 60.3231L54.3046 60.2361L54.1806 60.2691L54.2536 60.3751L54.3286 60.3231ZM55.6056 59.9811L55.6826 59.9341L55.6476 59.8761L55.5826 59.8941L55.6056 59.9811ZM57.8776 63.6711L57.8006 63.7191L57.8366 63.7761L57.9016 63.7591L57.8776 63.6711ZM57.9676 63.6471L57.9906 63.7351L58.0556 63.7171L58.0576 63.6501L57.9676 63.6471ZM58.0856 59.3171L58.0616 59.2291L57.9966 59.2471L57.9946 59.3141L58.0856 59.3171ZM59.3156 58.9871L59.4056 58.9941L59.4156 58.8671L59.2926 58.9001L59.3156 58.9871ZM57.1446 66.9101C57.0046 66.9471 56.8426 66.9861 56.7026 67.0091L56.7326 67.1871C56.8875 67.1604 57.041 67.1264 57.1926 67.0851L57.1446 66.9101ZM56.8046 67.0741L56.5646 66.1772L56.3896 66.2241L56.6296 67.1212L56.8046 67.0741ZM56.4916 66.2901C56.5916 66.2741 56.7276 66.2421 56.8516 66.2101L56.8046 66.0341C56.6846 66.0671 56.5546 66.0951 56.4626 66.1111L56.4916 66.2901ZM56.8516 66.2101C57.1026 66.1421 57.3006 66.0341 57.4346 65.8671C57.5696 65.7001 57.6326 65.4841 57.6336 65.2211H57.4526C57.4516 65.4551 57.3966 65.6271 57.2936 65.7531C57.1916 65.8801 57.0336 65.9731 56.8046 66.0341L56.8516 66.2101ZM57.6336 65.2211L57.6316 64.9692L57.4516 64.9701L57.4526 65.2211H57.6336ZM57.6156 64.9181L54.4026 60.2721L54.2536 60.3751L57.4666 65.0211L57.6156 64.9181ZM54.3516 60.4111L55.6296 60.0691L55.5826 59.8941L54.3046 60.2361L54.3516 60.4111ZM55.5286 60.0291L57.8006 63.7191L57.9546 63.6241L55.6826 59.9341L55.5286 60.0291ZM57.9016 63.7591L57.9906 63.7351L57.9436 63.5601L57.8536 63.5841L57.9016 63.7591ZM58.0576 63.6501L58.1756 59.3191L57.9946 59.3141L57.8766 63.6441L58.0576 63.6501ZM58.1086 59.4041L59.3386 59.0741L59.2926 58.9001L58.0626 59.2301L58.1086 59.4041ZM59.2256 58.9801L58.7896 64.7151L58.9686 64.7281L59.4066 58.9941L59.2256 58.9801ZM58.7896 64.7151C58.7426 65.4101 58.5996 65.8821 58.3416 66.2171C58.0856 66.5501 57.7036 66.7601 57.1446 66.9101L57.1926 67.0851C57.7706 66.9301 58.1946 66.7051 58.4856 66.3271C58.7756 65.9521 58.9206 65.4371 58.9696 64.7271L58.7896 64.7151ZM64.4676 62.2481L64.5346 62.1881L64.4976 62.1461L64.4436 62.1601L64.4676 62.2481ZM64.3876 62.2691L64.3636 62.1821L64.2766 62.2051L64.2996 62.2931L64.3876 62.2691ZM64.6026 63.0721L64.6256 63.1601L64.7136 63.1361L64.6896 63.0491L64.6026 63.0721ZM63.4326 63.3861L63.3456 63.4091L63.3696 63.4961L63.4566 63.4731L63.4326 63.3861ZM61.5256 56.2661L61.5016 56.1781L61.4146 56.2021L61.4376 56.2891L61.5256 56.2661ZM62.6956 55.9521L62.7826 55.9291L62.7586 55.8421L62.6716 55.8651L62.6956 55.9521ZM63.4456 58.7561L63.3586 58.7801L63.3816 58.8671L63.4696 58.8441L63.4456 58.7561ZM63.5256 58.7351L63.5496 58.8221L63.6046 58.8081L63.6146 58.7521L63.5256 58.7351ZM66.2406 62.6301C65.5506 62.8151 64.9406 62.6431 64.5346 62.1881L64.3996 62.3081C64.8566 62.8201 65.5396 63.0051 66.2876 62.8051L66.2406 62.6301ZM64.4436 62.1601L64.3636 62.1821L64.4106 62.3571L64.4906 62.3351L64.4436 62.1601ZM64.2996 62.2931L64.5156 63.0961L64.6896 63.0491L64.4746 62.2461L64.2996 62.2931ZM64.5796 62.9851L63.4096 63.2981L63.4566 63.4731L64.6256 63.1601L64.5796 62.9851ZM63.5196 63.3621L61.6126 56.2421L61.4376 56.2891L63.3456 63.4091L63.5196 63.3621ZM61.5496 56.3531L62.7186 56.0401L62.6716 55.8651L61.5016 56.1781L61.5496 56.3531ZM62.6076 55.9761L63.3586 58.7801L63.5336 58.7331L62.7826 55.9291L62.6076 55.9761ZM63.4696 58.8441L63.5496 58.8221L63.5026 58.6471L63.4226 58.6691L63.4696 58.8441ZM63.6146 58.7521C63.7266 58.1651 64.1916 57.6841 64.8666 57.5021L64.8196 57.3281C64.0866 57.5241 63.5636 58.0531 63.4366 58.7181L63.6146 58.7521ZM64.8666 57.5021C65.4926 57.3351 66.0586 57.4441 66.5226 57.7861C66.9886 58.1311 67.3596 58.7191 67.5746 59.5221L67.7496 59.4761C67.5266 58.6461 67.1386 58.0161 66.6296 57.6411C66.1196 57.2631 65.4956 57.1471 64.8196 57.3281L64.8666 57.5021ZM67.5746 59.5221L67.5766 59.5321L67.7516 59.4851L67.7496 59.4761L67.5746 59.5221ZM67.5766 59.5321C67.7906 60.3311 67.7606 61.0251 67.5266 61.5571C67.2956 62.0871 66.8586 62.4641 66.2406 62.6301L66.2876 62.8051C66.9566 62.6251 67.4376 62.2121 67.6936 61.6291C67.9476 61.0491 67.9736 60.3111 67.7516 59.4851L67.5766 59.5321ZM65.6566 61.9171C66.0816 61.8031 66.3836 61.5431 66.5396 61.1711C66.6936 60.8021 66.7006 60.3341 66.5596 59.8051L66.3846 59.8521C66.5196 60.3561 66.5066 60.7811 66.3726 61.1021C66.2396 61.4181 65.9836 61.6421 65.6106 61.7421L65.6566 61.9171ZM66.5596 59.8051L66.5566 59.7951L66.3816 59.8421L66.3846 59.8521L66.5596 59.8051ZM66.5566 59.7951C66.4146 59.2661 66.1736 58.8631 65.8566 58.6201C65.5346 58.3741 65.1426 58.2981 64.7176 58.4121L64.7646 58.5871C65.1386 58.4871 65.4716 58.5541 65.7456 58.7631C66.0226 58.9751 66.2456 59.3371 66.3816 59.8421L66.5566 59.7951ZM64.7176 58.4121C64.522 58.4588 64.3402 58.551 64.187 58.6814C64.0339 58.8117 63.9138 58.9765 63.8366 59.1621C63.6806 59.5331 63.6716 60.0031 63.8126 60.5301L63.9876 60.4841C63.8526 59.9821 63.8676 59.5551 64.0036 59.2321C64.1376 58.9121 64.3936 58.6871 64.7646 58.5871L64.7176 58.4121ZM63.8126 60.5301L63.8156 60.5401L63.9896 60.4931L63.9876 60.4841L63.8126 60.5301ZM63.8156 60.5401C63.9556 61.0671 64.1996 61.4691 64.5196 61.7101C64.8416 61.9551 65.2336 62.0301 65.6566 61.9171L65.6106 61.7421C65.2386 61.8421 64.9036 61.7751 64.6286 61.5661C64.3496 61.3561 64.1246 60.9941 63.9896 60.4931L63.8156 60.5401ZM69.9456 58.4401L69.9736 58.5251L69.9446 58.4391L69.9456 58.4401ZM71.2426 58.0061L71.2716 58.0921L71.3516 58.0651L71.3306 57.9821L71.2426 58.0061ZM69.0916 57.8281L69.0006 57.8211V57.8291L69.0906 57.8271L69.0916 57.8281ZM69.0916 57.8481L69.1146 57.9351L69.1836 57.9171L69.1816 57.8461L69.0916 57.8481ZM67.9876 58.1431L67.8976 58.1571L67.9136 58.2571L68.0116 58.2311L67.9876 58.1431ZM67.9806 58.1001L67.8906 58.1121L67.8916 58.1131L67.9806 58.1001ZM73.2206 60.7631L73.2436 60.8511L73.3306 60.8271L73.3076 60.7401L73.2206 60.7631ZM72.0646 61.0731L71.9776 61.0961L72.0006 61.1841L72.0876 61.1601L72.0646 61.0731ZM71.8756 60.3681L71.9636 60.3451L71.9396 60.2571L71.8526 60.2811L71.8756 60.3681ZM71.7956 60.3901L71.7726 60.3021L71.7226 60.3161L71.7086 60.3671L71.7956 60.3901ZM71.4496 58.7761L71.5366 58.7531L71.5116 58.6591L71.4206 58.6901L71.4496 58.7761ZM70.4816 61.4941C70.0106 61.6201 69.5716 61.5821 69.2246 61.4071C68.8776 61.2321 68.6136 60.9171 68.4946 60.4741L68.3196 60.5211C68.4516 61.0111 68.7476 61.3701 69.1426 61.5691C69.5366 61.7671 70.0226 61.8041 70.5276 61.6691L70.4816 61.4941ZM68.4946 60.4741L68.4926 60.4641L68.3176 60.5111L68.3196 60.5211L68.4946 60.4741ZM68.4926 60.4641C68.3756 60.0321 68.4496 59.6511 68.6936 59.3291C68.9406 59.0021 69.3686 58.7271 69.9736 58.5251L69.9156 58.3531C69.2916 58.5621 68.8266 58.8531 68.5496 59.2191C68.2696 59.5891 68.1876 60.0291 68.3176 60.5111L68.4926 60.4651V60.4641ZM69.9736 58.5251L71.2716 58.0921L71.2146 57.9201L69.9156 58.3541L69.9736 58.5251ZM71.3306 57.9821L71.2126 57.5421L71.0376 57.5881L71.1556 58.0291L71.3306 57.9821ZM71.2126 57.5421C71.1376 57.2651 70.9866 57.0641 70.7596 56.9591C70.5346 56.8561 70.2516 56.8541 69.9256 56.9411L69.9726 57.1161C70.2756 57.0351 70.5126 57.0451 70.6836 57.1241C70.8526 57.2011 70.9736 57.3521 71.0376 57.5881L71.2126 57.5421ZM69.9256 56.9411C69.3726 57.0891 69.0316 57.3961 69.0006 57.8211L69.1806 57.8341C69.2046 57.5201 69.4546 57.2541 69.9726 57.1161L69.9256 56.9411ZM69.0006 57.8291V57.8491L69.1816 57.8461V57.8261L69.0006 57.8291ZM69.0676 57.7601L67.9646 58.0561L68.0116 58.2311L69.1146 57.9351L69.0676 57.7601ZM68.0776 58.1301L68.0706 58.0861L67.8916 58.1131L67.8976 58.1571L68.0776 58.1301ZM68.0706 58.0881C67.9606 57.2581 68.5806 56.4921 69.7806 56.1711L69.7326 55.9961C68.4896 56.3301 67.7636 57.1541 67.8916 58.1131L68.0706 58.0881ZM69.7806 56.1711C70.4266 55.9981 70.9616 56.0231 71.3656 56.2111C71.7676 56.4011 72.0526 56.7571 72.1926 57.2781L72.3676 57.2311C72.2166 56.6681 71.9006 56.2631 71.4426 56.0481C70.9876 55.8351 70.4056 55.8161 69.7326 55.9961L69.7806 56.1711ZM72.1926 57.2781L73.1326 60.7871L73.3076 60.7401L72.3676 57.2311L72.1926 57.2781ZM73.1966 60.6761L72.0416 60.9861L72.0876 61.1601L73.2436 60.8511L73.1966 60.6761ZM72.1526 61.0491L71.9636 60.3451L71.7886 60.3921L71.9776 61.0961L72.1526 61.0491ZM71.8526 60.2811L71.7726 60.3021L71.8196 60.4771L71.8996 60.4561L71.8526 60.2811ZM71.7086 60.3671C71.5696 60.9031 71.1316 61.3201 70.4816 61.4941L70.5276 61.6691C71.2296 61.4811 71.7256 61.0231 71.8836 60.4121L71.7086 60.3671ZM69.4596 60.1551C69.4873 60.2683 69.5417 60.3732 69.6183 60.4611C69.6948 60.5489 69.7913 60.6172 69.8996 60.6601C70.1126 60.7461 70.3726 60.7491 70.6446 60.6761L70.5976 60.5011C70.3526 60.5671 70.1346 60.5601 69.9686 60.4911C69.8862 60.4589 69.8129 60.4072 69.7547 60.3405C69.6966 60.2739 69.6554 60.1941 69.6346 60.1081L69.4596 60.1551ZM70.6446 60.6761C71.3866 60.4771 71.8266 59.8361 71.6476 59.1661L71.4726 59.2131C71.6206 59.7651 71.2656 60.3231 70.5976 60.5011L70.6446 60.6761ZM71.6476 59.1661L71.5366 58.7531L71.3616 58.8001L71.4726 59.2131L71.6476 59.1661ZM71.4206 58.6901L70.2846 59.0751L70.3436 59.2471L71.4786 58.8621L71.4206 58.6901ZM70.2846 59.0751C69.9566 59.1861 69.7176 59.3281 69.5746 59.5081C69.5044 59.5968 69.4571 59.7014 69.4367 59.8126C69.4163 59.9238 69.4235 60.0383 69.4576 60.1461L69.6326 60.0991C69.6058 60.0185 69.5996 59.9325 69.6144 59.8489C69.6293 59.7653 69.6647 59.6866 69.7176 59.6201C69.8276 59.4801 70.0296 59.3531 70.3436 59.2471L70.2846 59.0751ZM69.4576 60.1461L69.4596 60.1551L69.6346 60.1081L69.6326 60.0991L69.4576 60.1461ZM77.7036 55.8771L77.7926 55.8541L77.7876 55.8441L77.7036 55.8771ZM77.7096 55.8961L77.7326 55.9831L77.8196 55.9601L77.7966 55.8721L77.7096 55.8961ZM76.6056 56.1921L76.5296 56.2421L76.5656 56.2961L76.6286 56.2791L76.6056 56.1921ZM76.5966 56.1791L76.5166 56.2201L76.5216 56.2291L76.5966 56.1791ZM77.0666 57.9511L76.9776 57.9321L76.9766 57.9421V57.9501H77.0666V57.9511ZM77.0706 57.9291L77.0476 57.8421L76.9936 57.8571L76.9826 57.9111L77.0706 57.9291ZM78.1736 57.6291L78.2636 57.6271L78.2616 57.5111L78.1496 57.5411L78.1736 57.6291ZM78.1736 57.6691L78.0836 57.6711V57.6781L78.1736 57.6691ZM76.3936 59.9291C75.6406 60.1321 74.9866 60.0461 74.4686 59.7151C73.9486 59.3841 73.5516 58.7981 73.3316 57.9751L73.1566 58.0221C73.3846 58.8751 73.8026 59.5061 74.3706 59.8681C74.9406 60.2311 75.6486 60.3171 76.4406 60.1051L76.3936 59.9301V59.9291ZM73.3316 57.9751L73.3286 57.9651L73.1536 58.0121L73.1566 58.0221L73.3316 57.9751ZM73.3286 57.9651C73.1106 57.1521 73.1616 56.4541 73.4466 55.9121C73.7306 55.3711 74.2536 54.9721 75.0066 54.7711L74.9596 54.5961C74.1676 54.8081 73.5976 55.2331 73.2866 55.8281C72.9746 56.4211 72.9276 57.1681 73.1536 58.0121L73.3286 57.9651ZM75.0066 54.7711C75.6496 54.5981 76.2036 54.6411 76.6446 54.8451C77.0846 55.0491 77.4196 55.4171 77.6206 55.9111L77.7876 55.8441C77.5726 55.3121 77.2076 54.9061 76.7206 54.6811C76.2346 54.4561 75.6346 54.4151 74.9596 54.5961L75.0066 54.7711ZM77.6166 55.9011L77.6216 55.9191L77.7966 55.8721L77.7926 55.8541L77.6166 55.9011ZM77.6856 55.8081L76.5816 56.1041L76.6286 56.2791L77.7326 55.9831L77.6856 55.8081ZM76.6806 56.1421L76.6726 56.1291L76.5216 56.2291L76.5296 56.2421L76.6806 56.1421ZM76.6776 56.1371C76.5568 55.8908 76.3543 55.6939 76.1046 55.5801C75.8536 55.4691 75.5536 55.4481 75.2176 55.5391L75.2646 55.7141C75.5666 55.6321 75.8246 55.6541 76.0316 55.7451C76.2386 55.8371 76.4036 56.0021 76.5166 56.2201L76.6776 56.1371ZM75.2176 55.5391C74.7926 55.6531 74.4936 55.9141 74.3436 56.2921C74.1946 56.6661 74.1946 57.1451 74.3426 57.6941L74.5166 57.6471C74.3766 57.1211 74.3826 56.6841 74.5116 56.3591C74.6396 56.0371 74.8916 55.8141 75.2646 55.7141L75.2176 55.5391ZM74.3426 57.6941L74.3446 57.7041L74.5196 57.6571L74.5166 57.6471L74.3426 57.6941ZM74.3446 57.7041C74.4936 58.2591 74.7356 58.6801 75.0526 58.9341C75.3736 59.1901 75.7626 59.2691 76.1866 59.1561L76.1396 58.9811C75.7696 59.0811 75.4396 59.0111 75.1656 58.7911C74.8896 58.5711 74.6626 58.1911 74.5196 57.6571L74.3446 57.7041ZM76.1866 59.1561C76.5026 59.0711 76.7466 58.9281 76.9126 58.7221C77.0776 58.5161 77.1566 58.2561 77.1576 57.9511H76.9766C76.9766 58.2241 76.9066 58.4411 76.7716 58.6091C76.6366 58.7771 76.4296 58.9031 76.1396 58.9811L76.1866 59.1561ZM77.1556 57.9691L77.1596 57.9471L76.9826 57.9111L76.9776 57.9321L77.1556 57.9691ZM77.0956 58.0171L78.1976 57.7171L78.1496 57.5411L77.0476 57.8421L77.0956 58.0171ZM78.0826 57.6301L78.0836 57.6711L78.2646 57.6671L78.2636 57.6271L78.0826 57.6301ZM78.0836 57.6781C78.1386 58.2081 78.0276 58.6861 77.7526 59.0711C77.4766 59.4571 77.0286 59.7601 76.3936 59.9301L76.4406 60.1051C77.1066 59.9261 77.5946 59.6031 77.8996 59.1771C78.2046 58.7501 78.3226 58.2271 78.2636 57.6601L78.0836 57.6781ZM79.3476 59.1211L79.2606 59.1451L79.2836 59.2321L79.3716 59.2091L79.3476 59.1211ZM77.4406 52.0011L77.4166 51.9141L77.3296 51.9371L77.3526 52.0251L77.4406 52.0011ZM78.6106 51.6881L78.6976 51.6651L78.6736 51.5771L78.5866 51.6011L78.6106 51.6881ZM79.7056 55.7781L79.6186 55.8021L79.6416 55.8901L79.7296 55.8661L79.7056 55.7781ZM79.7856 55.7581L79.8086 55.8451L79.8486 55.8351L79.8666 55.7981L79.7856 55.7581ZM81.1146 53.1461L81.0906 53.0591L81.0526 53.0691L81.0336 53.1051L81.1146 53.1461ZM82.4666 52.7841L82.5466 52.8271L82.6476 52.6421L82.4436 52.6961L82.4666 52.7841ZM80.9816 55.5071L80.9016 55.4641L80.8656 55.5311L80.9256 55.5781L80.9816 55.5071ZM83.9836 57.8791L84.0066 57.9671L84.1806 57.9201L84.0396 57.8081L83.9836 57.8791ZM82.5736 58.2571L82.5186 58.3271L82.5536 58.3561L82.5976 58.3441L82.5736 58.2571ZM80.3306 56.4771L80.3866 56.4061L80.3036 56.3401L80.2516 56.4331L80.3306 56.4771ZM80.0346 57.0041L79.9546 56.9601L79.9376 56.9921L79.9476 57.0281L80.0346 57.0041ZM80.5176 58.8081L80.5406 58.8951L80.6286 58.8721L80.6046 58.7841L80.5176 58.8081ZM79.4356 59.0981L77.5276 51.9781L77.3526 52.0251L79.2606 59.1451L79.4356 59.0981ZM77.4636 52.0881L78.6336 51.7751L78.5866 51.6011L77.4166 51.9141L77.4636 52.0881ZM78.5226 51.7111L79.6186 55.8021L79.7936 55.7551L78.6976 51.6651L78.5226 51.7111ZM79.7296 55.8661L79.8086 55.8451L79.7626 55.6701L79.6826 55.6911L79.7296 55.8661ZM79.8666 55.7981L81.1946 53.1881L81.0346 53.1051L79.7046 55.7161L79.8666 55.7981ZM81.1376 53.2341L82.4906 52.8711L82.4436 52.6961L81.0906 53.0591L81.1376 53.2341ZM82.3876 52.7401L80.9016 55.4641L81.0616 55.5501L82.5466 52.8271L82.3876 52.7401ZM80.9256 55.5781L83.9276 57.9501L84.0396 57.8081L81.0376 55.4361L80.9256 55.5781ZM83.9596 57.7921L82.5506 58.1691L82.5976 58.3441L84.0066 57.9671L83.9596 57.7921ZM82.6306 58.1861L80.3866 56.4061L80.2746 56.5481L82.5186 58.3271L82.6306 58.1861ZM80.2516 56.4331L79.9546 56.9601L80.1126 57.0491L80.4096 56.5211L80.2516 56.4331ZM79.9476 57.0281L80.4296 58.8311L80.6046 58.7841L80.1216 56.9811L79.9476 57.0281ZM80.4936 58.7201L79.3246 59.0341L79.3716 59.2091L80.5406 58.8951L80.4936 58.7201ZM42.5966 73.2221L42.6816 73.1901L42.6796 73.1841L42.5966 73.2221ZM42.6146 73.2681L42.6376 73.3551L42.7346 73.3292L42.6996 73.2361L42.6146 73.2681ZM41.4116 73.5901L41.3356 73.6381L41.3706 73.6951L41.4356 73.6782L41.4116 73.5901ZM42.0656 75.7661L41.9776 75.7861V75.7882L42.0656 75.7661ZM42.0326 75.6241L42.1206 75.6031L42.0996 75.5121L42.0096 75.5361L42.0326 75.6241ZM40.4076 76.0591L40.3206 76.0821L40.3436 76.1701L40.4306 76.1461L40.4076 76.0591ZM40.1596 75.1341L40.1366 75.0461L40.0486 75.0701L40.0726 75.1571L40.1596 75.1341ZM42.9726 74.3801L43.0606 74.3561L43.0366 74.2691L42.9496 74.2921L42.9726 74.3801ZM40.9826 78.8061C40.0226 79.0631 39.1626 78.9361 38.4706 78.4851C37.7786 78.0322 37.2456 77.2471 36.9566 76.1681L36.7816 76.2151C37.0796 77.3251 37.6336 78.1542 38.3716 78.6362C39.1116 79.1201 40.0266 79.2501 41.0296 78.9811L40.9826 78.8061ZM36.9566 76.1681L36.9546 76.1581L36.7796 76.2062L36.7816 76.2151L36.9566 76.1681ZM36.9546 76.1581C36.6686 75.0921 36.7406 74.1461 37.1136 73.4061C37.4856 72.6661 38.1616 72.1242 39.1036 71.8712L39.0576 71.6961C38.0696 71.9611 37.3486 72.5341 36.9516 73.3241C36.5546 74.1131 36.4846 75.1072 36.7796 76.2062L36.9546 76.1581ZM39.1036 71.8712C40.6316 71.4612 41.9516 72.0431 42.5146 73.2612L42.6796 73.1841C42.0726 71.8761 40.6566 71.2681 39.0576 71.6961L39.1036 71.8712ZM42.5126 73.2541L42.5296 73.3001L42.6996 73.2361L42.6816 73.1901L42.5126 73.2541ZM42.5906 73.1811L41.3886 73.5031L41.4356 73.6782L42.6376 73.3551L42.5906 73.1811ZM41.4886 73.5431L41.4626 73.4991L41.3086 73.5942L41.3356 73.6381L41.4896 73.5421L41.4886 73.5431ZM41.4626 73.4991C41.2605 73.1571 40.9459 72.8959 40.5726 72.7602C40.2066 72.6302 39.7866 72.6231 39.3376 72.7431L39.3846 72.9181C39.8046 72.8061 40.1866 72.8151 40.5116 72.9311C40.8356 73.0461 41.1086 73.2691 41.3086 73.5942L41.4626 73.4991ZM39.3376 72.7431C38.7196 72.9091 38.2796 73.2981 38.0496 73.8461C37.8196 74.3921 37.8036 75.0861 38.0116 75.8661L38.1866 75.8181C37.9856 75.0661 38.0066 74.4141 38.2166 73.9161C38.4236 73.4211 38.8196 73.0701 39.3846 72.9181L39.3376 72.7431ZM38.0116 75.8661L38.0146 75.8751L38.1896 75.8281L38.1866 75.8181L38.0116 75.8661ZM38.0146 75.8751C38.2266 76.6651 38.5946 77.2642 39.0726 77.6231C39.5526 77.9832 40.1386 78.0971 40.7676 77.9291L40.7206 77.7541C40.1426 77.9091 39.6156 77.8041 39.1806 77.4781C38.7446 77.1501 38.3936 76.5921 38.1896 75.8281L38.0146 75.8751ZM40.7676 77.9291C41.3026 77.7852 41.7146 77.4961 41.9606 77.1111C42.2066 76.7251 42.2806 76.2491 42.1536 75.7431L41.9776 75.7882C42.0936 76.2492 42.0246 76.6731 41.8076 77.0141C41.5896 77.3541 41.2186 77.6201 40.7206 77.7541L40.7676 77.9291ZM42.1536 75.7451L42.1206 75.6031L41.9446 75.6441L41.9776 75.7861L42.1536 75.7462V75.7451ZM42.0096 75.5361L40.3846 75.9721L40.4306 76.1461L42.0556 75.7111L42.0096 75.5361ZM40.4946 76.0361L40.2466 75.1101L40.0726 75.1571L40.3206 76.0821L40.4946 76.0361ZM40.1826 75.2211L42.9966 74.4671L42.9496 74.2921L40.1366 75.0461L40.1826 75.2211ZM42.8856 74.4031L43.1116 75.2491L43.2866 75.2021L43.0606 74.3561L42.8856 74.4031ZM43.1116 75.2491C43.3416 76.1052 43.2456 76.8751 42.8786 77.4891C42.5126 78.1021 41.8686 78.5691 40.9826 78.8061L41.0296 78.9811C41.9516 78.7341 42.6396 78.2432 43.0346 77.5812C43.4296 76.9191 43.5266 76.0981 43.2866 75.2021L43.1116 75.2491ZM43.3516 72.5821L43.3276 72.4951L43.2406 72.5181L43.2636 72.6061L43.3516 72.5821ZM44.5216 72.2691L44.6086 72.2451L44.5846 72.1581L44.4976 72.1811L44.5216 72.2691ZM46.6816 71.6901L46.6576 71.6031L46.5706 71.6261L46.5936 71.7131L46.6816 71.6901ZM47.8506 71.3771L47.9376 71.3531L47.9146 71.2661L47.8276 71.2892L47.8506 71.3771ZM49.2256 76.5102L49.2496 76.5971L49.3366 76.5741L49.3136 76.4861L49.2256 76.5102ZM48.0556 76.8231L47.9686 76.8471L47.9926 76.9341L48.0796 76.9111L48.0556 76.8231ZM47.8476 76.0431L47.9346 76.0201L47.9116 75.9331L47.8246 75.9562L47.8476 76.0431ZM47.7676 76.0651L47.7446 75.9781L47.6876 75.9931L47.6776 76.0511L47.7676 76.0651ZM46.4776 77.2631C45.9176 77.4131 45.4636 77.3551 45.1106 77.1251C44.7556 76.8931 44.4886 76.4771 44.3286 75.8791L44.1536 75.9261C44.3206 76.5491 44.6066 77.0121 45.0116 77.2761C45.4176 77.5422 45.9296 77.5981 46.5246 77.4381L46.4776 77.2631ZM44.3286 75.8791L43.4386 72.5591L43.2636 72.6061L44.1536 75.9261L44.3286 75.8791ZM43.3746 72.6691L44.5446 72.3561L44.4976 72.1811L43.3276 72.4951L43.3746 72.6691ZM44.4336 72.2921L45.2516 75.3451L45.4256 75.2981L44.6086 72.2451L44.4336 72.2921ZM45.2516 75.3451C45.3596 75.7502 45.5216 76.0531 45.7616 76.2281C46.0066 76.4061 46.3146 76.4381 46.6836 76.3381L46.6366 76.1642C46.3016 76.2542 46.0546 76.2171 45.8676 76.0821C45.6776 75.9422 45.5306 75.6871 45.4256 75.2981L45.2516 75.3451ZM46.6836 76.3381C47.0816 76.2321 47.3626 76.0182 47.5136 75.7201C47.6636 75.4242 47.6776 75.0581 47.5696 74.6581L47.3956 74.7052C47.4946 75.0752 47.4756 75.3931 47.3516 75.6381C47.2286 75.8821 46.9946 76.0681 46.6366 76.1642L46.6836 76.3381ZM47.5696 74.6581L46.7686 71.6671L46.5936 71.7131L47.3956 74.7052L47.5696 74.6581ZM46.7046 71.7781L47.8746 71.4641L47.8276 71.2892L46.6576 71.6031L46.7046 71.7781ZM47.7636 71.4002L49.1386 76.5331L49.3136 76.4861L47.9376 71.3531L47.7636 71.4002ZM49.2026 76.4221L48.0326 76.7361L48.0796 76.9111L49.2496 76.5971L49.2026 76.4221ZM48.1436 76.8001L47.9346 76.0201L47.7606 76.0672L47.9686 76.8471L48.1436 76.8001ZM47.8246 75.9562L47.7446 75.9781L47.7916 76.1521L47.8716 76.1311L47.8246 75.9562ZM47.6786 76.0522C47.5926 76.6242 47.1896 77.0721 46.4776 77.2631L46.5246 77.4381C47.2966 77.2311 47.7586 76.7331 47.8576 76.0781L47.6786 76.0522ZM52.3766 72.3791L52.4056 72.4641L52.4856 72.4381L52.4646 72.3551L52.3766 72.3791ZM50.2246 72.2001L50.1346 72.1941V72.2021L50.2246 72.2001ZM50.2246 72.2201L50.2486 72.3081L50.3176 72.2892L50.3156 72.2192L50.2256 72.2201H50.2246ZM49.1216 72.5161L49.0316 72.5291L49.0476 72.6291L49.1456 72.6031L49.1216 72.5161ZM49.1146 72.4721L49.0246 72.4841L49.0256 72.4861L49.1146 72.4721ZM54.3546 75.1362L54.3776 75.2231L54.4646 75.2001L54.4416 75.1121L54.3546 75.1362ZM53.1986 75.4461L53.1116 75.4692L53.1346 75.5561L53.2216 75.5331L53.1986 75.4461ZM53.0096 74.7411L53.0976 74.7182L53.0736 74.6301L52.9866 74.6531L53.0096 74.7411ZM52.9296 74.7621L52.9066 74.6751L52.8566 74.6891L52.8426 74.7391L52.9296 74.7621ZM52.5836 73.1492L52.6706 73.1251L52.6456 73.0321L52.5546 73.0631L52.5836 73.1492ZM51.6156 75.8661C51.1446 75.9931 50.7056 75.9551 50.3586 75.7801C50.0116 75.6051 49.7476 75.2901 49.6286 74.8471L49.4536 74.8931C49.5856 75.3841 49.8816 75.7432 50.2766 75.9422C50.6706 76.1402 51.1566 76.1771 51.6626 76.0421L51.6156 75.8661ZM49.6286 74.8471L49.6266 74.8371L49.4516 74.8841L49.4536 74.8931L49.6286 74.8471ZM49.6266 74.8371C49.5096 74.4041 49.5836 74.0241 49.8276 73.7011C50.0746 73.3751 50.5026 73.1001 51.1076 72.8981L51.0496 72.7261C50.4256 72.9341 49.9606 73.2261 49.6836 73.5921C49.4036 73.9621 49.3216 74.4011 49.4516 74.8841L49.6266 74.8371ZM51.1066 72.8971L52.4056 72.4641L52.3486 72.2931L51.0496 72.7261L51.1076 72.8981L51.1066 72.8971ZM52.4646 72.3551L52.3456 71.9142L52.1716 71.9611L52.2896 72.4021L52.4646 72.3551ZM52.3456 71.9142C52.2726 71.6382 52.1206 71.4361 51.8936 71.3321C51.6686 71.2291 51.3856 71.2271 51.0596 71.3141L51.1066 71.4891C51.4096 71.4081 51.6466 71.4172 51.8176 71.4962C51.9866 71.5742 52.1076 71.7251 52.1716 71.9611L52.3456 71.9142ZM51.0596 71.3141C50.5066 71.4621 50.1656 71.7691 50.1346 72.1941L50.3146 72.2071C50.3386 71.8921 50.5886 71.6271 51.1066 71.4891L51.0596 71.3141ZM50.1346 72.2021V72.2221L50.3156 72.2192V72.1991L50.1346 72.2021ZM50.2016 72.1321L49.0986 72.4282L49.1456 72.6031L50.2486 72.3081L50.2016 72.1321ZM49.2116 72.5021L49.2046 72.4591L49.0256 72.4861L49.0316 72.5291L49.2116 72.5021ZM49.2046 72.4591C49.0946 71.6291 49.7146 70.8651 50.9146 70.5441L50.8666 70.3691C49.6236 70.7021 48.8976 71.5261 49.0246 72.4841L49.2056 72.4601L49.2046 72.4591ZM50.9146 70.5441C51.5606 70.3711 52.0956 70.3951 52.4996 70.5841C52.9006 70.7731 53.1866 71.1301 53.3266 71.6511L53.5016 71.6041C53.3506 71.0401 53.0346 70.6351 52.5766 70.4211C52.1216 70.2071 51.5396 70.1891 50.8666 70.3691L50.9146 70.5441ZM53.3266 71.6511L54.2666 75.1591L54.4416 75.1121L53.5016 71.6041L53.3266 71.6511ZM54.3306 75.0481L53.1756 75.3582L53.2216 75.5331L54.3776 75.2231L54.3306 75.0481ZM53.2856 75.4221L53.0976 74.7182L52.9226 74.7641L53.1116 75.4692L53.2856 75.4221ZM52.9856 74.6541L52.9066 74.6751L52.9536 74.8501L53.0336 74.8281L52.9866 74.6531L52.9856 74.6541ZM52.8426 74.7391C52.7036 75.2751 52.2656 75.6921 51.6156 75.8661L51.6626 76.0421C52.3636 75.8541 52.8596 75.3951 53.0176 74.7851L52.8426 74.7391ZM50.5936 74.5271C50.6213 74.6403 50.6757 74.7452 50.7523 74.8331C50.8288 74.9209 50.9253 74.9892 51.0336 75.0321C51.2466 75.1191 51.5066 75.1221 51.7786 75.0491L51.7316 74.8741C51.4866 74.9401 51.2686 74.9321 51.1026 74.8641C51.0202 74.8319 50.9469 74.7802 50.8887 74.7135C50.8306 74.6469 50.7894 74.5671 50.7686 74.4811L50.5936 74.5271ZM51.7786 75.0491C52.5206 74.8501 52.9606 74.2082 52.7816 73.5392L52.6066 73.5851C52.7546 74.1371 52.3996 74.6951 51.7316 74.8741L51.7786 75.0491ZM52.7816 73.5392L52.6706 73.1251L52.4956 73.1721L52.6066 73.5851L52.7816 73.5392ZM52.5546 73.0631L51.4186 73.4481L51.4776 73.6191L52.6126 73.2341L52.5546 73.0631ZM51.4186 73.4481C51.0916 73.5581 50.8516 73.7011 50.7086 73.8811C50.6386 73.9697 50.5914 74.0741 50.571 74.1851C50.5506 74.2961 50.5577 74.4105 50.5916 74.5181L50.7666 74.4711C50.74 74.3907 50.7339 74.3049 50.7487 74.2214C50.7635 74.138 50.7989 74.0595 50.8516 73.9931C50.9616 73.8531 51.1636 73.7251 51.4776 73.6191L51.4186 73.4481ZM50.5916 74.5181L50.5936 74.5271L50.7686 74.4811L50.7666 74.4711L50.5916 74.5181ZM55.3216 74.8771L55.2336 74.9002L55.2566 74.9871L55.3446 74.9641L55.3216 74.8771ZM53.9456 69.7431L53.9226 69.6561L53.8346 69.6791L53.8586 69.7671L53.9456 69.7431ZM55.1156 69.4301L55.2026 69.4071L55.1786 69.3191L55.0916 69.3432L55.1156 69.4301ZM55.3256 70.2201L55.2386 70.2431L55.2626 70.3302L55.3496 70.3071L55.3266 70.2192L55.3256 70.2201ZM55.4056 70.1981L55.4296 70.2851L55.4936 70.2681L55.4966 70.2021L55.4066 70.1981H55.4056ZM56.9816 68.9002L57.0686 68.8761L57.0516 68.8111L56.9836 68.8091L56.9816 68.9002ZM57.2616 69.9471L57.2676 70.0371L57.3776 70.0301L57.3496 69.9241L57.2616 69.9471ZM56.4906 74.5631L56.5136 74.6511L56.6016 74.6271L56.5776 74.5401L56.4906 74.5631ZM55.4086 74.8531L54.0326 69.7201L53.8586 69.7671L55.2336 74.9002L55.4086 74.8531ZM53.9686 69.8312L55.1386 69.5181L55.0916 69.3432L53.9226 69.6561L53.9686 69.8312ZM55.0276 69.4542L55.2386 70.2431L55.4136 70.1961L55.2026 69.4071L55.0276 69.4542ZM55.3496 70.3071L55.4296 70.2851L55.3826 70.1101L55.3026 70.1321L55.3496 70.3071ZM55.4966 70.2021C55.5096 69.9221 55.6046 69.6821 55.7736 69.4881C55.9436 69.2941 56.1906 69.1451 56.5156 69.0581L56.4686 68.8831C56.1166 68.9771 55.8346 69.1431 55.6376 69.3691C55.4382 69.5987 55.3245 69.8902 55.3156 70.1941L55.4966 70.2021ZM56.5156 69.0581C56.6667 69.0159 56.8227 68.993 56.9796 68.9901L56.9836 68.8091C56.8095 68.8112 56.6364 68.8367 56.4686 68.8831L56.5156 69.0581ZM56.8936 68.9231L57.1736 69.9711L57.3496 69.9241L57.0686 68.8761L56.8936 68.9231ZM57.2566 69.8572C57.048 69.8677 56.841 69.8989 56.6386 69.9501L56.6856 70.1251C56.8796 70.0731 57.0726 70.0501 57.2676 70.0382L57.2566 69.8572ZM56.6386 69.9501C56.2316 70.0601 55.9186 70.2731 55.7346 70.5651C55.5496 70.8571 55.5006 71.2171 55.6046 71.6051L55.7786 71.5581C55.6866 71.2131 55.7326 70.9061 55.8876 70.6611C56.0426 70.4161 56.3126 70.2251 56.6856 70.1251L56.6386 69.9501ZM55.6036 71.6041L56.4036 74.5871L56.5776 74.5401L55.7786 71.5581L55.6036 71.6041ZM56.4666 74.4761L55.2976 74.7892L55.3446 74.9641L56.5136 74.6511L56.4666 74.4761ZM60.9796 70.0731L61.0086 70.1591L61.0886 70.1321L61.0676 70.0501L60.9796 70.0731ZM58.8286 69.8951L58.7376 69.8881V69.8961L58.8286 69.8951ZM58.8286 69.9151L58.8516 70.0021L58.9206 69.9841L58.9186 69.9142L58.8286 69.9151ZM57.7246 70.2111L57.6346 70.2241L57.6506 70.3241L57.7486 70.2981L57.7246 70.2111ZM57.7176 70.1671L57.6276 70.1791L57.6286 70.1811L57.7186 70.1671H57.7176ZM62.9576 72.8312L62.9806 72.9181L63.0676 72.8951L63.0446 72.8071L62.9576 72.8312ZM61.8016 73.1411L61.7146 73.1642L61.7376 73.2511L61.8246 73.2281L61.8016 73.1411ZM61.6126 72.4361L61.7006 72.4121L61.6766 72.3251L61.5896 72.3481L61.6126 72.4361ZM61.5326 72.4571L61.5096 72.3701L61.4596 72.3831L61.4456 72.4341L61.5326 72.4571ZM61.1866 70.8442L61.2736 70.8201L61.2486 70.7271L61.1576 70.7571L61.1866 70.8442ZM60.2186 73.5611C59.7476 73.6871 59.3086 73.6501 58.9616 73.4751C58.6146 73.3001 58.3506 72.9851 58.2316 72.5411L58.0566 72.5881C58.1886 73.0791 58.4846 73.4382 58.8796 73.6362C59.2736 73.8351 59.7596 73.8721 60.2656 73.7361L60.2186 73.5611ZM58.2316 72.5411L58.2286 72.5321L58.0546 72.5792L58.0566 72.5881L58.2316 72.5411ZM58.2286 72.5321C58.1136 72.0991 58.1866 71.7191 58.4306 71.3961C58.6776 71.0701 59.1056 70.7942 59.7106 70.5932L59.6526 70.4211C59.0286 70.6291 58.5636 70.9211 58.2866 71.2871C58.0066 71.6571 57.9246 72.0962 58.0546 72.5792L58.2286 72.5321ZM59.7106 70.5921L61.0086 70.1591L60.9516 69.9881L59.6526 70.4211L59.7106 70.5932V70.5921ZM61.0676 70.0501L60.9496 69.6091L60.7746 69.6551L60.8926 70.0971L61.0676 70.0501ZM60.9496 69.6091C60.8746 69.3321 60.7236 69.1311 60.4966 69.0271C60.2716 68.9241 59.9886 68.9211 59.6626 69.0091L59.7096 69.1841C60.0126 69.1021 60.2496 69.1122 60.4206 69.1912C60.5896 69.2691 60.7106 69.4201 60.7746 69.6551L60.9496 69.6091ZM59.6626 69.0091C59.1096 69.1571 58.7686 69.4621 58.7376 69.8881L58.9176 69.9021C58.9416 69.5871 59.1916 69.3221 59.7096 69.1841L59.6626 69.0091ZM58.7376 69.8961V69.9171L58.9186 69.9142V69.8931L58.7376 69.8961ZM58.8046 69.8271L57.7016 70.1231L57.7486 70.2981L58.8516 70.0021L58.8046 69.8271ZM57.8146 70.1971L57.8076 70.1541L57.6286 70.1811L57.6356 70.2241L57.8146 70.1971ZM57.8076 70.1541C57.6976 69.3241 58.3176 68.5601 59.5176 68.2391L59.4696 68.0641C58.2266 68.3971 57.5016 69.2211 57.6286 70.1791L57.8086 70.1551L57.8076 70.1541ZM59.5176 68.2391C60.1636 68.0651 60.6986 68.0891 61.1026 68.2791C61.5036 68.4681 61.7896 68.8251 61.9296 69.3461L62.1046 69.2991C61.9536 68.7351 61.6376 68.3301 61.1796 68.1151C60.7246 67.9021 60.1426 67.8831 59.4696 68.0641L59.5166 68.2391H59.5176ZM61.9296 69.3461L62.8696 72.8541L63.0446 72.8071L62.1046 69.2991L61.9296 69.3461ZM62.9336 72.7431L61.7786 73.0532L61.8246 73.2281L62.9806 72.9181L62.9336 72.7431ZM61.8896 73.1171L61.7006 72.4121L61.5256 72.4591L61.7146 73.1642L61.8896 73.1171ZM61.5896 72.3481L61.5096 72.3701L61.5566 72.5451L61.6366 72.5231L61.5896 72.3481ZM61.4456 72.4341C61.3066 72.9711 60.8686 73.3871 60.2186 73.5611L60.2656 73.7361C60.9666 73.5481 61.4626 73.0901 61.6206 72.4801L61.4456 72.4341ZM59.1966 72.2221C59.2243 72.3353 59.2787 72.4402 59.3553 72.5281C59.4318 72.6159 59.5283 72.6842 59.6366 72.7271C59.8496 72.8141 60.1096 72.8171 60.3816 72.7441L60.3346 72.5691C60.0896 72.6341 59.8716 72.6271 59.7056 72.5591C59.6232 72.5269 59.5499 72.4752 59.4917 72.4085C59.4336 72.3419 59.3924 72.2621 59.3716 72.1761L59.1966 72.2221ZM60.3816 72.7441C61.1236 72.5441 61.5636 71.9032 61.3846 71.2341L61.2096 71.2801C61.3576 71.8321 61.0026 72.3901 60.3346 72.5691L60.3816 72.7441ZM61.3846 71.2341L61.2746 70.8201L61.0986 70.8671L61.2096 71.2801L61.3846 71.2341ZM61.1576 70.7571L60.0216 71.1431L60.0806 71.3141L61.2156 70.9291L61.1576 70.7571ZM60.0216 71.1431C59.6936 71.2531 59.4546 71.3961 59.3116 71.5761C59.2415 71.6647 59.1942 71.769 59.1738 71.8801C59.1534 71.9911 59.1606 72.1055 59.1946 72.2131L59.3696 72.1661C59.343 72.0857 59.3369 71.9999 59.3517 71.9164C59.3665 71.833 59.4019 71.7545 59.4546 71.6881C59.5646 71.5481 59.7666 71.4201 60.0806 71.3141L60.0216 71.1431ZM59.1946 72.2131L59.1966 72.2221L59.3716 72.1761L59.3696 72.1661L59.1946 72.2131ZM63.9246 72.5711L63.8366 72.5951L63.8596 72.6821L63.9476 72.6591L63.9246 72.5711ZM62.5486 67.4381L62.5256 67.3511L62.4376 67.3741L62.4616 67.4621L62.5486 67.4381ZM63.7186 67.1251L63.8056 67.1021L63.7816 67.0141L63.6946 67.0382L63.7176 67.1251H63.7186ZM63.9286 67.9091L63.8406 67.9331L63.8646 68.0201L63.9516 67.9972L63.9286 67.9091ZM64.0086 67.8881L64.0316 67.9751L64.0886 67.9601L64.0976 67.9021L64.0086 67.8881ZM68.4236 71.3661L68.4466 71.4531L68.5336 71.4301L68.5106 71.3421L68.4236 71.3661ZM67.2536 71.6791L67.1666 71.7031L67.1896 71.7901L67.2776 71.7671L67.2536 71.6791ZM65.0936 72.2591L65.1166 72.3461L65.2046 72.3221L65.1806 72.2351L65.0936 72.2591ZM64.0116 72.5491L62.6356 67.4151L62.4616 67.4621L63.8366 72.5951L64.0116 72.5491ZM62.5716 67.5261L63.7416 67.2121L63.6946 67.0382L62.5256 67.3511L62.5716 67.5261ZM63.6306 67.1481L63.8406 67.9331L64.0156 67.8862L63.8056 67.1021L63.6306 67.1481ZM63.9516 67.9972L64.0316 67.9751L63.9846 67.8001L63.9046 67.8221L63.9516 67.9972ZM64.0976 67.9021C64.1876 67.3261 64.5636 66.8861 65.2746 66.6961L65.2276 66.5211C64.4546 66.7281 64.0216 67.2211 63.9186 67.8741L64.0976 67.9021ZM65.2746 66.6961C65.8296 66.5471 66.2906 66.6021 66.6506 66.8312C67.0126 67.0591 67.2866 67.4721 67.4466 68.0691L67.6206 68.0221C67.4536 67.3981 67.1596 66.9382 66.7476 66.6782C66.3346 66.4162 65.8176 66.3631 65.2276 66.5211L65.2746 66.6961ZM67.4466 68.0691L68.3356 71.3891L68.5106 71.3432L67.6206 68.0221L67.4466 68.0691ZM68.3996 71.2791L67.2296 71.5921L67.2776 71.7671L68.4466 71.4531L68.3996 71.2791ZM67.3416 71.6561L66.5246 68.6082L66.3496 68.6551L67.1666 71.7031L67.3416 71.6561ZM66.5246 68.6082C66.4146 68.1992 66.2446 67.8961 65.9966 67.7241C65.7446 67.5491 65.4296 67.5191 65.0586 67.6181L65.1056 67.7931C65.4426 67.7031 65.6986 67.7372 65.8936 67.8731C66.0916 68.0101 66.2456 68.2651 66.3496 68.6551L66.5246 68.6082ZM65.0586 67.6181C64.6886 67.7181 64.4176 67.9301 64.2686 68.2261C64.1186 68.5221 64.0966 68.8892 64.2046 69.2901L64.3796 69.2431C64.2796 68.8731 64.3056 68.5541 64.4296 68.3081C64.5526 68.0631 64.7796 67.8811 65.1056 67.7931L65.0586 67.6181ZM64.2046 69.2901L65.0056 72.2821L65.1806 72.2351L64.3796 69.2431L64.2046 69.2901ZM65.0696 72.1701L63.9006 72.4841L63.9476 72.6591L65.1166 72.3461L65.0696 72.1701ZM68.5916 66.7901L68.6786 66.7671L68.6556 66.6801L68.5676 66.7031L68.5906 66.7911L68.5916 66.7901ZM67.7926 67.0051L67.7056 67.0281L67.7286 67.1151L67.8166 67.0921L67.7926 67.0051ZM67.5496 66.0981L67.5266 66.0112L67.4386 66.0341L67.4626 66.1222L67.5496 66.0981ZM68.3486 65.8841L68.3716 65.9721L68.4596 65.9481L68.4356 65.8611L68.3486 65.8841ZM68.0106 64.6261L67.9876 64.5382L67.8996 64.5621L67.9236 64.6492L68.0106 64.6261ZM69.1996 64.3071L69.2866 64.2841L69.2636 64.1961L69.1756 64.2201L69.1996 64.3071ZM69.5366 65.5662L69.4486 65.5891L69.4726 65.6772L69.5596 65.6531L69.5366 65.5662ZM70.6216 65.2761L70.7086 65.2521L70.6856 65.1642L70.5976 65.1881L70.6216 65.2761ZM70.8646 66.1821L70.8876 66.2691L70.9746 66.2462L70.9516 66.1581L70.8646 66.1821ZM69.7796 66.4721L69.7556 66.3852L69.6686 66.4081L69.6916 66.4962L69.7796 66.4721ZM71.7476 69.4781L71.8346 69.4552L71.8096 69.3591L71.7156 69.3941L71.7476 69.4781ZM71.9896 70.3801L72.0296 70.4621L72.0956 70.4291L72.0766 70.3572L71.9896 70.3801ZM71.3696 70.5081C70.7856 70.6641 70.3696 70.6701 70.0706 70.5331C69.7776 70.3991 69.5756 70.1151 69.4466 69.6331L69.2716 69.6791C69.4076 70.1871 69.6326 70.5311 69.9956 70.6981C70.3526 70.8621 70.8206 70.8421 71.4156 70.6831L71.3696 70.5081ZM69.4466 69.6331L68.6786 66.7671L68.5036 66.8141L69.2716 69.6791L69.4466 69.6331ZM68.5676 66.7031L67.7696 66.9171L67.8166 67.0921L68.6146 66.8781L68.5676 66.7031ZM67.8806 66.9811L67.6376 66.0751L67.4626 66.1222L67.7056 67.0281L67.8806 66.9811ZM67.5736 66.1861L68.3716 65.9721L68.3246 65.7971L67.5266 66.0112L67.5736 66.1861ZM68.4356 65.8611L68.0996 64.6021L67.9236 64.6492L68.2616 65.9081L68.4356 65.8611ZM68.0346 64.7131L69.2226 64.3951L69.1756 64.2201L67.9876 64.5382L68.0346 64.7131ZM69.1116 64.3312L69.4486 65.5891L69.6236 65.5431L69.2866 64.2831L69.1116 64.3312ZM69.5596 65.6531L70.6446 65.3631L70.5976 65.1881L69.5126 65.4781L69.5596 65.6531ZM70.5336 65.2991L70.7766 66.2052L70.9516 66.1581L70.7086 65.2521L70.5336 65.2991ZM70.8406 66.0942L69.7556 66.3841L69.8026 66.5601L70.8876 66.2691L70.8406 66.0942ZM69.6916 66.4962L70.3856 69.0831L70.5606 69.0371L69.8666 66.4491L69.6916 66.4962ZM70.3856 69.0831C70.4556 69.3481 70.5636 69.5431 70.7356 69.6502C70.9096 69.7572 71.1266 69.7591 71.3816 69.6901L71.3346 69.5161C71.1016 69.5781 70.9446 69.5652 70.8316 69.4962C70.7176 69.4262 70.6266 69.2851 70.5606 69.0371L70.3856 69.0831ZM71.3816 69.6912C71.5486 69.6462 71.6396 69.6161 71.7796 69.5631L71.7156 69.3941C71.5914 69.4424 71.4635 69.4825 71.3346 69.5161L71.3816 69.6901V69.6912ZM71.6606 69.5021L71.9016 70.4041L72.0766 70.3572L71.8346 69.4552L71.6606 69.5021ZM71.9496 70.2991C71.7956 70.3741 71.5896 70.4481 71.3696 70.5081L71.4156 70.6831C71.6456 70.6211 71.8636 70.5431 72.0296 70.4621L71.9496 70.2991ZM76.5726 66.7462L76.5956 66.8341L76.6826 66.8101L76.6596 66.7231L76.5726 66.7462ZM72.9846 67.7081L72.9606 67.6201L72.8716 67.6441L72.8966 67.7322L72.9846 67.7081ZM75.6396 67.9631L75.7296 67.9791V67.9751L75.6396 67.9631ZM75.6446 67.9261L75.6216 67.8381L75.5636 67.8541L75.5556 67.9132L75.6456 67.9261H75.6446ZM76.7576 67.6281L76.8476 67.6331L76.8556 67.5081L76.7346 67.5401L76.7576 67.6281ZM76.7556 67.6741L76.6646 67.6681V67.6751L76.7556 67.6741ZM72.7836 66.9211L72.6936 66.9351L72.7096 67.0351L72.8066 67.0081L72.7836 66.9211ZM75.2206 66.2681L75.2446 66.3551L75.3406 66.3292L75.3056 66.2361L75.2206 66.2681ZM74.8796 69.6531C74.1366 69.8521 73.4826 69.7611 72.9616 69.4301C72.4396 69.0981 72.0416 68.5171 71.8266 67.7161L71.6516 67.7631C71.8746 68.5961 72.2956 69.2201 72.8646 69.5831C73.4346 69.9451 74.1426 70.0381 74.9266 69.8281L74.8796 69.6531ZM71.8266 67.7161L71.8256 67.7111L71.6506 67.7581L71.6516 67.7631L71.8266 67.7161ZM71.8256 67.7111C71.6136 66.9201 71.6686 66.2131 71.9486 65.6591C72.2266 65.1071 72.7326 64.6981 73.4406 64.5081L73.3936 64.3331C72.6406 64.5351 72.0906 64.9751 71.7866 65.5781C71.4836 66.1791 71.4296 66.9341 71.6506 67.7581L71.8256 67.7111ZM73.4406 64.5081C74.1496 64.3181 74.7806 64.4141 75.2856 64.7381C75.7916 65.0651 76.1786 65.6262 76.3816 66.3852L76.5566 66.3381C76.3446 65.5461 75.9356 64.9421 75.3836 64.5871C74.8316 64.2311 74.1456 64.1311 73.3936 64.3331L73.4406 64.5081ZM76.3806 66.3841L76.4846 66.7701L76.6596 66.7231L76.5566 66.3381L76.3816 66.3841H76.3806ZM76.5486 66.6591L72.9606 67.6201L73.0076 67.7951L76.5956 66.8341L76.5486 66.6591ZM72.8966 67.7322C73.0316 68.2062 73.2666 68.5572 73.5826 68.7602C73.8996 68.9652 74.2856 69.0131 74.7026 68.9011L74.6566 68.7261C74.2806 68.8271 73.9486 68.7812 73.6816 68.6082C73.4116 68.4352 73.1976 68.1261 73.0716 67.6831L72.8966 67.7322ZM74.7036 68.9021C75.3676 68.7231 75.6716 68.2821 75.7286 67.9791L75.5506 67.9461C75.5076 68.1731 75.2606 68.5641 74.6566 68.7261L74.7036 68.9021ZM75.7296 67.9751L75.7346 67.9391L75.5556 67.9132L75.5496 67.9501L75.7296 67.9751ZM75.6686 68.0131L76.7816 67.7151L76.7346 67.5401L75.6216 67.8381L75.6686 68.0131ZM76.6676 67.6231L76.6646 67.6681L76.8456 67.6791L76.8476 67.6331L76.6676 67.6231ZM76.6646 67.6751C76.6766 68.3391 76.2346 69.2901 74.8796 69.6531L74.9266 69.8281C76.3606 69.4441 76.8596 68.4211 76.8466 67.6721L76.6646 67.6751ZM73.6526 65.2451C73.4879 65.2852 73.3329 65.3576 73.1966 65.4582C73.0603 65.5588 72.9454 65.6856 72.8586 65.8312C72.6886 66.1231 72.6266 66.4981 72.6936 66.9351L72.8736 66.9071C72.8106 66.5021 72.8696 66.1711 73.0146 65.9231C73.1596 65.6751 73.3946 65.5021 73.6996 65.4201L73.6526 65.2451ZM72.8066 67.0081L75.2446 66.3551L75.1976 66.1801L72.7596 66.8331L72.8066 67.0081ZM75.3056 66.2361C75.1476 65.8121 74.9136 65.5161 74.6246 65.3491C74.3346 65.1821 73.9986 65.1521 73.6526 65.2451L73.6996 65.4201C74.0066 65.3381 74.2916 65.3661 74.5336 65.5061C74.7776 65.6461 74.9886 65.9041 75.1356 66.2991L75.3056 66.2361ZM81.8086 65.3432L81.8316 65.4311L81.9196 65.4071L81.8956 65.3201L81.8086 65.3432ZM78.2206 66.3051L78.1966 66.2171L78.1076 66.2411L78.1326 66.3292L78.2206 66.3051ZM80.8756 66.5591L80.9656 66.5761V66.5721L80.8756 66.5591ZM80.8806 66.5231L80.8576 66.4351L80.7996 66.4511L80.7916 66.5102L80.8816 66.5231H80.8806ZM81.9936 66.2251L82.0836 66.2301L82.0916 66.1051L81.9706 66.1371L81.9936 66.2251ZM81.9916 66.2711L81.9006 66.2651V66.2721L81.9916 66.2711ZM78.0196 65.5181L77.9296 65.5321L77.9456 65.6321L78.0426 65.6051L78.0196 65.5181ZM80.4566 64.8651L80.4806 64.9521L80.5766 64.9261L80.5416 64.8331L80.4566 64.8651ZM80.1156 68.2501C79.3726 68.4491 78.7186 68.3581 78.1976 68.0271C77.6756 67.6951 77.2776 67.1141 77.0626 66.3131L76.8876 66.3601C77.1116 67.1931 77.5316 67.8171 78.1006 68.1801C78.6706 68.5421 79.3786 68.6351 80.1626 68.4251L80.1156 68.2501ZM77.0626 66.3131L77.0616 66.3081L76.8866 66.3551L76.8876 66.3601L77.0626 66.3131ZM77.0616 66.3081C76.8496 65.5171 76.9056 64.8101 77.1846 64.2561C77.4626 63.7041 77.9686 63.2951 78.6766 63.1051L78.6296 62.9301C77.8766 63.1321 77.3266 63.5721 77.0226 64.1751C76.7196 64.7761 76.6656 65.5311 76.8866 66.3551L77.0616 66.3081ZM78.6766 63.1051C79.3856 62.9151 80.0176 63.0111 80.5216 63.3351C81.0276 63.6621 81.4146 64.2231 81.6176 64.9811L81.7926 64.9351C81.5806 64.1431 81.1716 63.5391 80.6206 63.1841C80.0676 62.8281 79.3796 62.7281 78.6296 62.9301L78.6766 63.1051ZM81.6176 64.9811L81.7206 65.3671L81.8956 65.3201L81.7926 64.9351L81.6176 64.9811ZM81.7846 65.2561L78.1966 66.2171L78.2436 66.3921L81.8316 65.4311L81.7846 65.2561ZM78.1326 66.3292C78.2666 66.8032 78.5036 67.1542 78.8186 67.3572C79.1356 67.5622 79.5216 67.6101 79.9386 67.4981L79.8926 67.3231C79.5166 67.4241 79.1846 67.3782 78.9176 67.2052C78.6476 67.0322 78.4336 66.7231 78.3076 66.2801L78.1326 66.3292ZM79.9396 67.4991C80.6036 67.3201 80.9076 66.8791 80.9646 66.5761L80.7866 66.5431C80.7436 66.7701 80.4966 67.1611 79.8926 67.3231L79.9396 67.4991ZM80.9656 66.5721L80.9706 66.5361L80.7916 66.5102L80.7866 66.5471L80.9656 66.5721ZM80.9046 66.6101L82.0176 66.3121L81.9706 66.1371L80.8576 66.4351L80.9046 66.6101ZM81.9046 66.2201L81.9006 66.2651L82.0816 66.2761L82.0836 66.2301L81.9046 66.2201ZM81.9006 66.2721C81.9126 66.9361 81.4706 67.8871 80.1156 68.2501L80.1626 68.4251C81.5966 68.0411 82.0956 67.0181 82.0826 66.2691L81.9006 66.2721ZM78.8896 63.8421C78.7248 63.882 78.5696 63.9544 78.4331 64.055C78.2965 64.1557 78.1815 64.2825 78.0946 64.4282C77.9246 64.7201 77.8626 65.0951 77.9296 65.5321L78.1096 65.5041C78.0466 65.0991 78.1056 64.7681 78.2506 64.5201C78.3956 64.2721 78.6306 64.0991 78.9356 64.0171L78.8896 63.8421ZM78.0426 65.6051L80.4806 64.9521L80.4336 64.7771L77.9956 65.4301L78.0426 65.6051ZM80.5416 64.8331C80.3826 64.4091 80.1496 64.1131 79.8606 63.9461C79.5706 63.7791 79.2346 63.7491 78.8896 63.8421L78.9356 64.0171C79.2426 63.9351 79.5276 63.9631 79.7696 64.1031C80.0136 64.2431 80.2246 64.5011 80.3716 64.8961L80.5416 64.8331Z" fill="black" fill-opacity="0.1"/>
<path d="M58.1977 83.9183L57.9437 82.7283L57.1697 83.5953L56.5617 83.0383L57.4717 82.1903L56.2617 81.9153L56.5087 81.1293L57.6117 81.4883L57.2367 80.3353L58.0967 80.1053L58.3527 81.2853L59.1187 80.4253L59.7307 80.9813L58.8207 81.8293L60.0327 82.1083L59.7807 82.8953L58.6867 82.5343L59.0567 83.6883L58.1977 83.9183ZM62.3817 82.7983L62.1277 81.6073L61.3537 82.4743L60.7457 81.9173L61.6557 81.0693L60.4457 80.7943L60.6927 80.0083L61.7957 80.3673L61.4207 79.2143L62.2807 78.9843L62.5367 80.1643L63.3027 79.3043L63.9147 79.8593L63.0047 80.7073L64.2167 80.9873L63.9647 81.7743L62.8707 81.4133L63.2407 82.5673L62.3807 82.7973L62.3817 82.7983ZM66.5657 81.6763L66.3117 80.4863L65.5377 81.3533L64.9297 80.7953L65.8397 79.9483L64.6297 79.6733L64.8767 78.8873L65.9797 79.2463L65.6057 78.0933L66.4647 77.8633L66.7207 79.0433L67.4867 78.1833L68.0987 78.7383L67.1887 79.5863L68.4007 79.8663L68.1487 80.6533L67.0557 80.2913L67.4257 81.4463L66.5657 81.6763Z" fill="white"/>
<path d="M58.1975 83.918L58.1085 83.938L58.1285 84.031L58.2205 84.006L58.1975 83.918ZM57.9435 82.728L58.0325 82.709L57.9945 82.535L57.8765 82.668L57.9435 82.728ZM57.1695 83.595L57.1075 83.662L57.1755 83.723L57.2365 83.655L57.1695 83.595ZM56.5615 83.038L56.5005 82.972L56.4285 83.038L56.5005 83.104L56.5615 83.038ZM57.4715 82.19L57.5335 82.256L57.6595 82.139L57.4925 82.102L57.4715 82.19ZM56.2615 81.915L56.1745 81.888L56.1445 81.982L56.2405 82.004L56.2605 81.915H56.2615ZM56.5085 81.129L56.5365 81.043L56.4495 81.015L56.4225 81.102L56.5085 81.129ZM57.6115 81.488L57.5835 81.574L57.7525 81.629L57.6975 81.46L57.6115 81.488ZM57.2365 80.335L57.2135 80.247L57.1215 80.272L57.1515 80.362L57.2365 80.335ZM58.0965 80.105L58.1845 80.085L58.1645 79.993L58.0725 80.017L58.0965 80.105ZM58.3525 81.285L58.2635 81.304L58.3015 81.478L58.4195 81.345L58.3525 81.285ZM59.1185 80.425L59.1785 80.358L59.1115 80.296L59.0515 80.365L59.1185 80.425ZM59.7305 80.981L59.7925 81.047L59.8645 80.98L59.7915 80.914L59.7305 80.981ZM58.8205 81.829L58.7585 81.762L58.6335 81.879L58.7995 81.917L58.8205 81.829ZM60.0325 82.108L60.1185 82.135L60.1485 82.042L60.0525 82.02L60.0325 82.108ZM59.7805 82.895L59.7515 82.981L59.8385 83.01L59.8665 82.923L59.7805 82.895ZM58.6865 82.534L58.7155 82.448L58.5455 82.392L58.6005 82.562L58.6865 82.534ZM59.0565 83.688L59.0805 83.776L59.1715 83.751L59.1425 83.661L59.0565 83.688ZM58.2865 83.9L58.0325 82.709L57.8555 82.747L58.1085 83.938L58.2865 83.9ZM57.8765 82.668L57.1015 83.535L57.2365 83.655L58.0115 82.788L57.8765 82.668ZM57.2305 83.528L56.6235 82.971L56.5005 83.104L57.1075 83.662L57.2305 83.528ZM56.6235 83.104L57.5335 82.256L57.4105 82.124L56.5005 82.972L56.6235 83.104ZM57.4925 82.102L56.2815 81.827L56.2405 82.004L57.4515 82.278L57.4915 82.101L57.4925 82.102ZM56.3475 81.942L56.5945 81.156L56.4225 81.102L56.1745 81.888L56.3475 81.942ZM56.4805 81.215L57.5835 81.574L57.6395 81.402L56.5365 81.043L56.4805 81.215ZM57.6975 81.46L57.3225 80.307L57.1505 80.363L57.5255 81.516L57.6975 81.46ZM57.2605 80.422L58.1205 80.192L58.0725 80.017L57.2135 80.247L57.2605 80.422ZM58.0075 80.124L58.2635 81.304L58.4405 81.265L58.1845 80.085L58.0075 80.124ZM58.4195 81.345L59.1865 80.485L59.0515 80.365L58.2845 81.225L58.4195 81.345ZM59.0575 80.492L59.6695 81.048L59.7915 80.914L59.1785 80.358L59.0575 80.492ZM59.6685 80.914L58.7585 81.762L58.8815 81.895L59.7925 81.047L59.6685 80.914ZM58.7995 81.917L60.0125 82.196L60.0525 82.02L58.8405 81.74L58.7995 81.917ZM59.9465 82.08L59.6945 82.868L59.8665 82.923L60.1185 82.135L59.9465 82.08ZM59.8085 82.81L58.7155 82.448L58.6585 82.62L59.7515 82.981L59.8085 82.81ZM58.6005 82.562L58.9705 83.716L59.1425 83.661L58.7725 82.506L58.6005 82.562ZM59.0335 83.601L58.1735 83.831L58.2205 84.006L59.0805 83.776L59.0335 83.601ZM62.3815 82.797L62.2925 82.817L62.3125 82.909L62.4045 82.885L62.3815 82.797ZM62.1275 81.607L62.2165 81.587L62.1785 81.413L62.0605 81.546L62.1275 81.606V81.607ZM61.3535 82.474L61.2915 82.54L61.3595 82.602L61.4205 82.534L61.3535 82.474ZM60.7455 81.917L60.6845 81.85L60.6125 81.917L60.6845 81.983L60.7455 81.917ZM61.6555 81.069L61.7175 81.135L61.8435 81.018L61.6765 80.98L61.6555 81.069ZM60.4455 80.794L60.3585 80.767L60.3285 80.861L60.4255 80.882L60.4455 80.794ZM60.6925 80.008L60.7205 79.922L60.6335 79.894L60.6065 79.981L60.6925 80.008ZM61.7955 80.367L61.7675 80.453L61.9365 80.508L61.8815 80.338L61.7955 80.367ZM61.4205 79.214L61.3975 79.126L61.3055 79.151L61.3355 79.241L61.4205 79.214ZM62.2805 78.984L62.3685 78.964L62.3485 78.871L62.2575 78.896L62.2805 78.984ZM62.5365 80.164L62.4475 80.183L62.4855 80.356L62.6035 80.224L62.5365 80.164ZM63.3025 79.304L63.3625 79.237L63.2955 79.175L63.2355 79.243L63.3025 79.304ZM63.9145 79.859L63.9765 79.926L64.0485 79.859L63.9755 79.792L63.9145 79.859ZM63.0045 80.707L62.9425 80.641L62.8175 80.757L62.9835 80.796L63.0035 80.707H63.0045ZM64.2165 80.987L64.3025 81.014L64.3325 80.921L64.2365 80.898L64.2165 80.987ZM63.9645 81.774L63.9355 81.86L64.0225 81.889L64.0505 81.802L63.9645 81.774ZM62.8705 81.413L62.8995 81.327L62.7305 81.271L62.7845 81.441L62.8705 81.413ZM63.2405 82.567L63.2635 82.654L63.3555 82.63L63.3265 82.54L63.2405 82.567ZM62.4705 82.778L62.2165 81.587L62.0395 81.626L62.2925 82.817L62.4705 82.778ZM62.0605 81.546L61.2855 82.413L61.4205 82.534L62.1955 81.667L62.0605 81.546ZM61.4145 82.406L60.8075 81.85L60.6845 81.983L61.2915 82.54L61.4145 82.406ZM60.8075 81.983L61.7175 81.135L61.5945 81.002L60.6845 81.85L60.8075 81.983ZM61.6765 80.98L60.4655 80.706L60.4255 80.882L61.6355 81.157L61.6765 80.98ZM60.5305 80.822L60.7775 80.036L60.6055 79.982L60.3575 80.768L60.5305 80.822ZM60.6635 80.095L61.7665 80.454L61.8225 80.282L60.7195 79.923L60.6635 80.095ZM61.8805 80.34L61.5065 79.187L61.3335 79.243L61.7085 80.396L61.8805 80.34ZM61.4435 79.302L62.3035 79.072L62.2565 78.897L61.3965 79.127L61.4435 79.302ZM62.1905 79.004L62.4465 80.184L62.6235 80.145L62.3675 78.965L62.1905 79.004ZM62.6035 80.224L63.3695 79.364L63.2335 79.244L62.4675 80.104L62.6035 80.224ZM63.2405 79.372L63.8525 79.927L63.9745 79.794L63.3625 79.237L63.2405 79.372ZM63.8515 79.794L62.9415 80.642L63.0645 80.775L63.9745 79.927L63.8515 79.794ZM62.9825 80.797L64.1955 81.076L64.2355 80.899L63.0235 80.62L62.9835 80.796L62.9825 80.797ZM64.1295 80.96L63.8775 81.747L64.0495 81.803L64.3015 81.015L64.1295 80.96ZM63.9915 81.689L62.8985 81.328L62.8415 81.5L63.9345 81.86L63.9915 81.689ZM62.7845 81.441L63.1535 82.595L63.3265 82.54L62.9555 81.386L62.7845 81.441ZM63.2165 82.481L62.3565 82.711L62.4035 82.886L63.2635 82.656L63.2165 82.481ZM66.5645 81.677L66.4755 81.696L66.4955 81.789L66.5875 81.765L66.5645 81.677ZM66.3105 80.487L66.3995 80.467L66.3625 80.293L66.2425 80.426L66.3105 80.487ZM65.5365 81.354L65.4755 81.42L65.5425 81.482L65.6035 81.414L65.5365 81.354ZM64.9285 80.796L64.8675 80.73L64.7955 80.797L64.8675 80.863L64.9285 80.796ZM65.8385 79.949L65.9015 80.015L66.0265 79.898L65.8595 79.86L65.8395 79.948L65.8385 79.949ZM64.6285 79.674L64.5415 79.647L64.5115 79.741L64.6085 79.762L64.6285 79.674ZM64.8755 78.888L64.9035 78.802L64.8165 78.774L64.7895 78.861L64.8755 78.888ZM65.9785 79.247L65.9505 79.333L66.1195 79.388L66.0645 79.218L65.9785 79.247ZM65.6045 78.094L65.5805 78.006L65.4885 78.031L65.5185 78.121L65.6045 78.094ZM66.4635 77.864L66.5515 77.844L66.5315 77.751L66.4405 77.776L66.4635 77.864ZM66.7195 79.044L66.6305 79.062L66.6685 79.236L66.7865 79.104L66.7195 79.044ZM67.4855 78.184L67.5455 78.116L67.4785 78.056L67.4185 78.123L67.4855 78.184ZM68.0975 78.739L68.1595 78.806L68.2315 78.738L68.1585 78.672L68.0975 78.739ZM67.1875 79.587L67.1255 79.521L67.0005 79.637L67.1665 79.676L67.1875 79.587ZM68.3995 79.867L68.4855 79.894L68.5155 79.8L68.4195 79.778L68.3995 79.867ZM68.1475 80.654L68.1195 80.74L68.2055 80.768L68.2335 80.682L68.1475 80.654ZM67.0545 80.292L67.0825 80.207L66.9135 80.151L66.9675 80.321L67.0545 80.292ZM67.4245 81.447L67.4475 81.534L67.5385 81.51L67.5095 81.42L67.4235 81.447H67.4245ZM66.6525 81.658L66.3995 80.468L66.2225 80.506L66.4755 81.696L66.6525 81.658ZM66.2425 80.426L65.4685 81.293L65.6035 81.414L66.3785 80.547L66.2435 80.427L66.2425 80.426ZM65.5975 81.286L64.9905 80.73L64.8675 80.863L65.4755 81.42L65.5975 81.286ZM64.9905 80.863L65.9015 80.015L65.7775 79.882L64.8675 80.73L64.9905 80.863ZM65.8595 79.86L64.6485 79.586L64.6085 79.762L65.8185 80.037L65.8595 79.86ZM64.7145 79.701L64.9625 78.915L64.7895 78.861L64.5415 79.647L64.7145 79.701ZM64.8475 78.974L65.9505 79.333L66.0065 79.161L64.9035 78.801L64.8475 78.974ZM66.0645 79.218L65.6905 78.066L65.5185 78.121L65.8925 79.275L66.0645 79.218ZM65.6275 78.181L66.4875 77.951L66.4405 77.776L65.5805 78.006L65.6275 78.181ZM66.3755 77.883L66.6305 79.062L66.8075 79.024L66.5515 77.844L66.3755 77.883ZM66.7865 79.104L67.5535 78.243L67.4185 78.123L66.6515 78.983L66.7865 79.104ZM67.4245 78.251L68.0365 78.806L68.1585 78.672L67.5455 78.116L67.4245 78.251ZM68.0355 78.673L67.1255 79.521L67.2485 79.654L68.1595 78.806L68.0355 78.673ZM67.1665 79.676L68.3795 79.955L68.4195 79.778L67.2075 79.499L67.1665 79.676ZM68.3135 79.839L68.0615 80.626L68.2335 80.682L68.4855 79.894L68.3135 79.839ZM68.1755 80.568L67.0825 80.207L67.0255 80.378L68.1195 80.74L68.1755 80.568ZM66.9675 80.321L67.3375 81.474L67.5095 81.42L67.1395 80.265L66.9675 80.321ZM67.4005 81.36L66.5405 81.59L66.5875 81.765L67.4475 81.534L67.4005 81.36Z" fill="black" fill-opacity="0.1"/>
<path d="M45.7797 37.5765L45.5257 36.3865L44.7517 37.2525L44.1437 36.6955L45.0537 35.8475L43.8438 35.5735L44.0907 34.7875L45.1937 35.1455L44.8187 33.9925L45.6787 33.7625L45.9347 34.9425L46.7007 34.0825L47.3127 34.6385L46.4027 35.4865L47.6147 35.7665L47.3627 36.5525L46.2687 36.1925L46.6387 37.3465L45.7797 37.5765ZM49.9637 36.4555L49.7097 35.2655L48.9357 36.1315L48.3277 35.5745L49.2377 34.7265L48.0277 34.4525L48.2747 33.6655L49.3777 34.0255L49.0037 32.8715L49.8627 32.6415L50.1187 33.8215L50.8847 32.9615L51.4967 33.5175L50.5868 34.3655L51.7987 34.6445L51.5467 35.4315L50.4527 35.0705L50.8228 36.2245L49.9627 36.4545L49.9637 36.4555ZM54.1477 35.3335L53.8937 34.1435L53.1197 35.0105L52.5127 34.4535L53.4227 33.6055L52.2118 33.3305L52.4587 32.5445L53.5617 32.9045L53.1877 31.7505L54.0467 31.5205L54.3027 32.7005L55.0687 31.8405L55.6807 32.3965L54.7707 33.2445L55.9827 33.5235L55.7307 34.3105L54.6377 33.9495L55.0077 35.1035L54.1477 35.3335Z" fill="white"/>
<path d="M45.7796 37.5762L45.6906 37.5952L45.7106 37.6882L45.8026 37.6632L45.7796 37.5762ZM45.5256 36.3862L45.6146 36.3662L45.5766 36.1922L45.4586 36.3252L45.5256 36.3862ZM44.7516 37.2522L44.6896 37.3192L44.7576 37.3812L44.8186 37.3122L44.7516 37.2522ZM44.1436 36.6952L44.0826 36.6292L44.0106 36.6962L44.0826 36.7622L44.1436 36.6952ZM45.0536 35.8472L45.1156 35.9132L45.2416 35.7972L45.0746 35.7592L45.0536 35.8472ZM43.8436 35.5732L43.7566 35.5462L43.7266 35.6392L43.8236 35.6612L43.8436 35.5732ZM44.0906 34.7872L44.1186 34.7002L44.0316 34.6722L44.0046 34.7592L44.0906 34.7872ZM45.1936 35.1452L45.1656 35.2322L45.3346 35.2872L45.2796 35.1172L45.1936 35.1452ZM44.8186 33.9922L44.7956 33.9052L44.7036 33.9302L44.7336 34.0202L44.8186 33.9922ZM45.6786 33.7622L45.7666 33.7422L45.7466 33.6502L45.6546 33.6752L45.6786 33.7622ZM45.9346 34.9422L45.8456 34.9622L45.8836 35.1352L46.0016 35.0022L45.9346 34.9422ZM46.7006 34.0822L46.7606 34.0152L46.6936 33.9542L46.6336 34.0222L46.7006 34.0822ZM47.3126 34.6382L47.3746 34.7042L47.4466 34.6372L47.3736 34.5712L47.3126 34.6382ZM46.4026 35.4862L46.3406 35.4202L46.2156 35.5362L46.3816 35.5742L46.4026 35.4862ZM47.6146 35.7662L47.7006 35.7932L47.7306 35.6992L47.6346 35.6772L47.6146 35.7662ZM47.3626 36.5522L47.3336 36.6392L47.4206 36.6672L47.4486 36.5802L47.3626 36.5522ZM46.2686 36.1922L46.2976 36.1052L46.1276 36.0492L46.1826 36.2192L46.2686 36.1922ZM46.6386 37.3462L46.6616 37.4332L46.7536 37.4082L46.7246 37.3182L46.6386 37.3462ZM45.8686 37.5562L45.6146 36.3662L45.4366 36.4042L45.6906 37.5952L45.8676 37.5572L45.8686 37.5562ZM45.4586 36.3252L44.6836 37.1922L44.8186 37.3122L45.5936 36.4462L45.4586 36.3252ZM44.8126 37.1852L44.2046 36.6282L44.0826 36.7622L44.6896 37.3192L44.8126 37.1852ZM44.2056 36.7612L45.1156 35.9132L44.9926 35.7812L44.0826 36.6292L44.2056 36.7612ZM45.0746 35.7592L43.8626 35.4842L43.8236 35.6612L45.0346 35.9352L45.0746 35.7592ZM43.9296 35.5992L44.1766 34.8142L44.0046 34.7592L43.7566 35.5462L43.9296 35.5992ZM44.0626 34.8732L45.1656 35.2322L45.2216 35.0592L44.1186 34.7012L44.0626 34.8732ZM45.2796 35.1172L44.9056 33.9642L44.7336 34.0202L45.1076 35.1732L45.2796 35.1172ZM44.8426 34.0802L45.7026 33.8502L45.6546 33.6752L44.7956 33.9052L44.8426 34.0802ZM45.5896 33.7812L45.8456 34.9622L46.0226 34.9232L45.7666 33.7432L45.5896 33.7812ZM46.0016 35.0022L46.7686 34.1422L46.6336 34.0222L45.8666 34.8822L46.0016 35.0022ZM46.6396 34.1492L47.2516 34.7052L47.3736 34.5712L46.7606 34.0152L46.6396 34.1492ZM47.2506 34.5722L46.3406 35.4202L46.4636 35.5522L47.3746 34.7042L47.2506 34.5722ZM46.3816 35.5742L47.5946 35.8542L47.6346 35.6772L46.4226 35.3972L46.3816 35.5742ZM47.5286 35.7382L47.2766 36.5252L47.4486 36.5802L47.7006 35.7932L47.5286 35.7382ZM47.3906 36.4672L46.2976 36.1052L46.2406 36.2772L47.3336 36.6392L47.3906 36.4672ZM46.1826 36.2192L46.5526 37.3732L46.7246 37.3182L46.3546 36.1642L46.1826 36.2192ZM46.6156 37.2582L45.7556 37.4882L45.8026 37.6632L46.6616 37.4332L46.6156 37.2582ZM49.9636 36.4552L49.8746 36.4732L49.8946 36.5672L49.9866 36.5422L49.9636 36.4552ZM49.7096 35.2652L49.7986 35.2452L49.7606 35.0712L49.6426 35.2042L49.7096 35.2652ZM48.9356 36.1312L48.8736 36.1982L48.9416 36.2602L49.0026 36.1912L48.9356 36.1312ZM48.3276 35.5742L48.2666 35.5082L48.1946 35.5742L48.2666 35.6412L48.3276 35.5742ZM49.2376 34.7262L49.3006 34.7922L49.4256 34.6762L49.2586 34.6382L49.2376 34.7262ZM48.0276 34.4522L47.9406 34.4242L47.9106 34.5182L48.0076 34.5402L48.0276 34.4522ZM48.2746 33.6652L48.3026 33.5792L48.2156 33.5512L48.1886 33.6382L48.2746 33.6652ZM49.3776 34.0252L49.3496 34.1102L49.5186 34.1652L49.4636 33.9962L49.3776 34.0252ZM49.0036 32.8712L48.9796 32.7842L48.8876 32.8082L48.9176 32.8992L49.0036 32.8712ZM49.8626 32.6412L49.9506 32.6212L49.9306 32.5292L49.8396 32.5532L49.8626 32.6412ZM50.1186 33.8212L50.0296 33.8402L50.0676 34.0142L50.1856 33.8812L50.1186 33.8212ZM50.8846 32.9612L50.9446 32.8942L50.8776 32.8332L50.8176 32.9012L50.8846 32.9612ZM51.4966 33.5172L51.5586 33.5832L51.6306 33.5162L51.5576 33.4502L51.4966 33.5172ZM50.5866 34.3652L50.5246 34.2992L50.3996 34.4152L50.5656 34.4532L50.5856 34.3652H50.5866ZM51.7986 34.6442L51.8846 34.6722L51.9146 34.5782L51.8186 34.5562L51.7986 34.6442ZM51.5466 35.4312L51.5186 35.5172L51.6046 35.5462L51.6326 35.4592L51.5466 35.4312ZM50.4526 35.0702L50.4816 34.9842L50.3126 34.9282L50.3666 35.0982L50.4526 35.0702ZM50.8226 36.2242L50.8466 36.3122L50.9376 36.2872L50.9086 36.1972L50.8226 36.2242ZM50.0526 36.4362L49.7986 35.2452L49.6216 35.2832L49.8746 36.4732L50.0516 36.4362H50.0526ZM49.6426 35.2042L48.8676 36.0712L49.0026 36.1912L49.7776 35.3242L49.6426 35.2042ZM48.9966 36.0642L48.3896 35.5072L48.2666 35.6412L48.8736 36.1982L48.9966 36.0642ZM48.3896 35.6402L49.3006 34.7922L49.1766 34.6602L48.2666 35.5082L48.3896 35.6402ZM49.2586 34.6382L48.0476 34.3632L48.0076 34.5402L49.2176 34.8142L49.2586 34.6382ZM48.1136 34.4782L48.3606 33.6932L48.1886 33.6382L47.9406 34.4242L48.1136 34.4792V34.4782ZM48.2466 33.7512L49.3496 34.1112L49.4056 33.9382L48.3026 33.5792L48.2466 33.7512ZM49.4636 33.9962L49.0896 32.8432L48.9176 32.8992L49.2916 34.0522L49.4636 33.9962ZM49.0266 32.9592L49.8866 32.7292L49.8396 32.5532L48.9796 32.7842L49.0266 32.9592ZM49.7746 32.6602L50.0296 33.8402L50.2066 33.8022L49.9506 32.6212L49.7746 32.6602ZM50.1856 33.8812L50.9526 33.0212L50.8176 32.9012L50.0506 33.7612L50.1856 33.8812ZM50.8236 33.0282L51.4356 33.5842L51.5576 33.4502L50.9446 32.8942L50.8236 33.0282ZM51.4346 33.4512L50.5246 34.2992L50.6476 34.4312L51.5586 33.5832L51.4346 33.4512ZM50.5656 34.4532L51.7786 34.7332L51.8186 34.5562L50.6066 34.2762L50.5656 34.4532ZM51.7126 34.6162L51.4606 35.4042L51.6326 35.4592L51.8846 34.6722L51.7126 34.6162ZM51.5746 35.3462L50.4816 34.9842L50.4246 35.1562L51.5186 35.5172L51.5746 35.3462ZM50.3666 35.0982L50.7366 36.2522L50.9086 36.1972L50.5386 35.0422L50.3666 35.0982ZM50.7996 36.1372L49.9396 36.3672L49.9866 36.5422L50.8466 36.3122L50.7996 36.1372ZM54.1476 35.3342L54.0586 35.3522L54.0786 35.4462L54.1706 35.4212L54.1476 35.3342ZM53.8936 34.1432L53.9826 34.1242L53.9456 33.9502L53.8256 34.0832L53.8936 34.1432ZM53.1196 35.0102L53.0586 35.0772L53.1256 35.1392L53.1866 35.0702L53.1196 35.0102ZM52.5126 34.4532L52.4506 34.3872L52.3786 34.4532L52.4506 34.5202L52.5126 34.4532ZM53.4226 33.6052L53.4836 33.6712L53.6096 33.5552L53.4426 33.5172L53.4226 33.6052ZM52.2116 33.3302L52.1246 33.3032L52.0946 33.3972L52.1916 33.4192L52.2116 33.3302ZM52.4586 32.5442L52.4866 32.4582L52.3996 32.4302L52.3726 32.5172L52.4586 32.5442ZM53.5616 32.9042L53.5336 32.9892L53.7026 33.0442L53.6476 32.8752L53.5616 32.9042ZM53.1876 31.7502L53.1636 31.6632L53.0716 31.6872L53.1016 31.7782L53.1876 31.7502ZM54.0466 31.5202L54.1356 31.5002L54.1156 31.4082L54.0236 31.4322L54.0466 31.5202ZM54.3026 32.7002L54.2136 32.7192L54.2516 32.8932L54.3696 32.7602L54.3026 32.7002ZM55.0686 31.8402L55.1286 31.7732L55.0616 31.7122L55.0016 31.7802L55.0686 31.8402ZM55.6806 32.3962L55.7426 32.4622L55.8146 32.3952L55.7416 32.3292L55.6806 32.3962ZM54.7706 33.2442L54.7086 33.1782L54.5836 33.2942L54.7496 33.3322L54.7706 33.2442ZM55.9826 33.5232L56.0686 33.5502L56.0986 33.4572L56.0026 33.4352L55.9826 33.5232ZM55.7306 34.3102L55.7026 34.3962L55.7886 34.4252L55.8166 34.3382L55.7306 34.3102ZM54.6376 33.9492L54.6656 33.8632L54.4966 33.8072L54.5506 33.9772L54.6376 33.9492ZM55.0076 35.1032L55.0306 35.1912L55.1216 35.1662L55.0926 35.0762L55.0076 35.1032ZM54.2356 35.3152L53.9826 34.1252L53.8056 34.1622L54.0586 35.3522L54.2356 35.3152ZM53.8256 34.0832L53.0516 34.9502L53.1866 35.0702L53.9616 34.2032L53.8256 34.0832ZM53.1806 34.9432L52.5736 34.3862L52.4506 34.5202L53.0586 35.0772L53.1806 34.9432ZM52.5736 34.5192L53.4836 33.6712L53.3606 33.5392L52.4506 34.3872L52.5736 34.5192ZM53.4426 33.5172L52.2316 33.2422L52.1916 33.4192L53.4016 33.6932L53.4426 33.5172ZM52.2976 33.3572L52.5446 32.5722L52.3726 32.5172L52.1246 33.3032L52.2976 33.3572ZM52.4306 32.6302L53.5336 32.9892L53.5896 32.8172L52.4866 32.4582L52.4306 32.6302ZM53.6476 32.8752L53.2736 31.7222L53.1016 31.7782L53.4756 32.9312L53.6476 32.8752ZM53.2106 31.8382L54.0706 31.6082L54.0236 31.4322L53.1636 31.6632L53.2106 31.8382ZM53.9586 31.5392L54.2136 32.7192L54.3906 32.6812L54.1356 31.5012L53.9586 31.5392ZM54.3696 32.7602L55.1366 31.9002L55.0016 31.7802L54.2346 32.6402L54.3696 32.7602ZM55.0076 31.9072L55.6196 32.4632L55.7416 32.3292L55.1286 31.7732L55.0076 31.9072ZM55.6186 32.3292L54.7086 33.1782L54.8316 33.3102L55.7426 32.4622L55.6186 32.3292ZM54.7496 33.3322L55.9626 33.6122L56.0026 33.4352L54.7906 33.1552L54.7496 33.3322ZM55.8966 33.4952L55.6446 34.2832L55.8166 34.3382L56.0686 33.5502L55.8966 33.4952ZM55.7586 34.2252L54.6656 33.8632L54.6086 34.0352L55.7026 34.3962L55.7586 34.2252ZM54.5506 33.9772L54.9206 35.1312L55.0926 35.0762L54.7226 33.9212L54.5506 33.9772ZM54.9836 35.0162L54.1236 35.2462L54.1706 35.4212L55.0306 35.1912L54.9836 35.0162Z" fill="black" fill-opacity="0.1"/>
<defs>
<linearGradient id="paint0_linear_6616_21198" x1="58.7605" y1="33.3915" x2="67.8205" y2="16.9185" gradientUnits="userSpaceOnUse">
<stop stop-color="#78818C"/>
<stop offset="0.075" stop-color="#ACA6C8"/>
<stop offset="0.187" stop-color="#FCFFFE"/>
<stop offset="0.25" stop-color="#F5FFFA"/>
<stop offset="0.328" stop-color="#AEBFC0"/>
<stop offset="0.411" stop-color="#B9B8D8"/>
<stop offset="0.49" stop-color="#E7DDD5"/>
<stop offset="0.589" stop-color="#F3F0FD"/>
<stop offset="0.682" stop-color="#A0B6D6"/>
<stop offset="0.734" stop-color="#B7BFDC"/>
<stop offset="0.792" stop-color="#A4B4B5"/>
<stop offset="0.885" stop-color="#747D91"/>
</linearGradient>
</defs>
</svg>
