<svg width="49" height="49" viewBox="0 0 49 49" fill="none" xmlns="http://www.w3.org/2000/svg">
<g id="spreadsheet.d5e5a8afe9c10787c120733c7e00d789.svg">
<path id="Vector" d="M10.5879 36.8438V12.8438C10.5879 9.53175 13.2459 6.84375 16.5219 6.84375H26.5359C28.1079 6.84375 29.6199 7.47375 30.7359 8.60175L37.6479 15.5857C38.7639 16.7137 39.3879 18.2377 39.3879 19.8277V36.8438C39.3879 40.1558 36.7299 42.8438 33.4539 42.8438H16.5219C13.2459 42.8438 10.5879 40.1558 10.5879 36.8438Z" fill="#E9F9EE"/>
<path id="Vector_2" fill-rule="evenodd" clip-rule="evenodd" d="M38.6096 16.8591C39.1158 17.7565 39.3879 18.7777 39.3879 19.8277V36.8438C39.3879 40.1558 36.7299 42.8438 33.4539 42.8438H16.5219C13.2459 42.8438 10.5879 40.1558 10.5879 36.8438V12.8438C10.5879 9.53175 13.2459 6.84375 16.5219 6.84375H26.5359C27.88 6.84375 29.1801 7.30429 30.2265 8.14288C30.3866 8.27113 30.5408 8.40832 30.6883 8.55417C30.7042 8.56993 30.7201 8.58579 30.7359 8.60175L37.6479 15.5857C37.6508 15.5886 37.6537 15.5917 37.6566 15.5946C38.0325 15.9742 38.3516 16.4002 38.6096 16.8591ZM38.1755 20.9368C38.1715 20.0157 37.4619 19.3178 36.5409 19.3178H32.9139C29.6019 19.3178 26.9139 16.6298 26.9139 13.3177V9.71906C26.9139 8.78133 26.1931 8.05292 25.2554 8.05062C23.3935 8.04605 20.6206 8.04375 20.5359 8.04375H16.5219C13.9212 8.04375 11.7879 10.1819 11.7879 12.8438V36.8438C11.7879 39.5056 13.9212 41.6437 16.5219 41.6437H33.4539C36.0546 41.6437 38.1879 39.5056 38.1879 36.8438V25.8277C38.1879 25.7114 38.1837 22.8278 38.1755 20.9368Z" fill="#92CEAC"/>
<path id="Vector_3" fill-rule="evenodd" clip-rule="evenodd" d="M19.5871 22.4453C18.593 22.4453 17.7871 23.2512 17.7871 24.2453V33.8453C17.7871 34.8394 18.593 35.6453 19.5871 35.6453H30.3871C31.3812 35.6453 32.1871 34.8394 32.1871 33.8453V24.2453C32.1871 23.2512 31.3812 22.4453 30.3871 22.4453H19.5871ZM30.3871 23.6453H19.5871C19.2557 23.6453 18.9871 23.9139 18.9871 24.2453V25.1453C18.9871 25.311 19.1214 25.4453 19.2871 25.4453H30.6871C30.8528 25.4453 30.9871 25.311 30.9871 25.1453V24.2453C30.9871 23.9139 30.7185 23.6453 30.3871 23.6453ZM19.2871 31.4453C19.1214 31.4453 18.9871 31.311 18.9871 31.1453V29.9453C18.9871 29.7796 19.1214 29.6453 19.2871 29.6453H24.0871C24.2528 29.6453 24.3871 29.7796 24.3871 29.9453V31.1453C24.3871 31.311 24.2528 31.4453 24.0871 31.4453H19.2871ZM19.2871 32.6453C19.1214 32.6453 18.9871 32.7796 18.9871 32.9453V33.8453C18.9871 34.1766 19.2557 34.4453 19.5871 34.4453H24.0871C24.2528 34.4453 24.3871 34.311 24.3871 34.1453V32.9453C24.3871 32.7796 24.2528 32.6453 24.0871 32.6453H19.2871ZM25.8871 32.6453C25.7214 32.6453 25.5871 32.7796 25.5871 32.9453V34.1453C25.5871 34.311 25.7214 34.4453 25.8871 34.4453H30.3871C30.7185 34.4453 30.9871 34.1766 30.9871 33.8453V32.9453C30.9871 32.7796 30.8528 32.6453 30.6871 32.6453H25.8871ZM30.6871 31.4453C30.8528 31.4453 30.9871 31.311 30.9871 31.1453V29.9453C30.9871 29.7796 30.8528 29.6453 30.6871 29.6453H25.8871C25.7214 29.6453 25.5871 29.7796 25.5871 29.9453V31.1453C25.5871 31.311 25.7214 31.4453 25.8871 31.4453H30.6871ZM24.3871 28.1453C24.3871 28.311 24.2528 28.4453 24.0871 28.4453H19.2871C19.1214 28.4453 18.9871 28.311 18.9871 28.1453V26.9453C18.9871 26.7796 19.1214 26.6453 19.2871 26.6453H24.0871C24.2528 26.6453 24.3871 26.7796 24.3871 26.9453V28.1453ZM25.5871 28.1453C25.5871 28.311 25.7214 28.4453 25.8871 28.4453H30.6871C30.8528 28.4453 30.9871 28.311 30.9871 28.1453V26.9453C30.9871 26.7796 30.8528 26.6453 30.6871 26.6453H25.8871C25.7214 26.6453 25.5871 26.7796 25.5871 26.9453V28.1453Z" fill="#5BB98C"/>
</g>
</svg>
