<svg width="17" height="17" viewBox="0 0 17 17" fill="none" xmlns="http://www.w3.org/2000/svg">
<path fill-rule="evenodd" clip-rule="evenodd" d="M4.90477 3.51437C4.90477 3.33767 4.97496 3.16821 5.09991 3.04327C5.22485 2.91832 5.39432 2.84812 5.57102 2.84812H9.68311C9.8598 2.84816 10.0292 2.91838 10.1541 3.04334L12.7046 5.59374C12.8295 5.71866 12.8997 5.88809 12.8998 6.06478V12.8419C12.8998 13.0186 12.8296 13.188 12.7046 13.313C12.5797 13.4379 12.4102 13.5081 12.2335 13.5081H5.57102C5.39432 13.5081 5.22485 13.4379 5.09991 13.313C4.97496 13.188 4.90477 13.0186 4.90477 12.8419V3.51437ZM5.57102 1.51563C5.04091 1.51563 4.53252 1.72621 4.15769 2.10105C3.78285 2.47588 3.57227 2.98427 3.57227 3.51437V12.8419C3.57227 13.372 3.78285 13.8804 4.15769 14.2552C4.53252 14.63 5.04091 14.8406 5.57102 14.8406H12.2335C12.7636 14.8406 13.272 14.63 13.6468 14.2552C14.0217 13.8804 14.2323 13.372 14.2323 12.8419V6.06478C14.232 5.53495 14.0213 5.02692 13.6466 4.65233L11.0962 2.10059C10.7214 1.72597 10.2131 1.51556 9.68311 1.51563H5.57102ZM6.90352 5.51312C6.72681 5.51312 6.55735 5.58332 6.43241 5.70827C6.30746 5.83321 6.23727 6.00267 6.23727 6.17937C6.23727 6.35608 6.30746 6.52554 6.43241 6.65048C6.55735 6.77543 6.72681 6.84562 6.90352 6.84562H8.90227C9.07897 6.84562 9.24843 6.77543 9.37338 6.65048C9.49832 6.52554 9.56852 6.35608 9.56852 6.17937C9.56852 6.00267 9.49832 5.83321 9.37338 5.70827C9.24843 5.58332 9.07897 5.51312 8.90227 5.51312H6.90352ZM6.90352 8.17812C6.72681 8.17812 6.55735 8.24832 6.43241 8.37327C6.30746 8.49821 6.23727 8.66767 6.23727 8.84437C6.23727 9.02108 6.30746 9.19054 6.43241 9.31548C6.55735 9.44043 6.72681 9.51062 6.90352 9.51062H10.901C11.0777 9.51062 11.2472 9.44043 11.3721 9.31548C11.4971 9.19054 11.5673 9.02108 11.5673 8.84437C11.5673 8.66767 11.4971 8.49821 11.3721 8.37327C11.2472 8.24832 11.0777 8.17812 10.901 8.17812H6.90352ZM6.23727 11.5094C6.23727 11.3327 6.30746 11.1632 6.43241 11.0383C6.55735 10.9133 6.72681 10.8431 6.90352 10.8431H10.901C11.0777 10.8431 11.2472 10.9133 11.3721 11.0383C11.4971 11.1632 11.5673 11.3327 11.5673 11.5094C11.5673 11.6861 11.4971 11.8555 11.3721 11.9805C11.2472 12.1054 11.0777 12.1756 10.901 12.1756H6.90352C6.72681 12.1756 6.55735 12.1054 6.43241 11.9805C6.30746 11.8555 6.23727 11.6861 6.23727 11.5094Z" fill="#4F5762"/>
</svg>
