<svg width="49" height="49" viewBox="0 0 49 49" fill="none" xmlns="http://www.w3.org/2000/svg">
<g id="document.f8c28c1a116ac4db1e2eea9af9cbe75b.svg">
<path id="Vector" d="M10.5771 36.8438V12.8438C10.5771 9.53175 13.2351 6.84375 16.5111 6.84375H26.5251C28.0971 6.84375 29.6091 7.47375 30.7251 8.60175L37.6371 15.5857C38.7533 16.7154 39.3785 18.2398 39.3771 19.8277V36.8438C39.3771 40.1558 36.7191 42.8438 33.4431 42.8438H16.5111C13.2351 42.8438 10.5771 40.1558 10.5771 36.8438Z" fill="#F0F4FF"/>
<path id="Vector_2" fill-rule="evenodd" clip-rule="evenodd" d="M38.5991 16.8587C39.1098 17.7649 39.3778 18.7876 39.3771 19.8277V36.8438C39.3771 40.1558 36.7191 42.8438 33.4431 42.8438H16.5111C13.2351 42.8438 10.5771 40.1558 10.5771 36.8438V12.8438C10.5771 9.53175 13.2351 6.84375 16.5111 6.84375H26.5251C27.3068 6.84402 28.0805 6.99957 28.8015 7.30136C29.5225 7.60315 30.1764 8.04517 30.7251 8.60175L37.6371 15.5857L37.6461 15.5948C38.0221 15.9748 38.3412 16.4007 38.5991 16.8587ZM38.1651 20.9368C38.1611 20.0158 37.4511 19.3178 36.5301 19.3178H32.9031C29.5911 19.3178 26.9031 16.6298 26.9031 13.3177V9.71875C26.9031 8.78175 26.1831 8.05275 25.2451 8.05075C23.6718 8.04734 22.0985 8.04501 20.5251 8.04375H16.5111C13.9111 8.04375 11.7771 10.1818 11.7771 12.8438V36.8438C11.7771 39.5057 13.9101 41.6437 16.5111 41.6437H33.4431C36.0431 41.6437 38.1771 39.5057 38.1771 36.8438V25.8277C38.1771 25.7118 38.1731 22.8278 38.1651 20.9368Z" fill="#AEC0F5"/>
<path id="Vector_3" d="M17.7773 35.0406C17.7773 34.8815 17.8406 34.7289 17.9531 34.6164C18.0656 34.5038 18.2182 34.4406 18.3773 34.4406H31.5773C31.7365 34.4406 31.8891 34.5038 32.0016 34.6164C32.1141 34.7289 32.1773 34.8815 32.1773 35.0406C32.1773 35.1998 32.1141 35.3524 32.0016 35.4649C31.8891 35.5774 31.7365 35.6406 31.5773 35.6406H18.3773C18.2182 35.6406 18.0656 35.5774 17.9531 35.4649C17.8406 35.3524 17.7773 35.1998 17.7773 35.0406ZM17.7773 27.8406C17.7773 27.6815 17.8406 27.5289 17.9531 27.4164C18.0656 27.3038 18.2182 27.2406 18.3773 27.2406H31.5773C31.7365 27.2406 31.8891 27.3038 32.0016 27.4164C32.1141 27.5289 32.1773 27.6815 32.1773 27.8406C32.1773 27.9998 32.1141 28.1524 32.0016 28.2649C31.8891 28.3774 31.7365 28.4406 31.5773 28.4406H18.3773C18.2986 28.4406 18.2205 28.4251 18.1477 28.395C18.0749 28.3648 18.0088 28.3206 17.9531 28.2649C17.8974 28.2092 17.8532 28.143 17.823 28.0702C17.7929 27.9974 17.7773 27.9194 17.7773 27.8406ZM17.7773 31.4406C17.7773 31.3618 17.7929 31.2838 17.823 31.211C17.8532 31.1382 17.8974 31.0721 17.9531 31.0164C18.0088 30.9606 18.0749 30.9165 18.1477 30.8863C18.2205 30.8561 18.2986 30.8406 18.3773 30.8406H31.5773C31.7365 30.8406 31.8891 30.9038 32.0016 31.0164C32.1141 31.1289 32.1773 31.2815 32.1773 31.4406C32.1773 31.5998 32.1141 31.7524 32.0016 31.8649C31.8891 31.9774 31.7365 32.0406 31.5773 32.0406H18.3773C18.2182 32.0406 18.0656 31.9774 17.9531 31.8649C17.8406 31.7524 17.7773 31.5998 17.7773 31.4406ZM17.7773 24.2406C17.7773 24.0815 17.8406 23.9289 17.9531 23.8164C18.0656 23.7038 18.2182 23.6406 18.3773 23.6406H24.9773C25.0561 23.6406 25.1342 23.6561 25.207 23.6863C25.2798 23.7165 25.3459 23.7606 25.4016 23.8164C25.4573 23.8721 25.5015 23.9382 25.5317 24.011C25.5618 24.0838 25.5773 24.1618 25.5773 24.2406C25.5773 24.3194 25.5618 24.3974 25.5317 24.4702C25.5015 24.543 25.4573 24.6092 25.4016 24.6649C25.3459 24.7206 25.2798 24.7648 25.207 24.795C25.1342 24.8251 25.0561 24.8406 24.9773 24.8406H18.3773C18.2182 24.8406 18.0656 24.7774 17.9531 24.6649C17.8406 24.5524 17.7773 24.3998 17.7773 24.2406Z" fill="#8DA4EF"/>
</g>
</svg>
