<svg width="16" height="17" viewBox="0 0 16 17" fill="none" xmlns="http://www.w3.org/2000/svg">
<path fill-rule="evenodd" clip-rule="evenodd" d="M4.66699 3.43197C4.49018 3.43197 4.32061 3.5022 4.19559 3.62723C4.07056 3.75225 4.00033 3.92182 4.00033 4.09863V13.432C4.00033 13.6088 4.07056 13.7783 4.19559 13.9034C4.32061 14.0284 4.49018 14.0986 4.66699 14.0986H11.3337C11.5105 14.0986 11.68 14.0284 11.8051 13.9034C11.9301 13.7783 12.0003 13.6088 12.0003 13.432V6.65063C12.0003 6.47384 11.93 6.3043 11.805 6.1793L9.25366 3.6273C9.19169 3.56531 9.1181 3.51615 9.03711 3.48263C8.95612 3.44911 8.86931 3.4319 8.78166 3.43197H4.66699ZM2.66699 4.09863C2.66699 3.5682 2.87771 3.05949 3.25278 2.68442C3.62785 2.30935 4.13656 2.09863 4.66699 2.09863H8.78166C9.31182 2.09892 9.82017 2.3097 10.195 2.68463L12.7483 5.23663C13.1232 5.61173 13.3337 6.12034 13.3337 6.65063V13.432C13.3337 13.9624 13.1229 14.4711 12.7479 14.8462C12.3728 15.2213 11.8641 15.432 11.3337 15.432H4.66699C4.13656 15.432 3.62785 15.2213 3.25278 14.8462C2.87771 14.4711 2.66699 13.9624 2.66699 13.432V4.09863Z" fill="#656F7D"/>
</svg>
