<svg width="81" height="81" viewBox="0 0 81 81" fill="none" xmlns="http://www.w3.org/2000/svg">
<g clip-path="url(#clip0_6616_22883)">
<path d="M16.8496 25.2256C16.8496 19.7028 21.3268 15.2256 26.8496 15.2256H54.8496C60.3724 15.2256 64.8496 19.7028 64.8496 25.2256V60.2256C64.8496 65.7484 60.3724 70.2256 54.8496 70.2256H26.8496C21.3268 70.2256 16.8496 65.7484 16.8496 60.2256V25.2256Z" fill="#F9F9F9"/>
<path fill-rule="evenodd" clip-rule="evenodd" d="M54.8496 17.2256H26.8496C22.4313 17.2256 18.8496 20.8073 18.8496 25.2256V60.2256C18.8496 64.6439 22.4313 68.2256 26.8496 68.2256H54.8496C59.2679 68.2256 62.8496 64.6439 62.8496 60.2256V25.2256C62.8496 20.8073 59.2679 17.2256 54.8496 17.2256ZM26.8496 15.2256C21.3268 15.2256 16.8496 19.7028 16.8496 25.2256V60.2256C16.8496 65.7484 21.3268 70.2256 26.8496 70.2256H54.8496C60.3724 70.2256 64.8496 65.7484 64.8496 60.2256V25.2256C64.8496 19.7028 60.3725 15.2256 54.8496 15.2256H26.8496Z" fill="#DDDDDD"/>
<path fill-rule="evenodd" clip-rule="evenodd" d="M26.8496 17.2256H54.8496C59.2679 17.2256 62.8496 20.8073 62.8496 25.2256V60.2256C62.8496 64.6439 59.2679 68.2256 54.8496 68.2256H26.8496C22.4313 68.2256 18.8496 64.6439 18.8496 60.2256V25.2256C18.8496 20.8073 22.4313 17.2256 26.8496 17.2256ZM26.8496 19.2256H54.8496C58.1633 19.2256 60.8496 21.9119 60.8496 25.2256V60.2256C60.8496 63.5393 58.1633 66.2256 54.8496 66.2256H26.8496C23.5359 66.2256 20.8496 63.5393 20.8496 60.2256V25.2256C20.8496 21.9119 23.5359 19.2256 26.8496 19.2256Z" fill="white"/>
<path d="M47.8496 13.2256C47.8496 11.5687 46.5065 10.2256 44.8496 10.2256H36.8496C35.1927 10.2256 33.8496 11.5687 33.8496 13.2256C33.8496 14.3302 32.9542 15.2256 31.8496 15.2256C30.1927 15.2256 28.8496 16.5687 28.8496 18.2256V21.2256C28.8496 22.8825 30.1927 24.2256 31.8496 24.2256H49.8496C51.5065 24.2256 52.8496 22.8825 52.8496 21.2256V18.2256C52.8496 16.5687 51.5065 15.2256 49.8496 15.2256C48.745 15.2256 47.8496 14.3302 47.8496 13.2256Z" fill="#BBBBBB"/>
<path d="M28.8496 36.2256C28.8496 35.6733 29.2973 35.2256 29.8496 35.2256H51.8496C52.4019 35.2256 52.8496 35.6733 52.8496 36.2256C52.8496 36.7779 52.4019 37.2256 51.8496 37.2256H29.8496C29.2973 37.2256 28.8496 36.7779 28.8496 36.2256Z" fill="#BBBBBB"/>
<path d="M28.8496 42.2256C28.8496 41.6733 29.2973 41.2256 29.8496 41.2256H51.8496C52.4019 41.2256 52.8496 41.6733 52.8496 42.2256C52.8496 42.7779 52.4019 43.2256 51.8496 43.2256H29.8496C29.2973 43.2256 28.8496 42.7779 28.8496 42.2256Z" fill="#BBBBBB"/>
<path d="M28.8496 48.2256C28.8496 47.6733 29.2973 47.2256 29.8496 47.2256H51.8496C52.4019 47.2256 52.8496 47.6733 52.8496 48.2256C52.8496 48.7779 52.4019 49.2256 51.8496 49.2256H29.8496C29.2973 49.2256 28.8496 48.7779 28.8496 48.2256Z" fill="#BBBBBB"/>
<path d="M28.8496 54.2256C28.8496 53.6733 29.2973 53.2256 29.8496 53.2256H40.8496C41.4019 53.2256 41.8496 53.6733 41.8496 54.2256C41.8496 54.7779 41.4019 55.2256 40.8496 55.2256H29.8496C29.2973 55.2256 28.8496 54.7779 28.8496 54.2256Z" fill="#BBBBBB"/>
<path d="M71.8496 67.2256C71.8496 72.7484 67.3724 77.2256 61.8496 77.2256C56.3268 77.2256 51.8496 72.7484 51.8496 67.2256C51.8496 61.7028 56.3268 57.2256 61.8496 57.2256C67.3724 57.2256 71.8496 61.7028 71.8496 67.2256Z" fill="#8D8D8D"/>
<path d="M62.8508 63.0345C62.8508 62.4594 62.3846 61.9932 61.8096 61.9932C61.2345 61.9932 60.7683 62.4594 60.7683 63.0345V66.1439H57.7171C57.142 66.1439 56.6758 66.6101 56.6758 67.1852C56.6758 67.7603 57.142 68.2265 57.7171 68.2265H60.7683V71.4146C60.7683 71.9897 61.2345 72.4559 61.8096 72.4559C62.3846 72.4559 62.8508 71.9897 62.8508 71.4146V68.2265H66.0971C66.6722 68.2265 67.1384 67.7603 67.1384 67.1852C67.1384 66.6101 66.6722 66.1439 66.0971 66.1439H62.8508V63.0345Z" fill="white"/>
</g>
<defs>
<clipPath id="clip0_6616_22883">
<rect width="80" height="80" fill="white" transform="translate(0.849609 0.225586)"/>
</clipPath>
</defs>
</svg>
