<svg width="16" height="17" viewBox="0 0 16 17" fill="none" xmlns="http://www.w3.org/2000/svg">
<path d="M2.66634 2.76562C2.31272 2.76563 1.97358 2.9061 1.72353 3.15615C1.47348 3.4062 1.33301 3.74534 1.33301 4.09896C1.33301 4.45258 1.47348 4.79172 1.72353 5.04177C1.97358 5.29182 2.31272 5.43229 2.66634 5.43229C3.01996 5.43229 3.3591 5.29182 3.60915 5.04177C3.8592 4.79172 3.99967 4.45258 3.99967 4.09896C3.99967 3.74534 3.8592 3.4062 3.60915 3.15615C3.3591 2.9061 3.01996 2.76563 2.66634 2.76562ZM5.99967 3.43229C5.82286 3.43229 5.65329 3.50253 5.52827 3.62755C5.40325 3.75258 5.33301 3.92215 5.33301 4.09896C5.33301 4.27577 5.40325 4.44534 5.52827 4.57036C5.65329 4.69539 5.82286 4.76562 5.99967 4.76562H13.9997C14.1765 4.76562 14.3461 4.69539 14.4711 4.57036C14.5961 4.44534 14.6663 4.27577 14.6663 4.09896C14.6663 3.92215 14.5961 3.75258 14.4711 3.62755C14.3461 3.50253 14.1765 3.43229 13.9997 3.43229H5.99967ZM2.66634 7.43229C2.31272 7.43229 1.97358 7.57277 1.72353 7.82282C1.47348 8.07287 1.33301 8.412 1.33301 8.76562C1.33301 9.11925 1.47348 9.45839 1.72353 9.70843C1.97358 9.95848 2.31272 10.099 2.66634 10.099C3.01996 10.099 3.3591 9.95848 3.60915 9.70843C3.8592 9.45839 3.99967 9.11925 3.99967 8.76562C3.99967 8.412 3.8592 8.07287 3.60915 7.82282C3.3591 7.57277 3.01996 7.43229 2.66634 7.43229ZM5.99967 8.09896C5.82286 8.09896 5.65329 8.1692 5.52827 8.29422C5.40325 8.41925 5.33301 8.58881 5.33301 8.76562C5.33301 8.94244 5.40325 9.11201 5.52827 9.23703C5.65329 9.36205 5.82286 9.43229 5.99967 9.43229H13.9997C14.1765 9.43229 14.3461 9.36205 14.4711 9.23703C14.5961 9.11201 14.6663 8.94244 14.6663 8.76562C14.6663 8.58881 14.5961 8.41925 14.4711 8.29422C14.3461 8.1692 14.1765 8.09896 13.9997 8.09896H5.99967ZM2.66634 12.099C2.31272 12.099 1.97358 12.2394 1.72353 12.4895C1.47348 12.7395 1.33301 13.0787 1.33301 13.4323C1.33301 13.7859 1.47348 14.1251 1.72353 14.3751C1.97358 14.6251 2.31272 14.7656 2.66634 14.7656C3.01996 14.7656 3.3591 14.6251 3.60915 14.3751C3.8592 14.1251 3.99967 13.7859 3.99967 13.4323C3.99967 13.0787 3.8592 12.7395 3.60915 12.4895C3.3591 12.2394 3.01996 12.099 2.66634 12.099ZM5.99967 12.7656C5.82286 12.7656 5.65329 12.8359 5.52827 12.9609C5.40325 13.0859 5.33301 13.2555 5.33301 13.4323C5.33301 13.6091 5.40325 13.7787 5.52827 13.9037C5.65329 14.0287 5.82286 14.099 5.99967 14.099H13.9997C14.1765 14.099 14.3461 14.0287 14.4711 13.9037C14.5961 13.7787 14.6663 13.6091 14.6663 13.4323C14.6663 13.2555 14.5961 13.0859 14.4711 12.9609C14.3461 12.8359 14.1765 12.7656 13.9997 12.7656H5.99967Z" fill="#656F7D"/>
</svg>
