<svg width="16" height="17" viewBox="0 0 16 17" fill="none" xmlns="http://www.w3.org/2000/svg">
<path fill-rule="evenodd" clip-rule="evenodd" d="M4.138 3.96839C4.01227 3.84695 3.84386 3.77976 3.66907 3.78128C3.49427 3.78279 3.32706 3.85291 3.20345 3.97651C3.07985 4.10012 3.00974 4.26733 3.00822 4.44212C3.0067 4.61692 3.07389 4.78532 3.19533 4.91106L9.05733 10.7731H6.66667C6.48986 10.7731 6.32029 10.8433 6.19526 10.9683C6.07024 11.0933 6 11.2629 6 11.4397C6 11.6165 6.07024 11.7861 6.19526 11.9111C6.32029 12.0362 6.48986 12.1064 6.66667 12.1064H10.6667C10.8435 12.1064 11.013 12.0362 11.1381 11.9111C11.2631 11.7861 11.3333 11.6165 11.3333 11.4397V7.43972C11.3333 7.26291 11.2631 7.09334 11.1381 6.96832C11.013 6.8433 10.8435 6.77306 10.6667 6.77306C10.4899 6.77306 10.3203 6.8433 10.1953 6.96832C10.0702 7.09334 10 7.26291 10 7.43972V9.83039L4.138 3.96839ZM2.66667 13.4397C2.48986 13.4397 2.32029 13.51 2.19526 13.635C2.07024 13.76 2 13.9296 2 14.1064C2 14.2832 2.07024 14.4528 2.19526 14.5778C2.32029 14.7028 2.48986 14.7731 2.66667 14.7731H13.3333C13.5101 14.7731 13.6797 14.7028 13.8047 14.5778C13.9298 14.4528 14 14.2832 14 14.1064C14 13.9296 13.9298 13.76 13.8047 13.635C13.6797 13.51 13.5101 13.4397 13.3333 13.4397H2.66667Z" fill="#808080"/>
</svg>
