<svg width="81" height="81" viewBox="0 0 81 81" fill="none" xmlns="http://www.w3.org/2000/svg">
<g id="svg-sprite-dropbox-colored" clip-path="url(#clip0_6893_31650)">
<path id="Vector" d="M24.207 3.35938L0.951172 18.4291L17.1372 31.4524L40.393 16.9408L24.207 3.35938ZM0.951172 44.1036L24.207 59.3594L40.393 45.778L17.1372 31.4524L0.951172 44.1036ZM40.393 45.778L56.7651 59.3594L79.8349 44.2896L63.8349 31.4524L40.393 45.778ZM79.8349 18.4291L56.7651 3.35938L40.393 16.9408L63.8349 31.4524L79.8349 18.4291ZM40.5791 48.7547L24.207 62.3361L17.3233 57.685V62.8943L40.5791 76.8477L63.8349 62.8943V57.685L56.7651 62.3361L40.5791 48.7547Z" fill="#007EE5"/>
</g>
<defs>
<clipPath id="clip0_6893_31650">
<rect width="80" height="80" fill="white" transform="translate(0.951172 0.570312)"/>
</clipPath>
</defs>
</svg>
