<svg width="17" height="17" viewBox="0 0 17 17" fill="none" xmlns="http://www.w3.org/2000/svg">
<path fill-rule="evenodd" clip-rule="evenodd" d="M5.19694 1.4375C5.37375 1.4375 5.54332 1.50774 5.66834 1.63276C5.79337 1.75779 5.86361 1.92736 5.86361 2.10417V2.77083H11.1969V2.10417C11.1969 1.92736 11.2672 1.75779 11.3922 1.63276C11.5172 1.50774 11.6868 1.4375 11.8636 1.4375C12.0404 1.4375 12.21 1.50774 12.335 1.63276C12.46 1.75779 12.5303 1.92736 12.5303 2.10417V2.85483C13.6803 3.15083 14.5303 4.19483 14.5303 5.4375V12.1042C14.5303 12.8114 14.2493 13.4897 13.7492 13.9898C13.2491 14.4899 12.5709 14.7708 11.8636 14.7708H5.19694C4.4897 14.7708 3.81142 14.4899 3.31132 13.9898C2.81122 13.4897 2.53027 12.8114 2.53027 12.1042V5.4375C2.53035 4.84625 2.72682 4.27178 3.08883 3.80431C3.45083 3.33685 3.95786 3.00287 4.53027 2.85483V2.10417C4.53027 1.92736 4.60051 1.75779 4.72554 1.63276C4.85056 1.50774 5.02013 1.4375 5.19694 1.4375ZM5.19694 4.10417C4.84332 4.10417 4.50418 4.24464 4.25413 4.49469C4.00408 4.74474 3.86361 5.08388 3.86361 5.4375V6.10417H13.1969V5.4375C13.1969 5.08388 13.0565 4.74474 12.8064 4.49469C12.5564 4.24464 12.2172 4.10417 11.8636 4.10417H5.19694ZM13.1969 7.4375H3.86361V12.1042C3.86361 12.4578 4.00408 12.7969 4.25413 13.047C4.50418 13.297 4.84332 13.4375 5.19694 13.4375H11.8636C12.2172 13.4375 12.5564 13.297 12.8064 13.047C13.0565 12.7969 13.1969 12.4578 13.1969 12.1042V7.4375ZM10.1969 11.1042C10.1969 10.9274 10.2672 10.7578 10.3922 10.6328C10.5172 10.5077 10.6868 10.4375 10.8636 10.4375H11.5303C11.7071 10.4375 11.8767 10.5077 12.0017 10.6328C12.1267 10.7578 12.1969 10.9274 12.1969 11.1042V11.7708C12.1969 11.9476 12.1267 12.1172 12.0017 12.2422C11.8767 12.3673 11.7071 12.4375 11.5303 12.4375H10.8636C10.6868 12.4375 10.5172 12.3673 10.3922 12.2422C10.2672 12.1172 10.1969 11.9476 10.1969 11.7708V11.1042Z" fill="#656F7D"/>
</svg>
