<svg width="21" height="21" viewBox="0 0 21 21" fill="none" xmlns="http://www.w3.org/2000/svg">
<g id="cu3-icon-cfEmail">
<path id="Vector" fill-rule="evenodd" clip-rule="evenodd" d="M5.78158 5.85417H15.7816C16.0792 5.8541 16.3715 5.93376 16.6279 6.08485C16.8844 6.23594 17.0957 6.45295 17.2399 6.71333C17.1344 6.74069 17.0353 6.78854 16.9482 6.85417L10.7816 11.4792L4.61491 6.85417C4.52787 6.78854 4.42876 6.74069 4.32324 6.71333C4.46746 6.45295 4.67877 6.23594 4.93523 6.08485C5.19168 5.93376 5.48392 5.8541 5.78158 5.85417ZM4.11491 8.5625V14.1875C4.11491 14.6295 4.2905 15.0534 4.60306 15.366C4.91562 15.6786 5.33955 15.8542 5.78158 15.8542H15.7816C16.2236 15.8542 16.6475 15.6786 16.9601 15.366C17.2726 15.0534 17.4482 14.6295 17.4482 14.1875V8.5625L11.2816 13.1875C11.1373 13.2957 10.9619 13.3542 10.7816 13.3542C10.6013 13.3542 10.4258 13.2957 10.2816 13.1875L4.11491 8.5625ZM2.44824 7.52083C2.44824 6.63678 2.79943 5.78893 3.42455 5.16381C4.04967 4.53869 4.89752 4.1875 5.78158 4.1875H15.7816C16.6656 4.1875 17.5135 4.53869 18.1386 5.16381C18.7637 5.78893 19.1149 6.63678 19.1149 7.52083V14.1875C19.1149 15.0716 18.7637 15.9194 18.1386 16.5445C17.5135 17.1696 16.6656 17.5208 15.7816 17.5208H5.78158C4.89752 17.5208 4.04967 17.1696 3.42455 16.5445C2.79943 15.9194 2.44824 15.0716 2.44824 14.1875V7.52083Z" fill="black"/>
</g>
</svg>
