<svg width="17" height="17" viewBox="0 0 17 17" fill="none" xmlns="http://www.w3.org/2000/svg">
<path fill-rule="evenodd" clip-rule="evenodd" d="M14.9461 2.27821C15.0679 2.32871 15.172 2.41418 15.2452 2.52383C15.3184 2.63348 15.3575 2.76237 15.3574 2.89421V5.89421C15.3574 6.07102 15.2872 6.24059 15.1622 6.36562C15.0371 6.49064 14.8676 6.56088 14.6908 6.56088C14.5139 6.56088 14.3444 6.49064 14.2194 6.36562C14.0943 6.24059 14.0241 6.07102 14.0241 5.89421V4.50355L9.16209 9.36555C9.10059 9.42922 9.02703 9.48001 8.94569 9.51495C8.86436 9.54989 8.77688 9.56828 8.68836 9.56905C8.59984 9.56982 8.51205 9.55295 8.43012 9.51943C8.34819 9.48591 8.27375 9.4364 8.21116 9.37381C8.14856 9.31121 8.09906 9.23678 8.06554 9.15485C8.03202 9.07292 8.01515 8.98513 8.01592 8.89661C8.01669 8.80809 8.03508 8.72061 8.07002 8.63928C8.10496 8.55794 8.15575 8.48438 8.21942 8.42288L13.0748 3.56755L11.6881 3.56088C11.6005 3.56049 11.5139 3.54285 11.4332 3.50898C11.3525 3.47512 11.2792 3.42568 11.2176 3.3635C11.0931 3.23791 11.0236 3.06802 11.0244 2.89121C11.0252 2.7144 11.0962 2.54515 11.2218 2.42069C11.3474 2.29623 11.5173 2.22675 11.6941 2.22755L14.5594 2.24088C14.6892 2.21462 14.8238 2.22762 14.9461 2.27821ZM3.35742 6.22755C3.35742 5.5203 3.63837 4.84202 4.13847 4.34193C4.63857 3.84183 5.31684 3.56088 6.02409 3.56088H8.69076C8.86757 3.56088 9.03714 3.63112 9.16216 3.75614C9.28718 3.88117 9.35742 4.05073 9.35742 4.22755C9.35742 4.40436 9.28718 4.57393 9.16216 4.69895C9.03714 4.82397 8.86757 4.89421 8.69076 4.89421H6.02409C5.67047 4.89421 5.33133 5.03469 5.08128 5.28474C4.83123 5.53479 4.69076 5.87392 4.69076 6.22755V11.5609C4.69076 11.9145 4.83123 12.2536 5.08128 12.5037C5.33133 12.7537 5.67047 12.8942 6.02409 12.8942H11.3574C11.711 12.8942 12.0502 12.7537 12.3002 12.5037C12.5503 12.2536 12.6908 11.9145 12.6908 11.5609V8.89421C12.6908 8.7174 12.761 8.54783 12.886 8.42281C13.011 8.29778 13.1806 8.22755 13.3574 8.22755C13.5342 8.22755 13.7038 8.29778 13.8288 8.42281C13.9539 8.54783 14.0241 8.7174 14.0241 8.89421V11.5609C14.0241 12.2681 13.7431 12.9464 13.243 13.4465C12.7429 13.9466 12.0647 14.2275 11.3574 14.2275H6.02409C5.31684 14.2275 4.63857 13.9466 4.13847 13.4465C3.63837 12.9464 3.35742 12.2681 3.35742 11.5609V6.22755Z" fill="#4F5762"/>
</svg>
