<svg width="18" height="17" viewBox="0 0 18 17" fill="none" xmlns="http://www.w3.org/2000/svg">
<g id="SVG">
<g id="Clip path group">
<mask id="mask0_6893_31997" style="mask-type:luminance" maskUnits="userSpaceOnUse" x="1" y="0" width="17" height="17">
<g id="clip0_50_889">
<path id="Vector" d="M17.2054 0.8125H1.21484V16.7975H17.2054V0.8125Z" fill="white"/>
</g>
</mask>
<g mask="url(#mask0_6893_31997)">
<g id="Group">
<path id="Vector_2" d="M9.21014 0.8125C4.7945 0.8125 1.21484 4.3909 1.21484 8.80499C1.21484 12.5532 3.79636 15.6983 7.27879 16.5622V11.2475H5.63017V8.80499H7.27879V7.75253C7.27879 5.03221 8.51039 3.77132 11.1821 3.77132C11.6887 3.77132 12.5628 3.87074 12.9203 3.96985V6.18377C12.7316 6.16395 12.4038 6.15404 11.9967 6.15404C10.6858 6.15404 10.1792 6.65053 10.1792 7.94116V8.80499H12.7907L12.3421 11.2475H10.1792V16.7389C14.1381 16.261 17.2057 12.8913 17.2057 8.80499C17.2054 4.3909 13.6257 0.8125 9.21014 0.8125Z" fill="#808080"/>
</g>
</g>
</g>
</g>
</svg>
