<svg width="16" height="17" viewBox="0 0 16 17" fill="none" xmlns="http://www.w3.org/2000/svg">
<path d="M1.33544 5.63598C1.33544 5.45928 1.40564 5.28981 1.53058 5.16487C1.65553 5.03992 1.82499 4.96973 2.00169 4.96973H13.9929C14.1696 4.96973 14.339 5.03992 14.464 5.16487C14.5889 5.28981 14.6591 5.45928 14.6591 5.63598C14.6591 5.81268 14.5889 5.98214 14.464 6.10709C14.339 6.23203 14.1696 6.30223 13.9929 6.30223H2.00103C1.82433 6.30223 1.65486 6.23203 1.52992 6.10709C1.40497 5.98214 1.33544 5.81268 1.33544 5.63598ZM3.58404 9.38297C3.58404 9.20627 3.65423 9.0368 3.77918 8.91186C3.90412 8.78691 4.07359 8.71672 4.25029 8.71672H11.7449C11.9216 8.71672 12.0911 8.78691 12.216 8.91186C12.341 9.0368 12.4112 9.20627 12.4112 9.38297C12.4112 9.55967 12.341 9.72913 12.216 9.85408C12.0911 9.97902 11.9216 10.0492 11.7449 10.0492H4.25029C4.07359 10.0492 3.90412 9.97902 3.77918 9.85408C3.65423 9.72913 3.58404 9.55967 3.58404 9.38297ZM6.49822 12.4644C6.32151 12.4644 6.15205 12.5346 6.02711 12.6595C5.90216 12.7845 5.83197 12.9539 5.83197 13.1306C5.83197 13.3073 5.90216 13.4768 6.02711 13.6017C6.15205 13.7267 6.32151 13.7969 6.49822 13.7969H9.49634C9.67304 13.7969 9.8425 13.7267 9.96745 13.6017C10.0924 13.4768 10.1626 13.3073 10.1626 13.1306C10.1626 12.9539 10.0924 12.7845 9.96745 12.6595C9.8425 12.5346 9.67304 12.4644 9.49634 12.4644H6.49822Z" fill="#4F5762"/>
</svg>
