<svg width="15" height="14" viewBox="0 0 15 14" fill="none" xmlns="http://www.w3.org/2000/svg">
<g id="svg-sprite-filter" clip-path="url(#clip0_6893_29767)">
<path id="Vector" fill-rule="evenodd" clip-rule="evenodd" d="M9.33925 7.57022L13.5549 1.83316C13.6859 1.67609 13.7577 1.47808 13.7578 1.27356V0.801397C13.7575 0.59289 13.6744 0.393029 13.5269 0.245701C13.3793 0.0983739 13.1793 0.0156248 12.9708 0.015625L1.72053 0.015625C1.51182 0.015625 1.31166 0.0985343 1.16408 0.246114C1.0165 0.393693 0.933594 0.593854 0.933594 0.802562L0.933594 1.27239C0.933686 1.47691 1.00547 1.67492 1.13645 1.83199L5.31946 7.57022C5.39218 7.65773 5.48129 7.7302 5.58177 7.78357V13.1382C5.58284 13.3107 5.63486 13.4789 5.73131 13.6219C5.82775 13.7648 5.9643 13.876 6.12378 13.9416C6.28327 14.0071 6.45858 14.024 6.62766 13.9902C6.79674 13.9564 6.95204 13.8733 7.07404 13.7515L8.82279 12.0086C8.98638 11.8445 9.07821 11.6223 9.07811 11.3907V7.78241C9.17859 7.72903 9.26769 7.65656 9.34042 7.56906L9.33925 7.57022Z" fill="#BDBDBD"/>
</g>
<defs>
<clipPath id="clip0_6893_29767">
<rect width="13.99" height="13.99" fill="white" transform="translate(0.350586 0.015625)"/>
</clipPath>
</defs>
</svg>
