<svg width="17" height="17" viewBox="0 0 17 17" fill="none" xmlns="http://www.w3.org/2000/svg">
<path d="M15.298 2.34297C15.298 5.18297 13.183 7.53047 10.443 7.89297C10.2655 6.55797 9.67805 5.35297 8.81055 4.41047C9.76805 2.70047 11.598 1.54297 13.698 1.54297H14.498C14.9405 1.54297 15.298 1.90047 15.298 2.34297ZM2.49805 3.94297C2.49805 3.50047 2.85555 3.14297 3.29805 3.14297H4.09805C7.19055 3.14297 9.69805 5.65047 9.69805 8.74297V9.54297V13.543C9.69805 13.9855 9.34055 14.343 8.89805 14.343C8.45555 14.343 8.09805 13.9855 8.09805 13.543V9.54297C5.00555 9.54297 2.49805 7.03547 2.49805 3.94297Z" fill="#64C6A2"/>
</svg>
