<svg width="19" height="18" viewBox="0 0 19 18" fill="none" xmlns="http://www.w3.org/2000/svg">
<path fill-rule="evenodd" clip-rule="evenodd" d="M3.77653 15.0073C3.48129 15.0073 3.18895 14.9491 2.91623 14.8361C2.64351 14.723 2.39575 14.5573 2.18713 14.3484C1.9785 14.1395 1.81311 13.8915 1.7004 13.6186C1.58769 13.3457 1.52988 13.0533 1.53028 12.7581V5.25433C1.53037 4.95902 1.58866 4.66663 1.70181 4.39386C1.81495 4.12109 1.98074 3.87329 2.18969 3.66461C2.39864 3.45594 2.64666 3.29049 2.91958 3.17771C3.1925 3.06493 3.48497 3.00703 3.78028 3.00733H7.53028C7.72917 3.00737 7.91991 3.08641 8.06053 3.22708L9.34078 4.50733H14.2803C14.877 4.50733 15.4493 4.74438 15.8713 5.16634C16.2932 5.58829 16.5303 6.16059 16.5303 6.75733V12.7573C16.5303 13.9978 15.5283 15.0073 14.284 15.0073H3.77653ZM3.03028 12.7581C3.03028 13.1743 3.36403 13.5073 3.77653 13.5073H14.284C14.3823 13.5072 14.4796 13.4877 14.5704 13.45C14.6611 13.4122 14.7435 13.3569 14.8128 13.2872C14.8821 13.2175 14.937 13.1349 14.9743 13.0439C15.0117 12.953 15.0307 12.8556 15.0303 12.7573V6.75733C15.0303 6.55841 14.9513 6.36765 14.8106 6.227C14.67 6.08634 14.4792 6.00733 14.2803 6.00733H9.03028C8.83138 6.00728 8.64065 5.92824 8.50003 5.78758L7.21978 4.50733H3.78028C3.36403 4.50733 3.03028 4.84183 3.03028 5.25433V12.7581Z" fill="#EE5E99"/>
</svg>
