<svg width="18" height="19" viewBox="0 0 18 19" fill="none" xmlns="http://www.w3.org/2000/svg">
<path d="M9.00094 3.97852C10.3284 3.97852 11.5172 4.43602 12.4547 5.32852L15.0234 2.75977C13.4634 1.30852 11.4272 0.416016 9.00094 0.416016C5.48344 0.416016 2.44219 2.43352 0.960938 5.37352L3.95344 7.69477C4.66219 5.56102 6.65344 3.97852 9.00094 3.97852Z" fill="#EA4335"/>
<path d="M17.6175 9.62227C17.6175 9.03352 17.5612 8.46352 17.475 7.91602H9V11.2985H13.8525C13.635 12.4085 13.005 13.3535 12.06 13.991L14.9588 16.241C16.65 14.6735 17.6175 12.356 17.6175 9.62227Z" fill="#4285F4"/>
<path d="M3.94875 11.1368C3.76875 10.593 3.66375 10.0155 3.66375 9.41555C3.66375 8.81555 3.765 8.23805 3.94875 7.6943L0.95625 5.37305C0.345 6.58805 0 7.96055 0 9.41555C0 10.8705 0.345 12.243 0.96 13.458L3.94875 11.1368Z" fill="#FBBC05"/>
<path d="M9.00078 18.4153C11.4308 18.4153 13.4745 17.6166 14.9595 16.2366L12.0608 13.9866C11.2545 14.5303 10.2158 14.8491 9.00078 14.8491C6.65328 14.8491 4.66203 13.2666 3.94953 11.1328L0.957031 13.4541C2.44203 16.3978 5.48328 18.4153 9.00078 18.4153Z" fill="#34A853"/>
</svg>
