<svg width="81" height="81" viewBox="0 0 81 81" fill="none" xmlns="http://www.w3.org/2000/svg">
<g id="svg-sprite-google-drive-colored" clip-path="url(#clip0_6893_31628)">
<path id="Vector" d="M55.6445 53.9076L59.0979 65.8009L68.1379 75.5396C69.3822 74.8223 70.4153 73.7893 71.1325 72.5449L79.5325 57.9983C80.2515 56.7549 80.6296 55.3438 80.6285 53.9076L67.7272 51.4062L55.6445 53.9076Z" fill="#EA4335"/>
<path id="Vector_2" d="M53.4418 6.8199C52.1977 6.10303 50.787 5.72598 49.3512 5.72656H32.5565C31.1213 5.73092 29.7118 6.10764 28.4658 6.8199L32.0818 19.0066L40.9192 28.3906L40.9512 28.4519L49.8498 18.9586L53.4418 6.8199Z" fill="#188038"/>
<path id="Vector_3" d="M26.258 53.9078L13.378 50.9531L1.2793 53.9078C1.2793 55.3158 1.64196 56.7265 2.36996 57.9931L10.77 72.5451C11.5006 73.8065 12.5433 74.8305 13.7646 75.5398L22.6713 66.3665L26.258 53.9078Z" fill="#1967D2"/>
<path id="Vector_4" d="M67.9832 29.8176L56.4365 9.81765C55.7196 8.57228 54.6866 7.53832 53.4418 6.82031L40.9512 28.4523L55.6445 53.9083H80.6232C80.6232 52.495 80.2605 51.0843 79.5298 49.8176L67.9832 29.8176Z" fill="#FFCC00"/>
<path id="Vector_5" d="M55.6446 53.9062H26.258L13.7646 75.5383C14.9886 76.2423 16.3913 76.6316 17.8553 76.6316H64.042C65.4778 76.6322 66.8886 76.2551 68.1327 75.5383L55.6446 53.9062Z" fill="#4285F4"/>
<path id="Vector_6" d="M40.951 28.4523L28.4657 6.82031C27.2233 7.53575 26.1914 8.56587 25.4737 9.80698L2.3697 49.831C1.65451 51.0709 1.27749 52.4769 1.27637 53.9083H26.2577L40.951 28.4523Z" fill="#34A853"/>
</g>
<defs>
<clipPath id="clip0_6893_31628">
<rect width="80" height="80" fill="white" transform="translate(0.951172 0.757812)"/>
</clipPath>
</defs>
</svg>
