<svg width="17" height="17" viewBox="0 0 17 17" fill="none" xmlns="http://www.w3.org/2000/svg">
<path fill-rule="evenodd" clip-rule="evenodd" d="M7.04077 3.74976C7.16571 3.62485 7.33515 3.55469 7.51181 3.55469C7.68848 3.55469 7.85791 3.62485 7.98285 3.74976L11.9804 7.74726C12.1053 7.8722 12.1754 8.04163 12.1754 8.2183C12.1754 8.39496 12.1053 8.56439 11.9804 8.68933L7.98285 12.6868C7.85719 12.8082 7.6889 12.8754 7.51421 12.8738C7.33952 12.8723 7.17242 12.8022 7.04889 12.6787C6.92536 12.5552 6.85529 12.3881 6.85377 12.2134C6.85226 12.0387 6.91941 11.8704 7.04077 11.7448L10.5672 8.2183L7.04077 4.69183C6.91587 4.56689 6.8457 4.39746 6.8457 4.2208C6.8457 4.04413 6.91587 3.8747 7.04077 3.74976Z" fill="#4F5762"/>
</svg>
