<svg width="16" height="16" viewBox="0 0 16 16" fill="none" xmlns="http://www.w3.org/2000/svg">
<path d="M2.77984 9.30974L7.29734 13.5272C7.48484 13.7022 7.73234 13.7997 7.98984 13.7997C8.24734 13.7997 8.49484 13.7022 8.68234 13.5272L13.1998 9.30974C13.9598 8.60224 14.3898 7.60974 14.3898 6.57224V6.42724C14.3898 4.67974 13.1273 3.18974 11.4048 2.90224C10.2648 2.71224 9.10484 3.08474 8.28984 3.89974L7.98984 4.19974L7.68984 3.89974C6.87484 3.08474 5.71484 2.71224 4.57484 2.90224C2.85234 3.18974 1.58984 4.67974 1.58984 6.42724V6.57224C1.58984 7.60974 2.01984 8.60224 2.77984 9.30974Z" fill="#8077F1"/>
</svg>
