<svg width="13" height="13" viewBox="0 0 13 13" fill="none" xmlns="http://www.w3.org/2000/svg">
<path fill-rule="evenodd" clip-rule="evenodd" d="M1.63867 6.37865C1.63867 3.61945 3.87531 1.38281 6.63451 1.38281C9.3937 1.38281 11.6303 3.61945 11.6303 6.37865C11.6303 9.13784 9.3937 11.3745 6.63451 11.3745C3.87531 11.3745 1.63867 9.13784 1.63867 6.37865ZM6.63451 2.38198C5.57452 2.38198 4.55796 2.80306 3.80844 3.55258C3.05891 4.3021 2.63784 5.31866 2.63784 6.37865C2.63784 7.43863 3.05891 8.4552 3.80844 9.20472C4.55796 9.95424 5.57452 10.3753 6.63451 10.3753C7.69449 10.3753 8.71106 9.95424 9.46058 9.20472C10.2101 8.4552 10.6312 7.43863 10.6312 6.37865C10.6312 5.31866 10.2101 4.3021 9.46058 3.55258C8.71106 2.80306 7.69449 2.38198 6.63451 2.38198ZM5.88513 4.25542C5.88513 4.02355 5.97724 3.80117 6.1412 3.63721C6.30516 3.47326 6.52753 3.38115 6.7594 3.38115C6.99127 3.38115 7.21365 3.47326 7.3776 3.63721C7.54156 3.80117 7.63367 4.02355 7.63367 4.25542C7.63367 4.48729 7.54156 4.70966 7.3776 4.87362C7.21365 5.03758 6.99127 5.12969 6.7594 5.12969C6.52753 5.12969 6.30516 5.03758 6.1412 4.87362C5.97724 4.70966 5.88513 4.48729 5.88513 4.25542ZM6.94275 5.73568C7.01736 5.79415 7.07379 5.87265 7.10546 5.96199C7.13713 6.05134 7.14273 6.14785 7.1216 6.24026L6.71394 8.02877L7.05366 7.85891C7.1124 7.82898 7.1765 7.81097 7.24224 7.80593C7.30798 7.80088 7.37407 7.8089 7.43669 7.82952C7.49932 7.85014 7.55724 7.88296 7.60713 7.92607C7.65701 7.96919 7.69787 8.02175 7.72734 8.08073C7.75682 8.13971 7.77432 8.20394 7.77885 8.26972C7.78339 8.33549 7.77485 8.40152 7.75374 8.46398C7.73264 8.52645 7.69937 8.58411 7.65587 8.63366C7.61237 8.68321 7.55949 8.72365 7.50028 8.75267L6.82335 9.09088C6.20336 9.40063 5.50195 8.85058 5.65582 8.17465L5.91261 7.04809L5.85865 7.07507C5.79976 7.10682 5.7351 7.12643 5.66849 7.13271C5.60188 7.139 5.53468 7.13185 5.47089 7.11167C5.4071 7.0915 5.34801 7.05872 5.29713 7.01527C5.24625 6.97183 5.20461 6.9186 5.17469 6.85876C5.14477 6.79892 5.12717 6.73368 5.12294 6.66691C5.11872 6.60013 5.12795 6.53319 5.15008 6.47005C5.17222 6.40692 5.20681 6.34887 5.25181 6.29935C5.2968 6.24984 5.35129 6.20987 5.41202 6.18181L6.41119 5.68223C6.49577 5.63991 6.59062 5.62247 6.68472 5.63193C6.77881 5.6414 6.86829 5.67737 6.94275 5.73568Z" fill="#4F5762"/>
</svg>
