<svg width="17" height="17" viewBox="0 0 17 17" fill="none" xmlns="http://www.w3.org/2000/svg">
<path d="M6.4725 2.83594C5.85405 2.83594 5.26093 3.08162 4.82362 3.51893C4.3863 3.95624 4.14063 4.54936 4.14062 5.16781V5.87137C4.14062 6.04807 4.21082 6.21754 4.33577 6.34248C4.46071 6.46743 4.63017 6.53762 4.80687 6.53762C4.98358 6.53762 5.15304 6.46743 5.27798 6.34248C5.40293 6.21754 5.47312 6.04807 5.47312 5.87137V5.16781C5.47312 4.90276 5.57842 4.64857 5.76584 4.46115C5.95325 4.27373 6.20745 4.16844 6.4725 4.16844H12.4688C12.7338 4.16844 12.988 4.27373 13.1754 4.46115C13.3628 4.64857 13.4681 4.90276 13.4681 5.16781V12.4966C13.4681 12.7616 13.3628 13.0158 13.1754 13.2032C12.988 13.3906 12.7338 13.4959 12.4688 13.4959H6.4725C6.20745 13.4959 5.95325 13.3906 5.76584 13.2032C5.57842 13.0158 5.47312 12.7616 5.47312 12.4966V11.793C5.47312 11.6163 5.40293 11.4468 5.27798 11.3219C5.15304 11.1969 4.98358 11.1268 4.80687 11.1268C4.63017 11.1268 4.46071 11.1969 4.33577 11.3219C4.21082 11.4468 4.14062 11.6163 4.14062 11.793V12.4966C4.14062 13.115 4.3863 13.7081 4.82362 14.1454C5.26093 14.5828 5.85405 14.8284 6.4725 14.8284H12.4688C13.0872 14.8284 13.6803 14.5828 14.1176 14.1454C14.5549 13.7081 14.8006 13.115 14.8006 12.4966V5.16781C14.8006 4.54936 14.5549 3.95624 14.1176 3.51893C13.6803 3.08162 13.0872 2.83594 12.4688 2.83594H6.4725Z" fill="#808080"/>
<path d="M9.27416 6.35965C9.2127 6.29601 9.13919 6.24526 9.0579 6.21034C8.97662 6.17542 8.88919 6.15704 8.80073 6.15628C8.71226 6.15551 8.62453 6.17236 8.54265 6.20586C8.46077 6.23936 8.38638 6.28883 8.32383 6.35139C8.26127 6.41395 8.2118 6.48833 8.1783 6.57021C8.1448 6.65209 8.12794 6.73982 8.12871 6.82829C8.12948 6.91675 8.14786 7.00418 8.18278 7.08546C8.2177 7.16675 8.26845 7.24027 8.33209 7.30173L9.19355 8.16319H2.80687C2.63017 8.16319 2.46071 8.23338 2.33577 8.35833C2.21082 8.48327 2.14063 8.65274 2.14062 8.82944C2.14063 9.00614 2.21082 9.1756 2.33577 9.30055C2.46071 9.42549 2.63017 9.49569 2.80687 9.49569H9.19355L8.33209 10.3571C8.21072 10.4828 8.14357 10.6511 8.14509 10.8258C8.14661 11.0005 8.21667 11.1676 8.3402 11.2911C8.46373 11.4146 8.63083 11.4847 8.80552 11.4862C8.98021 11.4877 9.14851 11.4206 9.27416 11.2992L11.2729 9.30048C11.3978 9.17554 11.468 9.0061 11.468 8.82944C11.468 8.65277 11.3978 8.48334 11.2729 8.3584L9.27416 6.35965Z" fill="#808080"/>
</svg>
