<svg width="81" height="81" viewBox="0 0 81 81" fill="none" xmlns="http://www.w3.org/2000/svg">
<g id="importer-empty.acb437b216b198941f1ae0d9388a84f7.svg">
<path id="Vector" d="M23.4251 27.2934C25.2901 24.5766 28.3739 22.9531 31.6693 22.9531H49.5611C52.8565 22.9531 55.9403 24.5766 57.8053 27.2934L68.8595 43.3956C70.0031 45.0615 70.6152 47.0347 70.6152 49.0553V58.9531C70.6152 64.4759 66.138 68.9531 60.6152 68.9531H20.6152C15.0924 68.9531 10.6152 64.4759 10.6152 58.9531V49.0553C10.6152 47.0347 11.2273 45.0614 12.3709 43.3956L23.4251 27.2934Z" fill="#F9F9F9"/>
<path id="Vector_2" fill-rule="evenodd" clip-rule="evenodd" d="M31.6693 24.9531H49.5611C52.1974 24.9531 54.6644 26.2519 56.1565 28.4254L67.2106 44.5275C68.1255 45.8602 68.6152 47.4388 68.6152 49.0553V58.9531C68.6152 63.3714 65.0335 66.9531 60.6152 66.9531H20.6152C16.1969 66.9531 12.6152 63.3714 12.6152 58.9531V49.0553C12.6152 47.4388 13.1049 45.8602 14.0198 44.5275L25.0739 28.4253C26.566 26.2519 29.033 24.9531 31.6693 24.9531ZM31.6693 26.9531H49.5611C51.5383 26.9531 53.3886 27.9272 54.5076 29.5573L65.5618 45.6595C66.248 46.659 66.6152 47.843 66.6152 49.0553V58.9531C66.6152 62.2668 63.9289 64.9531 60.6152 64.9531H20.6152C17.3015 64.9531 14.6152 62.2668 14.6152 58.9531V49.0553C14.6152 47.8429 14.9825 46.659 15.6686 45.6595L26.7228 29.5573C27.8418 27.9272 29.6921 26.9531 31.6693 26.9531Z" fill="white"/>
<path id="Vector_3" fill-rule="evenodd" clip-rule="evenodd" d="M49.5611 24.9531H31.6693C29.033 24.9531 26.566 26.2519 25.0739 28.4253L14.0198 44.5275C13.1049 45.8602 12.6152 47.4388 12.6152 49.0553V58.9531C12.6152 63.3714 16.1969 66.9531 20.6152 66.9531H60.6152C65.0335 66.9531 68.6152 63.3714 68.6152 58.9531V49.0553C68.6152 47.4388 68.1255 45.8602 67.2106 44.5275L56.1565 28.4254C54.6644 26.2519 52.1974 24.9531 49.5611 24.9531ZM31.6693 22.9531C28.3739 22.9531 25.2901 24.5766 23.4251 27.2934L12.3709 43.3956C11.2273 45.0615 10.6152 47.0347 10.6152 49.0553V58.9531C10.6152 64.4759 15.0924 68.9531 20.6152 68.9531H60.6152C66.138 68.9531 70.6152 64.4759 70.6152 58.9531V49.0553C70.6152 47.0347 70.0031 45.0614 68.8595 43.3956L57.8053 27.2934C55.9403 24.5766 52.8565 22.9531 49.5611 22.9531H31.6693Z" fill="#808080"/>
<path id="Vector_4" d="M32.8671 28.9531C31.4974 28.9531 30.223 29.6539 29.4894 30.8104L22.5115 41.8104C20.8222 44.4736 22.7355 47.9531 25.8892 47.9531H29.6152C31.2721 47.9531 32.6152 49.2962 32.6152 50.9531V51.9531C32.6152 53.61 33.9583 54.9531 35.6152 54.9531H45.6152C47.2721 54.9531 48.6152 53.61 48.6152 51.9531V50.9531C48.6152 49.2962 49.9583 47.9531 51.6152 47.9531H55.3406C58.4944 47.9531 60.4077 44.4736 58.7184 41.8104L51.7405 30.8104C51.0068 29.6539 49.7324 28.9531 48.3628 28.9531H32.8671Z" fill="#808080"/>
<path id="Vector_5" d="M37.6164 12.9531C36.5118 12.9531 35.6164 13.8485 35.6164 14.9531L36.6164 34.9531C36.6164 35.0138 36.6191 35.0739 36.6244 35.1332C36.6586 35.5168 36.4022 35.9531 36.0171 35.9531H32.8505C31.5735 35.9531 30.8806 37.4471 31.7055 38.422L39.0896 47.1487C39.8885 48.0929 41.3442 48.0929 42.1431 47.1487L49.5273 38.422C50.3522 37.4471 49.6593 35.9531 48.3822 35.9531H45.2157C44.8306 35.9531 44.5741 35.5168 44.6084 35.1332C44.6137 35.0739 44.6164 35.0138 44.6164 34.9531L45.6164 14.9531C45.6164 13.8485 44.7209 12.9531 43.6164 12.9531H37.6164Z" fill="#BBBBBB"/>
<path id="Vector_6" d="M77.6152 65.9531C77.6152 71.4759 73.138 75.9531 67.6152 75.9531C62.0924 75.9531 57.6152 71.4759 57.6152 65.9531C57.6152 60.4303 62.0924 55.9531 67.6152 55.9531C73.138 55.9531 77.6152 60.4303 77.6152 65.9531Z" fill="#808080"/>
<path id="Vector_7" d="M63.6774 62.5418C64.1274 60.9105 65.4423 59.9531 67.2704 59.9531C69.4327 59.9531 71.1841 61.7304 71.1841 63.9247C71.1841 65.1986 70.4111 65.8841 69.6585 66.5515C69.186 66.9706 68.7215 67.3825 68.4613 67.9284C68.2261 68.4221 67.8107 68.8893 67.2704 68.8893C66.73 68.8893 66.2724 68.4361 66.3999 67.9032C66.6664 66.7896 67.3803 66.2342 68.0241 65.7335C68.6599 65.239 69.2273 64.7977 69.2273 63.9247C69.2273 62.8325 68.3467 61.9389 67.2704 61.9389C66.5332 61.9389 65.8879 62.3581 65.5544 62.9731C65.2939 63.4535 64.8366 64.102 64.1274 63.8538C63.5955 63.641 63.5442 63.0732 63.6774 62.5418ZM67.3198 72.7209C68.045 72.7209 68.6328 72.1331 68.6328 71.4079C68.6328 70.6828 68.045 70.0949 67.3198 70.0949C66.5947 70.0949 66.0068 70.6828 66.0068 71.4079C66.0068 72.1331 66.5947 72.7209 67.3198 72.7209Z" fill="white"/>
</g>
</svg>
