<svg width="120" height="121" viewBox="0 0 120 121" fill="none" xmlns="http://www.w3.org/2000/svg">
<g filter="url(#filter0_d_6616_34145)">
<path d="M40.5927 34.8427C41.1483 34.1202 41.8625 33.5351 42.6801 33.1324C43.4978 32.7297 44.3969 32.5202 45.3084 32.52H75.1517C76.0631 32.5202 76.9623 32.7297 77.7799 33.1324C78.5975 33.5351 79.3117 34.1202 79.8674 34.8427L96.6823 56.7005C97.4825 57.7409 97.9162 59.0167 97.916 60.3293V82.1068C97.916 83.6849 97.2891 85.1985 96.1731 86.3144C95.0572 87.4303 93.5437 88.0572 91.9656 88.0572H28.4945C26.9163 88.0572 25.4028 87.4303 24.2869 86.3144C23.171 85.1985 22.5441 83.6849 22.5441 82.1068V60.3283C22.5443 59.0164 22.978 57.7414 23.7778 56.7015L40.5937 34.8417L40.5927 34.8427Z" fill="url(#paint0_linear_6616_34145)"/>
<path fill-rule="evenodd" clip-rule="evenodd" d="M75.1517 34.5035H45.3084C44.7008 34.5035 44.1013 34.6432 43.5563 34.9116C43.0112 35.18 42.535 35.57 42.1646 36.0516L25.3507 57.9094C24.8168 58.6031 24.5274 59.4539 24.5275 60.3293V82.1068C24.5275 83.1589 24.9455 84.1679 25.6894 84.9118C26.4334 85.6558 27.4424 86.0737 28.4945 86.0737H91.9656C93.0177 86.0737 94.0267 85.6558 94.7706 84.9118C95.5146 84.1679 95.9325 83.1589 95.9325 82.1068V60.3283C95.9322 59.4536 95.6428 58.6036 95.1094 57.9104L78.2955 36.0526C77.9251 35.5708 77.449 35.1806 76.9039 34.912C76.3588 34.6434 75.7593 34.5037 75.1517 34.5035ZM45.3084 32.52C44.3969 32.5202 43.4978 32.7297 42.6801 33.1324C41.8625 33.5351 41.1483 34.1202 40.5927 34.8427L23.7778 56.7005C22.9776 57.7409 22.5438 59.0167 22.5441 60.3293V82.1068C22.5441 83.6849 23.171 85.1985 24.2869 86.3144C25.4028 87.4303 26.9163 88.0572 28.4945 88.0572H91.9656C93.5437 88.0572 95.0572 87.4303 96.1731 86.3144C97.2891 85.1985 97.916 83.6849 97.916 82.1068V60.3283C97.9158 59.0164 97.482 57.7414 96.6823 56.7015L79.8664 34.8417C79.3107 34.1195 78.5966 33.5347 77.7792 33.1321C76.9618 32.7296 76.0628 32.5202 75.1517 32.52H45.3084Z" fill="white"/>
<path fill-rule="evenodd" clip-rule="evenodd" d="M75.1517 33.5118H45.3084C44.5488 33.5117 43.7994 33.6862 43.118 34.0216C42.4366 34.3571 41.8413 34.8447 41.3781 35.4466L24.5642 57.3055C23.8973 58.1724 23.5357 59.2355 23.5358 60.3293V82.1068C23.5358 83.4219 24.0582 84.6832 24.9882 85.6131C25.9181 86.543 27.1794 87.0655 28.4945 87.0655H91.9656C93.2807 87.0655 94.5419 86.543 95.4719 85.6131C96.4018 84.6832 96.9242 83.4219 96.9242 82.1068V60.3283C96.9241 59.2349 96.5625 58.1721 95.8958 57.3055L79.0829 35.4476C78.6197 34.8453 78.0244 34.3575 77.3427 34.0219C76.6611 33.6862 75.9115 33.5117 75.1517 33.5118ZM45.3084 32.52C44.3969 32.5202 43.4978 32.7297 42.6801 33.1324C41.8625 33.5351 41.1483 34.1202 40.5927 34.8427L23.7778 56.7005C22.9776 57.7409 22.5438 59.0167 22.5441 60.3293V82.1068C22.5441 83.6849 23.171 85.1985 24.2869 86.3144C25.4028 87.4303 26.9163 88.0572 28.4945 88.0572H91.9656C93.5437 88.0572 95.0572 87.4303 96.1731 86.3144C97.2891 85.1985 97.916 83.6849 97.916 82.1068V60.3283C97.9158 59.0164 97.482 57.7414 96.6823 56.7015L79.8664 34.8417C79.3107 34.1195 78.5966 33.5347 77.7792 33.1321C76.9618 32.7296 76.0628 32.5202 75.1517 32.52H45.3084Z" fill="url(#paint1_linear_6616_34145)"/>
<path d="M47.1232 37.4785C46.6696 37.4784 46.2221 37.5821 45.8147 37.7814C45.4073 37.9808 45.051 38.2707 44.7728 38.6289L33.2161 53.505C31.6977 55.4587 33.0901 58.305 35.5655 58.305H48.3291C48.5922 58.305 48.8444 58.4094 49.0304 58.5954C49.2164 58.7814 49.3209 59.0337 49.3209 59.2967V65.2471C49.3209 66.0362 49.6343 66.7929 50.1923 67.3509C50.7503 67.9089 51.507 68.2223 52.2961 68.2223H69.1556C69.9447 68.2223 70.7014 67.9089 71.2594 67.3509C71.8173 66.7929 72.1308 66.0362 72.1308 65.2471V59.2967C72.1308 59.0337 72.2353 58.7814 72.4213 58.5954C72.6073 58.4094 72.8595 58.305 73.1225 58.305H84.8944C87.3698 58.305 88.7622 55.4587 87.2448 53.505L75.6862 38.6289C75.408 38.2707 75.0516 37.9808 74.6442 37.7814C74.2369 37.5821 73.7893 37.4784 73.3357 37.4785H47.1232Z" fill="url(#paint2_linear_6616_34145)"/>
</g>
<defs>
<filter id="filter0_d_6616_34145" x="12.6267" y="30.5365" width="95.2067" height="75.3718" filterUnits="userSpaceOnUse" color-interpolation-filters="sRGB">
<feFlood flood-opacity="0" result="BackgroundImageFix"/>
<feColorMatrix in="SourceAlpha" type="matrix" values="0 0 0 0 0 0 0 0 0 0 0 0 0 0 0 0 0 0 127 0" result="hardAlpha"/>
<feOffset dy="7.93388"/>
<feGaussianBlur stdDeviation="4.95868"/>
<feComposite in2="hardAlpha" operator="out"/>
<feColorMatrix type="matrix" values="0 0 0 0 0.498039 0 0 0 0 0.466667 0 0 0 0 0.945098 0 0 0 0.2 0"/>
<feBlend mode="normal" in2="BackgroundImageFix" result="effect1_dropShadow_6616_34145"/>
<feBlend mode="normal" in="SourceGraphic" in2="effect1_dropShadow_6616_34145" result="shape"/>
</filter>
<linearGradient id="paint0_linear_6616_34145" x1="46.3457" y1="86.7759" x2="46.7851" y2="20.7808" gradientUnits="userSpaceOnUse">
<stop stop-color="white"/>
<stop offset="1" stop-color="#F2F1FE"/>
</linearGradient>
<linearGradient id="paint1_linear_6616_34145" x1="60.23" y1="32.52" x2="60.23" y2="88.0572" gradientUnits="userSpaceOnUse">
<stop stop-color="#E5E4FC"/>
<stop offset="1" stop-color="#F2F1FE"/>
</linearGradient>
<linearGradient id="paint2_linear_6616_34145" x1="60.22" y1="70.2058" x2="60.22" y2="43.4289" gradientUnits="userSpaceOnUse">
<stop stop-color="#CCC9FA"/>
<stop offset="1" stop-color="#E5E4FC"/>
</linearGradient>
</defs>
</svg>
