<svg width="21" height="21" viewBox="0 0 21 21" fill="none" xmlns="http://www.w3.org/2000/svg">
<g id="cu3-icon-inbox">
<path id="Vector" fill-rule="evenodd" clip-rule="evenodd" d="M3.98991 7.15656C4.07218 6.78646 4.27818 6.45546 4.57392 6.21821C4.86965 5.98096 5.23744 5.85163 5.61658 5.85156H15.9466C16.3257 5.85163 16.6935 5.98096 16.9892 6.21821C17.285 6.45546 17.491 6.78646 17.5732 7.15656L19.0949 14.0041C19.1082 14.0634 19.1149 14.1241 19.1149 14.1849V17.5182C19.1149 17.9603 18.9393 18.3842 18.6268 18.6967C18.3142 19.0093 17.8903 19.1849 17.4482 19.1849H4.11491C3.67288 19.1849 3.24896 19.0093 2.9364 18.6967C2.62384 18.3842 2.44824 17.9603 2.44824 17.5182V14.1849C2.44829 14.1241 2.455 14.0634 2.46824 14.0041L3.98991 7.15656ZM15.9466 7.51823H5.61658L4.32074 13.3516H7.25158C7.51019 13.3516 7.76525 13.4118 7.99658 13.5274L9.31158 14.1849H12.2516L13.5666 13.5274C13.7974 13.4116 14.0532 13.3516 14.3116 13.3516H17.2424L15.9466 7.51823ZM17.4482 15.0182H14.3116L12.9966 15.6757C12.7652 15.7913 12.5102 15.8515 12.2516 15.8516H9.31158C9.05296 15.8515 8.7979 15.7913 8.56658 15.6757L7.25158 15.0182H4.11491V17.5182H17.4482V15.0182Z" fill="black"/>
</g>
</svg>
