<svg width="19" height="19" viewBox="0 0 19 19" fill="none" xmlns="http://www.w3.org/2000/svg">
<path fill-rule="evenodd" clip-rule="evenodd" d="M2.02051 3.01709C2.02051 2.81818 2.09953 2.62741 2.24018 2.48676C2.38083 2.34611 2.5716 2.26709 2.77051 2.26709H16.2705C16.4694 2.26709 16.6602 2.34611 16.8008 2.48676C16.9415 2.62741 17.0205 2.81818 17.0205 3.01709C17.0205 3.216 16.9415 3.40677 16.8008 3.54742C16.6602 3.68807 16.4694 3.76709 16.2705 3.76709H2.77051C2.5716 3.76709 2.38083 3.68807 2.24018 3.54742C2.09953 3.40677 2.02051 3.216 2.02051 3.01709ZM2.02051 6.76709C2.02051 6.56818 2.09953 6.37741 2.24018 6.23676C2.38083 6.09611 2.5716 6.01709 2.77051 6.01709H16.2705C16.4694 6.01709 16.6602 6.09611 16.8008 6.23676C16.9415 6.37741 17.0205 6.56818 17.0205 6.76709C17.0205 6.966 16.9415 7.15677 16.8008 7.29742C16.6602 7.43807 16.4694 7.51709 16.2705 7.51709H2.77051C2.5716 7.51709 2.38083 7.43807 2.24018 7.29742C2.09953 7.15677 2.02051 6.966 2.02051 6.76709ZM2.02051 10.5171C2.02051 10.3182 2.09953 10.1274 2.24018 9.98676C2.38083 9.84611 2.5716 9.76709 2.77051 9.76709H16.2705C16.4694 9.76709 16.6602 9.84611 16.8008 9.98676C16.9415 10.1274 17.0205 10.3182 17.0205 10.5171C17.0205 10.716 16.9415 10.9068 16.8008 11.0474C16.6602 11.1881 16.4694 11.2671 16.2705 11.2671H2.77051C2.5716 11.2671 2.38083 11.1881 2.24018 11.0474C2.09953 10.9068 2.02051 10.716 2.02051 10.5171ZM2.02051 14.2671C2.02051 14.0682 2.09953 13.8774 2.24018 13.7368C2.38083 13.5961 2.5716 13.5171 2.77051 13.5171H11.7705C11.9694 13.5171 12.1602 13.5961 12.3008 13.7368C12.4415 13.8774 12.5205 14.0682 12.5205 14.2671C12.5205 14.466 12.4415 14.6568 12.3008 14.7974C12.1602 14.9381 11.9694 15.0171 11.7705 15.0171H2.77051C2.5716 15.0171 2.38083 14.9381 2.24018 14.7974C2.09953 14.6568 2.02051 14.466 2.02051 14.2671Z" fill="#F8AE00"/>
</svg>
