<svg width="151" height="20" viewBox="0 0 151 20" fill="none" xmlns="http://www.w3.org/2000/svg">
<g id="jira.8fba487b8e3fc0524cd18507bc350a5f.svg" clip-path="url(#clip0_6893_29430)">
<g id="Layer 2">
<g id="Blue">
<path id="Vector" d="M28.1831 2.39471H30.2174V12.7205C30.2174 15.456 29.0205 17.344 26.2156 17.344C25.3861 17.3565 24.5606 17.2262 23.7754 16.9587V14.9809C24.4452 15.2406 25.1581 15.3713 25.8765 15.3661C27.5949 15.3661 28.1882 14.3387 28.1882 12.8566L28.1831 2.39471ZM33.9239 1.60101C34.1054 1.58803 34.2875 1.61421 34.4579 1.67777C34.6283 1.74133 34.7831 1.8408 34.9117 1.96942C35.0404 2.09805 35.1398 2.25282 35.2034 2.42325C35.267 2.59369 35.2931 2.7758 35.2802 2.95723C35.2802 3.31692 35.1373 3.66189 34.8829 3.91623C34.6286 4.17057 34.2836 4.31345 33.9239 4.31345C33.5642 4.31345 33.2193 4.17057 32.9649 3.91623C32.7106 3.66189 32.5677 3.31692 32.5677 2.95723C32.5547 2.7758 32.5809 2.59369 32.6445 2.42325C32.708 2.25282 32.8075 2.09805 32.9361 1.96942C33.0647 1.8408 33.2195 1.74133 33.39 1.67777C33.5604 1.61421 33.7425 1.58803 33.9239 1.60101ZM32.9299 5.94195H34.8743V17.2438H32.9299V5.94195ZM37.8102 5.93938H39.7084V7.92748C40.3634 6.59437 41.5064 5.64399 43.7103 5.78013V7.67832C41.2239 7.42146 39.7084 8.17663 39.7084 10.5706V17.2489H37.8102V5.93938ZM52.8186 15.2069C52.0942 16.6993 50.738 17.4673 48.9991 17.4673C45.9938 17.4673 44.4783 14.9141 44.4783 11.5903C44.4783 8.40267 46.0606 5.71334 49.2251 5.71334C50.8741 5.71334 52.1405 6.45824 52.8211 7.92748V5.93938H54.7656V17.2412H52.8211L52.8186 15.2069ZM49.5179 15.659C51.2594 15.659 52.8186 14.5519 52.8186 12.0424V11.128C52.8186 8.61843 51.3956 7.51136 49.7362 7.51136C47.5427 7.51136 46.4125 8.95749 46.4125 11.58C46.4228 14.3027 47.5067 15.659 49.5205 15.659H49.5179ZM66.2678 17.4673C63.3961 17.4673 62.063 16.9022 60.9097 16.314V14.236C62.289 14.9603 64.4132 15.4792 66.3782 15.4792C68.6155 15.4792 69.4605 14.5981 69.4605 13.2856C69.4605 11.973 68.6463 11.2744 65.8208 10.5963C62.4817 9.78201 60.9841 8.62871 60.9841 6.18853C60.9841 3.87679 62.7462 2.1661 66.2061 2.1661C68.3535 2.1661 69.7328 2.67982 70.75 3.25005V5.28439C69.336 4.50522 67.7405 4.11522 66.1265 4.1542C64.1821 4.1542 63.0288 4.83231 63.0288 6.18853C63.0288 7.40862 63.9791 8.01995 66.5991 8.67494C69.7405 9.46607 71.5051 10.473 71.5051 13.1494C71.4897 15.7258 69.9537 17.4673 66.2678 17.4673ZM73.2081 11.5672C73.2081 8.17663 75.1962 5.71334 78.5868 5.71334C81.9773 5.71334 83.9218 8.17663 83.9218 11.5672C83.9218 14.9577 81.9542 17.475 78.5868 17.475C75.2193 17.475 73.2081 14.9577 73.2081 11.5672ZM75.1063 11.5672C75.1063 13.7145 76.1697 15.659 78.5868 15.659C81.0038 15.659 82.0236 13.7145 82.0236 11.5672C82.0236 9.41983 80.9833 7.53191 78.5868 7.53191C76.1903 7.53191 75.1166 9.41983 75.1166 11.5672H75.1063ZM88.8715 5.93938H91.7868V7.7374H88.8715V17.2412H86.9733V7.7374H85.1341V5.93938H86.9656V4.70645C86.9656 2.60533 88.142 1.17976 90.5616 1.17976C91.0046 1.17729 91.4457 1.23783 91.8716 1.35956V3.15758C91.4694 3.08111 91.0609 3.04326 90.6515 3.04456C89.4545 3.04456 88.8535 3.74579 88.8535 4.76296L88.8715 5.93938ZM98.365 15.343C98.776 15.3308 99.1847 15.2774 99.5851 15.1838V17.0589C99.1592 17.1807 98.7181 17.2413 98.2751 17.2387C95.8555 17.2387 94.6791 15.8157 94.6791 13.712V7.74767H92.84V5.94965H94.6714V3.54287H96.5696V5.93938H99.5748V7.7374H96.5696V13.6709C96.5798 14.6649 97.1681 15.343 98.365 15.343ZM100.13 5.93938H102.277L105.531 15.5228L108.829 5.93938H110.684L113.985 15.5228L117.242 5.93938H119.389L115.23 17.2412H112.744L110.8 11.7727L109.772 8.29222L108.745 11.7727L106.775 17.2412H104.288L100.13 5.93938ZM128.269 15.2069C127.544 16.6993 126.188 17.4673 124.449 17.4673C121.444 17.4673 119.928 14.9141 119.928 11.5903C119.928 8.40267 121.511 5.71334 124.675 5.71334C126.324 5.71334 127.591 6.45824 128.271 7.92748V5.93938H130.216V17.2412H128.271L128.269 15.2069ZM124.968 15.659C126.71 15.659 128.269 14.5519 128.269 12.0424V11.128C128.269 8.61843 126.846 7.51136 125.186 7.51136C123.003 7.53191 121.865 8.96776 121.865 11.5903C121.865 14.3027 122.957 15.659 124.971 15.659H124.968ZM133.152 5.93938H135.05V7.92748C135.705 6.59437 136.848 5.64399 139.052 5.78013V7.67832C136.565 7.42146 135.05 8.17663 135.05 10.5706V17.2489H133.152V5.93938ZM145.9 17.4673C141.672 17.4673 139.82 15.0271 139.82 11.5595C139.82 8.14581 141.718 5.70564 145.155 5.70564C148.635 5.70564 150.035 8.12526 150.035 11.5595V12.4405H141.787C142.06 14.3618 143.303 15.605 145.969 15.605C147.141 15.604 148.305 15.397 149.406 14.9937V16.7917C148.478 17.2926 147.053 17.4673 145.9 17.4673ZM141.764 10.7889H148.065C147.952 8.68778 147.001 7.48825 145.06 7.48825C143.007 7.47797 141.967 8.81621 141.764 10.7761V10.7889Z" fill="black"/>
<path id="Vector_2" d="M18.7103 9.27126L10.3366 0.897616L9.52494 0.0859375L3.22159 6.38929L0.339617 9.27126C0.195312 9.41574 0.114258 9.6116 0.114258 9.8158C0.114258 10.02 0.195312 10.2159 0.339617 10.3603L6.09842 16.1191L9.52494 19.5457L15.8283 13.2423L15.9259 13.1447L18.7103 10.3603C18.8546 10.2159 18.9356 10.02 18.9356 9.8158C18.9356 9.6116 18.8546 9.41574 18.7103 9.27126ZM9.52494 12.6926L6.6481 9.8158L9.52494 6.93897L12.4018 9.8158L9.52494 12.6926Z" fill="#2684FF"/>
<path id="Vector_3" d="M9.52518 6.93929C8.62037 6.03438 8.11036 4.80822 8.10651 3.52857C8.10266 2.24891 8.60529 1.01971 9.50463 0.109375L3.20898 6.40245L6.6355 9.82896L9.52518 6.93929Z" fill="url(#paint0_linear_6893_29430)"/>
<path id="Vector_4" d="M12.4099 9.80469L9.52539 12.6892C9.97554 13.1391 10.3326 13.6733 10.5763 14.2612C10.8199 14.8491 10.9453 15.4793 10.9453 16.1157C10.9453 16.7522 10.8199 17.3823 10.5763 17.9703C10.3326 18.5582 9.97554 19.0924 9.52539 19.5423L15.8364 13.2312L12.4099 9.80469Z" fill="url(#paint1_linear_6893_29430)"/>
</g>
</g>
</g>
<defs>
<linearGradient id="paint0_linear_6893_29430" x1="9.01146" y1="4.02906" x2="4.99416" y2="8.04635" gradientUnits="userSpaceOnUse">
<stop offset="0.18" stop-color="#0052CC"/>
<stop offset="1" stop-color="#2684FF"/>
</linearGradient>
<linearGradient id="paint1_linear_6893_29430" x1="10.0751" y1="15.5661" x2="14.0847" y2="11.5565" gradientUnits="userSpaceOnUse">
<stop offset="0.18" stop-color="#0052CC"/>
<stop offset="1" stop-color="#2684FF"/>
</linearGradient>
<clipPath id="clip0_6893_29430">
<rect width="149.929" height="19.47" fill="white" transform="translate(0.113281 0.0859375)"/>
</clipPath>
</defs>
</svg>
