<svg width="18" height="19" viewBox="0 0 18 19" fill="none" xmlns="http://www.w3.org/2000/svg">
<path d="M1.90843 16.108C2.04549 16.2424 2.20826 16.3479 2.38699 16.418C2.56573 16.4881 2.75677 16.5214 2.94868 16.516C4.03093 16.516 5.33668 15.7 5.84668 15.373L6.72418 14.7812C7.43518 15.0512 8.18893 15.19 8.94943 15.1892C10.5731 15.189 12.1302 14.5439 13.2783 13.3958C14.4264 12.2477 15.0715 10.6906 15.0717 9.06698C15.0722 8.30683 14.9339 7.55297 14.6637 6.84248L15.2562 5.96498C15.7047 5.25023 17.0517 3.08723 15.9904 2.02598C14.9292 0.963982 13.5822 1.63748 11.1739 3.35198C10.0647 2.92486 8.85544 2.82873 7.69269 3.07524C6.52994 3.32175 5.46369 3.90032 4.62323 4.74078C3.78277 5.58124 3.2042 6.6475 2.95769 7.81024C2.71118 8.97299 2.80731 10.1823 3.23443 11.2915C1.51993 13.699 1.07143 15.2912 1.90843 16.108ZM13.4397 9.06698C13.4424 9.65737 13.328 10.2424 13.1033 10.7884C12.8786 11.3343 12.548 11.8303 12.1305 12.2478C11.7129 12.6652 11.2169 12.9958 10.6709 13.2204C10.1249 13.445 9.53981 13.5593 8.94943 13.5565L8.35693 13.516C9.27479 12.7582 10.1537 11.9544 10.9902 11.1077C11.8369 10.2715 12.6406 9.39283 13.3984 8.47523C13.4224 8.67098 13.4359 8.86898 13.4397 9.06698ZM14.7454 3.27023C14.6839 3.63773 14.3577 4.33148 13.7457 5.27048C13.6001 5.08435 13.4433 4.90727 13.2762 4.74023C13.1142 4.56752 12.9364 4.41034 12.7452 4.27073C13.7862 3.59723 14.4192 3.33173 14.7454 3.27023ZM5.76568 5.88323C6.61369 5.0457 7.75756 4.57606 8.94943 4.57606C10.1413 4.57606 11.2852 5.0457 12.1332 5.88323C12.3597 6.13073 12.5644 6.39698 12.7452 6.67823C11.8468 7.83156 10.879 8.92909 9.84718 9.96473C8.81178 10.9965 7.7145 11.9643 6.56143 12.8627C6.27921 12.6818 6.01298 12.4771 5.76568 12.2507C4.93299 11.4002 4.46666 10.2573 4.46666 9.06698C4.46666 7.87669 4.93299 6.73377 5.76568 5.88323ZM4.15318 12.8627C4.29268 13.054 4.45018 13.2317 4.62268 13.3937L5.15293 13.8632C4.21393 14.4752 3.52018 14.8015 3.15268 14.863C3.21418 14.5367 3.47968 13.9037 4.15318 12.8627Z" fill="#1090E0"/>
</svg>
