<svg width="17" height="17" viewBox="0 0 17 17" fill="none" xmlns="http://www.w3.org/2000/svg">
<path fill-rule="evenodd" clip-rule="evenodd" d="M10.6678 3.74976C10.7928 3.8747 10.8629 4.04413 10.8629 4.2208C10.8629 4.39746 10.7928 4.56689 10.6678 4.69183L7.14139 8.2183L10.6678 11.7448C10.7892 11.8704 10.8564 12.0387 10.8548 12.2134C10.8533 12.3881 10.7833 12.5552 10.6597 12.6787C10.5362 12.8022 10.3691 12.8723 10.1944 12.8738C10.0197 12.8754 9.85143 12.8082 9.72577 12.6868L5.72827 8.68933C5.60337 8.56439 5.5332 8.39496 5.5332 8.2183C5.5332 8.04163 5.60337 7.8722 5.72827 7.74726L9.72577 3.74976C9.85071 3.62485 10.0201 3.55469 10.1968 3.55469C10.3735 3.55469 10.5429 3.62485 10.6678 3.74976Z" fill="#4F5762"/>
</svg>
