<svg width="17" height="17" viewBox="0 0 17 17" fill="none" xmlns="http://www.w3.org/2000/svg">
<path fill-rule="evenodd" clip-rule="evenodd" d="M9.08888 3.88549C9.15402 3.77092 9.24118 3.67036 9.34534 3.58961C9.44951 3.50886 9.56861 3.44951 9.69581 3.41498C9.823 3.38044 9.95577 3.37141 10.0865 3.3884C10.2172 3.40539 10.3432 3.44806 10.4574 3.51396C10.5715 3.57986 10.6715 3.66769 10.7515 3.77238C10.8316 3.87708 10.8901 3.99658 10.9238 4.124C10.9575 4.25142 10.9657 4.38424 10.9478 4.51482C10.93 4.64541 10.8865 4.77117 10.8198 4.88487C10.3554 5.68903 10.9351 6.69374 11.8631 6.69374H12.9305C13.1491 6.69365 13.3645 6.74738 13.5575 6.85018C13.7505 6.95298 13.9152 7.1017 14.0371 7.28321C14.159 7.46473 14.2344 7.67346 14.2566 7.891C14.2788 8.10853 14.2471 8.32819 14.1644 8.53059L12.8012 11.8618C12.7011 12.1066 12.5305 12.316 12.311 12.4635C12.0915 12.611 11.8331 12.6898 11.5687 12.69H8.24674C7.89334 12.69 7.55441 12.5496 7.30452 12.2997C7.05463 12.0498 6.91424 11.7109 6.91424 11.3575V8.02624C6.91424 7.71843 7.01817 7.4366 7.19273 7.21074C7.37329 6.97756 7.50853 6.72238 7.60847 6.47121C7.62646 6.4259 7.64778 6.38126 7.6731 6.33796L9.08888 3.88549ZM6.42588 5.84893C6.45453 5.78897 6.48517 5.72901 6.51915 5.67104L7.93427 3.21924C8.23399 2.69919 8.72271 2.31474 9.29872 2.1459C9.87473 1.97707 10.4937 2.03686 11.0267 2.31282C11.5598 2.58879 11.9659 3.05967 12.1605 3.62748C12.3551 4.19529 12.3233 4.81629 12.0717 5.36123H12.9311C14.826 5.36123 16.1158 7.28203 15.3983 9.03494L14.0351 12.3662C13.8349 12.8559 13.4934 13.275 13.0541 13.5699C12.6149 13.8649 12.0978 14.0224 11.5687 14.0225H8.24674C7.62394 14.0234 7.02067 13.8052 6.54247 13.4062C6.38643 13.5989 6.18925 13.7543 5.96537 13.8609C5.74149 13.9676 5.49659 14.0228 5.24861 14.0225H4.4158C3.84152 14.0225 3.29077 13.7944 2.88469 13.3883C2.47862 12.9822 2.25049 12.4314 2.25049 11.8572V7.52655C2.25049 6.95227 2.47862 6.40152 2.88469 5.99544C3.29077 5.58937 3.84152 5.36123 4.4158 5.36123H5.24861C5.70833 5.36123 6.12473 5.54779 6.42588 5.84893ZM5.58174 8.02624V7.02686C5.58174 6.93851 5.54664 6.85378 5.48417 6.7913C5.4217 6.72883 5.33696 6.69374 5.24861 6.69374H4.4158C3.95609 6.69374 3.58299 7.06683 3.58299 7.52655V11.8572C3.58299 12.3169 3.95609 12.69 4.4158 12.69H5.24861C5.33696 12.69 5.4217 12.6549 5.48417 12.5924C5.54664 12.5299 5.58174 12.4452 5.58174 12.3569V8.02624Z" fill="#4F5762"/>
</svg>
