<svg width="15" height="15" viewBox="0 0 15 15" fill="none" xmlns="http://www.w3.org/2000/svg">
<g id="cu3-icon-link">
<path id="Vector" fill-rule="evenodd" clip-rule="evenodd" d="M7.129 2.75552C7.44967 2.4273 7.83229 2.16596 8.25468 1.98667C8.67707 1.80737 9.13084 1.71367 9.5897 1.711C10.0486 1.70832 10.5034 1.79673 10.9278 1.9711C11.3523 2.14547 11.7379 2.40232 12.0624 2.72679C12.3869 3.05126 12.6437 3.4369 12.8181 3.86135C12.9925 4.2858 13.0809 4.74063 13.0782 5.19949C13.0755 5.65835 12.9818 6.11212 12.8025 6.53451C12.6232 6.9569 12.3619 7.33952 12.0337 7.66018L10.5472 9.14662C10.4373 9.25281 10.29 9.31156 10.1372 9.31023C9.98437 9.3089 9.83816 9.2476 9.73008 9.13952C9.62201 9.03144 9.5607 8.88524 9.55937 8.7324C9.55805 8.57956 9.6168 8.43232 9.72298 8.32238L11.2094 6.83594C11.4257 6.6227 11.5977 6.36875 11.7155 6.08874C11.8332 5.80874 11.8944 5.50819 11.8955 5.20444C11.8966 4.90068 11.8376 4.59971 11.7218 4.31886C11.6061 4.03801 11.4359 3.78284 11.2211 3.56805C11.0063 3.35326 10.7512 3.18309 10.4703 3.06735C10.1895 2.95161 9.88851 2.89259 9.58475 2.89368C9.28099 2.89476 8.98045 2.95595 8.70045 3.0737C8.42044 3.19145 8.16649 3.36344 7.95325 3.57977L6.46681 5.06621C6.41304 5.12188 6.34872 5.16629 6.2776 5.19684C6.20648 5.22739 6.12999 5.24347 6.05259 5.24414C5.97519 5.24481 5.89843 5.23007 5.8268 5.20076C5.75516 5.17145 5.69007 5.12816 5.63534 5.07343C5.58061 5.0187 5.53733 4.95362 5.50802 4.88198C5.47871 4.81034 5.46396 4.73358 5.46463 4.65618C5.4653 4.57878 5.48138 4.50229 5.51193 4.43117C5.54248 4.36006 5.58689 4.29573 5.64257 4.24196L7.129 2.75552ZM8.55715 5.40779C8.61092 5.35212 8.67524 5.30771 8.74636 5.27716C8.81748 5.24661 8.89397 5.23053 8.97137 5.22986C9.04877 5.22919 9.12553 5.24394 9.19717 5.27325C9.2688 5.30255 9.33389 5.34584 9.38862 5.40057C9.44335 5.4553 9.48663 5.52039 9.51594 5.59202C9.54525 5.66366 9.56 5.74042 9.55933 5.81782C9.55866 5.89522 9.54258 5.97171 9.51203 6.04283C9.48148 6.11395 9.43707 6.17827 9.38139 6.23204L5.88389 9.72954C5.77396 9.83572 5.62671 9.89448 5.47387 9.89315C5.32103 9.89182 5.17483 9.83052 5.06675 9.72244C4.95867 9.61436 4.89737 9.46816 4.89604 9.31532C4.89471 9.16248 4.95347 9.01523 5.05965 8.90529L8.55715 5.40779ZM4.71806 5.99071C4.82734 6.10002 4.88873 6.24827 4.88873 6.40283C4.88873 6.5574 4.82734 6.70564 4.71806 6.81496L3.23162 8.30139C2.80493 8.73425 2.5667 9.31826 2.56888 9.92606C2.57106 10.5339 2.81347 11.1162 3.24326 11.5459C3.67304 11.9757 4.25533 12.2181 4.86313 12.2203C5.47093 12.2225 6.05494 11.9843 6.4878 11.5576L7.97423 10.0711C8.02801 10.0155 8.09233 9.97105 8.16345 9.9405C8.23456 9.90995 8.31105 9.89386 8.38845 9.89319C8.46585 9.89252 8.54261 9.90727 8.61425 9.93658C8.68589 9.96589 8.75097 10.0092 8.8057 10.0639C8.86043 10.1186 8.90372 10.1837 8.93303 10.2554C8.96234 10.327 8.97709 10.4038 8.97641 10.4812C8.97574 10.5586 8.95966 10.635 8.92911 10.7062C8.89856 10.7773 8.85415 10.8416 8.79848 10.8954L7.31204 12.3818C6.99137 12.71 6.60876 12.9714 6.18637 13.1507C5.76398 13.33 5.31021 13.4237 4.85134 13.4263C4.39248 13.429 3.93765 13.3406 3.5132 13.1662C3.08875 12.9919 2.70312 12.735 2.37865 12.4105C2.05418 12.0861 1.79732 11.7004 1.62295 11.276C1.44859 10.8515 1.36018 10.3967 1.36285 9.93785C1.36552 9.47898 1.45922 9.02521 1.63852 8.60282C1.81782 8.18043 2.07915 7.79782 2.40738 7.47715L3.89382 5.99071C4.00313 5.88143 4.15137 5.82004 4.30594 5.82004C4.46051 5.82004 4.60875 5.88143 4.71806 5.99071Z" fill="white"/>
</g>
</svg>
