<svg width="18" height="17" viewBox="0 0 18 17" fill="none" xmlns="http://www.w3.org/2000/svg">
<g id="SVG">
<g id="Clip path group">
<mask id="mask0_6893_31989" style="mask-type:luminance" maskUnits="userSpaceOnUse" x="1" y="0" width="17" height="17">
<g id="clip0_50_722">
<path id="Vector" d="M17.2154 0.8125H1.22485V16.7975H17.2154V0.8125Z" fill="white"/>
</g>
</mask>
<g mask="url(#mask0_6893_31989)">
<g id="Group">
<path id="Vector_2" d="M16.0317 0.8125H2.40541C1.75266 0.8125 1.22485 1.32764 1.22485 1.96455V15.6424C1.22485 16.2793 1.75266 16.7975 2.40541 16.7975H16.0317C16.6846 16.7975 17.2154 16.2793 17.2154 15.6455V1.96455C17.2154 1.32764 16.6846 0.8125 16.0317 0.8125ZM5.96893 14.4341H3.59534V6.80374H5.96893V14.4341ZM4.78214 5.76409C4.02009 5.76409 3.40482 5.14904 3.40482 4.39039C3.40482 3.63173 4.02009 3.01668 4.78214 3.01668C5.54106 3.01668 6.15632 3.63173 6.15632 4.39039C6.15632 5.14593 5.54106 5.76409 4.78214 5.76409ZM14.8512 14.4341H12.4807V10.7251C12.4807 9.84151 12.4651 8.70195 11.2471 8.70195C10.0134 8.70195 9.82604 9.66668 9.82604 10.6626V14.4341H7.45868V6.80374H9.73235V7.84652H9.76358C10.079 7.24708 10.8536 6.6133 12.006 6.6133C14.4077 6.6133 14.8512 8.19306 14.8512 10.2474V14.4341Z" fill="#808080"/>
</g>
</g>
</g>
</g>
</svg>
