<svg width="53" height="29" viewBox="0 0 53 29" fill="none" xmlns="http://www.w3.org/2000/svg">
<g clip-path="url(#clip0_6906_8)">
<path d="M3.90852 11.7188L6.28467 17.3312H5.12342L4.59666 16.0947H1.95168L1.42471 17.3312H0.263672L2.63981 11.7188H3.90852ZM4.17715 15.0948L3.27405 12.9767L2.37095 15.0948H4.17715Z" fill="black"/>
<path d="M9.86472 15.5571H8.29508V17.3312H7.14453V11.7188H10.1874C11.5527 11.7188 12.2838 12.5789 12.2838 13.6433C12.2838 14.4389 11.8754 15.1163 11.0905 15.4066L12.5635 17.3312H11.2303L9.86472 15.5571ZM8.29511 14.5464H10.1442C10.7358 14.5464 11.1228 14.1379 11.1228 13.6433C11.1228 13.1487 10.7358 12.7401 10.1442 12.7401H8.29511V14.5464Z" fill="black"/>
<path d="M18.8126 16.0441C18.3178 16.9257 17.3825 17.4848 16.2106 17.4848C14.4366 17.4848 13.2324 16.2161 13.2324 14.5173C13.2324 12.8078 14.4366 11.5391 16.2106 11.5391C17.3825 11.5391 18.3179 12.0982 18.8126 12.9798L17.8127 13.5711C17.5222 13.0121 16.9525 12.625 16.2106 12.625C15.0925 12.625 14.3828 13.4959 14.3828 14.5173C14.3828 15.5388 15.0925 16.3989 16.2106 16.3989C16.9525 16.3989 17.5222 16.0118 17.8127 15.4527L18.8126 16.0441Z" fill="black"/>
<path d="M27.27 28.0927C22.9508 25.0824 20.125 20.0788 20.125 14.4143C20.125 8.87422 22.8285 3.96713 26.9868 0.9375C23.543 4.37693 21.4124 9.12739 21.4124 14.3778C21.4124 19.7698 23.661 24.6383 27.27 28.0927Z" fill="white"/>
<path d="M24.9657 15.5995L25.8239 16.3291C25.2125 17.0372 24.279 17.4878 23.1955 17.4878C21.4788 17.4878 20.2344 16.211 20.2344 14.4944C20.2344 12.8422 21.4465 11.5547 23.131 11.5547C24.8154 11.5547 26.0385 12.8422 26.0385 14.4944H26.0278C26.0278 14.6661 26.0171 14.8377 25.9957 14.9986H21.4038C21.5754 15.8463 22.2191 16.4363 23.1955 16.4363C23.9465 16.4363 24.5688 16.1037 24.9657 15.5995ZM21.4145 13.9901H24.8691C24.6868 13.1855 24.0752 12.6168 23.131 12.6168C22.1977 12.6168 21.5968 13.1855 21.4145 13.9901Z" fill="white"/>
<path d="M30.5222 11.5888V12.8763C30.3506 12.8334 30.179 12.812 29.9858 12.812C29.0525 12.812 28.3766 13.3054 28.3766 14.5286V17.3395C28.0011 17.3395 27.2285 17.3395 27.2285 17.3395V11.739H28.3229V12.4042C28.8164 11.8893 29.503 11.5781 30.2649 11.5781C30.3506 11.5781 30.4365 11.5781 30.5222 11.5888Z" fill="white"/>
<path d="M34.7717 17.4956C34.0207 17.4956 33.3877 17.1845 32.9156 16.7017V19.5877H31.7676V11.7342H32.862V12.4209C33.3341 11.8951 33.9884 11.5625 34.7717 11.5625C36.3702 11.5625 37.5719 12.7963 37.5719 14.5344C37.5719 16.2725 36.3703 17.4956 34.7717 17.4956ZM34.6428 12.6461C33.6559 12.6461 32.8727 13.3864 32.8727 14.5345C32.8727 15.6824 33.6559 16.412 34.6428 16.412C35.6299 16.412 36.4132 15.6288 36.4132 14.5345C36.4132 13.4402 35.6299 12.6461 34.6428 12.6461Z" fill="white"/>
<path d="M41.1347 11.3594C41.6001 11.3594 41.9605 11.7176 41.9605 12.1806C41.9605 12.6552 41.6001 13.0247 41.1347 13.0247C40.6695 13.0247 40.3066 12.6552 40.3066 12.1806C40.3066 11.7176 40.6695 11.3594 41.1347 11.3594ZM41.1347 12.8171C41.4632 12.8171 41.7278 12.5434 41.7278 12.1806C41.7278 11.8293 41.4632 11.5648 41.1347 11.5648C40.8064 11.5648 40.5393 11.8293 40.5393 12.1806C40.5393 12.5434 40.8064 12.8171 41.1347 12.8171Z" fill="#808080"/>
<path d="M42.2442 11.8399H42.4472V11.938C42.4472 11.9836 42.4425 12.0223 42.4425 12.0223H42.4472C42.4472 12.0223 42.5453 11.8125 42.835 11.8125C43.1451 11.8125 43.3415 12.0589 43.3415 12.417C43.3415 12.7843 43.1201 13.0216 42.819 13.0216C42.5658 13.0216 42.4655 12.8322 42.4655 12.8322H42.4608C42.4608 12.8322 42.4655 12.8732 42.4655 12.9325V13.4504H42.2441V11.8399H42.2442ZM42.7847 12.8322C42.9672 12.8322 43.1179 12.6816 43.1179 12.4193C43.1179 12.1683 42.9833 12.0064 42.7916 12.0064C42.6182 12.0064 42.4586 12.1273 42.4586 12.4215C42.4586 12.6269 42.5727 12.8322 42.7847 12.8322Z" fill="#808080"/>
<path d="M43.6624 12.0344H43.5117V11.8564H43.6691V11.5234H43.8835V11.8564H44.1619V12.0344H43.8835V12.5476C43.8835 12.778 44.0455 12.8078 44.13 12.8078C44.1619 12.8078 44.1824 12.8032 44.1824 12.8032V12.9992C44.1824 12.9992 44.1505 13.0039 44.1048 13.0039C43.9566 13.0039 43.6624 12.9582 43.6624 12.5727V12.0344Z" fill="#808080"/>
<path d="M44.4277 11.3906H44.6513V11.6164H44.4277V11.3906ZM44.4299 11.8469H44.6513V13.0011H44.4299V11.8469Z" fill="#808080"/>
<path d="M45 11.8399H45.2144V11.9927C45.2144 12.0384 45.2098 12.0772 45.2098 12.0772H45.2144C45.2691 11.9426 45.4311 11.8125 45.6114 11.8125C45.8054 11.8125 45.9192 11.9014 45.958 12.0749H45.9627C46.0265 11.9357 46.1863 11.8125 46.3733 11.8125C46.6334 11.8125 46.7542 11.9608 46.7542 12.2551V12.9942H46.5328V12.303C46.5328 12.141 46.501 12.0132 46.3275 12.0132C46.1657 12.0132 46.0447 12.1502 46.0037 12.3075C45.9923 12.3554 45.9876 12.4079 45.9876 12.4672V12.9941H45.7665V12.3029C45.7665 12.1524 45.7436 12.0132 45.5657 12.0132C45.397 12.0132 45.2782 12.1524 45.2349 12.3166C45.2236 12.3622 45.2213 12.4147 45.2213 12.4672V12.9941H45L45 11.8399Z" fill="#808080"/>
<path d="M47.6861 12.2733H47.7363V12.2528C47.7363 12.0635 47.6291 11.9996 47.4831 11.9996C47.3052 11.9996 47.1614 12.1114 47.1614 12.1114L47.07 11.9494C47.07 11.9494 47.2368 11.8125 47.5013 11.8125C47.7933 11.8125 47.9576 11.9722 47.9576 12.2642V12.9942H47.7521V12.8847C47.7521 12.8323 47.7568 12.7935 47.7568 12.7935H47.7521C47.7521 12.7935 47.6587 13.0216 47.3827 13.0216C47.1841 13.0216 46.9902 12.9007 46.9902 12.6702C46.9902 12.2893 47.4922 12.2733 47.6861 12.2733ZM47.4304 12.8436C47.6177 12.8436 47.7385 12.6474 47.7385 12.4764V12.4398H47.6814C47.5149 12.4398 47.2138 12.4512 47.2138 12.6588C47.2138 12.7523 47.2869 12.8436 47.4304 12.8436Z" fill="#808080"/>
<path d="M48.2773 11.3906H48.4987V12.6475C48.4987 12.7867 48.5535 12.8118 48.6219 12.8118C48.6424 12.8118 48.6607 12.8095 48.6607 12.8095V13.0056C48.6607 13.0056 48.6264 13.0103 48.5876 13.0103C48.4621 13.0103 48.2773 12.9761 48.2773 12.6863V11.3906Z" fill="#808080"/>
<path d="M40.416 13.6719H41.0047C41.2989 13.6719 41.5111 13.8702 41.5111 14.1758C41.5111 14.4817 41.2989 14.6869 41.0047 14.6869H40.642V15.2823H40.416V13.6719H40.416ZM40.9681 14.4908C41.1621 14.4908 41.2806 14.3698 41.2806 14.1758C41.2806 13.9819 41.1621 13.868 40.9704 13.868H40.6421V14.4908H40.9681Z" fill="#808080"/>
<path d="M41.7559 14.123H41.9703V14.3238C41.9703 14.3717 41.9656 14.4105 41.9656 14.4105H41.9703C42.0227 14.2418 42.1573 14.1094 42.3352 14.1094C42.3648 14.1094 42.3922 14.1138 42.3922 14.1138V14.3329C42.3922 14.3329 42.3626 14.326 42.3285 14.326C42.1869 14.326 42.057 14.4265 42.0044 14.5975C41.9839 14.6637 41.9772 14.7344 41.9772 14.805V15.2773H41.7559L41.7559 14.123Z" fill="#808080"/>
<path d="M43.1423 14.1016C43.4869 14.1016 43.7651 14.3548 43.7651 14.7036C43.7651 15.0551 43.4869 15.3105 43.1423 15.3105C42.7979 15.3105 42.5195 15.0551 42.5195 14.7036C42.5196 14.3548 42.7979 14.1016 43.1423 14.1016ZM43.1423 15.1188C43.3614 15.1188 43.5393 14.9454 43.5393 14.7036C43.5393 14.4642 43.3614 14.293 43.1423 14.293C42.9256 14.293 42.7453 14.4642 42.7453 14.7036C42.7453 14.9454 42.9257 15.1188 43.1423 15.1188Z" fill="#808080"/>
<path d="M44.5656 14.1016C44.8554 14.1016 44.9989 14.2703 44.9989 14.2703L44.8941 14.4254C44.8941 14.4254 44.7709 14.293 44.5747 14.293C44.342 14.293 44.1733 14.4664 44.1733 14.7036C44.1733 14.9387 44.342 15.1188 44.5816 15.1188C44.7961 15.1188 44.9374 14.9637 44.9374 14.9637L45.0263 15.1257C45.0263 15.1257 44.8667 15.3105 44.5656 15.3105C44.2029 15.3105 43.9473 15.0526 43.9473 14.706C43.9473 14.3639 44.2029 14.1016 44.5656 14.1016Z" fill="#808080"/>
<path d="M45.7743 14.0938C46.1004 14.0938 46.2738 14.3354 46.2738 14.6343C46.2738 14.6639 46.2671 14.7301 46.2671 14.7301H45.4253C45.4366 14.9833 45.617 15.111 45.8222 15.111C46.0206 15.111 46.1644 14.9764 46.1644 14.9764L46.2556 15.1384C46.2556 15.1384 46.0846 15.3027 45.8084 15.3027C45.4458 15.3027 45.1973 15.0404 45.1973 14.6982C45.1973 14.3309 45.4458 14.0938 45.7743 14.0938ZM46.048 14.5636C46.0411 14.365 45.9181 14.2694 45.7697 14.2694C45.6009 14.2694 45.4641 14.3742 45.4322 14.5636H46.048Z" fill="#808080"/>
<path d="M46.5584 14.9842C46.5584 14.9842 46.6886 15.1188 46.8891 15.1188C46.985 15.1188 47.0808 15.0687 47.0808 14.9751C47.0808 14.7631 46.4877 14.8063 46.4877 14.4299C46.4877 14.2201 46.6747 14.1016 46.9052 14.1016C47.1584 14.1016 47.277 14.2293 47.277 14.2293L47.188 14.3958C47.188 14.3958 47.0853 14.293 46.903 14.293C46.8071 14.293 46.7135 14.334 46.7135 14.4346C46.7135 14.6421 47.3066 14.5964 47.3066 14.9751C47.3066 15.1668 47.1423 15.3105 46.8891 15.3105C46.6063 15.3105 46.4512 15.1415 46.4512 15.1415L46.5584 14.9842Z" fill="#808080"/>
<path d="M47.5799 14.9842C47.5799 14.9842 47.71 15.1188 47.9106 15.1188C48.0065 15.1188 48.1023 15.0687 48.1023 14.9751C48.1023 14.7631 47.5092 14.8063 47.5092 14.4299C47.5092 14.2201 47.6962 14.1016 47.9267 14.1016C48.1799 14.1016 48.2985 14.2293 48.2985 14.2293L48.2095 14.3958C48.2095 14.3958 48.1068 14.293 47.9244 14.293C47.8286 14.293 47.735 14.334 47.735 14.4346C47.735 14.6421 48.3281 14.5964 48.3281 14.9751C48.3281 15.1668 48.1638 15.3105 47.9106 15.3105C47.6278 15.3105 47.4727 15.1415 47.4727 15.1415L47.5799 14.9842Z" fill="#808080"/>
<path d="M40.416 15.9531H40.642V17.5635H40.416V15.9531Z" fill="#808080"/>
<path d="M41.0352 16.41H41.2496V16.5629C41.2496 16.6086 41.2449 16.6474 41.2449 16.6474H41.2496C41.2953 16.5469 41.4321 16.3828 41.6829 16.3828C41.9544 16.3828 42.0798 16.531 42.0798 16.8253V17.5644H41.8585V16.8754C41.8585 16.7136 41.8244 16.5856 41.6396 16.5856C41.464 16.5856 41.3225 16.702 41.2745 16.8687C41.2609 16.9142 41.2565 16.9668 41.2565 17.0236V17.5643H41.0352V16.41Z" fill="#808080"/>
<path d="M42.4593 16.6046H42.3086V16.4267H42.466V16.0938H42.6804V16.4267H42.9588V16.6046H42.6804V17.1179C42.6804 17.3484 42.8424 17.3781 42.9269 17.3781C42.9587 17.3781 42.9793 17.3734 42.9793 17.3734V17.5695C42.9793 17.5695 42.9474 17.5742 42.9017 17.5742C42.7535 17.5742 42.4593 17.5285 42.4593 17.1431V16.6046Z" fill="#808080"/>
<path d="M43.7255 16.3828C44.0516 16.3828 44.225 16.6244 44.225 16.9233C44.225 16.953 44.2183 17.0192 44.2183 17.0192H43.3765C43.3878 17.2724 43.5681 17.4001 43.7734 17.4001C43.9718 17.4001 44.1156 17.2655 44.1156 17.2655L44.2067 17.4275C44.2067 17.4275 44.0358 17.5918 43.7596 17.5918C43.397 17.5918 43.1484 17.3294 43.1484 16.9873C43.1484 16.62 43.397 16.3828 43.7255 16.3828ZM43.9992 16.8527C43.9923 16.6541 43.8693 16.5585 43.7208 16.5585C43.5521 16.5585 43.4152 16.6632 43.3834 16.8527H43.9992Z" fill="#808080"/>
<path d="M44.913 17.8519C45.1139 17.8519 45.2779 17.7627 45.2779 17.5278V17.4436C45.2779 17.407 45.2804 17.3704 45.2804 17.3704H45.2757C45.2073 17.4846 45.1 17.5508 44.9335 17.5508C44.6119 17.5508 44.418 17.2929 44.418 16.9599C44.418 16.6291 44.6027 16.3828 44.9222 16.3828C45.2003 16.3828 45.2848 16.5538 45.2848 16.5538H45.2895C45.2895 16.5538 45.287 16.538 45.287 16.5172V16.41H45.4992V17.5165C45.4992 17.8974 45.2095 18.0434 44.9175 18.0434C44.7784 18.0434 44.6346 18.0046 44.523 17.9475L44.5958 17.7743C44.5958 17.7743 44.7396 17.8519 44.913 17.8519ZM45.2826 16.9621C45.2826 16.661 45.1366 16.5743 44.9563 16.5743C44.7557 16.5743 44.6416 16.7203 44.6416 16.9552C44.6416 17.1948 44.7693 17.3591 44.9768 17.3591C45.1366 17.3591 45.2826 17.2632 45.2826 16.9621Z" fill="#808080"/>
<path d="M45.8477 16.4042H46.0621V16.605C46.0621 16.653 46.0574 16.6918 46.0574 16.6918H46.0621C46.1145 16.523 46.2491 16.3906 46.427 16.3906C46.4566 16.3906 46.484 16.3951 46.484 16.3951V16.6142C46.484 16.6142 46.4544 16.6073 46.4203 16.6073C46.2787 16.6073 46.1488 16.7078 46.0962 16.8787C46.0757 16.9449 46.069 17.0156 46.069 17.0862V17.5586H45.8477L45.8477 16.4042Z" fill="#808080"/>
<path d="M47.3053 16.8435H47.3554V16.823C47.3554 16.6336 47.2482 16.5698 47.1022 16.5698C46.9243 16.5698 46.7806 16.6815 46.7806 16.6815L46.6892 16.5197C46.6892 16.5197 46.8559 16.3828 47.1205 16.3828C47.4124 16.3828 47.5767 16.5424 47.5767 16.8344V17.5644H47.3712V17.4549C47.3712 17.4023 47.3759 17.3635 47.3759 17.3635H47.3712C47.3712 17.3635 47.2778 17.5918 47.0019 17.5918C46.8033 17.5918 46.6094 17.4708 46.6094 17.2405C46.6094 16.8596 47.1114 16.8435 47.3053 16.8435ZM47.0496 17.4139C47.2368 17.4139 47.3576 17.2176 47.3576 17.0466V17.0101H47.3006C47.1341 17.0101 46.833 17.0214 46.833 17.2292C46.833 17.3225 46.9061 17.4139 47.0496 17.4139Z" fill="#808080"/>
<path d="M47.9495 16.6046H47.7988V16.4267H47.9562V16.0938H48.1706V16.4267H48.449V16.6046H48.1706V17.1179C48.1706 17.3484 48.3326 17.3781 48.4171 17.3781C48.449 17.3781 48.4695 17.3734 48.4695 17.3734V17.5695C48.4695 17.5695 48.4376 17.5742 48.3919 17.5742C48.2437 17.5742 47.9495 17.5285 47.9495 17.1431V16.6046Z" fill="#808080"/>
<path d="M48.7168 15.9531H48.9404V16.1789H48.7168V15.9531ZM48.719 16.4092H48.9404V17.5635H48.719V16.4092Z" fill="#808080"/>
<path d="M49.8259 16.3828C50.1705 16.3828 50.4487 16.636 50.4487 16.9849C50.4487 17.3363 50.1705 17.5918 49.8259 17.5918C49.4815 17.5918 49.2031 17.3363 49.2031 16.9849C49.2032 16.636 49.4815 16.3828 49.8259 16.3828ZM49.8259 17.4001C50.045 17.4001 50.2229 17.2267 50.2229 16.9849C50.2229 16.7455 50.045 16.5743 49.8259 16.5743C49.6092 16.5743 49.4289 16.7455 49.4289 16.9849C49.4289 17.2267 49.6093 17.4001 49.8259 17.4001Z" fill="#808080"/>
<path d="M50.7129 16.41H50.9273V16.5629C50.9273 16.6086 50.9226 16.6474 50.9226 16.6474H50.9273C50.973 16.5469 51.1099 16.3828 51.3606 16.3828C51.6321 16.3828 51.7576 16.531 51.7576 16.8253V17.5644H51.5362V16.8754C51.5362 16.7136 51.5021 16.5856 51.3174 16.5856C51.1417 16.5856 51.0002 16.702 50.9523 16.8687C50.9387 16.9142 50.9342 16.9668 50.9342 17.0236V17.5643H50.7129V16.41Z" fill="#808080"/>
</g>
<defs>
<clipPath id="clip0_6906_8">
<rect width="52.0188" height="28" fill="white" transform="translate(0 0.515625)"/>
</clipPath>
</defs>
</svg>
