<svg width="39" height="28" viewBox="0 0 39 28" fill="none" xmlns="http://www.w3.org/2000/svg">
<g id="Group">
<g id="Group_2">
<g id="Group_3">
<g id="Group_4">
<path id="Vector" d="M4.45345 11.0234L6.82959 16.6358H5.66835L5.14158 15.3994H2.4966L1.96963 16.6358H0.808594L3.18473 11.0234H4.45345ZM4.72207 14.3995L3.81897 12.2814L2.91588 14.3995H4.72207Z" fill="black"/>
<path id="Vector_2" d="M10.4096 14.8618H8.84001V16.6358H7.68945V11.0234H10.7323C12.0977 11.0234 12.8287 11.8836 12.8287 12.948C12.8287 13.7436 12.4204 14.421 11.6354 14.7113L13.1085 16.6358H11.7752L10.4096 14.8618ZM8.84003 13.8511H10.6892C11.2807 13.8511 11.6677 13.4425 11.6677 12.948C11.6677 12.4534 11.2807 12.0448 10.6892 12.0448H8.84003V13.8511Z" fill="black"/>
<path id="Vector_3" d="M19.3575 15.3488C18.8628 16.2304 17.9274 16.7895 16.7555 16.7895C14.9816 16.7895 13.7773 15.5208 13.7773 13.822C13.7773 12.1125 14.9816 10.8438 16.7555 10.8438C17.9274 10.8438 18.8628 11.4029 19.3575 12.2845L18.3576 12.8758C18.0672 12.3168 17.4974 11.9296 16.7555 11.9296C15.6374 11.9296 14.9277 12.8006 14.9277 13.822C14.9277 14.8434 15.6374 15.7036 16.7555 15.7036C17.4974 15.7036 18.0672 15.3165 18.3576 14.7574L19.3575 15.3488Z" fill="black"/>
</g>
</g>
</g>
<g id="Group_5">
<path id="Vector_4" d="M27.8149 27.3974C23.4957 24.3871 20.6699 19.3834 20.6699 13.719C20.6699 8.1789 23.3734 3.27181 27.5317 0.242188C24.0879 3.68162 21.9573 8.43208 21.9573 13.6825C21.9573 19.0745 24.206 23.9429 27.8149 27.3974Z" fill="#FFCC00"/>
</g>
<g id="Group_6">
<g id="Group_7">
<path id="Vector_5" d="M25.5125 14.9041L26.3708 15.6338C25.7594 16.3419 24.8259 16.7925 23.7424 16.7925C22.0257 16.7925 20.7812 15.5157 20.7812 13.7991C20.7812 12.1469 21.9934 10.8594 23.6779 10.8594C25.3623 10.8594 26.5854 12.1469 26.5854 13.7991H26.5747C26.5747 13.9708 26.564 14.1424 26.5426 14.3033H21.9507C22.1223 15.151 22.7659 15.741 23.7424 15.741C24.4934 15.741 25.1157 15.4084 25.5125 14.9041ZM21.9613 13.2948H25.416C25.2337 12.4902 24.622 11.9215 23.6779 11.9215C22.7446 11.9215 22.1436 12.4902 21.9613 13.2948Z" fill="#FFCC00"/>
<path id="Vector_6" d="M31.0691 10.8935V12.181C30.8975 12.1381 30.7259 12.1167 30.5327 12.1167C29.5994 12.1167 28.9234 12.6101 28.9234 13.8333V16.6442C28.5479 16.6442 27.7754 16.6442 27.7754 16.6442V11.0437H28.8698V11.7089C29.3632 11.194 30.0499 10.8828 30.8118 10.8828C30.8975 10.8828 30.9834 10.8828 31.0691 10.8935Z" fill="#FFCC00"/>
<path id="Vector_7" d="M35.3186 16.8003C34.5676 16.8003 33.9346 16.4891 33.4625 16.0064V18.8924H32.3145V11.0389H33.4089V11.7255C33.8809 11.1998 34.5353 10.8672 35.3186 10.8672C36.9171 10.8672 38.1188 12.101 38.1188 13.8391C38.1188 15.5772 36.9171 16.8003 35.3186 16.8003ZM35.1897 11.9508C34.2028 11.9508 33.4196 12.6911 33.4196 13.8392C33.4196 14.9871 34.2028 15.7167 35.1897 15.7167C36.1768 15.7167 36.9601 14.9334 36.9601 13.8392C36.9601 12.7449 36.1768 11.9508 35.1897 11.9508Z" fill="#FFCC00"/>
</g>
</g>
</g>
</svg>
