<svg width="17" height="17" viewBox="0 0 17 17" fill="none" xmlns="http://www.w3.org/2000/svg">
<path d="M11.9019 4.6251C11.9019 5.98926 10.0757 8.42026 9.27373 9.42214C9.08136 9.66199 8.72411 9.66199 8.53424 9.42214C7.7323 8.42026 5.90607 5.98926 5.90607 4.6251C5.90607 2.96862 7.24764 1.62695 8.90398 1.62695C10.5603 1.62695 11.9019 2.96862 11.9019 4.6251ZM12.1018 6.63386C12.1892 6.46147 12.2691 6.28907 12.3416 6.11918C12.3541 6.0892 12.3666 6.05672 12.3791 6.02674L15.2771 4.86745C15.6718 4.71005 16.099 4.99987 16.099 5.42461V12.1904C16.099 12.4353 15.9491 12.6551 15.7217 12.7476L12.1018 14.1942V6.63386ZM5.1466 5.08232C5.20655 5.4346 5.32647 5.78938 5.46637 6.11918C5.53882 6.28907 5.61877 6.46147 5.70621 6.63386V12.915L2.53091 14.1867C2.13619 14.3441 1.70898 14.0543 1.70898 13.6295V6.86372C1.70898 6.61887 1.85888 6.39901 2.08622 6.30656L5.14909 5.08232H5.1466ZM9.89829 9.92183C10.2456 9.4871 10.7902 8.78004 11.3023 7.99802V14.2267L6.50565 12.855V7.99802C7.0178 8.78004 7.56242 9.4871 7.90968 9.92183C8.42182 10.5614 9.38615 10.5614 9.89829 9.92183ZM8.90398 5.42461C9.16902 5.42461 9.42319 5.31932 9.6106 5.1319C9.79801 4.94447 9.90329 4.69028 9.90329 4.42522C9.90329 4.16017 9.79801 3.90598 9.6106 3.71855C9.42319 3.53113 9.16902 3.42584 8.90398 3.42584C8.63895 3.42584 8.38477 3.53113 8.19737 3.71855C8.00996 3.90598 7.90468 4.16017 7.90468 4.42522C7.90468 4.69028 8.00996 4.94447 8.19737 5.1319C8.38477 5.31932 8.63895 5.42461 8.90398 5.42461Z" fill="#3FB1B2"/>
</svg>
