<svg width="17" height="17" viewBox="0 0 17 17" fill="none" xmlns="http://www.w3.org/2000/svg">
<path d="M6.29984 3.41783C6.54734 3.64033 6.56734 4.01783 6.34484 4.26533L4.54484 6.26533C4.43484 6.38783 4.27984 6.46033 4.11484 6.46283C3.94984 6.46533 3.79234 6.40283 3.67484 6.28783L2.67234 5.28783C2.43984 5.05283 2.43984 4.67283 2.67234 4.43783C2.90484 4.20283 3.28734 4.20283 3.51984 4.43783L4.07234 4.99033L5.44984 3.46033C5.67234 3.21283 6.04984 3.19283 6.29734 3.41533L6.29984 3.41783ZM6.29984 7.41783C6.54734 7.64033 6.56734 8.01783 6.34484 8.26533L4.54484 10.2653C4.43484 10.3878 4.27984 10.4603 4.11484 10.4628C3.94984 10.4653 3.79234 10.4028 3.67484 10.2878L2.67234 9.28783C2.43734 9.05283 2.43734 8.67283 2.67234 8.44033C2.90734 8.20783 3.28734 8.20533 3.51984 8.44033L4.07234 8.99284L5.44984 7.46283C5.67234 7.21533 6.04984 7.19533 6.29734 7.41783H6.29984ZM8.09734 4.86283C8.09734 4.42033 8.45484 4.06283 8.89734 4.06283H14.4973C14.9398 4.06283 15.2973 4.42033 15.2973 4.86283C15.2973 5.30533 14.9398 5.66283 14.4973 5.66283H8.89734C8.45484 5.66283 8.09734 5.30533 8.09734 4.86283ZM8.09734 8.86283C8.09734 8.42033 8.45484 8.06283 8.89734 8.06283H14.4973C14.9398 8.06283 15.2973 8.42033 15.2973 8.86283C15.2973 9.30533 14.9398 9.66283 14.4973 9.66283H8.89734C8.45484 9.66283 8.09734 9.30533 8.09734 8.86283ZM6.49734 12.8628C6.49734 12.4203 6.85484 12.0628 7.29734 12.0628H14.4973C14.9398 12.0628 15.2973 12.4203 15.2973 12.8628C15.2973 13.3053 14.9398 13.6628 14.4973 13.6628H7.29734C6.85484 13.6628 6.49734 13.3053 6.49734 12.8628ZM3.69734 11.6628C4.0156 11.6628 4.32083 11.7893 4.54587 12.0143C4.77092 12.2394 4.89734 12.5446 4.89734 12.8628C4.89734 13.1811 4.77092 13.4863 4.54587 13.7114C4.32083 13.9364 4.0156 14.0628 3.69734 14.0628C3.37908 14.0628 3.07386 13.9364 2.84882 13.7114C2.62377 13.4863 2.49734 13.1811 2.49734 12.8628C2.49734 12.5446 2.62377 12.2394 2.84882 12.0143C3.07386 11.7893 3.37908 11.6628 3.69734 11.6628Z" fill="#BBA399"/>
</svg>
