<svg width="16" height="17" viewBox="0 0 16 17" fill="none" xmlns="http://www.w3.org/2000/svg">
<path d="M12.8 9.96152C12.4817 9.96152 12.1765 9.8351 11.9515 9.61005C11.7264 9.38501 11.6 9.07978 11.6 8.76152C11.6 8.44326 11.7264 8.13804 11.9515 7.913C12.1765 7.68795 12.4817 7.56152 12.8 7.56152C13.1183 7.56152 13.4235 7.68795 13.6485 7.913C13.8736 8.13804 14 8.44326 14 8.76152C14 9.07978 13.8736 9.38501 13.6485 9.61005C13.4235 9.8351 13.1183 9.96152 12.8 9.96152ZM8 9.96152C7.68174 9.96152 7.37652 9.8351 7.15147 9.61005C6.92643 9.38501 6.8 9.07978 6.8 8.76152C6.8 8.44326 6.92643 8.13804 7.15147 7.913C7.37652 7.68795 7.68174 7.56152 8 7.56152C8.31826 7.56152 8.62348 7.68795 8.84853 7.913C9.07357 8.13804 9.2 8.44326 9.2 8.76152C9.2 9.07978 9.07357 9.38501 8.84853 9.61005C8.62348 9.8351 8.31826 9.96152 8 9.96152ZM3.2 9.96152C2.88174 9.96152 2.57652 9.8351 2.35147 9.61005C2.12643 9.38501 2 9.07978 2 8.76152C2 8.44326 2.12643 8.13804 2.35147 7.913C2.57652 7.68795 2.88174 7.56152 3.2 7.56152C3.51826 7.56152 3.82348 7.68795 4.04853 7.913C4.27357 8.13804 4.4 8.44326 4.4 8.76152C4.4 9.07978 4.27357 9.38501 4.04853 9.61005C3.82348 9.8351 3.51826 9.96152 3.2 9.96152Z" fill="#4F5762"/>
</svg>
