<svg width="36" height="36" viewBox="0 0 36 36" fill="none" xmlns="http://www.w3.org/2000/svg">
<g clip-path="url(#clip0_6616_16103)">
<g clip-path="url(#clip1_6616_16103)">
<path d="M28 0.5H8C3.85786 0.5 0.5 3.85786 0.5 8V28C0.5 32.1421 3.85786 35.5 8 35.5H28C32.1421 35.5 35.5 32.1421 35.5 28V8C35.5 3.85786 32.1421 0.5 28 0.5Z" fill="url(#paint0_linear_6616_16103)"/>
<path d="M11.748 15.083C12.0796 15.083 12.3975 14.9513 12.6319 14.7169C12.8664 14.4825 12.998 14.1645 12.998 13.833C12.998 13.5015 12.8664 13.1835 12.6319 12.9491C12.3975 12.7147 12.0796 12.583 11.748 12.583C11.4165 12.583 11.0986 12.7147 10.8642 12.9491C10.6297 13.1835 10.498 13.5015 10.498 13.833C10.498 14.1645 10.6297 14.4825 10.8642 14.7169C11.0986 14.9513 11.4165 15.083 11.748 15.083ZM14.665 13C14.444 13 14.232 13.0878 14.0757 13.2441C13.9194 13.4004 13.8315 13.6124 13.8315 13.8335C13.8315 14.0546 13.9194 14.2666 14.0757 14.4229C14.232 14.5792 14.444 14.667 14.665 14.667H24.665C24.8861 14.667 25.0981 14.5792 25.2544 14.4229C25.4107 14.2666 25.4985 14.0546 25.4985 13.8335C25.4985 13.6124 25.4107 13.4004 25.2544 13.2441C25.0981 13.0878 24.8861 13 24.665 13H14.665ZM14.665 17.167C14.4441 17.167 14.2322 17.2548 14.076 17.411C13.9198 17.5672 13.832 17.7791 13.832 18C13.832 18.2209 13.9198 18.4328 14.076 18.589C14.2322 18.7452 14.4441 18.833 14.665 18.833H24.665C24.886 18.833 25.0978 18.7452 25.2541 18.589C25.4103 18.4328 25.498 18.2209 25.498 18C25.498 17.7791 25.4103 17.5672 25.2541 17.411C25.0978 17.2548 24.886 17.167 24.665 17.167H14.665ZM14.665 21.333C14.444 21.333 14.232 21.4208 14.0757 21.5771C13.9194 21.7334 13.8315 21.9454 13.8315 22.1665C13.8315 22.3876 13.9194 22.5996 14.0757 22.7559C14.232 22.9122 14.444 23 14.665 23H24.665C24.8861 23 25.0981 22.9122 25.2544 22.7559C25.4107 22.5996 25.4985 22.3876 25.4985 22.1665C25.4985 21.9454 25.4107 21.7334 25.2544 21.5771C25.0981 21.4208 24.8861 21.333 24.665 21.333H14.665ZM12.998 18C12.998 18.3315 12.8664 18.6495 12.6319 18.8839C12.3975 19.1183 12.0796 19.25 11.748 19.25C11.4165 19.25 11.0986 19.1183 10.8642 18.8839C10.6297 18.6495 10.498 18.3315 10.498 18C10.498 17.6685 10.6297 17.3505 10.8642 17.1161C11.0986 16.8817 11.4165 16.75 11.748 16.75C12.0796 16.75 12.3975 16.8817 12.6319 17.1161C12.8664 17.3505 12.998 17.6685 12.998 18ZM11.748 23.417C12.0796 23.417 12.3975 23.2853 12.6319 23.0509C12.8664 22.8165 12.998 22.4985 12.998 22.167C12.998 21.8355 12.8664 21.5175 12.6319 21.2831C12.3975 21.0487 12.0796 20.917 11.748 20.917C11.4165 20.917 11.0986 21.0487 10.8642 21.2831C10.6297 21.5175 10.498 21.8355 10.498 22.167C10.498 22.4985 10.6297 22.8165 10.8642 23.0509C11.0986 23.2853 11.4165 23.417 11.748 23.417Z" fill="white"/>
<path d="M28 0.5H8C3.85786 0.5 0.5 3.85786 0.5 8V28C0.5 32.1421 3.85786 35.5 8 35.5H28C32.1421 35.5 35.5 32.1421 35.5 28V8C35.5 3.85786 32.1421 0.5 28 0.5Z" stroke="url(#paint1_linear_6616_16103)"/>
</g>
</g>
<defs>
<linearGradient id="paint0_linear_6616_16103" x1="18" y1="-1.05372e-08" x2="18" y2="36" gradientUnits="userSpaceOnUse">
<stop stop-color="#9992F4"/>
<stop offset="1" stop-color="#5F55EE"/>
</linearGradient>
<linearGradient id="paint1_linear_6616_16103" x1="18" y1="-1.05372e-08" x2="18" y2="36" gradientUnits="userSpaceOnUse">
<stop stop-color="#B2ADF7"/>
<stop offset="1" stop-color="#4C47AB"/>
</linearGradient>
<clipPath id="clip0_6616_16103">
<rect width="36" height="36" fill="white"/>
</clipPath>
<clipPath id="clip1_6616_16103">
<rect width="36" height="36" fill="white"/>
</clipPath>
</defs>
</svg>
