<svg width="170" height="170" viewBox="0 0 170 170" fill="none" xmlns="http://www.w3.org/2000/svg">
<path d="M83.6485 89.8942L85 91.1332L86.3515 89.8942L136.442 43.9743L140.232 40.5H135.09H34.9098H29.7685L33.5583 43.9743L83.6485 89.8942ZM66.901 86.4744L68.5096 85L66.901 83.5256L27.9138 47.7924L24.5625 44.7208V49.2668V120.733V125.279L27.9138 122.208L66.901 86.4744ZM74.7669 90.7338L73.4152 89.4891L72.0606 90.7308L33.5583 126.026L29.7683 129.5H34.9098H135.05H140.193L136.402 126.025L97.886 90.7306L96.5315 89.4893L95.18 90.7338L87.2135 98.0696C87.2132 98.0699 87.2129 98.0702 87.2125 98.0705C86.6015 98.631 85.8026 98.9419 84.9734 98.9419C84.1443 98.9419 83.3453 98.631 82.7343 98.0705C82.734 98.0702 82.7337 98.0699 82.7334 98.0696L74.7669 90.7338ZM103.099 83.5257L101.491 85L103.099 86.4743L142.086 122.214L145.438 125.286V120.74V49.2602V44.7135L142.086 47.7859L103.099 83.5257ZM21.25 33.875H148.75C149.629 33.875 150.471 34.224 151.092 34.8452C151.714 35.4664 152.062 36.309 152.062 37.1875V127.5C152.062 129.787 151.154 131.981 149.536 133.599C147.919 135.216 145.725 136.125 143.438 136.125H26.5625C24.275 136.125 22.0812 135.216 20.4637 133.599C18.8462 131.981 17.9375 129.787 17.9375 127.5V37.1875C17.9375 36.309 18.2865 35.4664 18.9077 34.8452C19.5289 34.224 20.3715 33.875 21.25 33.875Z" fill="black" stroke="white" stroke-width="4"/>
</svg>
