<svg width="21" height="21" viewBox="0 0 21 21" fill="none" xmlns="http://www.w3.org/2000/svg">
<g id="cu3-icon-mobile" clip-path="url(#clip0_6893_31012)">
<path id="Vector" fill-rule="evenodd" clip-rule="evenodd" d="M7.44826 3.3545H14.1143C15.0343 3.3545 15.7813 4.1005 15.7813 5.0215V16.6875C15.7813 17.6075 15.0353 18.3545 14.1143 18.3545H7.44826C6.52826 18.3545 5.78126 17.6085 5.78126 16.6875V5.0215C5.78126 4.1015 6.52726 3.3545 7.44826 3.3545ZM4.11426 5.0215C4.11413 4.58364 4.20027 4.15004 4.36778 3.74548C4.53528 3.34092 4.78085 2.97333 5.09047 2.66371C5.40009 2.3541 5.76768 2.10852 6.17224 1.94102C6.57679 1.77352 7.01039 1.68737 7.44826 1.6875H14.1143C14.5521 1.68737 14.9857 1.77352 15.3903 1.94102C15.7948 2.10852 16.1624 2.3541 16.472 2.66371C16.7817 2.97333 17.0272 3.34092 17.1947 3.74548C17.3622 4.15004 17.4484 4.58364 17.4483 5.0215V16.6875C17.4484 17.1254 17.3622 17.559 17.1947 17.9635C17.0272 18.3681 16.7817 18.7357 16.472 19.0453C16.1624 19.3549 15.7948 19.6005 15.3903 19.768C14.9857 19.9355 14.5521 20.0216 14.1143 20.0215H7.44826C7.01039 20.0216 6.57679 19.9355 6.17224 19.768C5.76768 19.6005 5.40009 19.3549 5.09047 19.0453C4.78085 18.7357 4.53528 18.3681 4.36778 17.9635C4.20027 17.559 4.11413 17.1254 4.11426 16.6875V5.0215ZM10.3643 5.0215C10.1433 5.0215 9.93146 5.10926 9.77524 5.26548C9.61902 5.4217 9.53126 5.63357 9.53126 5.8545C9.53126 6.07543 9.61902 6.2873 9.77524 6.44352C9.93146 6.59974 10.1433 6.6875 10.3643 6.6875H11.1983C11.4192 6.6875 11.6311 6.59974 11.7873 6.44352C11.9435 6.2873 12.0313 6.07543 12.0313 5.8545C12.0313 5.63357 11.9435 5.4217 11.7873 5.26548C11.6311 5.10926 11.4192 5.0215 11.1983 5.0215H10.3643Z" fill="black"/>
</g>
<defs>
<clipPath id="clip0_6893_31012">
<rect width="20" height="20" fill="white" transform="translate(0.78125 0.851562)"/>
</clipPath>
</defs>
</svg>
