<svg width="156" height="30" viewBox="0 0 156 30" fill="none" xmlns="http://www.w3.org/2000/svg">
<g id="monday.5e207dd131cd3a5c5bbea289af7d239f.svg" clip-path="url(#clip0_6893_29441)">
<path id="Vector" d="M3.5632 22.1817C3.04162 22.1796 2.53006 22.0383 2.08136 21.7723C1.63267 21.5064 1.26311 21.1255 1.01086 20.669C0.75862 20.2124 0.632839 19.6968 0.646515 19.1754C0.660192 18.654 0.812829 18.1457 1.08866 17.703L6.3531 9.29544C6.54408 8.94429 6.80491 8.63593 7.11953 8.38936C7.43415 8.14279 7.79591 7.96321 8.18253 7.86169C8.56915 7.76016 8.97246 7.73884 9.36763 7.79902C9.76281 7.8592 10.1415 7.99962 10.4804 8.21164C10.8192 8.42365 11.1111 8.70278 11.3381 9.03183C11.565 9.36088 11.7222 9.7329 11.8 10.125C11.8778 10.5171 11.8746 10.9209 11.7904 11.3117C11.7063 11.7025 11.5431 12.0719 11.3108 12.3972L6.04636 20.8083C5.78271 21.2288 5.41652 21.5755 4.98218 21.8157C4.54783 22.0559 4.05956 22.1819 3.5632 22.1817Z" fill="#FF3D57"/>
<path id="Vector_2" d="M12.6334 22.1817C12.1114 22.1801 11.5993 22.039 11.1501 21.7731C10.7009 21.5072 10.3309 21.1261 10.0784 20.6693C9.82593 20.2124 9.70009 19.6964 9.71392 19.1746C9.72775 18.6528 9.88076 18.1441 10.1571 17.7013L15.425 9.29544C15.616 8.94429 15.8768 8.63593 16.1914 8.38936C16.506 8.14279 16.8678 7.96321 17.2544 7.86169C17.641 7.76016 18.0444 7.73884 18.4395 7.79902C18.8347 7.8592 19.2134 7.99962 19.5522 8.21164C19.8911 8.42365 20.183 8.70278 20.41 9.03183C20.6369 9.36088 20.7941 9.7329 20.8719 10.125C20.9497 10.5171 20.9465 10.9209 20.8623 11.3117C20.7782 11.7025 20.615 12.0719 20.3827 12.3972L15.1183 20.8083C14.8545 21.2291 14.488 21.5759 14.0533 21.8161C13.6186 22.0564 13.13 22.1822 12.6334 22.1817Z" fill="#FFCB00"/>
<path id="Vector_3" d="M21.7088 22.1864C23.3267 22.1864 24.6382 20.9065 24.6382 19.3276C24.6382 17.7487 23.3267 16.4688 21.7088 16.4688C20.0909 16.4688 18.7793 17.7487 18.7793 19.3276C18.7793 20.9065 20.0909 22.1864 21.7088 22.1864Z" fill="#00D647"/>
<path id="Vector_4" d="M152.795 17.1798C153.719 17.1798 154.271 17.8277 154.271 18.8892V22.5287H155.525V18.8065C155.525 17.0006 154.663 15.9529 153.044 15.9529C152.409 15.9529 151.403 16.1252 150.803 17.2763C150.662 16.9351 150.431 16.6385 150.135 16.4177C149.839 16.1969 149.489 16.0601 149.122 16.0218C148.89 15.9798 148.654 15.9659 148.418 15.9805C147.902 16.0218 146.985 16.3389 146.64 17.0557V16.0959H145.386V22.5339H146.64V19.0547C146.64 17.7037 147.536 17.1798 148.432 17.1798C149.273 17.1798 149.825 17.814 149.825 18.8755V22.5287H151.079V19.0547C151.086 17.9794 151.734 17.166 152.795 17.1798ZM140.778 21.4534C141.062 21.459 141.344 21.4066 141.606 21.2992C141.869 21.1919 142.107 21.032 142.306 20.8293C142.505 20.6266 142.66 20.3855 142.763 20.1206C142.865 19.8557 142.912 19.5727 142.901 19.289C142.901 17.9932 141.936 17.1798 140.778 17.1798C139.62 17.1798 138.653 17.9914 138.653 19.289C138.642 19.5727 138.689 19.8557 138.791 20.1206C138.893 20.3855 139.049 20.6266 139.247 20.8293C139.446 21.032 139.684 21.1919 139.947 21.2992C140.21 21.4066 140.492 21.459 140.776 21.4534H140.778ZM140.778 22.6597C138.944 22.6597 137.414 21.3224 137.414 19.2821C137.414 17.2418 138.946 15.9529 140.776 15.9529C142.606 15.9529 144.154 17.2487 144.154 19.289C144.154 21.3293 142.61 22.6665 140.776 22.6665L140.778 22.6597ZM130.955 19.2821C130.955 21.3224 132.527 22.6597 134.36 22.6597C134.826 22.6678 135.289 22.5789 135.718 22.3985C136.148 22.2182 136.535 21.9503 136.856 21.6119L135.891 20.8124C135.588 21.115 135.202 21.321 134.783 21.4045C134.363 21.488 133.928 21.4451 133.532 21.2813C133.137 21.1176 132.799 20.8402 132.561 20.4844C132.323 20.1285 132.196 19.7101 132.196 19.2821C132.196 17.9863 133.202 17.1729 134.36 17.1729C134.931 17.1649 135.481 17.383 135.891 17.7795L136.842 16.9799C136.523 16.6448 136.137 16.3798 135.71 16.2018C135.283 16.0238 134.823 15.9367 134.36 15.946C132.522 15.9529 130.95 17.2487 130.95 19.289L130.955 19.2821Z" fill="#808080"/>
<path id="Vector_5" fill-rule="evenodd" clip-rule="evenodd" d="M130.157 8.22704H125.734L122.632 16.1539L119.552 8.22704H115.12L120.507 20.7514L117.159 29.0315H121.541L130.157 8.22704ZM103.588 15.1923C103.588 17.1947 105.353 18.5112 107.087 18.5112C108.791 18.5112 110.464 17.286 110.464 15.1923C110.464 13.0986 108.789 11.8734 107.085 11.8734C105.351 11.8734 103.588 13.1899 103.588 15.1923ZM110.464 22.1869V20.6032C109.568 21.949 107.474 22.4574 106.399 22.4574C102.842 22.4574 99.2839 19.6778 99.2839 15.1923C99.2839 10.7068 102.841 7.9272 106.399 7.9272C107.295 7.9272 109.389 8.22532 110.464 9.78139V8.23049H114.59V22.1886L110.464 22.1869ZM98.1104 22.1869H93.985V20.4533C93.2957 21.7388 91.6242 22.4867 89.8889 22.4867C86.3011 22.4867 83.1321 19.6468 83.1321 15.2492C83.1321 10.7688 86.3011 7.92548 89.8889 7.92548C91.6224 7.92548 93.2974 8.64234 93.985 9.92786V0.632812H98.1052L98.1104 22.1869ZM93.8954 15.163C93.8954 13.071 92.3703 11.8441 90.666 11.8441C88.9015 11.8441 87.4367 13.1589 87.4367 15.163C87.4367 17.2309 88.9015 18.5405 90.666 18.5405C92.3996 18.5405 93.8954 17.1654 93.8954 15.163ZM72.9324 14.8029C72.9324 12.6798 74.0387 11.963 75.5034 11.963C76.9078 11.963 77.9246 12.8901 77.9246 14.7425V22.1869H82.0792V13.8465C82.0792 9.871 80.1061 7.9272 76.9664 7.9272C75.3225 7.9272 73.6785 8.8543 72.9307 10.2587V8.22704H68.776V22.1851H72.9307L72.9324 14.8029ZM60.3391 22.4264C56.3929 22.4264 53.1016 19.5572 53.1016 15.1613C53.1016 10.7653 56.3895 7.92376 60.3391 7.92376C64.2887 7.92376 67.6042 10.7671 67.6042 15.163C67.6042 19.5589 64.2853 22.4264 60.3391 22.4264ZM60.3391 18.3613C62.0726 18.3613 63.5081 17.1051 63.5081 15.163C63.5081 13.2795 62.0726 11.994 60.3391 11.994C59.9224 11.9871 59.5086 12.0646 59.1227 12.2218C58.7367 12.379 58.3865 12.6127 58.0932 12.9087C57.7999 13.2048 57.5695 13.5571 57.4159 13.9445C57.2623 14.3319 57.1886 14.7464 57.1994 15.163C57.1994 17.1051 58.6348 18.3613 60.3391 18.3613ZM45.6538 11.963C46.879 11.963 47.9595 12.9194 47.9595 14.7443V22.1886H52.0849V14.2618C52.0849 10.0468 50.017 7.92376 46.7032 7.92376C45.7176 7.92376 43.8634 8.22187 42.5175 10.4052C41.7404 8.79054 40.2463 7.95305 38.0372 7.95305C37.2728 7.94769 36.523 8.16175 35.8766 8.56983C35.2303 8.97791 34.7146 9.56287 34.3908 10.2553V8.22704H30.2275V22.1851H34.3822V14.8029C34.3822 12.6816 35.5523 11.963 36.8051 11.963C38.001 11.963 39.0763 12.8901 39.1073 14.6529V22.1869H43.262V14.8029C43.262 12.7712 44.3407 11.963 45.6538 11.963Z" fill="#808080"/>
<path id="Vector_6" d="M127.132 21.4655C127.146 21.6953 127.247 21.9111 127.415 22.0688C127.583 22.2265 127.805 22.3143 128.035 22.3143C128.265 22.3143 128.487 22.2265 128.654 22.0688C128.822 21.9111 128.924 21.6953 128.938 21.4655C128.938 21.226 128.843 20.9963 128.673 20.827C128.504 20.6576 128.274 20.5625 128.035 20.5625C127.795 20.5625 127.566 20.6576 127.396 20.827C127.227 20.9963 127.132 21.226 127.132 21.4655Z" fill="#808080"/>
</g>
<defs>
<clipPath id="clip0_6893_29441">
<rect width="154.974" height="28.49" fill="white" transform="translate(0.571289 0.585938)"/>
</clipPath>
</defs>
</svg>
