<svg width="17" height="17" viewBox="0 0 17 17" fill="none" xmlns="http://www.w3.org/2000/svg">
<path fill-rule="evenodd" clip-rule="evenodd" d="M3.73539 6.50352C3.73539 8.41018 2.68605 10.2455 2.06205 11.1588C1.62405 11.7995 2.04405 12.7702 2.90672 12.7702H13.2654C14.1287 12.7702 14.5487 11.7995 14.1107 11.1588C13.4874 10.2455 12.4374 8.40952 12.4374 6.50352V6.48218L12.4361 6.43952C12.4269 6.22953 12.4053 6.02027 12.3714 5.81285C12.2896 5.30315 12.1337 4.80814 11.9087 4.34352C11.6401 3.79885 11.2261 3.23152 10.5907 2.80218C9.95139 2.36885 9.12672 2.10352 8.08672 2.10352C7.04672 2.10352 6.22205 2.36952 5.58205 2.80218C4.94672 3.23152 4.53272 3.79885 4.26405 4.34352C4.03931 4.80818 3.88367 5.30318 3.80205 5.81285C3.7657 6.03433 3.74343 6.25789 3.73539 6.48218V6.50352ZM5.07672 6.50552C5.07605 8.50352 4.15472 10.3475 3.47805 11.4368H12.6954C12.0187 10.3468 11.0974 8.50352 11.0967 6.50552V6.50352V6.48352C11.0895 6.33072 11.0735 6.17847 11.0487 6.02752C10.9881 5.64702 10.8724 5.27737 10.7054 4.93018C10.5134 4.54152 10.2374 4.17552 9.83739 3.90485C9.44272 3.63818 8.88672 3.43685 8.08672 3.43685C7.28672 3.43685 6.73072 3.63752 6.33605 3.90485C5.93605 4.17552 5.66005 4.54152 5.46805 4.93018C5.30124 5.27741 5.18581 5.64706 5.12539 6.02752C5.09964 6.18506 5.08339 6.34402 5.07672 6.50352V6.50552ZM7.70272 14.1135C7.61664 13.964 7.47597 13.8537 7.31025 13.8058C7.14454 13.7578 6.96669 13.776 6.81409 13.8564C6.66148 13.9369 6.546 14.0733 6.49192 14.2371C6.43783 14.401 6.44935 14.5794 6.52405 14.7348V14.7362L6.52539 14.7382L6.52672 14.7408L6.53005 14.7475L6.53872 14.7635L6.56272 14.8042C6.65933 14.9578 6.78102 15.0941 6.92272 15.2075C7.18805 15.4202 7.58272 15.6035 8.12005 15.6035C8.65672 15.6035 9.05205 15.4202 9.31805 15.2075C9.4597 15.0941 9.58138 14.9578 9.67805 14.8042L9.70139 14.7642L9.71005 14.7475L9.71339 14.7408L9.71472 14.7375L9.71539 14.7362L9.70139 14.7348H9.71672C9.79911 14.5784 9.81597 14.3956 9.76359 14.2267C9.7112 14.0578 9.59386 13.9166 9.43739 13.8342C9.28091 13.7518 9.09811 13.7349 8.9292 13.7873C8.76029 13.8397 8.61911 13.957 8.53672 14.1135L8.53605 14.1148C8.5211 14.134 8.50386 14.1512 8.48472 14.1662C8.43805 14.2035 8.33339 14.2702 8.12005 14.2702C7.90672 14.2702 7.80205 14.2035 7.75539 14.1662C7.73624 14.1512 7.719 14.134 7.70405 14.1148L7.70272 14.1135Z" fill="#656F7D"/>
</svg>
