<svg width="131" height="48" viewBox="0 0 131 48" fill="none" xmlns="http://www.w3.org/2000/svg">
<g id="notion.318964eb0b8f8249de694cdc38deb6ec.svg" clip-path="url(#clip0_6893_29460)">
<path id="Vector" d="M59.1328 32.4355V19.9671H59.3527L68.335 32.4355H71.1615V14.1255H68.0209V26.5625H67.801L58.8188 14.1255H55.9922V32.4355H59.1328ZM80.0496 32.7182C84.1953 32.7182 86.7392 30.0172 86.7392 25.4947C86.7392 21.0035 84.1953 18.2712 80.0496 18.2712C75.9353 18.2712 73.36 21.0035 73.36 25.4947C73.3914 30.0172 75.9039 32.7182 80.0496 32.7182ZM80.0496 30.08C77.8511 30.08 76.5949 28.4155 76.5949 25.4947C76.5949 22.6053 77.8511 20.9093 80.0496 20.9093C82.2481 20.9093 83.5043 22.6053 83.5043 25.4947C83.5043 28.4155 82.2481 30.08 80.0496 30.08ZM89.5972 15.1619V18.648H87.3987V21.1606H89.5972V28.7295C89.5972 31.4305 90.8535 32.4983 94.0569 32.4983C94.6536 32.4983 95.2504 32.4355 95.7215 32.3413V29.8916C95.3446 29.923 95.0933 29.9544 94.6536 29.9544C93.3346 29.9544 92.7379 29.3577 92.7379 27.9758V21.1606H95.7215V18.648H92.7379V15.1619H89.5972ZM97.6059 32.4355H100.747V18.5538H97.6059V32.4355ZM99.1762 16.2611C100.213 16.2611 101.061 15.4132 101.061 14.3767C101.061 13.3089 100.213 12.4609 99.1762 12.4609C98.1398 12.4609 97.2918 13.3089 97.2918 14.3767C97.2918 15.4132 98.1398 16.2611 99.1762 16.2611ZM109.352 32.7182C113.498 32.7182 116.042 30.0172 116.042 25.4947C116.042 21.0035 113.498 18.2712 109.352 18.2712C105.238 18.2712 102.662 21.0035 102.662 25.4947C102.662 30.0172 105.175 32.7182 109.352 32.7182ZM109.352 30.08C107.153 30.08 105.897 28.4155 105.897 25.4947C105.897 22.6053 107.153 20.9093 109.352 20.9093C111.519 20.9093 112.807 22.6053 112.807 25.4947C112.775 28.4155 111.519 30.08 109.352 30.08ZM117.894 32.4355H121.035V24.364C121.035 22.3226 122.229 21.0349 124.082 21.0349C125.997 21.0349 126.877 22.1027 126.877 24.207V32.4355H130.017V23.4532C130.017 20.1241 128.321 18.2712 125.244 18.2712C123.171 18.2712 121.789 19.2133 121.129 20.7837H120.91V18.5538H117.863C117.895 18.5538 117.894 32.4355 117.894 32.4355Z" fill="black"/>
<path id="Vector_2" fill-rule="evenodd" clip-rule="evenodd" d="M7.87785 8.47194C9.35396 9.66539 9.88787 9.57117 12.6516 9.38273L38.6877 7.8124C39.253 7.8124 38.7819 7.24708 38.5935 7.18427L34.2594 4.07502C33.4428 3.44689 32.3121 2.69313 30.2079 2.88157L5.01985 4.73456C4.10906 4.82878 3.92062 5.29988 4.2975 5.64535L7.87785 8.47194ZM9.44818 14.5334V41.9199C9.44818 43.396 10.1705 43.9299 11.8351 43.8357L40.4464 42.1712C42.111 42.0769 42.2994 41.0719 42.2994 39.8785V12.6804C42.2994 11.487 41.8283 10.8274 40.8233 10.9216L10.9243 12.6804C9.82505 12.7746 9.44818 13.34 9.44818 14.5334ZM37.6827 16.0095C37.8711 16.8261 37.6827 17.6741 36.8661 17.7683L35.4842 18.0509V38.2768C34.2908 38.9049 33.1915 39.2818 32.2493 39.2818C30.7732 39.2818 30.3963 38.8107 29.2971 37.4288L20.2834 23.2644V36.9577L23.1414 37.5858C23.1414 37.5858 23.1414 39.2504 20.8488 39.2504L14.5046 39.6272C14.3162 39.2504 14.5046 38.3396 15.1328 38.1511L16.7973 37.68V19.5899L14.5046 19.4014C14.3162 18.5848 14.7873 17.3914 16.075 17.2972L22.8902 16.8261L32.2807 31.1475V18.4906L29.8938 18.208C29.7054 17.203 30.4592 16.4492 31.37 16.355L37.6827 16.0095ZM2.91561 2.22203L29.1401 0.306234C32.3436 0.023575 33.1915 0.212015 35.2015 1.68812L43.5557 7.56115C44.9376 8.56616 45.4087 8.84882 45.4087 9.94805V42.2026C45.4087 44.2126 44.6863 45.406 42.111 45.5945L11.678 47.4475C9.73084 47.5417 8.82005 47.259 7.81504 45.9714L1.62794 37.9627C0.528715 36.4866 0.0576172 35.3874 0.0576172 34.0997V5.4255C0.0576172 3.76095 0.811374 2.41047 2.91561 2.22203Z" fill="black"/>
</g>
<defs>
<clipPath id="clip0_6893_29460">
<rect width="129.96" height="47.27" fill="white" transform="translate(0.0576172 0.195312)"/>
</clipPath>
</defs>
</svg>
