<svg width="25" height="25" viewBox="0 0 25 25" fill="none" xmlns="http://www.w3.org/2000/svg">
<path d="M12.4185 23.8527C18.8672 23.8527 24.0949 18.625 24.0949 12.1763C24.0949 5.72768 18.8672 0.5 12.4185 0.5C5.96986 0.5 0.742188 5.72768 0.742188 12.1763C0.742188 18.625 5.96986 23.8527 12.4185 23.8527Z" stroke="#C1C1C1" stroke-width="0.667219" stroke-dasharray="2 2"/>
<path d="M7.31445 17.2807C7.31445 14.1485 9.60543 11.6094 12.4187 11.6094C15.2377 11.6094 17.5229 14.1549 17.5229 17.2807" stroke="#C1C1C1" stroke-width="0.667219" stroke-linecap="round"/>
<path d="M12.4179 11.6443C14.0024 11.6443 15.2869 10.3598 15.2869 8.77529C15.2869 7.19076 14.0024 5.90625 12.4179 5.90625C10.8333 5.90625 9.54883 7.19076 9.54883 8.77529C9.54883 10.3598 10.8333 11.6443 12.4179 11.6443Z" stroke="#C1C1C1" stroke-width="0.667219"/>
<path d="M18.6903 23.5877C21.5277 23.5877 23.8279 21.2875 23.8279 18.4501C23.8279 15.6127 21.5277 13.3125 18.6903 13.3125C15.8529 13.3125 13.5527 15.6127 13.5527 18.4501C13.5527 21.2875 15.8529 23.5877 18.6903 23.5877Z" fill="#C1C1C1"/>
<path d="M19.2251 17.8467V16.1427C19.2251 15.8365 18.9712 15.5781 18.6579 15.5781C18.3425 15.5781 18.0908 15.8309 18.0908 16.1427V17.8467H16.3868C16.0807 17.8467 15.8223 18.1006 15.8223 18.4138C15.8223 18.7292 16.075 18.9809 16.3868 18.9809H18.0908V20.685C18.0908 20.9911 18.3447 21.2495 18.6579 21.2495C18.9734 21.2495 19.2251 20.9967 19.2251 20.685V18.9809H20.9291C21.2352 18.9809 21.4936 18.727 21.4936 18.4138C21.4936 18.0984 21.2409 17.8467 20.9291 17.8467H19.2251Z" fill="white"/>
</svg>
