<svg width="81" height="81" viewBox="0 0 81 81" fill="none" xmlns="http://www.w3.org/2000/svg">
<g id="svg-sprite-onedrive-colored" clip-path="url(#clip0_6893_31667)">
<path id="Vector" d="M49.2822 49.3537L65.7952 33.5619C62.3651 20.1871 48.7421 12.1253 35.3672 15.5554C29.3442 17.1 24.1128 20.8337 20.6943 26.0277C20.9499 26.0213 49.2822 49.3537 49.2822 49.3537Z" fill="#0364B8"/>
<path id="Vector_2" d="M31.4569 28.9951L31.4561 28.9978C28.3008 27.0435 24.6618 26.0106 20.9503 26.0156C20.8646 26.0156 20.7803 26.0211 20.6947 26.0221C9.65484 26.1589 0.816043 35.2193 0.952736 46.2592C1.00229 50.2638 2.25356 54.1613 4.54436 57.4463L29.2834 54.3479L48.2504 39.0541L31.4569 28.9951Z" fill="#0078D4"/>
<path id="Vector_3" d="M65.7952 33.5566C65.4322 33.5324 65.0674 33.5156 64.6983 33.5156C62.483 33.5135 60.2908 33.9659 58.2574 34.8451L58.2569 34.8433L48.25 39.0544L59.2819 52.6816L79.0041 57.4758C83.2602 49.5746 80.3052 39.7192 72.404 35.4631C70.3624 34.3634 68.109 33.7134 65.7953 33.5567L65.7952 33.5566Z" fill="#FFCC00"/>
<path id="Vector_4" d="M4.54395 57.4469C8.27933 62.8175 14.4081 66.0181 20.95 66.0147H64.6983C70.6744 66.0164 76.169 62.737 79.0041 57.4763L48.25 39.0547L4.54395 57.4469Z" fill="#28A8EA"/>
</g>
<defs>
<clipPath id="clip0_6893_31667">
<rect width="80" height="80" fill="white" transform="translate(0.951172 0.390625)"/>
</clipPath>
</defs>
</svg>
