<svg width="40" height="13" viewBox="0 0 40 13" fill="none" xmlns="http://www.w3.org/2000/svg">
<g clip-path="url(#clip0_6616_12551)">
<g clip-path="url(#clip1_6616_12551)">
<path d="M4.30864 1.4375H1.18164C1.18164 1.4375 1.53464 1.9555 1.53464 2.9405V11.0945C1.53464 12.0805 1.18164 12.5975 1.18164 12.5975H3.51964C3.51964 12.5975 3.16664 12.0795 3.16664 11.0945V8.7715H4.30864C4.87864 8.7715 5.42564 8.5415 5.82864 8.1295C6.23164 7.7195 6.45864 7.1625 6.45864 6.5805V3.6285C6.45864 3.0475 6.23164 2.4905 5.82864 2.0785C5.63055 1.87614 5.39409 1.71531 5.1331 1.60542C4.87211 1.49552 4.59182 1.43778 4.30864 1.4375ZM4.82464 6.6115C4.82464 6.8215 4.74264 7.0235 4.59664 7.1715C4.52504 7.24492 4.43952 7.30334 4.34509 7.34335C4.25066 7.38335 4.1492 7.40414 4.04664 7.4045H3.16664V2.8045H4.04964C4.15221 2.80475 4.25371 2.82548 4.34815 2.8655C4.4426 2.90551 4.52811 2.96399 4.59964 3.0375C4.74464 3.1865 4.82664 3.3875 4.82764 3.5975L4.82464 6.6115ZM12.9096 4.0385C12.9096 3.4585 12.6826 2.9015 12.2796 2.4905C12.082 2.28783 11.846 2.12659 11.5854 2.01618C11.3247 1.90578 11.0447 1.84844 10.7616 1.8475H9.95864C9.67558 1.84844 9.39555 1.90578 9.13491 2.01618C8.87427 2.12659 8.63825 2.28783 8.44064 2.4905C8.0361 2.90414 7.80991 3.45993 7.81064 4.0385V11.0945C7.81064 12.0805 7.45664 12.5975 7.45664 12.5975H9.79564C9.79564 12.5975 9.44164 12.0795 9.44164 11.0945V9.1755H11.2786V11.0955C11.2786 12.0805 10.9246 12.5975 10.9246 12.5975H13.2636C13.2636 12.5975 12.9096 12.0795 12.9096 11.0945V4.0385ZM9.44264 7.8165V4.0045C9.44332 3.79439 9.52582 3.5928 9.67264 3.4425C9.74453 3.36952 9.83012 3.31147 9.92451 3.27165C10.0189 3.23184 10.1202 3.21106 10.2226 3.2105H10.5036C10.6062 3.21075 10.7077 3.23148 10.8022 3.2715C10.8966 3.31151 10.9821 3.36999 11.0536 3.4435C11.2 3.59315 11.2818 3.79419 11.2816 4.0035V7.8155L9.44164 7.8165H9.44264ZM26.3926 9.5935C26.3932 9.06257 26.2018 8.54935 25.8536 8.1485C26.061 7.94331 26.2256 7.69892 26.3377 7.42957C26.4498 7.16021 26.5072 6.87125 26.5066 6.5795V4.0395C26.5064 3.46083 26.2803 2.9051 25.8766 2.4905C25.6789 2.28771 25.4427 2.1264 25.1819 2.01599C24.9211 1.90558 24.6409 1.8483 24.3576 1.8475H21.2306C21.2306 1.8475 21.5816 2.3655 21.5816 3.3515V11.0945C21.5816 12.0805 21.2286 12.5975 21.2286 12.5975H23.5666C23.5666 12.5975 23.2136 12.0795 23.2136 11.0945V8.7705H23.9876C24.0897 8.77114 24.1906 8.79208 24.2845 8.83208C24.3784 8.87208 24.4635 8.93035 24.5346 9.0035C24.6796 9.1525 24.7606 9.3535 24.7606 9.5635V11.7735C24.8006 12.3335 25.0606 12.5975 25.0606 12.5975H26.7466C26.7466 12.5975 26.3926 12.0795 26.3926 11.0945V9.5935ZM24.0956 3.2155C24.1982 3.21575 24.2997 3.23648 24.3942 3.2765C24.4886 3.31651 24.5741 3.37499 24.6456 3.4485C24.7906 3.5965 24.8726 3.7985 24.8736 4.0085V6.6105C24.8736 6.8205 24.7916 7.0205 24.6466 7.1705C24.5755 7.24375 24.4905 7.30214 24.3966 7.34231C24.3027 7.38248 24.2018 7.40361 24.0996 7.4045H23.2126V3.2145L24.0956 3.2155ZM17.6806 1.8475H14.5536C14.5536 1.8475 14.9046 2.3655 14.9046 3.3515V11.0945C14.9046 12.0805 14.5506 12.5975 14.5506 12.5975H17.6786C17.9623 12.5983 18.2432 12.542 18.5046 12.4321C18.7661 12.3221 19.0028 12.1607 19.2006 11.9575C19.6046 11.5425 19.8312 10.9866 19.8326 10.4075V4.0375C19.8322 3.45836 19.6058 2.90225 19.2016 2.4875C19.0035 2.28514 18.7671 2.12431 18.5061 2.01442C18.2451 1.90452 17.9638 1.84778 17.6806 1.8475ZM18.1976 10.4375C18.1976 10.6475 18.1146 10.8495 17.9686 10.9975C17.8971 11.071 17.8116 11.1294 17.7171 11.1694C17.6227 11.2094 17.5212 11.2302 17.4186 11.2305H16.5336V3.2155H17.4166C17.5192 3.21575 17.6207 3.23648 17.7152 3.2765C17.8096 3.31651 17.8951 3.37499 17.9666 3.4485C18.113 3.59815 18.1948 3.79919 18.1946 4.0085L18.1976 10.4375ZM38.8456 7.7395V10.9285C38.8456 11.3765 38.6706 11.8065 38.3596 12.1235C38.0496 12.4405 37.6276 12.6185 37.1876 12.6195H35.6916C35.2516 12.6195 34.8316 12.4395 34.5206 12.1235C34.2088 11.8039 34.0344 11.375 34.0346 10.9285V9.4925H35.7436C35.7436 9.4925 35.4836 9.7205 35.4836 10.7045V10.7555C35.4836 10.8885 35.5366 11.0155 35.6286 11.1105C35.6738 11.1568 35.7278 11.1936 35.7874 11.2188C35.847 11.2441 35.9109 11.2572 35.9756 11.2575H36.7196C36.8496 11.2575 36.9756 11.2045 37.0676 11.1105C37.1605 11.0157 37.2125 10.8882 37.2126 10.7555V7.9555C37.2127 7.89309 37.1882 7.83315 37.1446 7.7885C37.1232 7.76686 37.0976 7.74971 37.0695 7.73804C37.0413 7.72637 37.0111 7.7204 36.9806 7.7205H35.2926C34.9326 7.7205 34.5896 7.5745 34.3356 7.3155C34.0811 7.05482 33.9386 6.70488 33.9386 6.3405V3.1505C33.9386 2.7025 34.1136 2.2725 34.4246 1.9545C34.7346 1.6375 35.1566 1.4595 35.5966 1.4585H37.0926C37.5326 1.4585 37.9526 1.6375 38.2646 1.9545C38.5746 2.2715 38.7496 2.7005 38.7506 3.1495V4.5535H37.0406C37.0406 4.5535 37.3006 4.3265 37.3006 3.3415V3.2915C37.3012 3.15854 37.2495 3.03069 37.1566 2.9355C37.1112 2.88898 37.0569 2.85201 36.997 2.82677C36.937 2.80152 36.8727 2.78851 36.8076 2.7885H36.0626C35.9978 2.78864 35.9336 2.80172 35.8738 2.82696C35.8141 2.8522 35.76 2.8891 35.7146 2.9355C35.6218 3.03035 35.5697 3.15777 35.5696 3.2905V6.1245C35.5696 6.1875 35.5946 6.2475 35.6386 6.2915C35.6599 6.3132 35.6853 6.33046 35.7132 6.34231C35.7412 6.35415 35.7713 6.36033 35.8016 6.3605H37.4916C37.8516 6.3605 38.1946 6.5065 38.4486 6.7645C38.7026 7.0245 38.8446 7.3735 38.8456 7.7395ZM29.9906 3.2105V6.5465H30.5986C31.5646 6.5465 32.0706 6.1865 32.0706 6.1865V8.2645C32.0706 8.2645 31.5626 7.9045 30.5976 7.9045H29.9906V11.2365H31.2706C32.0486 11.2365 32.5056 10.8895 32.5056 10.8895L32.2326 12.5945H28.0076C28.0076 12.5945 28.3606 12.0775 28.3606 11.0945V3.3505C28.3606 2.3645 28.0076 1.8505 28.0076 1.8505H32.2326L32.5056 3.5545C32.5056 3.5545 32.0506 3.2065 31.2706 3.2065L29.9906 3.2095V3.2105Z" fill="white"/>
</g>
</g>
<defs>
<clipPath id="clip0_6616_12551">
<rect width="39" height="12" fill="white" transform="translate(0.5 0.916016)"/>
</clipPath>
<clipPath id="clip1_6616_12551">
<rect width="39" height="12" fill="white" transform="translate(0.5 0.916016)"/>
</clipPath>
</defs>
</svg>
