<svg width="75" height="81" viewBox="0 0 75 81" fill="none" xmlns="http://www.w3.org/2000/svg">
<g clip-path="url(#clip0_6616_15294)">
<g filter="url(#filter0_d_6616_15294)">
<path d="M21.7305 20.5771C21.7305 19.5978 22.1195 18.6587 22.8119 17.9662C23.5044 17.2738 24.4435 16.8848 25.4228 16.8848H48.8074C49.7867 16.8848 50.7258 17.2738 51.4182 17.9662C52.1107 18.6587 52.4997 19.5978 52.4997 20.5771V53.1925C52.4997 54.1717 52.1107 55.1109 51.4182 55.8033C50.7258 56.4958 49.7867 56.8848 48.8074 56.8848H25.4228C24.4435 56.8848 23.5044 56.4958 22.8119 55.8033C22.1195 55.1109 21.7305 54.1717 21.7305 53.1925V20.5771Z" fill="url(#paint0_linear_6616_15294)"/>
<path fill-rule="evenodd" clip-rule="evenodd" d="M48.8074 18.1155H25.4228C24.7699 18.1155 24.1438 18.3749 23.6822 18.8365C23.2206 19.2981 22.9612 19.9242 22.9612 20.5771V53.1925C22.9612 53.8453 23.2206 54.4714 23.6822 54.933C24.1438 55.3947 24.7699 55.654 25.4228 55.654H48.8074C49.4602 55.654 50.0863 55.3947 50.548 54.933C51.0096 54.4714 51.2689 53.8453 51.2689 53.1925V20.5771C51.2689 19.9242 51.0096 19.2981 50.548 18.8365C50.0863 18.3749 49.4602 18.1155 48.8074 18.1155ZM25.4228 16.8848C24.4435 16.8848 23.5044 17.2738 22.8119 17.9662C22.1195 18.6587 21.7305 19.5978 21.7305 20.5771V53.1925C21.7305 54.1717 22.1195 55.1109 22.8119 55.8033C23.5044 56.4958 24.4435 56.8848 25.4228 56.8848H48.8074C49.2923 56.8848 49.7724 56.7893 50.2204 56.6037C50.6683 56.4182 51.0754 56.1462 51.4182 55.8033C51.7611 55.4605 52.0331 55.0534 52.2186 54.6054C52.4042 54.1575 52.4997 53.6773 52.4997 53.1925V20.5771C52.4997 20.0922 52.4042 19.6121 52.2186 19.1641C52.0331 18.7161 51.7611 18.3091 51.4182 17.9662C51.0754 17.6234 50.6683 17.3514 50.2204 17.1658C49.7724 16.9803 49.2923 16.8848 48.8074 16.8848H25.4228Z" fill="white"/>
<path fill-rule="evenodd" clip-rule="evenodd" d="M48.8074 17.5001H25.4228C24.6067 17.5001 23.8241 17.8243 23.2471 18.4014C22.67 18.9784 22.3459 19.761 22.3459 20.5771V53.1925C22.3459 54.0085 22.67 54.7911 23.2471 55.3682C23.8241 55.9452 24.6067 56.2694 25.4228 56.2694H48.8074C49.6234 56.2694 50.4061 55.9452 50.9831 55.3682C51.5601 54.7911 51.8843 54.0085 51.8843 53.1925V20.5771C51.8843 19.761 51.5601 18.9784 50.9831 18.4014C50.4061 17.8243 49.6234 17.5001 48.8074 17.5001ZM25.4228 16.8848C24.4435 16.8848 23.5044 17.2738 22.8119 17.9662C22.1195 18.6587 21.7305 19.5978 21.7305 20.5771V53.1925C21.7305 54.1717 22.1195 55.1109 22.8119 55.8033C23.5044 56.4958 24.4435 56.8848 25.4228 56.8848H48.8074C49.2923 56.8848 49.7724 56.7893 50.2204 56.6037C50.6683 56.4182 51.0754 56.1462 51.4182 55.8033C51.7611 55.4605 52.0331 55.0534 52.2186 54.6054C52.4042 54.1575 52.4997 53.6773 52.4997 53.1925V20.5771C52.4997 20.0922 52.4042 19.6121 52.2186 19.1641C52.0331 18.7161 51.7611 18.3091 51.4182 17.9662C51.0754 17.6234 50.6683 17.3514 50.2204 17.1658C49.7724 16.9803 49.2923 16.8848 48.8074 16.8848H25.4228Z" fill="url(#paint1_linear_6616_15294)"/>
<path fill-rule="evenodd" clip-rule="evenodd" d="M28.9791 41.5004C28.374 41.5004 27.8848 41.9906 27.8848 42.5947V45.3291C27.8848 45.9342 28.375 46.4235 28.9791 46.4235H31.7135C32.3186 46.4235 32.8078 45.9332 32.8078 45.3291V42.5947C32.8078 41.9896 32.3176 41.5004 31.7135 41.5004H28.9791ZM31.2899 42.8501C31.3301 42.8088 31.3782 42.776 31.4313 42.7536C31.4844 42.7312 31.5415 42.7197 31.5991 42.7197C31.6568 42.7197 31.7138 42.7312 31.7669 42.7536C31.82 42.776 31.8681 42.8088 31.9084 42.8501C31.9902 42.9337 32.036 43.046 32.036 43.1629C32.036 43.2799 31.9902 43.3922 31.9084 43.4758L30.3422 45.0737C30.302 45.115 30.2539 45.1478 30.2008 45.1702C30.1477 45.1926 30.0906 45.2041 30.033 45.2041C29.9753 45.2041 29.9183 45.1926 29.8652 45.1702C29.8121 45.1478 29.764 45.115 29.7237 45.0737L28.7832 44.1147C28.7014 44.0312 28.6556 43.9189 28.6556 43.8019C28.6556 43.685 28.7014 43.5727 28.7832 43.4891C28.8235 43.4477 28.8716 43.4147 28.9248 43.3922C28.978 43.3697 29.0352 43.3581 29.093 43.3581C29.1507 43.3581 29.2079 43.3697 29.2611 43.3922C29.3143 43.4147 29.3625 43.4477 29.4027 43.4891L30.0325 44.1332L31.2899 42.8501ZM28.9791 34.7311C28.374 34.7311 27.8848 35.2214 27.8848 35.8255V38.5599C27.8848 39.165 28.375 39.6542 28.9791 39.6542H31.7135C32.3186 39.6542 32.8078 39.164 32.8078 38.5599V35.8255C32.8078 35.2204 32.3176 34.7311 31.7135 34.7311H28.9791ZM31.2899 36.0809C31.3301 36.0396 31.3782 36.0068 31.4313 35.9844C31.4844 35.962 31.5415 35.9505 31.5991 35.9505C31.6568 35.9505 31.7138 35.962 31.7669 35.9844C31.82 36.0068 31.8681 36.0396 31.9084 36.0809C31.9902 36.1645 32.036 36.2768 32.036 36.3937C32.036 36.5107 31.9902 36.623 31.9084 36.7065L30.3422 38.3045C30.302 38.3458 30.2539 38.3786 30.2008 38.401C30.1477 38.4234 30.0906 38.4349 30.033 38.4349C29.9753 38.4349 29.9183 38.4234 29.8652 38.401C29.8121 38.3786 29.764 38.3458 29.7237 38.3045L28.7832 37.3445C28.702 37.261 28.6566 37.1491 28.6566 37.0327C28.6566 36.9162 28.702 36.8044 28.7832 36.7209C28.8235 36.6795 28.8716 36.6465 28.9248 36.624C28.978 36.6015 29.0352 36.5899 29.093 36.5899C29.1507 36.5899 29.2079 36.6015 29.2611 36.624C29.3143 36.6465 29.3625 36.6795 29.4027 36.7209L30.0325 37.364L31.2899 36.0809ZM28.9791 27.9619C28.374 27.9619 27.8848 28.4522 27.8848 29.0563V31.7906C27.8848 32.3958 28.375 32.885 28.9791 32.885H31.7135C32.3186 32.885 32.8078 32.3947 32.8078 31.7906V29.0563C32.8078 28.4511 32.3176 27.9619 31.7135 27.9619H28.9791ZM31.2899 29.3117C31.3301 29.2704 31.3782 29.2376 31.4313 29.2152C31.4844 29.1928 31.5415 29.1812 31.5991 29.1812C31.6568 29.1812 31.7138 29.1928 31.7669 29.2152C31.82 29.2376 31.8681 29.2704 31.9084 29.3117C31.9902 29.3952 32.036 29.5075 32.036 29.6245C32.036 29.7414 31.9902 29.8537 31.9084 29.9373L30.3422 31.5352C30.302 31.5765 30.2539 31.6093 30.2008 31.6317C30.1477 31.6541 30.0906 31.6657 30.033 31.6657C29.9753 31.6657 29.9183 31.6541 29.8652 31.6317C29.8121 31.6093 29.764 31.5765 29.7237 31.5352L28.7832 30.5752C28.702 30.4918 28.6566 30.3799 28.6566 30.2635C28.6566 30.147 28.702 30.0351 28.7832 29.9517C28.8235 29.9102 28.8716 29.8773 28.9248 29.8548C28.978 29.8323 29.0352 29.8207 29.093 29.8207C29.1507 29.8207 29.2079 29.8323 29.2611 29.8548C29.3143 29.8773 29.3625 29.9102 29.4027 29.9517L30.0325 30.5947L31.2899 29.3117Z" fill="#BDBEC2"/>
<path d="M34.6543 43.5308C34.6543 43.0898 35.0133 42.7308 35.4543 42.7308H45.5466C45.9876 42.7308 46.3466 43.0898 46.3466 43.5308V44.3924C46.3466 44.8334 45.9876 45.1924 45.5466 45.1924H35.4543C35.2421 45.1924 35.0386 45.1081 34.8886 44.9581C34.7386 44.808 34.6543 44.6046 34.6543 44.3924V43.5308ZM34.6543 29.9924C34.6543 29.5514 35.0133 29.1924 35.4543 29.1924H45.5466C45.9876 29.1924 46.3466 29.5514 46.3466 29.9924V30.8539C46.3466 31.2949 45.9876 31.6539 45.5466 31.6539H35.4543C35.2421 31.6539 35.0386 31.5696 34.8886 31.4196C34.7386 31.2696 34.6543 31.0661 34.6543 30.8539V29.9924ZM46.3466 37.6231C46.3466 38.0642 45.9876 38.4232 45.5466 38.4232H35.4543C35.2421 38.4232 35.0386 38.3389 34.8886 38.1888C34.7386 38.0388 34.6543 37.8353 34.6543 37.6231V36.7616C34.6543 36.3206 35.0133 35.9616 35.4543 35.9616H45.5466C45.9876 35.9616 46.3466 36.3206 46.3466 36.7616V37.6231Z" fill="#BDBEC2"/>
<path d="M57.4229 55.6538C57.4229 57.2859 56.7746 58.8512 55.6205 60.0053C54.4664 61.1593 52.9012 61.8077 51.2691 61.8077C49.637 61.8077 48.0717 61.1593 46.9177 60.0053C45.7636 58.8512 45.1152 57.2859 45.1152 55.6538C45.1152 54.0217 45.7636 52.4565 46.9177 51.3024C48.0717 50.1483 49.637 49.5 51.2691 49.5C52.9012 49.5 54.4664 50.1483 55.6205 51.3024C56.7746 52.4565 57.4229 54.0217 57.4229 55.6538Z" fill="#262A33"/>
<path fill-rule="evenodd" clip-rule="evenodd" d="M51.2691 61.1923C52.738 61.1923 54.1467 60.6088 55.1854 59.5701C56.224 58.5315 56.8075 57.1227 56.8075 55.6538C56.8075 54.185 56.224 52.7762 55.1854 51.7376C54.1467 50.6989 52.738 50.1154 51.2691 50.1154C49.8002 50.1154 48.3915 50.6989 47.3528 51.7376C46.3141 52.7762 45.7306 54.185 45.7306 55.6538C45.7306 57.1227 46.3141 58.5315 47.3528 59.5701C48.3915 60.6088 49.8002 61.1923 51.2691 61.1923ZM51.2691 61.8077C52.9012 61.8077 54.4664 61.1593 55.6205 60.0053C56.7746 58.8512 57.4229 57.2859 57.4229 55.6538C57.4229 54.0217 56.7746 52.4565 55.6205 51.3024C54.4664 50.1483 52.9012 49.5 51.2691 49.5C49.637 49.5 48.0717 50.1483 46.9177 51.3024C45.7636 52.4565 45.1152 54.0217 45.1152 55.6538C45.1152 57.2859 45.7636 58.8512 46.9177 60.0053C48.0717 61.1593 49.637 61.8077 51.2691 61.8077Z" fill="url(#paint2_linear_6616_15294)"/>
<path d="M53.779 53.7104C53.6267 53.5521 53.4441 53.4263 53.242 53.3403C53.04 53.2543 52.8227 53.21 52.6031 53.21C52.3835 53.21 52.1662 53.2543 51.9641 53.3403C51.762 53.4263 51.5794 53.5521 51.4272 53.7104C51.4068 53.7312 51.3825 53.7478 51.3556 53.7592C51.3288 53.7705 51.2999 53.7763 51.2708 53.7763C51.2416 53.7763 51.2128 53.7705 51.1859 53.7592C51.159 53.7478 51.1347 53.7312 51.1144 53.7104C50.9621 53.5521 50.7795 53.4263 50.5774 53.3403C50.3754 53.2543 50.158 53.21 49.9385 53.21C49.7189 53.21 49.5015 53.2543 49.2995 53.3403C49.0974 53.4263 48.9148 53.5521 48.7626 53.7104C48.45 54.0347 48.2754 54.4676 48.2754 54.9181C48.2754 55.3685 48.45 55.8014 48.7626 56.1258L50.9851 58.4088C51.0223 58.447 51.0667 58.4772 51.1158 58.4979C51.1648 58.5186 51.2175 58.5293 51.2708 58.5293C51.324 58.5293 51.3767 58.5186 51.4258 58.4979C51.4748 58.4772 51.5192 58.447 51.5564 58.4088L53.779 56.1258C54.0915 55.8014 54.2661 55.3685 54.2661 54.9181C54.2661 54.4676 54.0915 54.0347 53.779 53.7104Z" fill="white"/>
</g>
</g>
<defs>
<filter id="filter0_d_6616_15294" x="11.4741" y="14.8335" width="56.2062" height="65.4357" filterUnits="userSpaceOnUse" color-interpolation-filters="sRGB">
<feFlood flood-opacity="0" result="BackgroundImageFix"/>
<feColorMatrix in="SourceAlpha" type="matrix" values="0 0 0 0 0 0 0 0 0 0 0 0 0 0 0 0 0 0 127 0" result="hardAlpha"/>
<feOffset dy="8.20513"/>
<feGaussianBlur stdDeviation="5.1282"/>
<feComposite in2="hardAlpha" operator="out"/>
<feColorMatrix type="matrix" values="0 0 0 0 0.34902 0 0 0 0 0.364706 0 0 0 0 0.4 0 0 0 0.2 0"/>
<feBlend mode="normal" in2="BackgroundImageFix" result="effect1_dropShadow_6616_15294"/>
<feBlend mode="normal" in="SourceGraphic" in2="effect1_dropShadow_6616_15294" result="shape"/>
</filter>
<linearGradient id="paint0_linear_6616_15294" x1="31.4474" y1="55.9617" x2="32.0053" y2="8.43348" gradientUnits="userSpaceOnUse">
<stop stop-color="white"/>
<stop offset="1" stop-color="#EEEFF0"/>
</linearGradient>
<linearGradient id="paint1_linear_6616_15294" x1="37.1151" y1="16.8848" x2="37.1151" y2="56.8848" gradientUnits="userSpaceOnUse">
<stop stop-color="#DEDFE0"/>
<stop offset="1" stop-color="#EEEFF0"/>
</linearGradient>
<linearGradient id="paint2_linear_6616_15294" x1="51.2691" y1="49.5" x2="51.2691" y2="61.8077" gradientUnits="userSpaceOnUse">
<stop stop-color="#595D66"/>
<stop offset="1" stop-color="#1D2026"/>
</linearGradient>
<clipPath id="clip0_6616_15294">
<rect width="73.8462" height="80" fill="white" transform="translate(0.191406 0.269531)"/>
</clipPath>
</defs>
</svg>
