<svg width="17" height="17" viewBox="0 0 17 17" fill="none" xmlns="http://www.w3.org/2000/svg">
<path fill-rule="evenodd" clip-rule="evenodd" d="M4.95052 2.77018C4.95052 2.59337 4.88028 2.4238 4.75526 2.29878C4.63023 2.17375 4.46067 2.10352 4.28385 2.10352C4.10704 2.10352 3.93747 2.17375 3.81245 2.29878C3.68743 2.4238 3.61719 2.59337 3.61719 2.77018V14.7702C3.61719 14.947 3.68743 15.1166 3.81245 15.2416C3.93747 15.3666 4.10704 15.4368 4.28385 15.4368C4.46067 15.4368 4.63023 15.3666 4.75526 15.2416C4.88028 15.1166 4.95052 14.947 4.95052 14.7702V10.7702H13.6172C13.7351 10.7702 13.851 10.7389 13.9529 10.6796C14.0548 10.6202 14.1392 10.5348 14.1973 10.4322C14.2555 10.3296 14.2854 10.2134 14.2839 10.0954C14.2825 9.97748 14.2498 9.86203 14.1892 9.76085L12.3945 6.77018L14.1892 3.77952C14.2498 3.67834 14.2825 3.56288 14.2839 3.44494C14.2854 3.32699 14.2555 3.21078 14.1973 3.10815C14.1392 3.00553 14.0548 2.92018 13.9529 2.8608C13.851 2.80143 13.7351 2.77016 13.6172 2.77018H4.95052ZM4.95052 4.10352V9.43685H12.4399L11.0452 7.11285C10.9831 7.00932 10.9504 6.89088 10.9504 6.77018C10.9504 6.64948 10.9831 6.53105 11.0452 6.42752L12.4405 4.10352H4.95052Z" fill="#656F7D"/>
</svg>
