<svg width="19" height="19" viewBox="0 0 19 19" fill="none" xmlns="http://www.w3.org/2000/svg">
<path fill-rule="evenodd" clip-rule="evenodd" d="M13.637 3.23528C14.0602 2.81905 14.6307 2.58689 15.2242 2.58938C15.8178 2.59186 16.3863 2.82879 16.806 3.24855C17.2257 3.66831 17.4625 4.2369 17.4648 4.83046C17.4671 5.42402 17.2349 5.99446 16.8185 6.41753L13.4773 9.75878C13.243 9.99334 12.9376 10.1437 12.6088 10.1863L11.3908 10.343C11.1632 10.3725 10.9318 10.3493 10.7146 10.2753C10.4974 10.2012 10.3 10.0784 10.1377 9.91608C9.97544 9.75379 9.85256 9.55644 9.77854 9.3392C9.70452 9.12196 9.68133 8.89063 9.71077 8.66303L9.86827 7.44578C9.91072 7.11672 10.0611 6.81102 10.2958 6.57653L13.637 3.23528ZM15.758 4.29578C15.6174 4.15517 15.4266 4.07619 15.2278 4.07619C15.0289 4.07619 14.8382 4.15517 14.6975 4.29578L11.3555 7.63703L11.198 8.85503L12.416 8.69753L15.758 5.35703C15.8278 5.28737 15.8831 5.20466 15.9208 5.11361C15.9586 5.02256 15.978 4.92496 15.978 4.8264C15.978 4.72784 15.9586 4.63025 15.9208 4.5392C15.8831 4.44815 15.8278 4.36543 15.758 4.29578ZM3.45802 4.20578C3.20938 4.20578 2.97092 4.30455 2.79511 4.48036C2.61929 4.65618 2.52052 4.89464 2.52052 5.14328V7.03478L3.70927 5.97803C4.1708 5.57602 4.77234 5.37243 5.38315 5.4115C5.99397 5.45057 6.56467 5.72915 6.97121 6.18669C7.37776 6.64422 7.58728 7.24373 7.55424 7.85489C7.5212 8.46606 7.24827 9.03949 6.79477 9.45053L6.11752 10.0528C6.03722 10.1231 5.97192 10.2089 5.92553 10.3051C5.87913 10.4012 5.8526 10.5057 5.84751 10.6123C5.84241 10.719 5.85887 10.8255 5.89589 10.9257C5.93291 11.0258 5.98973 11.1174 6.06296 11.1951C6.1362 11.2728 6.22434 11.3349 6.32211 11.3777C6.41989 11.4206 6.5253 11.4433 6.63205 11.4444C6.73879 11.4456 6.84468 11.4253 6.94339 11.3846C7.04209 11.3439 7.13158 11.2838 7.20652 11.2078L7.98952 10.4248C8.13015 10.284 8.32093 10.2049 8.51988 10.2049C8.71883 10.2048 8.90967 10.2838 9.0504 10.4244C9.19113 10.565 9.27023 10.7558 9.2703 10.9548C9.27037 11.1537 9.1914 11.3445 9.05077 11.4853L8.26702 12.2683C8.04984 12.4848 7.79144 12.6556 7.5071 12.7706C7.22277 12.8856 6.91827 12.9424 6.61161 12.9376C6.30495 12.9329 6.00235 12.8667 5.72171 12.743C5.44107 12.6193 5.18808 12.4405 4.9777 12.2174C4.76732 11.9942 4.60383 11.7311 4.49688 11.4437C4.38992 11.1562 4.34169 10.8503 4.35503 10.5439C4.36837 10.2375 4.44301 9.93683 4.57453 9.65976C4.70605 9.3827 4.8918 9.13482 5.12077 8.93078L5.79877 8.32928C5.87953 8.25748 5.94536 8.17047 5.9925 8.07323C6.03964 7.97599 6.06716 7.87042 6.0735 7.76254C6.07984 7.65466 6.06487 7.54659 6.02944 7.4445C5.99401 7.3424 5.93882 7.24829 5.86702 7.16753C5.79522 7.08676 5.70822 7.02093 5.61097 6.9738C5.51373 6.92666 5.40816 6.89913 5.30028 6.8928C5.1924 6.88646 5.08433 6.90143 4.98224 6.93686C4.88015 6.97229 4.78603 7.02748 4.70527 7.09928L2.51977 9.04178V13.0175C2.51977 13.535 2.93977 13.955 3.45727 13.955H13.5823C14.0998 13.955 14.5198 13.535 14.5198 13.0175V10.6745C14.5198 10.4756 14.5988 10.2848 14.7394 10.1442C14.8801 10.0035 15.0709 9.92453 15.2698 9.92453C15.4687 9.92453 15.6594 10.0035 15.8001 10.1442C15.9408 10.2848 16.0198 10.4756 16.0198 10.6745V13.0183C16.0198 13.6647 15.763 14.2847 15.3058 14.7419C14.8487 15.199 14.2287 15.4558 13.5823 15.4558H3.45802C2.81156 15.4558 2.19157 15.199 1.73445 14.7419C1.27733 14.2847 1.02052 13.6647 1.02052 13.0183V8.70953C1.0205 8.70703 1.0205 8.70453 1.02052 8.70203V5.14328C1.02052 4.49681 1.27733 3.87682 1.73445 3.4197C2.19157 2.96258 2.81156 2.70578 3.45802 2.70578H10.2253C10.4242 2.70578 10.6149 2.78479 10.7556 2.92545C10.8963 3.0661 10.9753 3.25686 10.9753 3.45578C10.9753 3.65469 10.8963 3.84545 10.7556 3.98611C10.6149 4.12676 10.4242 4.20578 10.2253 4.20578H3.45802Z" fill="#E16B16"/>
</svg>
