<svg width="370" height="352" viewBox="0 0 370 352" fill="none" xmlns="http://www.w3.org/2000/svg">
<g clip-path="url(#clip0_6616_23937)">
<path fill-rule="evenodd" clip-rule="evenodd" d="M311.707 4.88813C347.09 17.2169 367.743 52.2664 369.586 96.2189C374.836 221.591 265.883 378.542 133.495 347.115C58.5373 329.319 -15.4832 234.986 2.50756 151.319C13.9487 98.1103 50.7649 74.9675 92.6677 63.6476C114.093 57.8599 135.989 61.0311 156.695 51.9219C176.389 43.259 193.081 29.7773 211.749 19.0868C240.889 2.40032 276.351 -5.87635 308.51 3.84846C309.589 4.17479 310.654 4.52147 311.707 4.88813Z" fill="#F8F8F8"/>
<path fill-rule="evenodd" clip-rule="evenodd" d="M213.387 323.906C212.875 322.958 206.218 322.505 204.081 322.282C195.845 321.423 187.216 321.136 178.637 321.036C163.307 320.857 147.976 321.178 132.644 321.134C108.52 321.065 84.4929 321.066 60.397 322.014C57.9972 322.109 53.089 322.127 52.6128 323.22C52.0252 324.569 55.4717 325.431 58.728 325.871C69.0747 327.273 81.2407 327.647 92.2586 327.958C115.764 328.631 139.298 327.628 162.739 327.044C166.681 326.944 214.323 325.642 213.387 323.906Z" fill="#EEEEEE"/>
<path fill-rule="evenodd" clip-rule="evenodd" d="M51.918 213.562C52.4385 217.746 53.6924 221.8 54.9571 225.822C60.03 241.956 65.6335 257.916 71.3343 273.837C76.9481 289.515 82.4628 305.213 90.6266 319.797C91.7958 321.885 93.2269 324.135 95.539 324.753C98.0209 325.415 100.671 323.828 102.017 321.641C103.491 319.244 103.726 316.31 103.864 313.499C104.614 298.195 103.372 282.82 102.402 267.545L101.399 251.767C101.05 246.267 101.154 242.32 102.442 237.008C104.862 227.019 105.728 216.655 104.988 206.404L51.918 213.562Z" fill="#CACEDE"/>
<path fill-rule="evenodd" clip-rule="evenodd" d="M51.6091 217.242C52.9552 223.396 55.0978 229.397 57.0554 235.377C59.0474 241.461 61.1031 247.525 63.1994 253.574C67.3126 265.442 71.4761 277.306 75.8804 289.07C78.0249 294.797 80.2778 300.487 82.7726 306.072C85.1054 311.293 87.5262 316.686 90.5994 321.524C92.8785 325.112 96.6983 326.78 100.495 324.201C104.878 321.221 104.73 315.209 104.885 310.501C105.363 296.084 104.213 281.681 103.296 267.305C103.249 266.567 101.457 266.974 101.509 267.784C102.28 279.876 103.213 291.974 103.193 304.099C103.19 306.774 103.136 309.449 103.028 312.122C102.914 314.909 102.901 317.916 101.729 320.505C100.562 323.084 97.6658 325.389 94.8639 323.658C92.7501 322.352 91.5787 319.686 90.4418 317.588C85.0736 307.677 80.8479 297.2 76.9423 286.642C72.9919 275.963 69.2007 265.219 65.4619 254.464C63.3197 248.303 61.2178 242.128 59.181 235.931C57.1046 229.613 54.8188 223.268 53.3962 216.763C53.2293 216.001 51.4382 216.461 51.6091 217.242Z" fill="#5D7183"/>
<path fill-rule="evenodd" clip-rule="evenodd" d="M100.771 209.868C103.132 226.983 100.256 243.955 98.4187 260.981C97.2088 272.188 91.3452 283.382 85.5094 292.861C83.2643 296.508 62.3432 324.42 76.4206 323.569C81.2019 323.278 86.1432 319.826 89.9903 317.235C101.249 309.654 111.377 300.399 119.949 289.876C138.64 266.932 148.588 235.415 145.878 205.896L100.771 209.868Z" fill="#CACEDE"/>
<path fill-rule="evenodd" clip-rule="evenodd" d="M100.565 233.057C99.4961 243.039 98.7664 253.088 96.784 262.946C95.0651 271.493 92.0445 279.656 87.9109 287.328C83.6587 295.222 77.9519 302.201 73.8824 310.208C72.3403 313.243 70.2007 317.26 70.7531 320.806C71.328 324.498 75.7457 324.214 78.5151 323.57C82.246 322.7 85.5937 320.666 88.7534 318.572C92.2727 316.24 95.7155 313.8 99.0313 311.186C105.841 305.817 112.152 299.822 117.847 293.281C130.517 278.73 139.372 261.276 143.931 242.541C144.034 242.118 142.279 242.373 142.165 242.843C138.251 258.929 131.185 274.31 121.089 287.463C111.147 300.415 98.4083 312.247 84.2403 320.457C81.5242 322.031 73.195 325.938 72.5146 320.13C72.0928 316.528 74.2931 312.517 75.8867 309.442C79.5895 302.296 84.6169 296.005 88.5729 289.023C93.1848 280.882 96.6068 272.174 98.4782 262.997C100.523 252.968 101.264 242.738 102.352 232.578C102.381 232.311 100.626 232.494 100.565 233.057ZM66.665 237.263C71.0283 234.476 74.0293 230.147 75.1689 225.105C75.3713 224.209 73.5406 224.409 73.3552 225.229C72.3015 229.892 69.4914 233.837 65.4689 236.406C64.4536 237.055 65.9103 237.745 66.665 237.263Z" fill="#5D7183"/>
<path fill-rule="evenodd" clip-rule="evenodd" d="M132.545 119.964C135.338 112.76 138.65 106.523 142.922 99.9047C147.995 92.0432 156.531 81.8992 156.541 72.1999C156.548 66.5524 154.298 58.8081 149.125 55.9374C143.287 52.6974 135.609 53.2624 129.705 55.9703C115.386 62.5373 105.646 75.5047 96.62 87.8978C87.0577 101.027 75.6287 112.549 67.4967 126.719C58.7439 141.971 52.5088 159.431 50.2441 176.902C48.6287 189.363 50.1594 201.991 51.6896 214.462C51.8121 215.462 64.8727 217.322 66.3327 217.551C71.1544 218.308 75.8736 218.459 80.7434 218.508L112.485 218.827C120.126 218.904 127.779 218.981 135.397 218.383C139.818 218.035 144.284 217.445 148.379 215.741C150.971 204.567 145.747 191.508 142.619 180.814C139.238 169.252 135.421 157.809 132.601 146.089C130.656 138.007 129.144 128.985 132.162 120.966C132.289 120.63 132.416 120.296 132.545 119.964Z" fill="white"/>
<path fill-rule="evenodd" clip-rule="evenodd" d="M88.961 105.151C94.2449 121.09 111.631 127.422 127.157 125.758C128.137 125.653 128.546 124.357 127.326 124.488C112.417 126.086 95.8144 119.956 90.7477 104.672C90.485 103.88 88.7028 104.372 88.961 105.151Z" fill="#5D7183"/>
<path fill-rule="evenodd" clip-rule="evenodd" d="M103.902 124.019C100.451 129.418 98.0279 135.334 96.7296 141.611C96.6086 142.197 98.3942 141.907 98.5082 141.356C99.7876 135.17 102.148 129.323 105.55 123.998C105.955 123.365 104.186 123.573 103.902 124.019ZM76.0557 143.992C75.3901 148.296 73.5883 152.258 72.3947 156.418C71.9204 158.071 71.6543 158.796 73.4347 159.314C75.5731 159.934 77.7341 160.473 79.9132 160.93C81.8246 161.333 85.9293 162.994 86.9589 160.431C88.6546 156.211 89.776 151.652 91.1661 147.32C91.2634 147.016 89.5485 147.203 89.4064 147.645L87.141 154.705C86.4439 156.879 85.9892 159.564 84.8337 161.532L85.6451 161.113C84.9799 161.307 83.1011 160.606 82.4199 160.471C81.2707 160.242 80.1259 159.992 78.9864 159.719C77.8531 159.448 76.6925 159.198 75.5844 158.835C75.1377 158.762 74.713 158.59 74.3416 158.332C73.7551 158.232 73.5794 157.906 73.8143 157.353C73.777 156.887 74.1177 156.216 74.2468 155.78C75.4578 151.681 77.1853 147.762 77.8428 143.513C77.8683 143.347 76.1375 143.464 76.0557 143.992ZM108.491 87.3262C107.797 89.0822 107.687 90.8311 109.179 92.1113C110.658 93.3811 113.01 93.0891 114.609 91.9736C116.208 90.8585 117.231 89.1129 118.204 87.4227C117.666 87.0291 111.147 82.7675 111.554 82.1016C110.739 83.4346 109.258 85.3845 108.491 87.3262Z" fill="#5D7183"/>
<path fill-rule="evenodd" clip-rule="evenodd" d="M111.38 53.5448C109.445 56.3715 108.216 59.9301 109.57 63.2633C112.261 69.8913 120.949 69.6649 125.876 65.9006C123.486 70.5814 125.634 76.8823 130.158 79.5573C134.681 82.2323 140.87 81.3196 144.798 77.8276C142.533 80.5026 143.038 84.9144 145.566 87.3419C148.094 89.7697 152.159 90.2145 155.376 88.8218C158.792 87.343 161.268 84.0542 162.248 80.5182C162.538 79.4718 162.934 70.1203 160.392 70.7993C163.622 69.9365 166.294 67.2429 167.131 64.0066C167.968 60.7707 166.937 57.1193 164.531 54.7991C161.893 52.2547 157.033 51.7185 154.794 54.62C156.333 49.9541 153.318 44.3073 148.584 42.9909C143.85 41.6744 138.353 44.9533 137.262 49.7435C135.974 46.6871 132.437 43.7867 128.931 44.2089C127.394 44.3939 121.294 48.3183 123.733 50.4476C119.45 46.7096 114.302 49.2755 111.38 53.5448Z" fill="#96E296"/>
<path fill-rule="evenodd" clip-rule="evenodd" d="M139.967 168.801C137.721 161.428 135.492 154.043 133.664 146.552C131.952 139.539 130.492 132.119 131.901 124.92C133.222 118.172 136.848 111.516 140.248 105.607C143.588 99.8003 147.628 94.478 151.185 88.8123C154.26 83.9118 157.24 78.4164 157.425 72.4991C157.581 67.5072 156.159 61.8427 152.844 58.0011C149.245 53.8313 142.998 52.873 137.787 53.4006C131.932 53.9934 126.621 56.6813 121.798 59.9258C111.36 66.9485 103.638 77.1625 96.3114 87.2055C88.0217 98.5682 78.3214 108.867 70.5009 120.576C62.7293 132.212 56.9326 145.336 53.1295 158.785C51.1479 165.792 49.6413 173.009 49.0045 180.27C48.347 187.769 48.7159 195.313 49.4392 202.792C49.6158 204.601 49.8084 206.408 50.0172 208.213C50.2347 210.112 50.1382 212.531 50.7512 214.341C51.0986 215.368 52.0654 215.466 53.1047 215.733C56.7358 216.665 60.4864 217.188 64.1889 217.75C70.0665 218.64 75.9157 218.912 81.8559 218.972L105.477 219.209C109.347 219.248 113.217 219.294 117.087 219.319C117.687 219.323 119.009 218.429 117.814 218.421C110.253 218.372 102.691 218.276 95.1307 218.2C87.6503 218.124 80.1084 218.312 72.6446 217.762C68.6117 217.465 64.5944 216.799 60.6089 216.125C58.7752 215.814 56.9389 215.493 55.1267 215.074C54.5074 214.931 53.7126 214.831 53.1454 214.523C52.2671 214.046 52.4976 213.537 52.3618 212.423C51.469 205.1 50.6269 197.755 50.4726 190.372C50.3191 183.032 51.0454 175.787 52.4791 168.592C55.1578 155.148 59.9736 142.125 66.4584 130.057C72.9055 118.059 81.6994 107.787 90.2073 97.2392C97.9752 87.6091 104.656 77.0389 113.439 68.2598C121.884 59.8181 135.973 49.367 148.288 56.2821C152.901 58.8721 154.894 64.6613 155.479 69.6343C156.183 75.6281 154.008 81.1643 151.076 86.2857C148.027 91.6113 144.241 96.4652 140.989 101.663C137.509 107.227 134.461 113.047 132.028 119.146C129.575 125.3 129.135 131.468 130.058 138.005C131.057 145.083 133.087 152.041 135.072 158.894C136.077 162.365 137.127 165.823 138.18 169.28C138.344 169.819 140.126 169.325 139.967 168.801Z" fill="#5D7183"/>
<path fill-rule="evenodd" clip-rule="evenodd" d="M133.374 152.841C135.487 159.841 140.039 166.163 146.684 169.464C152.176 172.191 158.803 172.392 164.021 168.918C171.515 163.926 172.084 154.115 171.251 145.974C170.166 135.377 165.964 125.4 161.453 115.858C158.899 110.455 155.782 105.138 154.021 99.4076C153.199 96.7315 152.629 93.7904 153.144 91.0007C153.603 88.5092 155.097 85.5508 157.942 85.419C158.964 85.3717 159.31 84.0275 158.093 84.0837C154.677 84.2421 152.447 86.9734 151.575 90.0913C150.353 94.4653 151.82 99.2996 153.504 103.339C157.498 112.921 162.754 121.882 166.101 131.753C167.718 136.521 168.952 141.437 169.464 146.453C169.954 151.253 169.983 156.492 168.278 161.077C165.658 168.121 158.488 171.596 151.325 169.638C143.209 167.419 137.514 160.155 135.161 152.362C134.909 151.527 133.123 152.01 133.374 152.841ZM94.3592 135.358L94.3896 135.449C94.5568 135.905 95.6934 136.847 96.1104 136.209C96.2567 135.983 96.3543 135.729 96.3971 135.462C96.4399 135.196 96.427 134.924 96.359 134.663C95.6002 134.177 94.0299 134.236 94.3592 135.358ZM97.8249 128.529L97.7302 128.544C97.2525 128.634 96.1374 129.601 96.6979 130.117C96.8973 130.298 97.1323 130.436 97.3879 130.522C97.6435 130.608 97.9142 130.64 98.1827 130.615C98.7861 129.946 98.9856 128.387 97.8249 128.529Z" fill="#5D7183"/>
<path fill-rule="evenodd" clip-rule="evenodd" d="M325.91 216.746H233.413C230.348 216.746 227.863 214.261 227.863 211.196V88.6182C227.863 85.5528 230.348 83.0684 233.413 83.0684H325.91C328.976 83.0684 331.461 85.5528 331.461 88.6182V211.196C331.461 214.261 328.976 216.746 325.91 216.746Z" fill="white"/>
<path fill-rule="evenodd" clip-rule="evenodd" d="M300.01 240.14H207.513C204.448 240.14 201.963 237.655 201.963 234.59V112.012C201.963 108.946 204.448 106.462 207.513 106.462H300.01C303.075 106.462 305.56 108.946 305.56 112.012V234.59C305.56 237.655 303.075 240.14 300.01 240.14Z" fill="white"/>
<path fill-rule="evenodd" clip-rule="evenodd" d="M274.112 263.533H181.614C178.549 263.533 176.064 261.049 176.064 257.984V135.405C176.064 132.34 178.549 129.855 181.614 129.855H274.112C277.177 129.855 279.662 132.34 279.662 135.405V257.984C279.662 261.049 277.177 263.533 274.112 263.533Z" fill="white"/>
<path fill-rule="evenodd" clip-rule="evenodd" d="M268.22 83.5992H322.443C324.912 83.5992 327.527 83.2544 329.326 85.3989C330.593 86.9088 330.564 88.5712 330.564 90.3641V210.503C330.564 213.37 329.268 216.092 325.981 216.214C321.964 216.363 317.913 216.214 313.893 216.214H310.29C309.585 216.214 308.405 217.277 309.608 217.277H320.818C324.55 217.277 329.063 217.892 331.408 214.23C332.385 212.704 332.355 211.142 332.355 209.449V99.783C332.355 96.0868 332.41 92.3861 332.355 88.6903C332.301 85.0822 329.645 82.6339 326.098 82.5359C324.053 82.4793 321.998 82.5359 319.952 82.5359H268.902C268.197 82.5359 267.017 83.5992 268.22 83.5992Z" fill="#CFCFCF"/>
<path fill-rule="evenodd" clip-rule="evenodd" d="M202.858 125.322V116.281C202.858 112.797 202.217 107.296 207.179 106.994C209.94 106.826 212.763 106.994 215.526 106.994H297.402C298.154 106.994 298.912 106.965 299.664 106.994C303.226 107.131 304.664 110.128 304.664 113.229V170.991C304.664 171.767 306.455 171.405 306.455 170.782V114.297C306.455 112.669 306.624 110.904 305.919 109.394C304.759 106.909 302.31 105.946 299.732 105.931C288.131 105.858 276.528 105.931 264.927 105.931H217.952C214.62 105.931 211.281 105.869 207.949 105.931C204.309 105.997 201.188 108.448 201.067 112.232C200.959 115.64 201.067 119.069 201.067 122.479V125.531C201.067 126.308 202.858 125.945 202.858 125.322ZM278.765 242.796V256.815C278.765 259.683 277.896 262.794 274.427 263.002C273.915 263.033 273.391 263.002 272.878 263.002H184.887C181.739 263.002 178.227 263.117 177.155 259.22C176.624 257.289 176.959 254.923 176.959 252.953V242.587C176.959 241.811 175.168 242.173 175.168 242.796V257.302C175.168 261.631 178.015 264.065 182.19 264.065H271.747C275.087 264.065 278.657 263.638 280.115 260.037C280.908 258.08 280.556 255.532 280.556 253.469V242.587C280.556 241.811 278.765 242.173 278.765 242.796Z" fill="#CFCFCF"/>
<path fill-rule="evenodd" clip-rule="evenodd" d="M176.959 168.936C176.959 157.799 176.658 146.621 176.959 135.488C177.036 132.639 178.838 130.412 181.763 130.387C183.041 130.375 184.32 130.387 185.598 130.387H266.607C269.188 130.387 272.253 129.931 274.805 130.505C278.474 131.328 278.765 134.73 278.765 137.75V168.907C278.765 169.683 280.556 169.321 280.556 168.697C280.556 157.586 280.947 146.404 280.556 135.301C280.43 131.718 277.706 129.403 274.217 129.324C273.071 129.298 271.922 129.324 270.775 129.324H188.005C185.093 129.324 181.108 128.751 178.462 130.211C175.695 131.739 175.168 134.331 175.168 137.185V169.145C175.168 169.922 176.959 169.56 176.959 168.936Z" fill="#CFCFCF"/>
<path fill-rule="evenodd" clip-rule="evenodd" d="M300.332 239.941H126.437C123.372 239.941 120.887 237.457 120.887 234.392V177.413C120.887 174.348 123.372 171.863 126.437 171.863H300.332C303.397 171.863 305.881 174.348 305.881 177.413V234.392C305.881 237.457 303.397 239.941 300.332 239.941Z" fill="white"/>
<path fill-rule="evenodd" clip-rule="evenodd" d="M300.916 239.595H129.33C128.563 239.595 127.788 239.628 127.022 239.595C123.914 239.462 121.877 236.998 121.78 233.999C121.752 233.118 121.78 232.23 121.78 231.349C121.78 213.467 121.622 195.577 121.78 177.695C121.806 174.827 123.402 172.311 126.443 172.21C127.888 172.162 129.343 172.21 130.789 172.21H294.812C296.26 172.21 297.709 172.19 299.157 172.21C302.462 172.256 304.899 174.459 304.988 177.853C305.192 185.614 304.988 193.407 304.988 201.17V231.007C304.988 234.142 305.445 239.392 300.916 239.595C300.561 239.611 298.917 240.325 299.748 240.288C302.851 240.149 306.046 238.544 306.672 235.225C306.823 234.421 306.775 233.578 306.775 232.763V178.054C306.775 174.43 304.663 171.607 300.812 171.517C297.314 171.435 293.804 171.517 290.305 171.517H165.675C152.973 171.517 140.266 171.417 127.564 171.517C124.263 171.543 120.72 173.025 120.083 176.655C119.697 178.857 119.994 181.314 119.994 183.531V229.883C119.994 232.371 119.504 235.689 121.009 237.832C123.366 241.188 128.777 240.288 132.363 240.288H299.748C300.108 240.288 301.76 239.595 300.916 239.595Z" fill="#5D7183"/>
<path fill-rule="evenodd" clip-rule="evenodd" d="M285.533 217.002H141.237C138.172 217.002 135.688 214.517 135.688 211.452V200.353C135.688 197.288 138.172 194.803 141.237 194.803H285.533C288.598 194.803 291.083 197.288 291.083 200.353V211.452C291.083 214.517 288.598 217.002 285.533 217.002Z" fill="white"/>
<path fill-rule="evenodd" clip-rule="evenodd" d="M157.887 217.002H141.237C138.172 217.002 135.688 214.518 135.688 211.452V200.353C135.688 197.288 138.172 194.803 141.237 194.803H157.887V217.002Z" fill="#79D379"/>
<path fill-rule="evenodd" clip-rule="evenodd" d="M158.47 216.656H142.891C139.404 216.656 136.692 214.743 136.58 211.019C136.493 208.137 136.58 205.24 136.58 202.357C136.58 199.163 136.913 195.431 141.018 195.149C143.704 194.965 146.469 195.149 149.16 195.149H154.129C155.041 195.149 156.192 194.959 157.09 195.149C157.499 195.236 156.963 194.945 156.993 195.115C157.039 195.378 156.993 195.69 156.993 195.956V217.242C156.993 217.485 158.779 217.246 158.779 216.763V194.564C158.779 194.464 158.501 194.457 158.47 194.457H146.247C142.317 194.457 137.123 193.923 135.248 198.359C134.511 200.103 134.793 202.3 134.793 204.148C134.793 206.482 134.772 208.818 134.793 211.153C134.817 213.75 135.996 216.065 138.562 216.988C140.101 217.542 141.924 217.349 143.534 217.349H157.302C157.662 217.349 159.314 216.656 158.47 216.656Z" fill="#5D7183"/>
<path fill-rule="evenodd" clip-rule="evenodd" d="M157.887 217.002H180.086V194.803H157.887V217.002Z" fill="#96E296"/>
<path fill-rule="evenodd" clip-rule="evenodd" d="M180.669 216.656H161.271C160.665 216.656 159.094 216.955 158.542 216.656C158.78 216.785 158.719 216.764 158.779 216.431C158.864 215.96 158.779 215.385 158.779 214.908V194.564L157.301 195.15H176.699C177.306 195.15 178.876 194.851 179.428 195.15C179.19 195.021 179.251 195.042 179.192 195.375C179.106 195.846 179.192 196.422 179.192 196.898V217.242C179.192 217.486 180.978 217.247 180.978 216.763V194.564C180.978 194.465 180.7 194.457 180.669 194.457H158.47C158.171 194.457 156.992 194.605 156.992 195.043V217.242C156.992 217.342 157.27 217.349 157.301 217.349H179.5C179.86 217.349 181.512 216.656 180.669 216.656Z" fill="#5D7183"/>
<path fill-rule="evenodd" clip-rule="evenodd" d="M180.086 217.002H202.285V194.803H180.086V217.002Z" fill="#ABEFAB"/>
<path fill-rule="evenodd" clip-rule="evenodd" d="M202.869 216.656H183.67C183.059 216.656 181.284 216.982 180.74 216.656C180.894 216.749 180.939 216.801 180.978 216.481C181.032 216.042 180.978 215.561 180.978 215.119V194.564L179.5 195.15H198.699C199.31 195.15 201.084 194.824 201.629 195.15C201.474 195.058 201.43 195.005 201.391 195.326C201.337 195.765 201.391 196.246 201.391 196.687V217.242C201.391 217.486 203.177 217.247 203.177 216.763V194.564C203.177 194.465 202.899 194.457 202.869 194.457H180.669C180.37 194.457 179.191 194.605 179.191 195.043V217.242C179.191 217.342 179.47 217.349 179.5 217.349H201.7C202.06 217.349 203.712 216.656 202.869 216.656Z" fill="#5D7183"/>
<path fill-rule="evenodd" clip-rule="evenodd" d="M202.285 217.002H224.485V194.803H202.285V217.002Z" fill="#B9F7BA"/>
<path fill-rule="evenodd" clip-rule="evenodd" d="M225.07 216.656H205.672C205.065 216.656 203.495 216.955 202.942 216.656C203.18 216.785 203.119 216.764 203.179 216.431C203.264 215.96 203.179 215.385 203.179 214.908V194.564L201.702 195.15H221.099C221.706 195.15 223.276 194.851 223.828 195.15C223.591 195.021 223.652 195.042 223.592 195.375C223.506 195.846 223.592 196.422 223.592 196.898V217.242C223.592 217.485 225.379 217.247 225.379 216.763V194.564C225.379 194.465 225.1 194.457 225.07 194.457H202.87C202.571 194.457 201.393 194.605 201.393 195.043V217.242C201.393 217.342 201.671 217.349 201.702 217.349H223.901C224.261 217.349 225.913 216.656 225.07 216.656Z" fill="#5D7183"/>
<path fill-rule="evenodd" clip-rule="evenodd" d="M225.959 216.789C225.742 216.789 225.541 216.775 225.377 216.739V216.431C225.462 215.96 225.377 215.385 225.377 214.908V195.149H243.297C243.701 195.149 244.534 195.017 245.208 195.017C245.452 195.017 245.675 195.034 245.849 195.081C245.819 195.102 245.823 195.191 245.79 195.375C245.704 195.846 245.79 196.421 245.79 196.898V216.656H227.87C227.465 216.656 226.632 216.789 225.959 216.789Z" fill="#DCFBDC"/>
<path fill-rule="evenodd" clip-rule="evenodd" d="M225.378 216.739C225.358 216.735 225.338 216.73 225.318 216.724C225.348 216.703 225.345 216.615 225.378 216.431V216.739Z" fill="#8BB49F"/>
<path fill-rule="evenodd" clip-rule="evenodd" d="M246.1 217.349H223.9C223.93 217.349 223.968 217.345 224.012 217.336C224.399 217.318 224.952 217.197 225.221 217.003H247.42C247.152 217.197 246.599 217.318 246.211 217.336C246.167 217.345 246.129 217.349 246.1 217.349ZM247.577 194.803H225.378V194.564C225.378 194.465 225.1 194.457 225.069 194.457H247.269C247.299 194.457 247.577 194.465 247.577 194.564V194.803Z" fill="#AEB8C1"/>
<path fill-rule="evenodd" clip-rule="evenodd" d="M247.42 217.002H225.221C225.318 216.932 225.378 216.851 225.378 216.763V216.739C225.543 216.775 225.743 216.789 225.96 216.789C226.634 216.789 227.467 216.656 227.871 216.656H245.791V196.898C245.791 196.421 245.706 195.845 245.791 195.375C245.824 195.191 245.82 195.102 245.85 195.081C245.676 195.034 245.453 195.016 245.209 195.016C244.536 195.016 243.703 195.149 243.298 195.149H225.378V214.908C225.378 215.384 225.463 215.96 225.378 216.43V194.803H247.578V216.763C247.578 216.851 247.518 216.932 247.42 217.002Z" fill="#AEB8C1"/>
<path fill-rule="evenodd" clip-rule="evenodd" d="M223.59 195.375V195.066C223.611 195.071 223.63 195.076 223.649 195.081C223.619 195.102 223.623 195.191 223.59 195.375Z" fill="#8BB49E"/>
<path fill-rule="evenodd" clip-rule="evenodd" d="M223.899 217.349C223.868 217.349 223.59 217.342 223.59 217.242V195.375C223.623 195.191 223.619 195.103 223.649 195.082C223.63 195.076 223.61 195.071 223.59 195.067V195.043C223.59 194.605 224.769 194.457 225.068 194.457C225.098 194.457 225.377 194.465 225.377 194.564V216.431C225.344 216.615 225.347 216.704 225.317 216.724C225.337 216.73 225.357 216.735 225.377 216.739V216.763C225.377 216.852 225.317 216.932 225.219 217.003C224.951 217.197 224.398 217.318 224.011 217.336C223.966 217.345 223.928 217.349 223.899 217.349Z" fill="#5D7183"/>
<path fill-rule="evenodd" clip-rule="evenodd" d="M246.684 217.002H268.883V194.803H246.684V217.002Z" fill="white"/>
<path fill-rule="evenodd" clip-rule="evenodd" d="M269.468 216.656H250.07C249.464 216.656 247.893 216.955 247.341 216.656C247.579 216.785 247.517 216.764 247.578 216.431C247.663 215.96 247.578 215.385 247.578 214.908V194.564L246.1 195.15H265.498C266.105 195.15 267.674 194.851 268.227 195.15C267.989 195.021 268.05 195.042 267.99 195.375C267.905 195.846 267.99 196.422 267.99 196.898V217.242C267.99 217.486 269.777 217.247 269.777 216.763V194.564C269.777 194.465 269.498 194.457 269.468 194.457H247.269C246.969 194.457 245.791 194.605 245.791 195.043V217.242C245.791 217.342 246.069 217.349 246.1 217.349H268.299C268.659 217.349 270.311 216.656 269.468 216.656Z" fill="#5D7183"/>
<path fill-rule="evenodd" clip-rule="evenodd" d="M285.532 217.002H268.883V194.803H285.532C288.598 194.803 291.082 197.288 291.082 200.353V211.452C291.082 214.518 288.598 217.002 285.532 217.002Z" fill="white"/>
<path fill-rule="evenodd" clip-rule="evenodd" d="M286.118 216.656H279.073C276.085 216.656 272.937 216.366 269.961 216.656C269.333 216.717 269.734 216.541 269.777 216.742C269.736 216.551 269.76 216.262 269.777 216.071C269.878 214.926 269.777 213.725 269.777 212.575V194.563L268.299 195.149H283.122C286.182 195.149 289.235 195.846 290.046 199.355C290.588 201.704 290.19 204.495 290.19 206.879C290.19 210.136 290.978 216.438 286.118 216.656C285.762 216.672 284.118 217.386 284.949 217.348C288.722 217.179 291.92 214.913 291.976 210.899C292.021 207.69 291.976 204.477 291.976 201.267C291.976 197.589 290.097 194.597 286.107 194.456C283.526 194.366 280.925 194.456 278.343 194.456H269.468C269.169 194.456 267.99 194.604 267.99 195.042V217.241C267.99 217.341 268.268 217.348 268.299 217.348H284.949C285.309 217.348 286.961 216.656 286.118 216.656Z" fill="#5D7183"/>
<path fill-rule="evenodd" clip-rule="evenodd" d="M268.562 65.0426C268.562 42.5654 250.34 24.3438 227.863 24.3438C205.385 24.3438 187.164 42.5654 187.164 65.0426C187.164 87.5198 205.385 105.741 227.863 105.741C250.34 105.741 268.562 87.5198 268.562 65.0426Z" fill="white"/>
<path fill-rule="evenodd" clip-rule="evenodd" d="M226.955 96.0501V102.111C226.955 103.065 228.768 102.815 228.768 101.985V95.9243C228.768 94.9701 226.955 95.2198 226.955 96.0501ZM226.962 28.1256V34.2482C226.962 35.1021 228.762 34.7806 228.762 34.0735V27.9509C228.762 27.097 226.962 27.4185 226.962 28.1256ZM196.302 65.0206H191.229C190.677 65.0206 189.296 65.8456 190.484 65.8456H195.557C196.109 65.8456 197.49 65.0206 196.302 65.0206ZM265.209 64.907H259.683C259.342 64.907 258.649 65.022 258.506 65.4028C258.369 65.7668 258.623 65.9592 258.999 65.9592H264.524C264.866 65.9592 265.558 65.8442 265.701 65.4631C265.838 65.099 265.585 64.907 265.209 64.907ZM251.219 81.397C251.06 81.397 250.905 81.351 250.773 81.2646L226.582 65.6022C226.491 65.5434 226.413 65.4674 226.351 65.3784C226.29 65.2894 226.247 65.1892 226.224 65.0835C226.201 64.9778 226.2 64.8687 226.219 64.7624C226.239 64.6561 226.279 64.5546 226.338 64.4639C226.397 64.3732 226.473 64.2949 226.562 64.2335C226.651 64.1722 226.751 64.129 226.857 64.1063C226.962 64.0837 227.071 64.0821 227.178 64.1017C227.284 64.1212 227.385 64.1615 227.476 64.2203L251.667 79.8827C251.816 79.9792 251.93 80.1215 251.992 80.2882C252.054 80.4549 252.06 80.6371 252.009 80.8075C251.959 80.978 251.855 81.1275 251.712 81.2337C251.57 81.34 251.397 81.3973 251.219 81.397Z" fill="#5D7183"/>
<path fill-rule="evenodd" clip-rule="evenodd" d="M229.066 64.6645C228.834 64.8735 228.564 64.9634 228.328 64.8794C227.911 64.7303 227.76 64.0895 227.991 63.4479L236.186 40.7361C236.417 40.0949 236.943 39.6953 237.361 39.8448C237.778 39.9939 237.929 40.6347 237.698 41.2763L229.504 63.9885C229.403 64.2682 229.245 64.502 229.066 64.6645Z" fill="#5D7183"/>
<path fill-rule="evenodd" clip-rule="evenodd" d="M231.936 65.0428C231.936 62.7936 230.112 60.9707 227.863 60.9707C225.614 60.9707 223.791 62.7936 223.791 65.0428C223.791 67.292 225.614 69.1149 227.863 69.1149C230.112 69.1149 231.936 67.292 231.936 65.0428Z" fill="#96E296"/>
<path fill-rule="evenodd" clip-rule="evenodd" d="M269.459 64.9489C269.35 47.6471 258.405 31.9843 242.056 26.1607C225.795 20.3689 206.969 25.5206 195.902 38.7507C184.753 52.0781 183.168 71.4607 192.144 86.3709C201.117 101.277 218.903 108.838 235.893 105.49C252.636 102.191 266.144 88.4769 268.918 71.6002C269.28 69.3995 269.445 67.1781 269.459 64.9489C269.464 64.126 267.667 64.4627 267.663 65.1372C267.559 81.6354 257.397 96.8612 241.847 102.706C226.029 108.651 207.776 103.416 197.147 90.3997C186.633 77.5234 185.152 58.9103 193.561 44.5543C202.11 29.9597 219.384 22.214 235.961 25.7944C254.313 29.7581 267.546 46.4472 267.663 65.1372C267.668 65.9616 269.463 65.6204 269.459 64.9489ZM64.4902 130.659C58.6603 143.488 54.0794 160.701 60.9135 174.03C64.6537 181.325 71.5544 185.757 79.6894 186.486C88.83 187.304 98.1755 183.869 105.967 179.328C110.455 176.712 114.315 173.457 118.163 169.998C120.588 167.819 123.527 165.419 126.998 165.595C129.897 165.743 132.374 167.952 132.548 170.884C132.58 171.432 134.375 171.072 134.336 170.405C134.108 166.59 130.406 164.457 126.876 164.622C122.652 164.819 119.248 167.436 116.25 170.172C108.805 176.966 100.241 182.461 90.2962 184.741C80.6291 186.958 70.3135 184.799 64.3885 176.353C60.0355 170.147 59.0229 162.244 59.5952 154.848C60.249 146.403 62.782 138.112 66.2743 130.426C66.5089 129.909 64.7473 130.093 64.4902 130.659Z" fill="#5D7183"/>
</g>
<defs>
<clipPath id="clip0_6616_23937">
<rect width="369.989" height="351.49" fill="white" transform="translate(-0.222656 -0.304688)"/>
</clipPath>
</defs>
</svg>
