<svg width="28" height="29" viewBox="0 0 28 29" fill="none" xmlns="http://www.w3.org/2000/svg">
<rect x="-0.00244141" y="0.181641" width="28" height="28" rx="6" fill="#E8EAED"/>
<g clip-path="url(#clip0_6616_22438)">
<path fill-rule="evenodd" clip-rule="evenodd" d="M8.25462 8.22207C8.13145 8.17026 7.99555 8.15666 7.86456 8.18304C7.73357 8.20943 7.61353 8.27457 7.52002 8.37002C7.4265 8.46547 7.36384 8.58682 7.34015 8.71833C7.31646 8.84984 7.33284 8.98543 7.38717 9.10751L9.32595 13.4628C9.35391 13.4611 9.38194 13.4611 9.4099 13.4628L14.2839 13.7686C14.3825 13.7785 14.4739 13.8247 14.5404 13.8982C14.6069 13.9717 14.6437 14.0672 14.6437 14.1663C14.6437 14.2655 14.6069 14.361 14.5404 14.4345C14.4739 14.508 14.3825 14.5542 14.2839 14.5641L9.4099 14.8689C9.38228 14.8705 9.35458 14.8705 9.32695 14.8689L7.38717 19.2262C7.33332 19.3481 7.31727 19.4834 7.34109 19.6146C7.36491 19.7457 7.4275 19.8667 7.52078 19.9619C7.61406 20.0571 7.73375 20.1222 7.86439 20.1487C7.99502 20.1752 8.13061 20.162 8.25363 20.1106L20.9127 14.78C21.0332 14.7288 21.1359 14.6434 21.2081 14.5343C21.2804 14.4252 21.3189 14.2972 21.3189 14.1663C21.3189 14.0355 21.2804 13.9075 21.2081 13.7984C21.1359 13.6893 21.0332 13.6039 20.9127 13.5527L8.25462 8.22207Z" fill="#ADB3BD"/>
</g>
<defs>
<clipPath id="clip0_6616_22438">
<rect width="15.99" height="15.99" fill="white" transform="translate(5.99756 6.17188)"/>
</clipPath>
</defs>
</svg>
