<svg width="16" height="17" viewBox="0 0 16 17" fill="none" xmlns="http://www.w3.org/2000/svg">
<path fill-rule="evenodd" clip-rule="evenodd" d="M10.3934 11.3869C9.51305 12.2088 8.34505 12.6521 7.14104 12.6211C5.93702 12.5901 4.79336 12.0874 3.95643 11.2213C3.11951 10.3552 2.65631 9.19495 2.66664 7.99058C2.67696 6.78621 3.15998 5.6341 4.01163 4.78245C4.86328 3.9308 6.0154 3.44778 7.21977 3.43746C8.42414 3.42713 9.58436 3.89033 10.4505 4.72725C11.3166 5.56417 11.8193 6.70784 11.8503 7.91186C11.8813 9.11587 11.438 10.2839 10.6161 11.1642C10.5252 11.2196 10.4488 11.296 10.3934 11.3869ZM10.9514 12.6656C9.7673 13.6088 8.2671 14.0632 6.75862 13.9353C5.25014 13.8075 3.84779 13.1072 2.83931 11.9781C1.83083 10.849 1.29271 9.37681 1.33536 7.86352C1.37802 6.35024 1.99822 4.91066 3.0687 3.84018C4.13917 2.7697 5.57875 2.1495 7.09204 2.10685C8.60532 2.06419 10.0776 2.60231 11.2066 3.61079C12.3357 4.61927 13.036 6.02163 13.1638 7.53011C13.2917 9.03859 12.8373 10.5388 11.8941 11.7229L14.3974 14.2255C14.5188 14.3513 14.586 14.5197 14.5845 14.6945C14.583 14.8693 14.5129 15.0365 14.3893 15.1601C14.2657 15.2837 14.0985 15.3538 13.9237 15.3553C13.7489 15.3569 13.5805 15.2897 13.4547 15.1682L10.9514 12.6656Z" fill="#4F5762"/>
</svg>
