<svg width="17" height="17" viewBox="0 0 17 17" fill="none" xmlns="http://www.w3.org/2000/svg">
<path fill-rule="evenodd" clip-rule="evenodd" d="M8.35412 6.48242C8.04164 6.48242 7.73222 6.54397 7.44352 6.66355C7.15483 6.78313 6.89251 6.95841 6.67155 7.17936C6.45059 7.40032 6.27532 7.66264 6.15574 7.95133C6.03616 8.24003 5.97461 8.54945 5.97461 8.86193C5.97461 9.17442 6.03616 9.48384 6.15574 9.77253C6.27532 10.0612 6.45059 10.3235 6.67155 10.5445C6.89251 10.7655 7.15483 10.9407 7.44352 11.0603C7.73222 11.1799 8.04164 11.2414 8.35412 11.2414C8.98521 11.2414 9.59045 10.9907 10.0367 10.5445C10.4829 10.0983 10.7336 9.49302 10.7336 8.86193C10.7336 8.23085 10.4829 7.62561 10.0367 7.17936C9.59045 6.73312 8.98521 6.48242 8.35412 6.48242ZM7.30811 8.8616C7.30811 8.72415 7.33518 8.58804 7.38778 8.46105C7.44038 8.33407 7.51748 8.21868 7.61467 8.12149C7.71187 8.02429 7.82725 7.9472 7.95424 7.8946C8.08123 7.842 8.21734 7.81492 8.35479 7.81492C8.49224 7.81492 8.62835 7.842 8.75533 7.8946C8.88232 7.9472 8.99771 8.02429 9.0949 8.12149C9.19209 8.21868 9.26919 8.33407 9.32179 8.46105C9.37439 8.58804 9.40147 8.72415 9.40147 8.8616C9.40147 9.13929 9.29116 9.4056 9.0948 9.60195C8.89845 9.7983 8.63214 9.90861 8.35445 9.90861C8.07677 9.90861 7.81046 9.7983 7.61411 9.60195C7.41775 9.4056 7.30744 9.13929 7.30744 8.8616H7.30811Z" fill="#4F5762"/>
<path fill-rule="evenodd" clip-rule="evenodd" d="M7.03048 2.19824C6.8865 2.19816 6.74636 2.24472 6.63105 2.33096C6.51575 2.4172 6.43149 2.53847 6.39088 2.67661L5.91518 4.29426L5.61537 4.46749L3.96773 4.07707C3.82822 4.04395 3.68174 4.05673 3.55006 4.1135C3.41839 4.17028 3.30855 4.26802 3.23686 4.3922L1.91768 6.67478C1.84553 6.79949 1.81575 6.94422 1.83281 7.08729C1.84987 7.23035 1.91284 7.36403 2.01229 7.46828L3.17689 8.68885V9.03263L2.01229 10.2532C1.91299 10.3574 1.85011 10.491 1.83306 10.6339C1.816 10.7768 1.84569 10.9214 1.91768 11.046L3.23686 13.3299C3.30864 13.454 3.41853 13.5516 3.5502 13.6083C3.68186 13.6649 3.82829 13.6776 3.96773 13.6444L5.61537 13.254L5.91518 13.4272L6.39088 15.0449C6.43149 15.183 6.51575 15.3043 6.63105 15.3905C6.74636 15.4768 6.8865 15.5233 7.03048 15.5232H9.66883C9.81228 15.5234 9.95195 15.4772 10.0671 15.3917C10.1822 15.3061 10.2666 15.1856 10.3078 15.0482L10.7928 13.4279L11.0926 13.2547L12.7336 13.6524C12.8734 13.6862 13.0204 13.6739 13.1527 13.6172C13.2849 13.5605 13.3952 13.4625 13.4671 13.3379L14.787 11.0547C14.8587 10.9305 14.8885 10.7864 14.8718 10.6439C14.8551 10.5014 14.7929 10.3681 14.6944 10.2639L13.5324 9.03397V8.68752L14.6944 7.45762C14.7929 7.35334 14.8551 7.22004 14.8718 7.07756C14.8885 6.93507 14.8587 6.791 14.787 6.66678L13.4678 4.38354C13.3958 4.25883 13.2854 4.16078 13.153 4.10409C13.0207 4.0474 12.8735 4.03511 12.7336 4.06907L11.0926 4.46682L10.7928 4.2936L10.3078 2.67328C10.2666 2.53598 10.1823 2.4156 10.0673 2.33002C9.95235 2.24445 9.81283 2.19823 9.6695 2.19824H7.03048ZM7.11843 4.92654L7.52884 3.53074H9.17314L9.59221 4.92987C9.641 5.09267 9.75016 5.23067 9.89736 5.31563L10.6575 5.75402C10.8058 5.83931 10.9811 5.86436 11.1472 5.82397L12.563 5.48152L13.3845 6.9033L12.3818 7.96464C12.2649 8.08837 12.1999 8.25215 12.1999 8.42235V9.29913C12.1999 9.46934 12.2649 9.63311 12.3818 9.75685L13.3845 10.8182L12.563 12.24L11.1472 11.8975C10.9811 11.8571 10.8058 11.8822 10.6575 11.9675L9.89802 12.4059C9.75019 12.4907 9.64051 12.629 9.59155 12.7923L9.17381 14.1907H7.5295L7.11909 12.7949C7.07073 12.6307 6.96098 12.4914 6.81262 12.4059L6.05243 11.9675C5.90532 11.8826 5.73135 11.8571 5.56607 11.8962L4.14362 12.2333L3.32147 10.8115L4.32617 9.75885C4.44425 9.63492 4.51009 9.4703 4.51006 9.29913V8.42235C4.51009 8.25118 4.44425 8.08656 4.32617 7.96264L3.32147 6.90996L4.14362 5.48818L5.56607 5.82531C5.73135 5.86441 5.90532 5.83891 6.05243 5.75402L6.81195 5.31563C6.96032 5.23013 7.07007 5.0908 7.11843 4.92654Z" fill="#4F5762"/>
</svg>
