<svg width="17" height="17" viewBox="0 0 17 17" fill="none" xmlns="http://www.w3.org/2000/svg">
<path fill-rule="evenodd" clip-rule="evenodd" d="M1.9707 3.65062C1.9707 3.47392 2.0409 3.30446 2.16584 3.17952C2.29079 3.05457 2.46025 2.98438 2.63695 2.98438H14.6295C14.8062 2.98438 14.9756 3.05457 15.1006 3.17952C15.2255 3.30446 15.2957 3.47392 15.2957 3.65062C15.2957 3.82733 15.2255 3.99679 15.1006 4.12173C14.9756 4.24668 14.8062 4.31687 14.6295 4.31687H2.63695C2.46025 4.31687 2.29079 4.24668 2.16584 4.12173C2.0409 3.99679 1.9707 3.82733 1.9707 3.65062ZM1.9707 6.98187C1.9707 6.80517 2.0409 6.63571 2.16584 6.51077C2.29079 6.38582 2.46025 6.31562 2.63695 6.31562H14.6295C14.8062 6.31562 14.9756 6.38582 15.1006 6.51077C15.2255 6.63571 15.2957 6.80517 15.2957 6.98187C15.2957 7.15858 15.2255 7.32804 15.1006 7.45298C14.9756 7.57793 14.8062 7.64812 14.6295 7.64812H2.63695C2.46025 7.64812 2.29079 7.57793 2.16584 7.45298C2.0409 7.32804 1.9707 7.15858 1.9707 6.98187ZM1.9707 10.3131C1.9707 10.1364 2.0409 9.96696 2.16584 9.84202C2.29079 9.71707 2.46025 9.64687 2.63695 9.64687H14.6295C14.8062 9.64687 14.9756 9.71707 15.1006 9.84202C15.2255 9.96696 15.2957 10.1364 15.2957 10.3131C15.2957 10.4898 15.2255 10.6593 15.1006 10.7842C14.9756 10.9092 14.8062 10.9794 14.6295 10.9794H2.63695C2.46025 10.9794 2.29079 10.9092 2.16584 10.7842C2.0409 10.6593 1.9707 10.4898 1.9707 10.3131ZM1.9707 13.6444C1.9707 13.4677 2.0409 13.2982 2.16584 13.1733C2.29079 13.0483 2.46025 12.9781 2.63695 12.9781H10.632C10.8087 12.9781 10.9781 13.0483 11.1031 13.1733C11.228 13.2982 11.2982 13.4677 11.2982 13.6444C11.2982 13.8211 11.228 13.9905 11.1031 14.1155C10.9781 14.2404 10.8087 14.3106 10.632 14.3106H2.63695C2.46025 14.3106 2.29079 14.2404 2.16584 14.1155C2.0409 13.9905 1.9707 13.8211 1.9707 13.6444Z" fill="#544DC9"/>
</svg>
