<svg width="17" height="17" viewBox="0 0 17 17" fill="none" xmlns="http://www.w3.org/2000/svg">
<path fill-rule="evenodd" clip-rule="evenodd" d="M8.9982 3.51781C8.9982 3.69451 9.0684 3.86398 9.19334 3.98892C9.31829 4.11387 9.48775 4.18406 9.66445 4.18406H11.3874L9.19341 6.37802C9.07205 6.50368 9.0049 6.67198 9.00642 6.84666C9.00793 7.02135 9.078 7.18846 9.20153 7.31199C9.32506 7.43551 9.49216 7.50558 9.66685 7.5071C9.84154 7.50862 10.0098 7.44146 10.1355 7.3201L12.3295 5.12614V6.84906C12.3295 7.02576 12.3996 7.19523 12.5246 7.32017C12.6495 7.44512 12.819 7.51531 12.9957 7.51531C13.1724 7.51531 13.3419 7.44512 13.4668 7.32017C13.5918 7.19523 13.662 7.02576 13.662 6.84906V3.51781C13.662 3.34111 13.5918 3.17165 13.4668 3.0467C13.3419 2.92176 13.1724 2.85156 12.9957 2.85156H9.66445C9.48775 2.85156 9.31829 2.92176 9.19334 3.0467C9.0684 3.17165 8.9982 3.34111 8.9982 3.51781ZM3.6682 13.5116H6.99945C7.17615 13.5116 7.34562 13.4414 7.47056 13.3164C7.59551 13.1915 7.6657 13.022 7.6657 12.8453C7.6657 12.6686 7.59551 12.4991 7.47056 12.3742C7.34562 12.2493 7.17615 12.1791 6.99945 12.1791H5.27653L7.47049 9.9851C7.59185 9.85945 7.65901 9.69115 7.65749 9.51646C7.65597 9.34177 7.5859 9.17467 7.46238 9.05114C7.33885 8.92761 7.17174 8.85754 6.99706 8.85602C6.82237 8.85451 6.65407 8.92166 6.52841 9.04302L4.33445 11.237V9.51406C4.33445 9.33736 4.26426 9.1679 4.13931 9.04295C4.01437 8.91801 3.8449 8.84781 3.6682 8.84781C3.4915 8.84781 3.32204 8.91801 3.19709 9.04295C3.07215 9.1679 3.00195 9.33736 3.00195 9.51406V12.8453C3.00195 13.022 3.07215 13.1915 3.19709 13.3164C3.32204 13.4414 3.4915 13.5116 3.6682 13.5116Z" fill="#808080"/>
</svg>
