<svg width="21" height="21" viewBox="0 0 21 21" fill="none" xmlns="http://www.w3.org/2000/svg">
<g id="cu3-icon-slack">
<path id="Vector" fill-rule="evenodd" clip-rule="evenodd" d="M8.78125 3.24219C8.58406 3.24219 8.3888 3.28107 8.20665 3.35661C8.0245 3.43215 7.85903 3.54286 7.71971 3.68241C7.58039 3.82196 7.46995 3.98762 7.39471 4.16989C7.31948 4.35217 7.28092 4.54749 7.28125 4.74469C7.28125 5.57385 7.95209 6.24719 8.78125 6.24719H10.2813V4.74552C10.2815 4.54832 10.2428 4.35301 10.1676 4.17073C10.0923 3.98846 9.98189 3.82279 9.8426 3.68319C9.70331 3.5436 9.53789 3.4328 9.35579 3.35713C9.17368 3.28146 8.97845 3.24241 8.78125 3.24219ZM8.78125 7.25052H4.78125C4.58406 7.25052 4.3888 7.2894 4.20665 7.36494C4.0245 7.44048 3.85903 7.55119 3.71971 7.69074C3.58039 7.8303 3.46995 7.99595 3.39471 8.17823C3.31948 8.3605 3.28092 8.55583 3.28125 8.75302C3.28103 8.95022 3.31966 9.14554 3.39492 9.32781C3.47019 9.51008 3.58061 9.67575 3.7199 9.81535C3.85919 9.95495 4.02461 10.0657 4.20672 10.1414C4.38882 10.2171 4.58405 10.2561 4.78125 10.2564H8.78125C9.60959 10.2564 10.2813 9.58302 10.2813 8.75385C10.2813 7.92385 9.60959 7.25052 8.78125 7.25052Z" fill="#36C5F0"/>
<path id="Vector_2" fill-rule="evenodd" clip-rule="evenodd" d="M18.2813 8.75302C18.2813 8.3552 18.1232 7.97367 17.8419 7.69236C17.5606 7.41106 17.1791 7.25302 16.7813 7.25302C16.3834 7.25302 16.0019 7.41106 15.7206 7.69236C15.4393 7.97367 15.2812 8.3552 15.2812 8.75302V10.2564H16.7813C17.6104 10.2564 18.2813 9.58302 18.2813 8.75302ZM14.2813 8.75302V4.74469C14.2813 3.91635 13.6104 3.24302 12.7813 3.24219C11.9521 3.24219 11.2813 3.91552 11.2813 4.74469V8.75302C11.281 8.95022 11.3197 9.14554 11.3949 9.32781C11.4702 9.51008 11.5806 9.67575 11.7199 9.81535C11.8592 9.95495 12.0246 10.0657 12.2067 10.1414C12.3888 10.2171 12.584 10.2561 12.7813 10.2564C13.6096 10.2564 14.2813 9.58302 14.2813 8.75302Z" fill="#2EB67D"/>
<path id="Vector_3" fill-rule="evenodd" clip-rule="evenodd" d="M12.7813 18.2728C13.1797 18.2728 13.5619 18.1145 13.8437 17.8327C14.1255 17.551 14.2838 17.1688 14.2838 16.7703C14.2838 16.3718 14.1255 15.9897 13.8437 15.7079C13.5619 15.4261 13.1797 15.2678 12.7813 15.2678H11.2813V16.7703C11.2809 16.9675 11.3195 17.1628 11.3947 17.3451C11.4699 17.5274 11.5804 17.693 11.7197 17.8326C11.859 17.9721 12.0245 18.0829 12.2066 18.1584C12.3888 18.2339 12.5841 18.2728 12.7813 18.2728ZM12.7813 14.2645H16.7813C17.1794 14.264 17.561 14.1055 17.8423 13.8238C18.1236 13.542 18.2815 13.1601 18.2813 12.762C18.2816 12.5647 18.243 12.3693 18.1678 12.1869C18.0926 12.0046 17.9822 11.8388 17.8429 11.6991C17.7036 11.5594 17.5381 11.4486 17.356 11.3728C17.1738 11.2971 16.9785 11.258 16.7813 11.2578H12.7813C11.9521 11.2586 11.2813 11.932 11.2813 12.7611C11.2813 13.5903 11.9513 14.2636 12.7813 14.2645Z" fill="#ECB22E"/>
<path id="Vector_4" fill-rule="evenodd" clip-rule="evenodd" d="M3.28125 12.7603C3.28103 12.9575 3.31966 13.1528 3.39492 13.3351C3.47018 13.5174 3.58061 13.683 3.7199 13.8226C3.85919 13.9622 4.02461 14.073 4.20671 14.1487C4.38882 14.2244 4.58405 14.2634 4.78125 14.2636C4.97841 14.2635 5.17362 14.2246 5.35572 14.149C5.53783 14.0734 5.70325 13.9627 5.84255 13.8232C5.98185 13.6836 6.09229 13.518 6.16757 13.3358C6.24284 13.1536 6.28147 12.9583 6.28125 12.7611V11.2578H4.78125C4.58409 11.2579 4.38888 11.2969 4.20678 11.3725C4.02468 11.448 3.85925 11.5587 3.71995 11.6983C3.58065 11.8378 3.47021 12.0034 3.39494 12.1856C3.31966 12.3679 3.28103 12.5631 3.28125 12.7603ZM7.28125 12.7603V16.7686C7.28103 16.9658 7.31966 17.1612 7.39492 17.3434C7.47018 17.5257 7.58061 17.6914 7.7199 17.831C7.85919 17.9706 8.02461 18.0814 8.20671 18.157C8.38882 18.2327 8.58405 18.2718 8.78125 18.272C9.60958 18.272 10.2813 17.5986 10.2813 16.7695V12.7611C10.2813 12.5642 10.2426 12.3691 10.1672 12.1871C10.0919 12.0051 9.98145 11.8397 9.84221 11.7004C9.70296 11.561 9.53763 11.4505 9.35566 11.3751C9.17369 11.2996 8.97865 11.2608 8.78167 11.2607C8.58468 11.2607 8.38962 11.2994 8.20761 11.3747C8.0256 11.4501 7.86021 11.5605 7.72089 11.6998C7.58156 11.839 7.47102 12.0044 7.39559 12.1863C7.32016 12.3683 7.28131 12.5633 7.28125 12.7603Z" fill="#E01E5A"/>
</g>
</svg>
