<svg width="17" height="17" viewBox="0 0 17 17" fill="none" xmlns="http://www.w3.org/2000/svg">
<path d="M2.50432 15.1495C2.62607 15.2689 2.77066 15.3626 2.92944 15.4249C3.08822 15.4871 3.25792 15.5168 3.42841 15.512C4.3898 15.512 5.54975 14.7871 6.0028 14.4966L6.78231 13.9709C7.41391 14.2108 8.08349 14.334 8.75907 14.3334C10.2014 14.3332 11.5846 13.7601 12.6045 12.7402C13.6244 11.7203 14.1975 10.3371 14.1977 8.89476C14.1981 8.21949 14.0753 7.54981 13.8352 6.91866L14.3616 6.13915C14.76 5.50421 15.9566 3.58274 15.0138 2.64C14.0711 1.69659 12.8745 2.29488 10.7352 3.81793C9.74983 3.43851 8.67557 3.35311 7.64267 3.57209C6.60976 3.79108 5.66257 4.30504 4.91596 5.05165C4.16935 5.79826 3.65539 6.74544 3.43641 7.77835C3.21743 8.81126 3.30282 9.88552 3.68225 10.8709C2.1592 13.0095 1.76078 14.424 2.50432 15.1495ZM12.7479 8.89476C12.7503 9.41921 12.6487 9.93894 12.4491 10.4239C12.2495 10.9089 11.9558 11.3495 11.5849 11.7204C11.214 12.0912 10.7733 12.3848 10.2883 12.5844C9.80328 12.7839 9.28353 12.8854 8.75907 12.8829L8.23273 12.847C9.0481 12.1738 9.82883 11.4598 10.5719 10.7076C11.3241 9.96473 12.0381 9.18422 12.7113 8.36908C12.7326 8.54298 12.7446 8.71887 12.7479 8.89476ZM13.9079 3.74531C13.8532 4.07177 13.5634 4.68805 13.0197 5.5222C12.8904 5.35685 12.7511 5.19955 12.6027 5.05116C12.4588 4.89773 12.3009 4.7581 12.131 4.63409C13.0557 4.03579 13.618 3.79994 13.9079 3.74531ZM5.93084 6.06652C6.68415 5.32252 7.70029 4.90532 8.75907 4.90532C9.81785 4.90532 10.834 5.32252 11.5873 6.06652C11.7885 6.28639 11.9704 6.52291 12.131 6.77275C11.3329 7.79729 10.4732 8.77226 9.55657 9.69226C8.63679 10.6088 7.66204 11.4686 6.63773 12.2666C6.38702 12.1059 6.15053 11.924 5.93084 11.723C5.19113 10.9674 4.77687 9.95213 4.77687 8.89476C4.77687 7.83738 5.19113 6.82209 5.93084 6.06652ZM4.4984 12.2666C4.62233 12.4365 4.76224 12.5944 4.91548 12.7384L5.38651 13.1554C4.55237 13.6991 3.93609 13.9889 3.60962 14.0435C3.66426 13.7537 3.90011 13.1914 4.4984 12.2666Z" fill="#808080"/>
</svg>
