<svg width="17" height="17" viewBox="0 0 17 17" fill="none" xmlns="http://www.w3.org/2000/svg">
<g clip-path="url(#clip0_6616_15274)">
<path fill-rule="evenodd" clip-rule="evenodd" d="M8.34105 1.48303C8.3498 1.57014 8.34129 1.65812 8.31602 1.74193C8.29075 1.82575 8.2492 1.90377 8.19376 1.97152C8.13832 2.03927 8.07007 2.09544 7.99292 2.1368C7.91576 2.17816 7.83121 2.20391 7.74409 2.21258C6.26522 2.36153 4.89435 3.05437 3.89735 4.15675C2.90034 5.25913 2.34825 6.69249 2.34813 8.17885C2.34813 9.53 2.79452 10.7746 3.54738 11.7766C3.65358 11.918 3.69927 12.0957 3.67441 12.2708C3.64954 12.4458 3.55616 12.6038 3.4148 12.71C3.27344 12.8162 3.09568 12.8619 2.92063 12.837C2.74558 12.8122 2.58758 12.7188 2.48138 12.5774C1.52777 11.3095 1.01322 9.76537 1.01563 8.17885C1.01563 4.37856 3.90782 1.25384 7.61217 0.886074C7.69928 0.877423 7.78724 0.886022 7.87102 0.911379C7.9548 0.936736 8.03276 0.978354 8.10045 1.03385C8.16814 1.08935 8.22423 1.15765 8.26551 1.23484C8.3068 1.31202 8.33246 1.39592 8.34105 1.48303ZM10.4431 3.50843L5.89591 7.64252L7.27505 8.23348C7.43194 8.30078 7.557 8.42573 7.62445 8.58256C7.69189 8.73939 7.69656 8.91612 7.63749 9.07629L6.24636 12.8493L10.7935 8.71518L9.41438 8.12421C9.25749 8.05691 9.13243 7.93196 9.06499 7.77513C8.99755 7.61831 8.99288 7.44158 9.05194 7.28141L10.4424 3.5071L10.4431 3.50843ZM10.5543 1.60629C11.3272 0.903396 12.5258 1.71022 12.164 2.69161L10.5217 7.15016L11.7956 7.69648C11.9493 7.76244 12.084 7.86592 12.1873 7.99745C12.2907 8.12898 12.3594 8.28435 12.3871 8.44931C12.4148 8.61427 12.4007 8.78356 12.346 8.94164C12.2913 9.09972 12.1978 9.24154 12.0741 9.35411L6.13643 14.7521C5.36225 15.4556 4.16433 14.6488 4.5261 13.6674L6.16841 9.20887L4.89454 8.66254C4.74082 8.59659 4.60611 8.4931 4.50276 8.36157C4.39942 8.23004 4.33074 8.07468 4.30302 7.90971C4.27531 7.74475 4.28944 7.57547 4.34413 7.41739C4.39882 7.25931 4.49232 7.11748 4.61605 7.00491L10.5543 1.60629ZM13.2746 3.64835C13.416 3.54233 13.5937 3.4968 13.7686 3.52179C13.9435 3.54678 14.1014 3.64024 14.2074 3.7816C14.3833 4.01478 14.5452 4.2593 14.6924 4.51447C14.7745 4.66701 14.794 4.84552 14.7466 5.01215C14.6993 5.17879 14.589 5.32045 14.439 5.4071C14.289 5.49375 14.1112 5.51857 13.9432 5.47631C13.7752 5.43405 13.6303 5.32803 13.5391 5.18072C13.4189 4.9731 13.2863 4.77287 13.142 4.5811C13.0896 4.5111 13.0514 4.43145 13.0296 4.3467C13.0079 4.26194 13.0031 4.17374 13.0155 4.08712C13.0279 4.00051 13.0572 3.91718 13.1018 3.8419C13.1463 3.76661 13.2046 3.70084 13.2746 3.64835ZM14.8337 6.52055C15.0083 6.49438 15.1862 6.53864 15.3283 6.64358C15.4703 6.74852 15.5649 6.90556 15.5912 7.0802C15.6642 7.5647 15.6887 8.05526 15.6645 8.54462C15.6558 8.72114 15.5774 8.887 15.4464 9.00569C15.3155 9.12439 15.1428 9.18621 14.9662 9.17756C14.7897 9.1689 14.6239 9.09047 14.5052 8.95953C14.3865 8.82858 14.3246 8.65585 14.3333 8.47933C14.3531 8.07813 14.3331 7.67596 14.2733 7.27874C14.2603 7.19221 14.2644 7.10395 14.2855 7.01902C14.3065 6.93408 14.3441 6.85412 14.3961 6.78371C14.4481 6.7133 14.5134 6.65382 14.5884 6.60867C14.6633 6.56352 14.7471 6.53357 14.8337 6.52055ZM14.7191 10.2336C14.8809 10.3043 15.008 10.4364 15.0724 10.6008C15.1369 10.7652 15.1334 10.9485 15.0628 11.1103C14.7965 11.7199 14.4484 12.2903 14.0282 12.806C13.9151 12.9381 13.7548 13.0208 13.5816 13.0363C13.4084 13.0519 13.2359 12.9991 13.1011 12.8892C12.9663 12.7794 12.8798 12.6212 12.86 12.4484C12.8403 12.2756 12.8889 12.1019 12.9955 11.9645C13.3392 11.5426 13.6238 11.076 13.8416 10.5773C13.8766 10.4971 13.9271 10.4246 13.9902 10.364C14.0532 10.3033 14.1276 10.2556 14.2091 10.2237C14.2906 10.1918 14.3776 10.1762 14.4651 10.1779C14.5526 10.1796 14.6389 10.1985 14.7191 10.2336ZM12.2526 13.6168C12.341 13.7697 12.3651 13.9515 12.3194 14.1222C12.2738 14.2928 12.1623 14.4384 12.0094 14.5269C11.1103 15.0473 10.1104 15.3694 9.07659 15.4716C8.98892 15.4815 8.90015 15.4739 8.81544 15.4492C8.73073 15.4245 8.65177 15.3832 8.58315 15.3278C8.51452 15.2723 8.45759 15.2038 8.41566 15.1262C8.37374 15.0485 8.34765 14.9633 8.33891 14.8755C8.33018 14.7877 8.33897 14.6991 8.36477 14.6147C8.39058 14.5303 8.43289 14.4519 8.48924 14.384C8.5456 14.3161 8.61488 14.2601 8.69306 14.2192C8.77124 14.1783 8.85677 14.1534 8.94467 14.1458C9.7897 14.0621 10.607 13.7986 11.3418 13.3729C11.4176 13.3291 11.5013 13.3005 11.588 13.289C11.6748 13.2775 11.763 13.2832 11.8476 13.3058C11.9322 13.3284 12.0115 13.3674 12.081 13.4206C12.1505 13.4739 12.2088 13.5403 12.2526 13.6161V13.6168Z" fill="#4F5762"/>
</g>
<defs>
<clipPath id="clip0_6616_15274">
<rect width="15.99" height="15.99" fill="white" transform="translate(0.349609 0.183594)"/>
</clipPath>
</defs>
</svg>
