<svg width="36" height="36" viewBox="0 0 36 36" fill="none" xmlns="http://www.w3.org/2000/svg">
<g clip-path="url(#clip0_6616_16044)">
<path d="M28 0.5H8C3.85786 0.5 0.5 3.85786 0.5 8V28C0.5 32.1421 3.85786 35.5 8 35.5H28C32.1421 35.5 35.5 32.1421 35.5 28V8C35.5 3.85786 32.1421 0.5 28 0.5Z" fill="url(#paint0_linear_6616_16044)"/>
<path d="M28 0.5H8C3.85786 0.5 0.5 3.85786 0.5 8V28C0.5 32.1421 3.85786 35.5 8 35.5H28C32.1421 35.5 35.5 32.1421 35.5 28V8C35.5 3.85786 32.1421 0.5 28 0.5Z" stroke="url(#paint1_linear_6616_16044)"/>
<path fill-rule="evenodd" clip-rule="evenodd" d="M21.6346 9.34548C21.4376 8.66348 20.3966 8.66348 20.1996 9.34548L19.9196 10.3105C19.3176 12.3905 18.4936 14.0145 16.2556 14.5735L15.2176 14.8335C15.0632 14.8641 14.9243 14.9473 14.8244 15.069C14.7245 15.1906 14.6699 15.3431 14.6699 15.5005C14.6699 15.6579 14.7245 15.8104 14.8244 15.932C14.9243 16.0536 15.0632 16.1369 15.2176 16.1675L16.2556 16.4275C18.4936 16.9875 19.3176 18.6115 19.9206 20.6915L20.1996 21.6565C20.3966 22.3375 21.4376 22.3375 21.6346 21.6565L21.9146 20.6915C22.5166 18.6115 23.3406 16.9875 25.5786 16.4275L26.6176 16.1675C26.772 16.1369 26.911 16.0536 27.0108 15.932C27.1107 15.8104 27.1653 15.6579 27.1653 15.5005C27.1653 15.3431 27.1107 15.1906 27.0108 15.069C26.911 14.9473 26.772 14.8641 26.6176 14.8335L25.5786 14.5735C23.3406 14.0135 22.5166 12.3895 21.9146 10.3105L21.6346 9.34548ZM13.0146 19.1535C12.8956 18.7275 12.2716 18.7275 12.1536 19.1535L11.9856 19.7565C11.6236 21.0565 11.1296 22.0715 9.78662 22.4215L9.16362 22.5835C9.06935 22.6053 8.98525 22.6584 8.92503 22.7341C8.86481 22.8098 8.83203 22.9037 8.83203 23.0005C8.83203 23.0972 8.86481 23.1911 8.92503 23.2669C8.98525 23.3426 9.06935 23.3957 9.16362 23.4175L9.78662 23.5795C11.1296 23.9295 11.6236 24.9455 11.9856 26.2445L12.1536 26.8475C12.2716 27.2735 12.8956 27.2735 13.0136 26.8475L13.1826 26.2445C13.5436 24.9445 14.0376 23.9295 15.3806 23.5795L16.0036 23.4175C16.0979 23.3957 16.182 23.3426 16.2422 23.2669C16.3024 23.1911 16.3352 23.0972 16.3352 23.0005C16.3352 22.9037 16.3024 22.8098 16.2422 22.7341C16.182 22.6584 16.0979 22.6053 16.0036 22.5835L15.3806 22.4215C14.0376 22.0715 13.5436 21.0565 13.1826 19.7565L13.0146 19.1535Z" fill="white"/>
</g>
<defs>
<linearGradient id="paint0_linear_6616_16044" x1="18" y1="-1.05372e-08" x2="18" y2="36" gradientUnits="userSpaceOnUse">
<stop stop-color="#9992F4"/>
<stop offset="1" stop-color="#5F55EE"/>
</linearGradient>
<linearGradient id="paint1_linear_6616_16044" x1="18" y1="-1.05372e-08" x2="18" y2="36" gradientUnits="userSpaceOnUse">
<stop stop-color="#B2ADF7"/>
<stop offset="1" stop-color="#4C47AB"/>
</linearGradient>
<clipPath id="clip0_6616_16044">
<rect width="36" height="36" fill="white"/>
</clipPath>
</defs>
</svg>
