<svg width="24" height="24" viewBox="0 0 24 24" fill="none" xmlns="http://www.w3.org/2000/svg">
<g filter="url(#filter0_d_6616_23925)">
<path fill-rule="evenodd" clip-rule="evenodd" d="M5.35059 12.6686C5.35059 12.8453 5.42078 13.0147 5.54573 13.1397C5.67067 13.2646 5.84014 13.3348 6.01684 13.3348H15.3443C15.521 13.3348 15.6905 13.2646 15.8154 13.1397C15.9404 13.0147 16.0106 12.8453 16.0106 12.6686C16.0106 12.4919 15.9404 12.3224 15.8154 12.1974C15.6905 12.0725 15.521 12.0023 15.3443 12.0023H6.01684C5.84014 12.0023 5.67067 12.0725 5.54573 12.1974C5.42078 12.3224 5.35059 12.4919 5.35059 12.6686ZM5.35059 8.0048C5.35059 8.18151 5.42078 8.35097 5.54573 8.47591C5.67067 8.60086 5.84014 8.67105 6.01684 8.67105H18.0093C18.186 8.67105 18.3555 8.60086 18.4804 8.47591C18.6054 8.35097 18.6756 8.18151 18.6756 8.0048C18.6756 7.8281 18.6054 7.65864 18.4804 7.53369C18.3555 7.40875 18.186 7.33855 18.0093 7.33855H6.01684C5.84014 7.33855 5.67067 7.40875 5.54573 7.53369C5.42078 7.65864 5.35059 7.8281 5.35059 8.0048ZM5.35059 3.34105C5.35059 3.51776 5.42078 3.68722 5.54573 3.81216C5.67067 3.93711 5.84014 4.0073 6.01684 4.0073H12.6793C12.856 4.0073 13.0255 3.93711 13.1504 3.81216C13.2754 3.68722 13.3456 3.51776 13.3456 3.34105C13.3456 3.16435 13.2754 2.99489 13.1504 2.86994C13.0255 2.745 12.856 2.6748 12.6793 2.6748H6.01684C5.84014 2.6748 5.67067 2.745 5.54573 2.86994C5.42078 2.99489 5.35059 3.16435 5.35059 3.34105Z" fill="#656F7D"/>
<path fill-rule="evenodd" clip-rule="evenodd" d="M5.35059 12.6686C5.35059 12.8453 5.42078 13.0147 5.54573 13.1397C5.67067 13.2646 5.84014 13.3348 6.01684 13.3348H15.3443C15.521 13.3348 15.6905 13.2646 15.8154 13.1397C15.9404 13.0147 16.0106 12.8453 16.0106 12.6686C16.0106 12.4919 15.9404 12.3224 15.8154 12.1974C15.6905 12.0725 15.521 12.0023 15.3443 12.0023H6.01684C5.84014 12.0023 5.67067 12.0725 5.54573 12.1974C5.42078 12.3224 5.35059 12.4919 5.35059 12.6686ZM5.35059 8.0048C5.35059 8.18151 5.42078 8.35097 5.54573 8.47591C5.67067 8.60086 5.84014 8.67105 6.01684 8.67105H18.0093C18.186 8.67105 18.3555 8.60086 18.4804 8.47591C18.6054 8.35097 18.6756 8.18151 18.6756 8.0048C18.6756 7.8281 18.6054 7.65864 18.4804 7.53369C18.3555 7.40875 18.186 7.33855 18.0093 7.33855H6.01684C5.84014 7.33855 5.67067 7.40875 5.54573 7.53369C5.42078 7.65864 5.35059 7.8281 5.35059 8.0048ZM5.35059 3.34105C5.35059 3.51776 5.42078 3.68722 5.54573 3.81216C5.67067 3.93711 5.84014 4.0073 6.01684 4.0073H12.6793C12.856 4.0073 13.0255 3.93711 13.1504 3.81216C13.2754 3.68722 13.3456 3.51776 13.3456 3.34105C13.3456 3.16435 13.2754 2.99489 13.1504 2.86994C13.0255 2.745 12.856 2.6748 12.6793 2.6748H6.01684C5.84014 2.6748 5.67067 2.745 5.54573 2.86994C5.42078 2.99489 5.35059 3.16435 5.35059 3.34105Z" fill="#656F7D"/>
</g>
<defs>
<filter id="filter0_d_6616_23925" x="0.0185547" y="0.00976562" width="23.9902" height="23.9902" filterUnits="userSpaceOnUse" color-interpolation-filters="sRGB">
<feFlood flood-opacity="0" result="BackgroundImageFix"/>
<feColorMatrix in="SourceAlpha" type="matrix" values="0 0 0 0 0 0 0 0 0 0 0 0 0 0 0 0 0 0 127 0" result="hardAlpha"/>
<feOffset dy="4"/>
<feGaussianBlur stdDeviation="2"/>
<feComposite in2="hardAlpha" operator="out"/>
<feColorMatrix type="matrix" values="0 0 0 0 0 0 0 0 0 0 0 0 0 0 0 0 0 0 0.25 0"/>
<feBlend mode="normal" in2="BackgroundImageFix" result="effect1_dropShadow_6616_23925"/>
<feBlend mode="normal" in="SourceGraphic" in2="effect1_dropShadow_6616_23925" result="shape"/>
</filter>
</defs>
</svg>
