<svg width="16" height="17" viewBox="0 0 16 17" fill="none" xmlns="http://www.w3.org/2000/svg">
<path fill-rule="evenodd" clip-rule="evenodd" d="M1.33301 4.76562C1.33301 4.23519 1.54372 3.72648 1.91879 3.35141C2.29387 2.97634 2.80257 2.76563 3.33301 2.76562H12.6663C13.1968 2.76563 13.7055 2.97634 14.0806 3.35141C14.4556 3.72648 14.6663 4.23519 14.6663 4.76562V13.099C14.6663 13.6294 14.4556 14.1381 14.0806 14.5132C13.7055 14.8882 13.1968 15.099 12.6663 15.099H3.33301C2.80257 15.099 2.29387 14.8882 1.91879 14.5132C1.54372 14.1381 1.33301 13.6294 1.33301 13.099V4.76562ZM3.33301 4.09896C3.1562 4.09896 2.98663 4.1692 2.8616 4.29422C2.73658 4.41924 2.66634 4.58881 2.66634 4.76562V6.43229H5.33301V4.09896H3.33301ZM6.66634 4.09896V6.43229H13.333V4.76562C13.333 4.58881 13.2628 4.41924 13.1377 4.29422C13.0127 4.1692 12.8432 4.09896 12.6663 4.09896H6.66634ZM13.333 7.76562H6.66634V10.099H13.333V7.76562ZM13.333 11.4323H6.66634V13.7656H12.6663C12.8432 13.7656 13.0127 13.6954 13.1377 13.5704C13.2628 13.4453 13.333 13.2758 13.333 13.099V11.4323ZM5.33301 13.7656V11.4323H2.66634V13.099C2.66634 13.2758 2.73658 13.4453 2.8616 13.5704C2.98663 13.6954 3.1562 13.7656 3.33301 13.7656H5.33301ZM2.66634 10.099H5.33301V7.76562H2.66634V10.099Z" fill="#656F7D"/>
</svg>
