<svg width="17" height="17" viewBox="0 0 17 17" fill="none" xmlns="http://www.w3.org/2000/svg">
<path fill-rule="evenodd" clip-rule="evenodd" d="M4.9502 4.10384H8.12153C8.29833 4.10388 8.46787 4.17414 8.59286 4.29917L13.5929 9.29917C13.7178 9.42419 13.7881 9.59373 13.7881 9.77051C13.7881 9.94728 13.7178 10.1168 13.5929 10.2418L10.4215 13.4138C10.2965 13.5388 10.127 13.609 9.9502 13.609C9.77342 13.609 9.60388 13.5388 9.47886 13.4138L4.47886 8.41384C4.41679 8.35179 4.36759 8.2781 4.33407 8.19698C4.30055 8.11587 4.28337 8.02894 4.28353 7.94117V4.77051C4.28353 4.5937 4.35377 4.42413 4.47879 4.2991C4.60382 4.17408 4.77339 4.10384 4.9502 4.10384ZM2.9502 4.77051C2.9502 4.24007 3.16091 3.73137 3.53598 3.35629C3.91106 2.98122 4.41976 2.77051 4.9502 2.77051H8.12153C8.38426 2.77048 8.64443 2.82221 8.88716 2.92276C9.1299 3.02331 9.35044 3.1707 9.5362 3.35651L14.5362 8.35651C14.9111 8.73156 15.1218 9.24018 15.1218 9.77051C15.1218 10.3008 14.9111 10.8095 14.5362 11.1845L11.3635 14.3572C10.9885 14.7321 10.4799 14.9427 9.94953 14.9427C9.4192 14.9427 8.91058 14.7321 8.53553 14.3572L3.53553 9.35717C3.34976 9.17129 3.20245 8.95061 3.10201 8.70776C3.00158 8.46491 2.94999 8.20464 2.9502 7.94184V4.77051ZM6.9502 7.77051C7.21541 7.77051 7.46977 7.66515 7.6573 7.47761C7.84484 7.29008 7.9502 7.03572 7.9502 6.77051C7.9502 6.50529 7.84484 6.25094 7.6573 6.0634C7.46977 5.87586 7.21541 5.77051 6.9502 5.77051C6.68498 5.77051 6.43063 5.87586 6.24309 6.0634C6.05555 6.25094 5.9502 6.50529 5.9502 6.77051C5.9502 7.03572 6.05555 7.29008 6.24309 7.47761C6.43063 7.66515 6.68498 7.77051 6.9502 7.77051Z" fill="#656F7D"/>
</svg>
