<svg width="17" height="17" viewBox="0 0 17 17" fill="none" xmlns="http://www.w3.org/2000/svg">
<g clip-path="url(#clip0_6616_34125)">
<path fill-rule="evenodd" clip-rule="evenodd" d="M11.8842 5.83081C12.0091 5.95575 12.0792 6.12518 12.0792 6.30185C12.0792 6.47852 12.0091 6.64795 11.8842 6.77289L9.55228 9.10476L8.6102 8.16269L10.9421 5.83081C11.067 5.70591 11.2364 5.63574 11.4131 5.63574C11.5898 5.63574 11.7592 5.70591 11.8842 5.83081ZM15.8817 5.83081C16.0066 5.95575 16.0767 6.12518 16.0767 6.30185C16.0767 6.47852 16.0066 6.64795 15.8817 6.77289L10.5517 12.1029C10.4267 12.2278 10.2573 12.298 10.0806 12.298C9.90395 12.298 9.73451 12.2278 9.60957 12.1029L6.27832 8.77164C6.21469 8.71018 6.16393 8.63666 6.12902 8.55538C6.0941 8.47409 6.07572 8.38667 6.07495 8.2982C6.07418 8.20974 6.09104 8.12201 6.12454 8.04013C6.15804 7.95825 6.20751 7.88386 6.27007 7.8213C6.33262 7.75875 6.40701 7.70928 6.48889 7.67578C6.57077 7.64228 6.6585 7.62542 6.74696 7.62619C6.83543 7.62696 6.92285 7.64534 7.00414 7.68025C7.08542 7.71517 7.15894 7.76593 7.2204 7.82956L10.0806 10.6898L14.9396 5.83081C15.0645 5.70591 15.2339 5.63574 15.4106 5.63574C15.5873 5.63574 15.7567 5.70591 15.8817 5.83081ZM2.28082 7.82956C2.40576 7.70466 2.5752 7.63449 2.75186 7.63449C2.92853 7.63449 3.09796 7.70466 3.2229 7.82956L6.08311 10.6898L6.61145 10.1614L7.55353 11.1035L6.55415 12.1029C6.42921 12.2278 6.25978 12.298 6.08311 12.298C5.90645 12.298 5.73701 12.2278 5.61207 12.1029L2.28082 8.77164C2.15592 8.6467 2.08575 8.47727 2.08575 8.3006C2.08575 8.12393 2.15592 7.9545 2.28082 7.82956Z" fill="#ADB3BD"/>
</g>
<defs>
<clipPath id="clip0_6616_34125">
<rect width="15.99" height="15.99" fill="white" transform="translate(0.752747 0.972168)"/>
</clipPath>
</defs>
</svg>
