<svg width="21" height="21" viewBox="0 0 21 21" fill="none" xmlns="http://www.w3.org/2000/svg">
<rect x="1.39844" y="0.643555" width="19" height="19" rx="3.5" fill="#E5E4FC"/>
<rect x="1.39844" y="0.643555" width="19" height="19" rx="3.5" stroke="#F2F1FE"/>
<path d="M5.67733 5.116C6.47084 4.34823 7.73721 4.35998 8.55423 5.10313C8.58764 5.13374 8.61257 5.17246 8.62661 5.21554C8.64065 5.25862 8.64333 5.30459 8.63438 5.34901C8.62543 5.39342 8.60515 5.43478 8.57552 5.46905C8.54589 5.50333 8.50791 5.52937 8.46525 5.54465C7.36328 5.95172 6.41796 6.69631 5.76406 7.67225C5.73936 7.70917 5.7057 7.73921 5.66622 7.75956C5.62674 7.77992 5.58274 7.78992 5.53834 7.78863C5.49395 7.78735 5.4506 7.77481 5.41237 7.75221C5.37414 7.7296 5.34226 7.69766 5.31974 7.65938C5.08626 7.25658 4.99456 6.78713 5.05928 6.32607C5.124 5.86501 5.34197 5.43896 5.67733 5.116ZM15.6667 5.09809C14.8609 4.34263 13.5945 4.37397 12.7893 5.12999C12.7565 5.16108 12.7323 5.20009 12.719 5.24324C12.7057 5.28639 12.7038 5.33225 12.7133 5.37638C12.7229 5.42051 12.7437 5.46144 12.7736 5.49523C12.8036 5.52901 12.8417 5.55451 12.8844 5.56928C13.9928 5.95934 14.9497 6.68945 15.6186 7.65546C15.6439 7.69193 15.678 7.72139 15.7177 7.7411C15.7575 7.76081 15.8016 7.77012 15.8459 7.76817C15.8902 7.76621 15.9333 7.75305 15.9712 7.72992C16.009 7.70678 16.0404 7.67443 16.0624 7.63588C16.2897 7.22956 16.3743 6.75874 16.3026 6.2987C16.2309 5.83865 16.007 5.41592 15.6667 5.09809ZM11.1732 9.01977C11.1732 8.87135 11.1142 8.72902 11.0093 8.62407C10.9043 8.51913 10.762 8.46017 10.6136 8.46017C10.4651 8.46017 10.3228 8.51913 10.2179 8.62407C10.1129 8.72902 10.054 8.87135 10.054 9.01977V10.9784C10.054 11.1268 10.113 11.2691 10.2179 11.374L11.5011 12.609C11.6066 12.711 11.748 12.7674 11.8947 12.7661C12.0414 12.7648 12.1818 12.706 12.2855 12.6022C12.3893 12.4985 12.4481 12.3581 12.4494 12.2114C12.4507 12.0647 12.3943 11.9233 12.2924 11.8178L11.1732 10.7467V9.01977Z" fill="#544DC9"/>
<path fill-rule="evenodd" clip-rule="evenodd" d="M5.88868 10.9112C5.88866 10.1524 6.06767 9.4043 6.41117 8.7277C6.75467 8.0511 7.25295 7.46509 7.86554 7.0173C8.47812 6.5695 9.18771 6.27256 9.93665 6.1506C10.6856 6.02864 11.4527 6.0851 12.1757 6.3154C12.8987 6.5457 13.5572 6.94334 14.0976 7.476C14.638 8.00865 15.0452 8.6613 15.2859 9.3809C15.5266 10.1005 15.5942 10.8668 15.4831 11.6174C15.372 12.368 15.0853 13.0818 14.6464 13.7008L15.7013 14.7556C15.7545 14.8089 15.7967 14.8721 15.8256 14.9417C15.8544 15.0112 15.8692 15.0858 15.8692 15.1611C15.8692 15.2364 15.8544 15.3109 15.8256 15.3805C15.7967 15.4501 15.7545 15.5133 15.7013 15.5665C15.648 15.6197 15.5848 15.662 15.5152 15.6908C15.4457 15.7196 15.3711 15.7344 15.2958 15.7344C15.2205 15.7344 15.146 15.7196 15.0764 15.6908C15.0069 15.662 14.9436 15.6197 14.8904 15.5665L13.8758 14.5514C12.9992 15.3157 11.875 15.7361 10.7119 15.7344C9.54733 15.7362 8.42177 15.3151 7.54453 14.5492L6.5283 15.5665C6.4207 15.6741 6.27476 15.7346 6.12259 15.7346C5.97042 15.7346 5.82448 15.6741 5.71688 15.5665C5.60928 15.4589 5.54883 15.313 5.54883 15.1608C5.54883 15.0086 5.60928 14.8627 5.71688 14.7551L6.77508 13.6974C6.1973 12.8834 5.88766 11.9095 5.88924 10.9112H5.88868ZM10.7119 7.22735C10.2242 7.22134 9.74027 7.31219 9.28802 7.49464C8.83578 7.67709 8.42425 7.9475 8.0773 8.2902C7.73035 8.6329 7.45488 9.04107 7.26688 9.49103C7.07887 9.941 6.98206 10.4238 6.98206 10.9115C6.98206 11.3991 7.07887 11.882 7.26688 12.3319C7.45488 12.7819 7.73035 13.19 8.0773 13.5327C8.42425 13.8754 8.83578 14.1459 9.28802 14.3283C9.74027 14.5108 10.2242 14.6016 10.7119 14.5956C11.6811 14.5837 12.6066 14.1902 13.2877 13.5006C13.9689 12.811 14.3509 11.8808 14.3509 10.9115C14.3509 9.94217 13.9689 9.01192 13.2877 8.32231C12.6066 7.6327 11.6811 7.23929 10.7119 7.22735Z" fill="#544DC9"/>
</svg>
