<svg width="17" height="17" viewBox="0 0 17 17" fill="none" xmlns="http://www.w3.org/2000/svg">
<g clip-path="url(#clip0_6616_15724)">
<path fill-rule="evenodd" clip-rule="evenodd" d="M5.00094 0.889648C5.17764 0.889648 5.3471 0.959842 5.47205 1.08479C5.59699 1.20973 5.66719 1.3792 5.66719 1.5559V2.22215H10.9972V1.5559C10.9972 1.3792 11.0674 1.20973 11.1923 1.08479C11.3173 0.959842 11.4867 0.889648 11.6634 0.889648C11.8401 0.889648 12.0096 0.959842 12.1345 1.08479C12.2595 1.20973 12.3297 1.3792 12.3297 1.5559V2.3061C13.479 2.60191 14.3284 3.64526 14.3284 4.88715V11.5496C14.3284 12.2565 14.0477 12.9343 13.5479 13.4341C13.0481 13.9339 12.3702 14.2146 11.6634 14.2146H5.00094C4.29414 14.2146 3.61628 13.9339 3.1165 13.4341C2.61671 12.9343 2.33594 12.2565 2.33594 11.5496V4.88715C2.33602 4.29627 2.53236 3.72216 2.89414 3.25498C3.25592 2.78781 3.76263 2.45404 4.33469 2.3061V1.5559C4.33469 1.3792 4.40488 1.20973 4.52983 1.08479C4.65477 0.959842 4.82424 0.889648 5.00094 0.889648ZM5.00094 3.55465C4.64754 3.55465 4.30861 3.69504 4.05872 3.94493C3.80883 4.19482 3.66844 4.53375 3.66844 4.88715V5.5534H12.9959V4.88715C12.9959 4.53375 12.8555 4.19482 12.6057 3.94493C12.3558 3.69504 12.0168 3.55465 11.6634 3.55465H5.00094ZM12.9959 6.8859H3.66844V11.5496C3.66844 11.903 3.80883 12.242 4.05872 12.4919C4.30861 12.7418 4.64754 12.8821 5.00094 12.8821H11.6634C12.0168 12.8821 12.3558 12.7418 12.6057 12.4919C12.8555 12.242 12.9959 11.903 12.9959 11.5496V6.8859Z" fill="#4F5762"/>
</g>
<defs>
<clipPath id="clip0_6616_15724">
<rect width="15.99" height="15.99" fill="white" transform="translate(0.337891 0.223633)"/>
</clipPath>
</defs>
</svg>
