<svg width="17" height="17" viewBox="0 0 17 17" fill="none" xmlns="http://www.w3.org/2000/svg">
<path fill-rule="evenodd" clip-rule="evenodd" d="M7.47039 3.48875H10.1354V4.155H7.47039V3.48875ZM6.13789 4.155V3.48875C6.13789 3.13535 6.27828 2.79642 6.52817 2.54653C6.77806 2.29664 7.11699 2.15625 7.47039 2.15625H10.1354C10.4888 2.15625 10.8277 2.29664 11.0776 2.54653C11.3275 2.79642 11.4679 3.13535 11.4679 3.48875V4.155H14.1329C14.3096 4.155 14.4791 4.22519 14.604 4.35014C14.7289 4.47509 14.7991 4.64455 14.7991 4.82125C14.7991 4.99795 14.7289 5.16741 14.604 5.29236C14.4791 5.41731 14.3096 5.4875 14.1329 5.4875H13.4666V14.1488C13.4666 14.5022 13.3263 14.8411 13.0764 15.091C12.8265 15.3409 12.4875 15.4812 12.1341 15.4812H5.47164C5.11824 15.4812 4.77931 15.3409 4.52942 15.091C4.27953 14.8411 4.13914 14.5022 4.13914 14.1488V5.4875H3.47289C3.29619 5.4875 3.12673 5.41731 3.00178 5.29236C2.87683 5.16741 2.80664 4.99795 2.80664 4.82125C2.80664 4.64455 2.87683 4.47509 3.00178 4.35014C3.12673 4.22519 3.29619 4.155 3.47289 4.155H6.13789ZM10.1354 5.4875H5.47164V14.1488H12.1341V5.4875H10.1354ZM7.47039 7.48625C7.64709 7.48625 7.81655 7.55644 7.9415 7.68139C8.06645 7.80634 8.13664 7.9758 8.13664 8.1525V11.4837C8.13664 11.6604 8.06645 11.8299 7.9415 11.9549C7.81655 12.0798 7.64709 12.15 7.47039 12.15C7.29369 12.15 7.12423 12.0798 6.99928 11.9549C6.87433 11.8299 6.80414 11.6604 6.80414 11.4837V8.1525C6.80414 7.9758 6.87433 7.80634 6.99928 7.68139C7.12423 7.55644 7.29369 7.48625 7.47039 7.48625ZM10.8016 8.1525C10.8016 7.9758 10.7314 7.80634 10.6065 7.68139C10.4816 7.55644 10.3121 7.48625 10.1354 7.48625C9.95869 7.48625 9.78923 7.55644 9.66428 7.68139C9.53933 7.80634 9.46914 7.9758 9.46914 8.1525V11.4837C9.46914 11.6604 9.53933 11.8299 9.66428 11.9549C9.78923 12.0798 9.95869 12.15 10.1354 12.15C10.3121 12.15 10.4816 12.0798 10.6065 11.9549C10.7314 11.8299 10.8016 11.6604 10.8016 11.4837V8.1525Z" fill="#808080"/>
</svg>
