<svg width="111" height="35" viewBox="0 0 111 35" fill="none" xmlns="http://www.w3.org/2000/svg">
<g id="trello.cb8c36c8481c6c34aba82b7a3052b7ca.svg" clip-path="url(#clip0_6893_29470)">
<path id="Vector" fill-rule="evenodd" clip-rule="evenodd" d="M89.9533 24.8129C88.3662 25.4601 87.1142 27.6969 85.2094 28.9684C85.0909 29.0471 84.9729 29.0869 84.8942 29.0869C84.7369 29.0869 84.5402 28.9287 84.5402 28.2197C84.5402 25.7756 85.327 24.5933 85.9966 22.859C88.3193 16.8288 92.2959 11.6656 95.8389 6.02957C96.1143 5.59599 96.2721 5.12308 96.2721 4.61083C96.2721 4.17725 96.1143 3.82236 95.9176 3.38878C95.7603 3.03431 95.0518 2.71875 94.2641 2.71875C93.831 2.71875 93.4376 2.75808 92.9258 2.75808C91.0751 2.75808 90.6817 5.47798 90.2482 6.18735C87.2956 11.1927 83.9099 17.3808 82.1777 21.7554C81.7979 22.7364 81.3876 23.7169 81.0758 24.7236C79.3639 25.2198 78.0814 27.6296 76.076 28.9684C75.9575 29.0471 75.8391 29.0869 75.7608 29.0869C75.603 29.0869 75.4064 28.9287 75.4064 28.2197C75.4064 25.7756 76.1936 24.5933 76.8632 22.859C79.1854 16.8288 83.1621 11.6656 86.7051 6.02957C86.9809 5.59599 87.1383 5.12308 87.1383 4.61083C87.1383 4.17725 86.9809 3.82236 86.7842 3.38878C86.6264 3.03431 85.9179 2.71875 85.1303 2.71875C84.6975 2.71875 84.3037 2.75808 83.7919 2.75808C81.9417 2.75808 81.5479 5.47798 81.1147 6.18735C78.1622 11.1927 74.7765 17.3808 73.0439 21.7554C72.9064 22.1108 72.7647 22.4665 72.6251 22.8235C72.5805 22.8474 72.5365 22.8723 72.4931 22.8984C70.4852 24.0811 68.7923 26.1699 66.3512 27.5886C65.8791 27.8648 64.4223 28.8893 63.2413 28.8893C62.9659 28.8893 62.7295 28.8107 62.4934 28.6922C62.139 28.5349 61.7845 27.7857 61.7845 27.5493C61.7845 27.3521 61.8238 27.3128 62.2176 27.0764C65.682 24.9876 68.5169 21.9919 70.9577 18.9966C71.8629 17.893 73.0443 15.7251 73.0443 14.1491C73.0443 13.1241 72.6899 11.9414 71.4695 11.5078C70.6032 11.1927 69.6193 11.0349 68.8317 11.0349C66.745 11.0349 65.2099 11.9812 64.3436 12.8877C63.4617 13.8301 62.6093 14.7975 61.8166 15.7992C60.9888 15.0839 59.8209 14.7797 58.7139 14.7797C57.4145 14.7797 54.9738 16.3956 53.7141 17.3414C53.517 17.4988 53.3989 17.5779 53.3207 17.5779C53.2809 17.5779 53.2416 17.5381 53.2416 17.4595C53.2416 17.4201 53.3203 17.0652 53.3203 16.4349C53.3203 15.8829 53.2018 15.1736 52.69 14.3064C52.5724 14.1093 51.8634 13.6761 50.9976 13.6761C49.9346 13.6761 48.9502 14.188 48.9502 14.74C48.9502 15.1342 49.3047 15.2916 49.3047 15.6465C49.3047 15.8436 49.1474 16.7501 48.9113 17.6172C48.2417 20.1396 47.4147 22.6226 46.5489 25.1056C46.0764 26.4854 44.5015 27.7071 44.5015 29.2045C44.5015 29.6778 44.8167 30.3085 45.2494 30.7814C45.9584 31.5695 46.3915 31.8457 47.0214 31.8457C47.3387 31.8487 47.6463 31.7366 47.8872 31.5301C48.4777 31.0179 48.7925 30.5056 48.9502 29.7958C49.9739 25.1454 52.9264 21.9919 56.1941 19.9031C57.2965 19.1938 58.7926 18.445 58.9893 18.445C59.1911 18.445 59.5071 18.5381 59.8252 18.629C58.9115 20.1205 58.1712 21.6937 57.6903 23.3717C57.5329 23.9233 57.4542 24.4356 57.4542 24.9876C57.4542 25.8941 57.6509 26.8403 57.9661 27.7464C58.3988 29.0078 59.1077 30.111 60.0916 30.6236C61.9029 31.5695 63.202 32.0821 64.383 32.0821C65.0522 32.0821 65.564 31.9637 66.1152 31.6486C68.7026 30.1829 70.2893 29.0708 71.4348 28.0831C71.4661 29.0843 71.6632 29.6393 72.3751 30.3872C73.0837 31.1359 74.1856 31.8059 75.6424 32.1215C75.8788 32.1608 76.1149 32.2002 76.3513 32.2002C78.0179 32.2002 79.6216 30.844 80.8584 29.4997C81.0018 29.7929 81.2095 30.0729 81.5085 30.3872C82.2171 31.1359 83.3194 31.8059 84.7762 32.1215C85.0123 32.1608 85.2487 32.2002 85.4848 32.2002C87.4373 32.2002 89.3032 30.339 90.5942 28.8162C91.0244 29.707 92.227 30.5881 93.6736 31.2937C94.067 31.4908 94.5399 31.6088 94.9726 31.6088C96.6655 31.6088 97.8863 30.2298 98.8308 29.2049C101.272 26.5248 102.61 23.2139 103.634 19.036C103.713 18.7208 103.831 18.6024 103.988 18.6024C104.382 18.6024 104.894 18.6024 105.445 18.5237C106.508 18.3659 107.335 18.0115 108.319 17.8537C108.91 17.7352 108.831 17.5381 109.382 17.3414C109.776 17.1837 110.091 17.0259 110.091 16.6316C110.091 15.9616 108.87 15.2527 107.02 15.2527C105.563 15.2527 104.697 15.3707 104.106 15.3707C103.201 15.3707 102.964 15.0949 102.374 13.5577C102.256 13.2421 102.138 13.0848 101.784 12.7692C100.957 12.0599 99.9332 11.8234 99.1062 11.8234C97.138 11.8234 95.4451 13.8335 94.2641 15.528C93.9888 15.9223 93.5949 16.2378 93.3191 16.6714C91.6974 19.1066 90.1449 21.8532 89.9533 24.8129ZM39.6197 11.3898C40.604 11.3898 41.1552 11.3111 41.2736 11.3111C41.3912 11.3111 41.4703 11.3505 41.4703 11.4685C41.4703 11.5476 41.431 11.6656 41.1552 12.257C38.7538 17.4201 37.1003 22.6619 35.6435 28.4558C35.6042 28.6135 35.4862 29.2045 35.4862 29.7958C35.4862 30.3478 35.6435 30.9388 36.1947 31.2543C37.2577 31.8846 38.1236 32.1608 38.7145 32.1608C39.5804 32.1608 40.0135 31.6088 40.0135 30.7023C40.0135 29.9143 40.0529 29.0865 40.1709 28.4562C41.2732 22.6619 42.9267 18.1295 45.4859 13.3999C46.7062 11.1534 46.8636 11.0354 46.8636 10.8378C46.8636 10.7591 46.8242 10.6411 46.7456 10.5227C48.3204 10.1678 50.2099 9.93132 51.9425 9.93132C52.1392 9.93132 52.9264 10.2075 53.0449 10.3256C53.3203 10.6013 53.5961 10.8776 54.0685 10.8776C54.4619 10.8776 55.1311 10.6014 55.3672 10.444C55.9187 10.0498 56.1941 9.61619 56.1941 8.90682C56.1941 8.23678 53.7141 6.58116 51.9819 6.58116C49.8559 6.58116 47.9266 6.85738 46.1157 7.21185C45.3285 7.36963 42.4936 7.80321 40.4467 7.80321C38.478 7.80321 38.5961 7.52741 37.7691 7.52741C37.297 7.52741 37.061 7.76387 36.8639 7.96098C36.6672 8.15768 36.5492 8.94615 36.5492 9.65552C36.5492 10.0104 36.5492 10.2862 36.7458 10.5227C37.3364 11.232 38.478 11.3898 39.6197 11.3898ZM68.7923 14.5822C68.7923 14.9371 68.6739 15.1736 68.2018 15.9223C67.7293 16.671 67.926 16.671 67.3355 17.4595C66.1938 18.9966 64.7764 20.5338 62.9262 22.2284C62.4143 22.7017 62.3357 22.7017 62.257 22.7017C62.2176 22.7017 62.139 22.6619 62.139 22.5833C62.139 22.4648 62.1783 22.3075 62.5721 21.4796C63.7925 18.918 65.2886 17.223 66.9417 15.5678C67.8473 14.6613 68.3985 14.3458 68.5956 14.3458C68.7137 14.3458 68.7923 14.3851 68.7923 14.5826V14.5822ZM99.0673 15.6071C99.1066 15.6071 99.146 15.6465 99.1853 15.7256C99.2246 15.8436 99.3037 15.9616 99.5004 16.1194C99.6578 16.2378 99.6578 16.7894 99.6578 17.2234C99.6578 21.0461 97.492 24.1991 95.3664 27.3919C94.894 28.1013 94.6186 28.2193 94.3821 28.2193C94.1854 28.2193 93.8703 27.7071 93.7523 27.3919C93.5949 26.9583 93.5556 26.4457 93.5556 26.2485C93.5556 23.1746 96.4688 18.6024 98.3981 16.0796C98.7128 15.6465 98.9493 15.6071 99.0673 15.6071ZM9.39255 7.07311C8.98379 7.07305 8.57905 7.15358 8.20144 7.31008C7.82383 7.46658 7.48077 7.69598 7.1919 7.98517C6.90302 8.27436 6.674 8.61767 6.51791 8.99544C6.36182 9.37322 6.28173 9.77806 6.28223 10.1868V28.842C6.28178 29.2507 6.36191 29.6555 6.51802 30.0332C6.67414 30.4109 6.90318 30.7542 7.19205 31.0433C7.48092 31.3325 7.82395 31.5618 8.20153 31.7183C8.57911 31.8748 8.98383 31.9553 9.39255 31.9552H28.0265C28.4352 31.9552 28.8399 31.8747 29.2174 31.7182C29.595 31.5617 29.9379 31.3323 30.2268 31.0432C30.5156 30.754 30.7446 30.4108 30.9007 30.0331C31.0568 29.6554 31.1369 29.2506 31.1364 28.842V10.1868C31.1369 9.77813 31.0568 9.37337 30.9007 8.99567C30.7446 8.61797 30.5156 8.27473 30.2268 7.9856C29.9379 7.69646 29.595 7.46708 29.2174 7.31058C28.8399 7.15408 28.4352 7.07353 28.0265 7.07353H9.39255V7.07311ZM21.8182 10.3078C21.622 10.3078 21.4278 10.3464 21.2467 10.4215C21.0655 10.4966 20.9008 10.6066 20.7622 10.7453C20.6235 10.884 20.5135 11.0486 20.4385 11.2299C20.3635 11.4111 20.3249 11.6053 20.325 11.8014V19.7623C20.3247 19.9585 20.3631 20.1528 20.4381 20.3341C20.513 20.5155 20.623 20.6802 20.7617 20.819C20.9004 20.9578 21.0651 21.0679 21.2464 21.1429C21.4276 21.2179 21.622 21.2565 21.8182 21.2563H26.4124C26.6085 21.2563 26.8027 21.2177 26.9839 21.1426C27.1651 21.0675 27.3297 20.9575 27.4684 20.8188C27.607 20.6801 27.717 20.5154 27.792 20.3342C27.867 20.153 27.9056 19.9588 27.9056 19.7627V11.8018C27.9059 11.6056 27.8674 11.4113 27.7925 11.2299C27.7176 11.0486 27.6076 10.8838 27.4689 10.7451C27.3302 10.6063 27.1655 10.4962 26.9842 10.4212C26.8029 10.3462 26.6086 10.3076 26.4124 10.3078H21.8182ZM11.0063 10.3078C10.8102 10.3077 10.6159 10.3463 10.4347 10.4214C10.2535 10.4964 10.0888 10.6064 9.95017 10.7452C9.8115 10.8839 9.70153 11.0485 9.62653 11.2298C9.55154 11.411 9.51299 11.6053 9.5131 11.8014V25.9833C9.5131 26.8082 10.1793 27.4765 11.0063 27.4765H15.6009C16.4258 27.4765 17.0941 26.809 17.0941 25.9833V11.8014C17.0941 10.9766 16.4279 10.3082 15.6009 10.3082H11.0067L11.0063 10.3078Z" fill="url(#paint0_linear_6893_29470)"/>
</g>
<defs>
<linearGradient id="paint0_linear_6893_29470" x1="5196.7" y1="2.71875" x2="5196.7" y2="2950.86" gradientUnits="userSpaceOnUse">
<stop stop-color="#0091E6"/>
<stop offset="1" stop-color="#0079BF"/>
</linearGradient>
<clipPath id="clip0_6893_29470">
<rect width="109.98" height="33.84" fill="white" transform="translate(0.0683594 0.90625)"/>
</clipPath>
</defs>
</svg>
