<svg width="17" height="17" viewBox="0 0 17 17" fill="none" xmlns="http://www.w3.org/2000/svg">
<path fill-rule="evenodd" clip-rule="evenodd" d="M8.71776 12.177C8.65262 12.2916 8.56546 12.3921 8.4613 12.4729C8.35713 12.5536 8.23803 12.613 8.11083 12.6475C7.98364 12.6821 7.85087 12.6911 7.72017 12.6741C7.58948 12.6571 7.46343 12.6144 7.34929 12.5485C7.23515 12.4826 7.13517 12.3948 7.05512 12.2901C6.97506 12.1854 6.9165 12.0659 6.88281 11.9385C6.84912 11.8111 6.84097 11.6783 6.85883 11.5477C6.87668 11.4171 6.92019 11.2913 6.98684 11.1776C7.45122 10.3735 6.87158 9.36876 5.9435 9.36876H4.87616C4.6575 9.36885 4.44217 9.31512 4.24918 9.21232C4.05618 9.10952 3.89146 8.9608 3.76953 8.77929C3.64759 8.59777 3.57221 8.38904 3.55001 8.1715C3.52782 7.95397 3.5595 7.73431 3.64227 7.53191L5.00542 4.20066C5.1055 3.9559 5.27616 3.74646 5.49565 3.59898C5.71514 3.45151 5.97355 3.37267 6.23798 3.37251H9.5599C9.9133 3.37251 10.2522 3.5129 10.5021 3.7628C10.752 4.01269 10.8924 4.35161 10.8924 4.70502V8.03626C10.8924 8.34407 10.7885 8.6259 10.6139 8.85176C10.4334 9.08494 10.2981 9.34012 10.1982 9.59129C10.1802 9.6366 10.1589 9.68124 10.1335 9.72454L8.71776 12.177ZM11.3808 10.2136C11.3521 10.2735 11.3215 10.3335 11.2875 10.3915L9.87237 12.8433C9.57265 13.3633 9.08393 13.7478 8.50792 13.9166C7.93191 14.0854 7.31298 14.0256 6.77993 13.7497C6.24689 13.4737 5.84079 13.0028 5.64615 12.435C5.45151 11.8672 5.48332 11.2462 5.73496 10.7013H4.8755C2.98068 10.7013 1.69082 8.78047 2.40837 7.02756L3.77152 3.69631C3.97178 3.20658 4.31329 2.78754 4.75253 2.49258C5.19178 2.19761 5.70888 2.04007 6.23798 2.04001H9.5599C10.1827 2.03914 10.786 2.25729 11.2642 2.65629C11.4202 2.46357 11.6174 2.3082 11.8413 2.20156C12.0652 2.09492 12.3101 2.03973 12.558 2.04001H13.3908C13.9651 2.04001 14.5159 2.26814 14.9219 2.67422C15.328 3.08029 15.5562 3.63105 15.5562 4.20533V8.53595C15.5562 9.11023 15.328 9.66098 14.9219 10.0671C14.5159 10.4731 13.9651 10.7013 13.3908 10.7013H12.558C12.0983 10.7013 11.6819 10.5147 11.3808 10.2136ZM12.2249 8.03626V9.03564C12.2249 9.12399 12.26 9.20872 12.3225 9.2712C12.3849 9.33367 12.4697 9.36876 12.558 9.36876H13.3908C13.8506 9.36876 14.2237 8.99567 14.2237 8.53595V4.20533C14.2237 3.74562 13.8506 3.37251 13.3908 3.37251H12.558C12.4697 3.37251 12.3849 3.40761 12.3225 3.47009C12.26 3.53256 12.2249 3.61729 12.2249 3.70564V8.03626Z" fill="#4F5762"/>
</svg>
