<svg width="17" height="17" viewBox="0 0 17 17" fill="none" xmlns="http://www.w3.org/2000/svg">
<path fill-rule="evenodd" clip-rule="evenodd" d="M3.68289 5.27335C4.20161 4.33662 4.96176 3.55592 5.88432 3.01239C6.80688 2.46886 7.85818 2.18234 8.92894 2.18262C9.95058 2.18201 10.9554 2.44264 11.8479 2.93975C12.7405 3.43686 13.4911 4.15393 14.0284 5.02284L14.2789 4.01947C14.2997 3.93406 14.3371 3.8536 14.3891 3.78273C14.4411 3.71185 14.5066 3.65196 14.5818 3.60651C14.657 3.56106 14.7405 3.53094 14.8274 3.51789C14.9143 3.50484 15.003 3.50912 15.0883 3.53047C15.1735 3.55183 15.2537 3.58985 15.3242 3.64234C15.3947 3.69482 15.4541 3.76074 15.499 3.83629C15.544 3.91184 15.5735 3.99553 15.5859 4.08254C15.5983 4.16955 15.5934 4.25816 15.5715 4.34327L14.9052 7.00827C14.8623 7.17952 14.7531 7.32672 14.6017 7.41754C14.4503 7.50836 14.269 7.53536 14.0977 7.49263L11.4327 6.82638C11.3465 6.8064 11.2652 6.76946 11.1935 6.71772C11.1217 6.66598 11.061 6.60047 11.0149 6.52501C10.9687 6.44956 10.938 6.36567 10.9246 6.27823C10.9112 6.1908 10.9154 6.10157 10.9368 6.01576C10.9583 5.92995 10.9966 5.84926 11.0496 5.77842C11.1025 5.70757 11.1691 5.64798 11.2453 5.60313C11.3216 5.55827 11.406 5.52904 11.4936 5.51715C11.5813 5.50526 11.6704 5.51093 11.7558 5.53386L12.9618 5.83567C12.5516 5.1296 11.9632 4.54363 11.2555 4.13639C10.5478 3.72914 9.74548 3.51491 8.92894 3.51512C8.09579 3.51478 7.27777 3.73771 6.55998 4.16069C5.84219 4.58368 5.25085 5.19128 4.84749 5.92028C4.75974 6.07094 4.61643 6.18121 4.44831 6.2274C4.28019 6.2736 4.10066 6.25206 3.94824 6.16739C3.79582 6.08273 3.68267 5.94169 3.63306 5.77454C3.58345 5.60739 3.60134 5.42746 3.68289 5.27335ZM3.25649 8.93973C3.40806 8.84897 3.58948 8.82213 3.76084 8.86511L6.42584 9.53136C6.51125 9.5521 6.59171 9.58955 6.66258 9.64153C6.73346 9.69351 6.79335 9.759 6.8388 9.83423C6.88425 9.90946 6.91437 9.99294 6.92742 10.0799C6.94047 10.1668 6.93619 10.2554 6.91484 10.3407C6.89348 10.4259 6.85546 10.5061 6.80297 10.5766C6.75049 10.6471 6.68457 10.7065 6.60902 10.7515C6.53347 10.7964 6.44978 10.8259 6.36277 10.8383C6.27576 10.8508 6.18715 10.8458 6.10204 10.8239L4.89613 10.5221C5.30627 11.2281 5.89464 11.8141 6.60238 12.2214C7.31012 12.6286 8.1124 12.8428 8.92894 12.8426C9.76209 12.843 10.5801 12.62 11.2979 12.197C12.0157 11.7741 12.607 11.1665 13.0104 10.4375C13.0981 10.2868 13.2415 10.1765 13.4096 10.1303C13.5777 10.0841 13.7572 10.1057 13.9096 10.1903C14.0621 10.275 14.1752 10.416 14.2248 10.5832C14.2744 10.7503 14.2565 10.9303 14.175 11.0844C13.6563 12.0211 12.8961 12.8018 11.9736 13.3454C11.051 13.8889 9.99971 14.1754 8.92894 14.1751C7.90731 14.1757 6.90248 13.9151 6.00994 13.418C5.11741 12.9209 4.36681 12.2038 3.82946 11.3349L3.57895 12.3383C3.55897 12.4244 3.52204 12.5058 3.4703 12.5775C3.41855 12.6492 3.35304 12.71 3.27759 12.7561C3.20213 12.8023 3.11824 12.833 3.03081 12.8463C2.94337 12.8597 2.85415 12.8556 2.76833 12.8341C2.68252 12.8127 2.60184 12.7744 2.53099 12.7214C2.46015 12.6684 2.40056 12.6019 2.3557 12.5257C2.31084 12.4494 2.28162 12.365 2.26972 12.2774C2.25783 12.1897 2.26351 12.1006 2.28643 12.0151L2.95268 9.35014C2.97392 9.26523 3.01169 9.18534 3.06382 9.11504C3.11595 9.04473 3.18142 8.98472 3.25649 8.93973Z" fill="#4F5762"/>
</svg>
