<svg width="17" height="17" viewBox="0 0 17 17" fill="none" xmlns="http://www.w3.org/2000/svg">
<path d="M4.50595 2.50391C5.03605 2.50391 5.54444 2.71457 5.91928 3.08956C6.29412 3.46455 6.5047 3.97314 6.5047 4.50346C6.5047 5.03377 6.29412 5.54237 5.91928 5.91736C5.54444 6.29235 5.03605 6.50301 4.50595 6.50301C3.97585 6.50301 3.46746 6.29235 3.09262 5.91736C2.71779 5.54237 2.5072 5.03377 2.5072 4.50346C2.5072 3.97314 2.71779 3.46455 3.09262 3.08956C3.46746 2.71457 3.97585 2.50391 4.50595 2.50391ZM13.7002 2.50391C14.2303 2.50391 14.7387 2.71457 15.1135 3.08956C15.4884 3.46455 15.699 3.97314 15.699 4.50346C15.699 5.03377 15.4884 5.54237 15.1135 5.91736C14.7387 6.29235 14.2303 6.50301 13.7002 6.50301C13.1701 6.50301 12.6617 6.29235 12.2869 5.91736C11.912 5.54237 11.7015 5.03377 11.7015 4.50346C11.7015 3.97314 11.912 3.46455 12.2869 3.08956C12.6617 2.71457 13.1701 2.50391 13.7002 2.50391ZM0.908203 9.96974C0.908203 8.49757 2.10246 7.30283 3.57404 7.30283H4.64087C5.03812 7.30283 5.41538 7.39031 5.75517 7.54528C5.72269 7.72524 5.7077 7.9127 5.7077 8.10265C5.7077 9.05744 6.12744 9.91475 6.78952 10.5021C6.78453 10.5021 6.77953 10.5021 6.77204 10.5021H1.44037C1.14805 10.5021 0.908203 10.2622 0.908203 9.96974ZM11.0344 10.5021C11.0294 10.5021 11.0244 10.5021 11.0169 10.5021C11.6815 9.91475 12.0987 9.05744 12.0987 8.10265C12.0987 7.9127 12.0812 7.72774 12.0512 7.54528C12.391 7.38781 12.7683 7.30283 13.1655 7.30283H14.2324C15.7039 7.30283 16.8982 8.49757 16.8982 9.96974C16.8982 10.2647 16.6584 10.5021 16.366 10.5021H11.0344ZM6.5047 8.10265C6.5047 7.46628 6.7574 6.85596 7.20721 6.40598C7.65701 5.95599 8.26708 5.70319 8.9032 5.70319C9.53932 5.70319 10.1494 5.95599 10.5992 6.40598C11.049 6.85596 11.3017 7.46628 11.3017 8.10265C11.3017 8.73903 11.049 9.34935 10.5992 9.79933C10.1494 10.2493 9.53932 10.5021 8.9032 10.5021C8.26708 10.5021 7.65701 10.2493 7.20721 9.79933C6.7574 9.34935 6.5047 8.73903 6.5047 8.10265ZM4.1062 14.6337C4.1062 12.7941 5.59777 11.3019 7.43662 11.3019H10.3698C12.2086 11.3019 13.7002 12.7941 13.7002 14.6337C13.7002 15.0011 13.4029 15.301 13.0331 15.301H4.77329C4.40602 15.301 4.1062 15.0036 4.1062 14.6337Z" fill="#3FB1B2"/>
</svg>
