<svg width="15" height="15" viewBox="0 0 15 15" fill="none" xmlns="http://www.w3.org/2000/svg">
<g id="cu3-icon-userGroup" clip-path="url(#clip0_6616_37249)">
<path id="Vector" fill-rule="evenodd" clip-rule="evenodd" d="M4.91346 4.73962C5.14945 4.42275 5.43953 4.15003 5.77035 3.93403C5.34918 3.5594 4.80092 3.35963 4.23747 3.37548C3.67402 3.39134 3.13786 3.62163 2.73843 4.01935C2.339 4.41707 2.10641 4.95224 2.08813 5.51562C2.06985 6.07899 2.26727 6.62811 2.64009 7.05088C2.14961 7.31249 1.72889 7.68771 1.4131 8.14517C1.0973 8.60264 0.895612 9.12906 0.824885 9.68042C0.80556 9.83386 0.847981 9.98869 0.942814 10.1109C1.03765 10.233 1.17713 10.3125 1.33057 10.3318C1.484 10.3512 1.63884 10.3087 1.761 10.2139C1.88316 10.1191 1.96265 9.97959 1.98197 9.82615C2.12479 8.68829 3.10584 7.8011 4.30082 7.8011C4.34395 7.8011 4.38534 7.79643 4.42556 7.78769C4.3019 7.41607 4.24467 7.02557 4.25652 6.6341C4.09336 6.62738 3.93404 6.5826 3.79129 6.50333C3.64853 6.42405 3.5263 6.31248 3.43435 6.17754C3.34241 6.04259 3.28331 5.88801 3.26177 5.72615C3.24024 5.56428 3.25686 5.39962 3.31032 5.24533C3.36377 5.09104 3.45258 4.95139 3.56964 4.83755C3.6867 4.7237 3.82877 4.63882 3.98449 4.58967C4.14021 4.54053 4.30527 4.5285 4.46647 4.55454C4.62767 4.58057 4.78113 4.64395 4.91346 4.73962ZM9.41533 3.93403C9.74584 4.1497 10.0361 4.42309 10.2722 4.73903C10.4045 4.64341 10.5573 4.58006 10.7185 4.55402C10.8796 4.52798 11.0446 4.53998 11.2003 4.58907C11.356 4.63816 11.498 4.72297 11.6151 4.83673C11.7322 4.95049 11.821 5.09005 11.8745 5.24426C11.928 5.39847 11.9448 5.56306 11.9233 5.72488C11.9019 5.8867 11.843 6.04128 11.7512 6.17626C11.6594 6.31124 11.5373 6.42288 11.3947 6.50227C11.252 6.58167 11.0928 6.62661 10.9297 6.63351L10.9303 6.73028C10.9308 7.08965 10.8731 7.44672 10.7595 7.78769C10.8003 7.79643 10.8411 7.8011 10.8843 7.8011C12.0793 7.8011 13.0609 8.68829 13.2037 9.82615C13.2255 9.97741 13.3058 10.1141 13.4273 10.2067C13.5489 10.2993 13.7019 10.3405 13.8535 10.3214C14.0052 10.3023 14.1432 10.2244 14.238 10.1045C14.3327 9.98466 14.3766 9.83235 14.3602 9.68042C14.2896 9.12901 14.0881 8.60251 13.7724 8.14494C13.4567 7.68737 13.036 7.31203 12.5456 7.0503C12.9184 6.62753 13.1158 6.07841 13.0975 5.51503C13.0793 4.95166 12.8467 4.41649 12.4472 4.01877C12.0478 3.62105 11.5117 3.39076 10.9482 3.3749C10.3848 3.35904 9.8365 3.55882 9.41533 3.93344V3.93403ZM6.29439 6.73028C6.29439 6.38606 6.43113 6.05595 6.67453 5.81255C6.91792 5.56915 7.24804 5.43241 7.59226 5.43241C7.93647 5.43241 8.26659 5.56915 8.50998 5.81255C8.75338 6.05595 8.89012 6.38606 8.89012 6.73028C8.89012 7.07449 8.75338 7.40461 8.50998 7.64801C8.26659 7.8914 7.93647 8.02814 7.59226 8.02814C7.24804 8.02814 6.91792 7.8914 6.67453 7.64801C6.43113 7.40461 6.29439 7.07449 6.29439 6.73028ZM10.056 6.73028C10.0567 7.3699 9.80783 7.98456 9.36228 8.44347C9.94176 8.73093 10.4413 9.15697 10.8166 9.68381C11.192 10.2106 11.4314 10.822 11.5138 11.4636C11.5249 11.5402 11.5205 11.6182 11.5011 11.6932C11.4816 11.7681 11.4474 11.8384 11.4005 11.9C11.3535 11.9615 11.2948 12.0131 11.2277 12.0518C11.1607 12.0904 11.0865 12.1153 11.0097 12.125C10.9329 12.1346 10.855 12.1289 10.7804 12.1081C10.7058 12.0874 10.6361 12.0519 10.5754 12.0039C10.5147 11.9559 10.4641 11.8963 10.4267 11.8286C10.3892 11.7608 10.3656 11.6863 10.3573 11.6093C10.1865 10.2511 9.01661 9.19427 7.59196 9.19427C6.1679 9.19427 4.99798 10.2511 4.82719 11.6093C4.81887 11.6863 4.7953 11.7608 4.75786 11.8286C4.72042 11.8963 4.66985 11.9559 4.60912 12.0039C4.54838 12.0519 4.4787 12.0874 4.40412 12.1081C4.32955 12.1289 4.25158 12.1346 4.17478 12.125C4.09797 12.1153 4.02386 12.0904 3.95677 12.0518C3.88968 12.0131 3.83096 11.9615 3.78404 11.9C3.73711 11.8384 3.70292 11.7681 3.68346 11.6932C3.66399 11.6182 3.65965 11.5402 3.67068 11.4636C3.75301 10.822 3.9924 10.2107 4.36762 9.68391C4.74284 9.15708 5.24228 8.731 5.82165 8.44347C5.54127 8.15351 5.33637 7.79913 5.22497 7.41147C5.11356 7.02381 5.09905 6.61473 5.18271 6.22015C5.26637 5.82557 5.44563 5.45757 5.70477 5.14847C5.9639 4.83937 6.29496 4.59863 6.66889 4.44739C7.04281 4.29616 7.44815 4.23905 7.8493 4.28109C8.25046 4.32313 8.63515 4.46303 8.96959 4.6885C9.30404 4.91398 9.578 5.21813 9.76742 5.57423C9.95684 5.93034 10.0559 6.32693 10.056 6.73028Z" fill="#BC5F1C"/>
</g>
<defs>
<clipPath id="clip0_6616_37249">
<rect width="13.99" height="13.99" fill="white" transform="translate(0.599609 0.460938)"/>
</clipPath>
</defs>
</svg>
