<svg width="17" height="17" viewBox="0 0 17 17" fill="none" xmlns="http://www.w3.org/2000/svg">
<path fill-rule="evenodd" clip-rule="evenodd" d="M8.90274 3.4575C7.91238 3.45747 6.9416 3.73336 6.09929 4.25423C5.25697 4.7751 4.57643 5.52035 4.134 6.40638C3.69158 7.29242 3.50475 8.2842 3.59449 9.27048C3.68424 10.2568 4.04699 11.1985 4.64207 11.9902C5.09765 11.0182 5.87242 10.2317 6.83736 9.76156C6.43092 9.35343 6.15451 8.83403 6.04302 8.26894C5.93153 7.70385 5.98996 7.11839 6.21093 6.58648C6.4319 6.05456 6.80551 5.60004 7.28459 5.28029C7.76367 4.96053 8.32675 4.78989 8.90274 4.78989C9.47872 4.78989 10.0418 4.96053 10.5209 5.28029C11 5.60004 11.3736 6.05456 11.5945 6.58648C11.8155 7.11839 11.8739 7.70385 11.7625 8.26894C11.651 8.83403 11.3746 9.35343 10.9681 9.76156C11.9331 10.2317 12.7078 11.0182 13.1634 11.9902C13.7585 11.1985 14.1212 10.2568 14.211 9.27048C14.3007 8.2842 14.1139 7.29242 13.6715 6.40638C13.229 5.52035 12.5485 4.7751 11.7062 4.25423C10.8639 3.73336 9.89309 3.45747 8.90274 3.4575ZM12.1341 13.0268C11.9281 12.3302 11.5018 11.7191 10.9193 11.2851C10.3367 10.8512 9.62918 10.6177 8.90274 10.6197C8.17629 10.6177 7.46877 10.8512 6.8862 11.2851C6.30363 11.7191 5.87741 12.3302 5.67143 13.0268C6.59907 13.7363 7.73493 14.1196 8.90274 14.1175C10.0705 14.1196 11.2064 13.7363 12.1341 13.0268ZM2.24024 8.7875C2.24024 5.1078 5.22304 2.125 8.90274 2.125C12.5824 2.125 15.5652 5.1078 15.5652 8.7875C15.5662 9.73135 15.3662 10.6646 14.9785 11.5251C14.5908 12.3857 14.0243 13.1538 13.3166 13.7784C12.0997 14.8574 10.5291 15.4522 8.90274 15.45C7.27636 15.4522 5.70575 14.8574 4.48883 13.7784C3.78121 13.1538 3.2147 12.3857 2.82699 11.5251C2.43928 10.6646 2.23926 9.73135 2.24024 8.7875ZM8.90274 6.1225C8.48307 6.1225 8.0806 6.28921 7.78385 6.58596C7.4871 6.8827 7.32039 7.28518 7.32039 7.70484C7.32039 8.12451 7.4871 8.52698 7.78385 8.82373C8.0806 9.12048 8.48307 9.28719 8.90274 9.28719C9.3224 9.28719 9.72488 9.12048 10.0216 8.82373C10.3184 8.52698 10.4851 8.12451 10.4851 7.70484C10.4851 7.28518 10.3184 6.8827 10.0216 6.58596C9.72488 6.28921 9.3224 6.1225 8.90274 6.1225Z" fill="#808080"/>
</svg>
