<svg width="17" height="17" viewBox="0 0 17 17" fill="none" xmlns="http://www.w3.org/2000/svg">
<g id="cu3-icon-userAdd" clip-path="url(#clip0_6893_28481)">
<path id="Vector" fill-rule="evenodd" clip-rule="evenodd" d="M6.90471 4.73776C6.64466 4.73297 6.38626 4.78004 6.14461 4.87624C5.90296 4.97244 5.6829 5.11583 5.4973 5.29804C5.3117 5.48025 5.16427 5.69763 5.06363 5.93746C4.96299 6.17729 4.91115 6.43478 4.91115 6.69487C4.91115 6.95497 4.96299 7.21245 5.06363 7.45229C5.16427 7.69212 5.3117 7.90949 5.4973 8.0917C5.6829 8.27391 5.90296 8.41731 6.14461 8.51351C6.38626 8.6097 6.64466 8.65678 6.90471 8.65198C7.41751 8.64252 7.90611 8.43217 8.26542 8.06617C8.62473 7.70017 8.82604 7.20776 8.82604 6.69487C8.82604 6.18198 8.62473 5.68958 8.26542 5.32358C7.90611 4.95758 7.41751 4.74723 6.90471 4.73776ZM9.12065 9.12635C9.611 8.67935 9.95469 8.09451 10.1066 7.44863C10.2585 6.80275 10.2116 6.12602 9.97187 5.50732C9.73219 4.88861 9.31099 4.35686 8.7636 3.98189C8.21621 3.60691 7.56821 3.40625 6.90471 3.40625C6.2412 3.40625 5.5932 3.60691 5.04581 3.98189C4.49842 4.35686 4.07722 4.88861 3.83754 5.50732C3.59786 6.12602 3.55089 6.80275 3.7028 7.44863C3.85472 8.09451 4.19841 8.67935 4.68876 9.12635C3.02646 9.87588 1.81522 11.4436 1.58004 13.3157C1.56126 13.4894 1.61143 13.6635 1.71974 13.8005C1.82805 13.9375 1.98583 14.0265 2.15913 14.0484C2.33242 14.0702 2.50736 14.0231 2.64628 13.9172C2.7852 13.8114 2.87699 13.6552 2.90188 13.4823C3.14905 11.5149 4.84399 9.98448 6.90471 9.98448C8.96542 9.98448 10.6604 11.5149 10.9075 13.4823C10.917 13.5703 10.944 13.6555 10.9868 13.7329C11.0296 13.8103 11.0874 13.8785 11.1568 13.9334C11.2262 13.9882 11.3058 14.0287 11.3911 14.0525C11.4763 14.0762 11.5654 14.0828 11.6532 14.0717C11.741 14.0606 11.8257 14.0322 11.9024 13.988C11.9791 13.9439 12.0462 13.8849 12.0998 13.8145C12.1535 13.7442 12.1925 13.6638 12.2148 13.5782C12.237 13.4925 12.242 13.4033 12.2294 13.3157C11.9942 11.4436 10.7836 9.87588 9.12065 9.12635ZM13.5672 5.40401C13.7439 5.40401 13.9134 5.47421 14.0383 5.59915C14.1633 5.7241 14.2335 5.89356 14.2335 6.07026V7.40276H15.566C15.7427 7.40276 15.9121 7.47296 16.0371 7.5979C16.162 7.72285 16.2322 7.89231 16.2322 8.06901C16.2322 8.24571 16.162 8.41518 16.0371 8.54012C15.9121 8.66507 15.7427 8.73526 15.566 8.73526H14.2335V10.0678C14.2335 10.2445 14.1633 10.4139 14.0383 10.5389C13.9134 10.6638 13.7439 10.734 13.5672 10.734C13.3905 10.734 13.221 10.6638 13.0961 10.5389C12.9711 10.4139 12.901 10.2445 12.901 10.0678V8.73526H11.5685C11.3918 8.73526 11.2223 8.66507 11.0973 8.54012C10.9724 8.41518 10.9022 8.24571 10.9022 8.06901C10.9022 7.89231 10.9724 7.72285 11.0973 7.5979C11.2223 7.47296 11.3918 7.40276 11.5685 7.40276H12.901V6.07026C12.901 5.89356 12.9711 5.7241 13.0961 5.59915C13.221 5.47421 13.3905 5.40401 13.5672 5.40401Z" fill="#808080"/>
</g>
<defs>
<clipPath id="clip0_6893_28481">
<rect width="15.99" height="15.99" fill="white" transform="translate(0.908203 0.742188)"/>
</clipPath>
</defs>
</svg>
