<svg width="15" height="15" viewBox="0 0 15 15" fill="none" xmlns="http://www.w3.org/2000/svg">
<path fill-rule="evenodd" clip-rule="evenodd" d="M7.4444 3.1424C6.57792 3.14237 5.72857 3.38375 4.99161 3.83947C4.25464 4.29519 3.65923 4.94723 3.27214 5.72244C2.88504 6.49765 2.72159 7.36538 2.80011 8.2283C2.87862 9.09122 3.196 9.91519 3.71665 10.6078C4.11525 9.75746 4.79311 9.06931 5.63736 8.65795C5.28176 8.30087 5.03992 7.84644 4.94238 7.35203C4.84483 6.85762 4.89595 6.34539 5.08928 5.88001C5.28262 5.41462 5.6095 5.01695 6.02865 4.73719C6.44781 4.45743 6.94046 4.30813 7.4444 4.30813C7.94835 4.30813 8.44099 4.45743 8.86015 4.73719C9.27931 5.01695 9.60619 5.41462 9.79952 5.88001C9.99286 6.34539 10.044 6.85762 9.94643 7.35203C9.84889 7.84644 9.60705 8.30087 9.25145 8.65795C10.0957 9.06931 10.7736 9.75746 11.1722 10.6078C11.6928 9.91519 12.0102 9.09122 12.0887 8.2283C12.1672 7.36538 12.0038 6.49765 11.6167 5.72244C11.2296 4.94723 10.6342 4.29519 9.8972 3.83947C9.16024 3.38375 8.31089 3.14237 7.4444 3.1424ZM10.2715 11.5148C10.0913 10.9053 9.71842 10.3707 9.20872 9.99096C8.69902 9.61126 8.07998 9.40699 7.4444 9.40875C6.80882 9.40699 6.18979 9.61126 5.68009 9.99096C5.17039 10.3707 4.79748 10.9053 4.61726 11.5148C5.42887 12.1355 6.42266 12.4709 7.4444 12.4691C8.46614 12.4709 9.45993 12.1355 10.2715 11.5148ZM1.61524 7.80573C1.61524 4.58628 4.22496 1.97656 7.4444 1.97656C10.6639 1.97656 13.2736 4.58628 13.2736 7.80573C13.2744 8.63152 13.0994 9.44803 12.7602 10.2009C12.421 10.9538 11.9253 11.6259 11.3062 12.1724C10.2415 13.1164 8.86735 13.6368 7.4444 13.6349C6.02145 13.6368 4.64729 13.1164 3.58258 12.1724C2.96347 11.6259 2.46782 10.9538 2.1286 10.2009C1.78939 9.44803 1.61439 8.63152 1.61524 7.80573ZM7.4444 5.47406C7.07723 5.47406 6.7251 5.61992 6.46547 5.87955C6.20584 6.13918 6.05998 6.49132 6.05998 6.85849C6.05998 7.22566 6.20584 7.5778 6.46547 7.83743C6.7251 8.09706 7.07723 8.24292 7.4444 8.24292C7.81158 8.24292 8.16371 8.09706 8.42334 7.83743C8.68297 7.5778 8.82883 7.22566 8.82883 6.85849C8.82883 6.49132 8.68297 6.13918 8.42334 5.87955C8.16371 5.61992 7.81158 5.47406 7.4444 5.47406Z" fill="#3F5BD6"/>
</svg>
