<svg width="15" height="15" viewBox="0 0 15 15" fill="none" xmlns="http://www.w3.org/2000/svg">
<g clip-path="url(#clip0_6616_36711)">
<path fill-rule="evenodd" clip-rule="evenodd" d="M5.78214 3.66771C7.04678 3.96565 8.20361 4.60947 9.12331 5.52718C10.041 6.44689 10.6848 7.60372 10.9828 8.86835C11.0989 9.35456 11.1465 9.7722 11.1647 10.0716C11.1743 10.2323 11.1767 10.3934 11.1717 10.5543V10.5676C11.1717 10.5676 11.1717 10.569 10.7058 10.5389L11.171 10.5683C11.158 10.6877 11.0995 10.7974 11.0077 10.8747C10.9159 10.9521 10.7978 10.991 10.678 10.9836C10.5582 10.9761 10.4459 10.9227 10.3644 10.8346C10.283 10.7464 10.2386 10.6303 10.2405 10.5103V10.4921L10.2419 10.42C10.2424 10.3227 10.2396 10.2254 10.2335 10.1283C10.211 9.77692 10.1581 9.42816 10.0754 9.08592C9.81769 7.98869 9.25958 6.98487 8.46361 6.18688C7.66569 5.39069 6.66187 4.83234 5.56458 4.57436C5.22233 4.49173 4.87357 4.43883 4.52221 4.41626C4.4011 4.40888 4.27973 4.40654 4.15843 4.40926H4.14094C4.02076 4.41165 3.90429 4.36757 3.81581 4.2862C3.72732 4.20484 3.67366 4.09246 3.66599 3.9725C3.65832 3.85254 3.69725 3.73424 3.77465 3.64227C3.85206 3.5503 3.96197 3.49175 4.08148 3.47883H4.08707L4.09547 3.47813C4.13833 3.47561 4.18126 3.47444 4.22419 3.47463C4.30954 3.47463 4.42987 3.47603 4.57957 3.48512C4.87829 3.50331 5.29594 3.55158 5.78214 3.66771Z" fill="#544DC9"/>
<path fill-rule="evenodd" clip-rule="evenodd" d="M7.71068 10.5588C7.71001 10.6805 7.75697 10.7977 7.84154 10.8854C7.92611 10.973 8.04158 11.0241 8.1633 11.0277C8.28502 11.0314 8.40334 10.9873 8.49301 10.9049C8.58268 10.8225 8.63658 10.7083 8.64322 10.5867V10.4888C8.64099 10.412 8.63633 10.3352 8.62922 10.2586C8.60544 9.99886 8.56028 9.74148 8.49421 9.48911C8.28853 8.68427 7.8714 7.94904 7.28604 7.35961C6.70435 6.77797 5.97516 6.36584 5.17682 6.16753C4.92897 6.10489 4.67619 6.0637 4.42128 6.04441C4.32397 6.03737 4.22641 6.03457 4.12886 6.03601H4.10227L4.10018 6.03671H4.09878C3.9771 6.04549 3.863 6.10157 3.78216 6.19295C3.70133 6.28432 3.6595 6.40372 3.66563 6.52556C3.67176 6.6474 3.72536 6.762 3.81495 6.8448C3.90455 6.9276 4.023 6.97202 4.14495 6.96855H4.15194L4.18972 6.96785C4.44603 6.97508 4.70079 7.01027 4.94946 7.07278C5.43916 7.19521 6.06528 7.45755 6.62634 8.01931C7.09447 8.4913 7.4278 9.07994 7.59176 9.72417C7.65682 9.97602 7.6869 10.1922 7.70019 10.3419C7.70636 10.4117 7.70986 10.4817 7.71068 10.5518V10.5588Z" fill="#544DC9"/>
<path opacity="0.12" d="M1.08105 11.4205C1.08105 10.8639 1.30217 10.3301 1.69576 9.93648C2.08934 9.54289 2.62316 9.32178 3.17978 9.32178C3.7364 9.32178 4.27022 9.54289 4.6638 9.93648C5.05739 10.3301 5.2785 10.8639 5.2785 11.4205C5.2785 11.9771 5.05739 12.5109 4.6638 12.9045C4.27022 13.2981 3.7364 13.5192 3.17978 13.5192C2.62316 13.5192 2.08934 13.2981 1.69576 12.9045C1.30217 12.5109 1.08105 11.9771 1.08105 11.4205Z" fill="#544DC9"/>
<path fill-rule="evenodd" clip-rule="evenodd" d="M0.614608 11.4202C0.608986 11.0798 0.671171 10.7417 0.797536 10.4256C0.923902 10.1096 1.11192 9.82177 1.35063 9.57909C1.58935 9.3364 1.87398 9.14365 2.18794 9.01208C2.5019 8.88052 2.83891 8.81276 3.17932 8.81276C3.51974 8.81276 3.85675 8.88052 4.17071 9.01208C4.48467 9.14365 4.7693 9.3364 5.00801 9.57909C5.24673 9.82177 5.43475 10.1096 5.56111 10.4256C5.68748 10.7417 5.74966 11.0798 5.74404 11.4202C5.73293 12.0931 5.45783 12.7346 4.97806 13.2065C4.49829 13.6784 3.85229 13.9429 3.17932 13.9429C2.50636 13.9429 1.86036 13.6784 1.38059 13.2065C0.900818 12.7346 0.62572 12.0931 0.614608 11.4202ZM3.17967 9.78825C2.74686 9.78825 2.33177 9.96018 2.02572 10.2662C1.71968 10.5723 1.54774 10.9874 1.54774 11.4202C1.54774 11.853 1.71968 12.2681 2.02572 12.5741C2.33177 12.8802 2.74686 13.0521 3.17967 13.0521C3.61249 13.0521 4.02758 12.8802 4.33363 12.5741C4.63967 12.2681 4.81161 11.853 4.81161 11.4202C4.81161 10.9874 4.63967 10.5723 4.33363 10.2662C4.02758 9.96018 3.61249 9.78825 3.17967 9.78825ZM12.59 10.4388V10.4381V10.4332L12.5928 10.408L12.5998 10.3003C12.604 10.2038 12.6075 10.059 12.604 9.87568C12.593 9.37469 12.5377 8.87564 12.439 8.38435C12.1969 7.17422 11.6233 5.64301 10.2999 4.31956C8.97573 2.9954 7.44453 2.42181 6.23439 2.17979C5.74287 2.08099 5.24359 2.02575 4.74236 2.0147C4.55641 2.01119 4.37039 2.01586 4.18486 2.02869H4.18066C4.05974 2.03772 3.94005 1.9993 3.84696 1.9216C3.75387 1.84389 3.69469 1.733 3.68196 1.61241C3.66923 1.49182 3.70395 1.37101 3.77876 1.27558C3.85356 1.18015 3.96259 1.11759 4.08273 1.10116H4.08972L4.10022 1.09976C4.1579 1.09397 4.21576 1.09 4.27369 1.08787C4.38981 1.08227 4.55489 1.07807 4.76124 1.08227C5.17325 1.08997 5.74964 1.13124 6.41766 1.26554C7.75371 1.53275 9.47098 2.17139 10.9595 3.65993C12.4474 5.14846 13.086 6.86504 13.3539 8.20108C13.4868 8.8698 13.5288 9.44619 13.5372 9.8582C13.5411 10.0785 13.535 10.2988 13.519 10.5185L13.5183 10.5297V10.5346L13.0538 10.4863L13.5176 10.5353C13.5008 10.655 13.4382 10.7636 13.343 10.838C13.2479 10.9125 13.1275 10.9472 13.0072 10.9347C12.887 10.9221 12.7763 10.8635 12.6985 10.771C12.6207 10.6785 12.5818 10.5594 12.59 10.4388Z" fill="#544DC9"/>
</g>
<defs>
<clipPath id="clip0_6616_36711">
<rect width="13.99" height="13.99" fill="white" transform="translate(0.149414 0.460938)"/>
</clipPath>
</defs>
</svg>
