<svg width="17" height="17" viewBox="0 0 17 17" fill="none" xmlns="http://www.w3.org/2000/svg">
<path d="M11.702 2.42676H6.10593C5.44389 2.42676 4.90426 2.97142 4.92925 3.63101C4.93424 3.76343 4.93924 3.89585 4.94673 4.02577H2.30857C1.9763 4.02577 1.70898 4.29311 1.70898 4.6254C1.70898 6.93897 2.5459 8.54798 3.67012 9.6398C4.77685 10.7166 6.12592 11.2588 7.12022 11.5336C7.70482 11.696 8.10454 12.1832 8.10454 12.6729C8.10454 13.1951 7.67984 13.6198 7.1577 13.6198H6.50565C6.06346 13.6198 5.70621 13.9771 5.70621 14.4194C5.70621 14.8616 6.06346 15.2189 6.50565 15.2189H11.3023C11.7445 15.2189 12.1018 14.8616 12.1018 14.4194C12.1018 13.9771 11.7445 13.6198 11.3023 13.6198H10.6503C10.1281 13.6198 9.70343 13.1951 9.70343 12.6729C9.70343 12.1832 10.1007 11.6935 10.6877 11.5336C11.6846 11.2588 13.0336 10.7166 14.1403 9.6398C15.2621 8.54798 16.099 6.93897 16.099 4.6254C16.099 4.29311 15.8317 4.02577 15.4994 4.02577H12.8612C12.8687 3.89585 12.8737 3.76593 12.8787 3.63101C12.9037 2.97142 12.3641 2.42676 11.702 2.42676ZM2.93064 5.22503H5.03917C5.26651 7.47614 5.76866 8.98021 6.33577 9.98709C5.7137 9.71226 5.06665 9.325 4.50704 8.78033C3.7076 8.00331 3.05805 6.88151 2.93313 5.22503H2.93064ZM13.3034 8.78033C12.7438 9.325 12.0968 9.71226 11.4747 9.98709C12.0418 8.98021 12.544 7.47614 12.7713 5.22503H14.8798C14.7524 6.88151 14.1029 8.00331 13.3059 8.78033H13.3034Z" fill="#8077F1"/>
</svg>
