<svg width="17" height="17" viewBox="0 0 17 17" fill="none" xmlns="http://www.w3.org/2000/svg">
<path d="M4.1063 3.67764C3.93667 3.67764 3.77398 3.74502 3.65403 3.86497C3.53409 3.98492 3.4667 4.1476 3.4667 4.31724V4.95684H6.6647C6.83433 4.95684 6.99702 5.02422 7.11697 5.14417C7.23691 5.26412 7.3043 5.42681 7.3043 5.59644C7.3043 5.76607 7.23691 5.92875 7.11697 6.0487C6.99702 6.16865 6.83433 6.23604 6.6647 6.23604H3.4667V7.51524H6.6647C6.83433 7.51524 6.99702 7.58262 7.11697 7.70257C7.23691 7.82252 7.3043 7.9852 7.3043 8.15484C7.3043 8.32447 7.23691 8.48715 7.11697 8.6071C6.99702 8.72705 6.83433 8.79444 6.6647 8.79444H3.4667V14.5508C3.4667 14.7205 3.39931 14.8832 3.27937 15.0031C3.15942 15.1231 2.99673 15.1904 2.8271 15.1904C2.65747 15.1904 2.49478 15.1231 2.37483 15.0031C2.25489 14.8832 2.1875 14.7205 2.1875 14.5508V4.31724C2.1875 3.80834 2.38966 3.32029 2.7495 2.96044C3.10935 2.6006 3.5974 2.39844 4.1063 2.39844H7.9439C8.4528 2.39844 8.94085 2.6006 9.3007 2.96044C9.66054 3.32029 9.8627 3.80834 9.8627 4.31724V6.23604H13.0607C13.5696 6.23604 14.0577 6.4382 14.4175 6.79804C14.7773 7.15789 14.9795 7.64594 14.9795 8.15484V14.5508C14.9795 14.7205 14.9121 14.8832 14.7922 15.0031C14.6722 15.1231 14.5095 15.1904 14.3399 15.1904C14.1703 15.1904 14.0076 15.1231 13.8876 15.0031C13.7677 14.8832 13.7003 14.7205 13.7003 14.5508V8.15484C13.7003 7.9852 13.6329 7.82252 13.513 7.70257C13.393 7.58262 13.2303 7.51524 13.0607 7.51524H9.8627V8.79444H11.7815C11.9511 8.79444 12.1138 8.86182 12.2338 8.98177C12.3537 9.10172 12.4211 9.2644 12.4211 9.43404C12.4211 9.60367 12.3537 9.76635 12.2338 9.8863C12.1138 10.0063 11.9511 10.0736 11.7815 10.0736H9.8627V11.3528H11.7815C11.9511 11.3528 12.1138 11.4202 12.2338 11.5402C12.3537 11.6601 12.4211 11.8228 12.4211 11.9924C12.4211 12.1621 12.3537 12.3248 12.2338 12.4447C12.1138 12.5647 11.9511 12.632 11.7815 12.632H9.8627V14.5508C9.8627 14.7205 9.79531 14.8832 9.67537 15.0031C9.55542 15.1231 9.39273 15.1904 9.2231 15.1904C9.05347 15.1904 8.89078 15.1231 8.77083 15.0031C8.65089 14.8832 8.5835 14.7205 8.5835 14.5508V4.31724C8.5835 4.1476 8.51611 3.98492 8.39617 3.86497C8.27622 3.74502 8.11353 3.67764 7.9439 3.67764H4.1063Z" fill="#808080"/>
</svg>
