<svg width="81" height="28" viewBox="0 0 81 28" fill="none" xmlns="http://www.w3.org/2000/svg">
<g id="wrike.dbfee22a562ee93cd22a48663ef9e7f7.svg" clip-path="url(#clip0_6893_29476)">
<g id="Group">
<path id="Vector" d="M7.06306 26.7197L0.0537109 5.71967H4.8279L9.12227 19.8183L13.8325 5.67969H17.1752L21.9174 19.8183L26.2118 5.73966H30.894L23.8567 26.7397H20.0661L15.5039 12.809L10.8496 26.7197H7.06306ZM31.1699 26.7197V11.8214H35.3723V15.1001C36.6718 11.2576 41.0422 11.8294 41.0422 11.8294V15.9438C41.0422 15.9438 35.3723 15.5439 35.3723 20.1302V26.7037L31.1699 26.7197ZM43.0094 26.7197V17.5552L47.2118 13.5407V26.7197H43.0094ZM50.7425 26.7197V10.2859L54.9449 6.08753V17.2833L60.075 11.8214H65.229L58.7555 18.5308L66.2446 26.7037H60.8307L54.9529 20.3061V26.7037L50.7425 26.7197Z" fill="#647883"/>
<path id="Vector_2" d="M67.7164 24.7774C66.157 23.3659 65.3613 21.4786 65.3613 19.1555C65.3333 18.1475 65.5063 17.144 65.8701 16.2035C66.234 15.263 66.7814 14.4043 67.4805 13.6776C68.896 12.1781 70.7513 11.4424 73.0184 11.4424C73.984 11.4042 74.9453 11.5888 75.828 11.982C76.7107 12.3751 77.491 12.9663 78.1085 13.7096C79.3971 15.2499 80.0782 17.208 80.0238 19.2155V20.3031H69.4838C69.9236 22.3023 71.8109 23.3659 74.4019 23.3659C76.0586 23.3559 77.6833 22.9091 79.1121 22.0704V25.4091C77.7846 26.4088 75.9133 26.9086 73.5142 26.9086C71.3798 26.968 69.3042 26.205 67.7164 24.7774ZM75.9293 17.6521C75.9237 17.2546 75.8388 16.8623 75.6797 16.4981C75.5205 16.1339 75.2902 15.8051 75.0024 15.5311C74.7145 15.257 74.3749 15.0431 74.0033 14.902C73.6317 14.7609 73.2357 14.6953 72.8385 14.7092C72.0061 14.666 71.1898 14.9494 70.5632 15.499C69.9366 16.0487 69.5493 16.8212 69.4838 17.6521H75.9293Z" fill="#647883"/>
<path id="Vector_3" d="M51.5578 0.734375L42.1533 10.1388L44.9483 12.9338L57.1476 0.734375H51.5578Z" fill="#00A651"/>
<path id="Vector_4" d="M43.2696 5.66406H37.6797L44.9489 12.9333L47.7439 10.1384L43.2696 5.66406Z" fill="#A6CE39"/>
</g>
</g>
<defs>
<clipPath id="clip0_6893_29476">
<rect width="79.9697" height="26.39" fill="white" transform="translate(0.0537109 0.625)"/>
</clipPath>
</defs>
</svg>
